0
SECTION
2
HEADER
9
$INSUNITS
70
4
0
ENDSEC
0
SECTION
2
TABLES
0
TABLE
2
LTYPE
0
LTYPE
72
65
70
64
2
CONTINUOUS
3
______
73
0
40
0
0
ENDTAB
0
TABLE
2
LAYER
0
ENDTAB
0
ENDSEC
0
SECTION
2
ENTITIES
0
LINE
8
0
10
-7
20
-7
11
7
21
-7
0
LINE
8
0
10
7
20
-7
11
7
21
7
0
LINE
8
0
10
7
20
7
11
-7
21
7
0
LINE
8
0
10
-7
20
7
11
-7
21
-7
0
LINE
8
0
10
-7
20
10
11
7
21
10
0
LINE
8
0
10
7
20
10
11
7
21
24
0
LINE
8
0
10
7
20
24
11
-7
21
24
0
LINE
8
0
10
-7
20
24
11
-7
21
10
0
LINE
8
0
10
-7
20
27
11
7
21
27
0
LINE
8
0
10
7
20
27
11
7
21
41
0
LINE
8
0
10
7
20
41
11
-7
21
41
0
LINE
8
0
10
-7
20
41
11
-7
21
27
0
LINE
8
0
10
11
20
-7
11
25
21
-7
0
LINE
8
0
10
25
20
-7
11
25
21
7
0
LINE
8
0
10
25
20
7
11
11
21
7
0
LINE
8
0
10
11
20
7
11
11
21
-7
0
LINE
8
0
10
11
20
10
11
25
21
10
0
LINE
8
0
10
25
20
10
11
25
21
24
0
LINE
8
0
10
25
20
24
11
11
21
24
0
LINE
8
0
10
11
20
24
11
11
21
10
0
LINE
8
0
10
11
20
27
11
25
21
27
0
LINE
8
0
10
25
20
27
11
25
21
41
0
LINE
8
0
10
25
20
41
11
11
21
41
0
LINE
8
0
10
11
20
41
11
11
21
27
0
LINE
8
0
10
29
20
-7
11
43
21
-7
0
LINE
8
0
10
43
20
-7
11
43
21
7
0
LINE
8
0
10
43
20
7
11
29
21
7
0
LINE
8
0
10
29
20
7
11
29
21
-7
0
LINE
8
0
10
29
20
10
11
43
21
10
0
LINE
8
0
10
43
20
10
11
43
21
24
0
LINE
8
0
10
43
20
24
11
29
21
24
0
LINE
8
0
10
29
20
24
11
29
21
10
0
LINE
8
0
10
29
20
27
11
43
21
27
0
LINE
8
0
10
43
20
27
11
43
21
41
0
LINE
8
0
10
43
20
41
11
29
21
41
0
LINE
8
0
10
29
20
41
11
29
21
27
0
LINE
8
0
10
47
20
-7
11
61
21
-7
0
LINE
8
0
10
61
20
-7
11
61
21
7
0
LINE
8
0
10
61
20
7
11
47
21
7
0
LINE
8
0
10
47
20
7
11
47
21
-7
0
LINE
8
0
10
47
20
10
11
61
21
10
0
LINE
8
0
10
61
20
10
11
61
21
24
0
LINE
8
0
10
61
20
24
11
47
21
24
0
LINE
8
0
10
47
20
24
11
47
21
10
0
LINE
8
0
10
47
20
27
11
61
21
27
0
LINE
8
0
10
61
20
27
11
61
21
41
0
LINE
8
0
10
61
20
41
11
47
21
41
0
LINE
8
0
10
47
20
41
11
47
21
27
0
LINE
8
0
10
65
20
-7
11
79
21
-7
0
LINE
8
0
10
79
20
-7
11
79
21
7
0
LINE
8
0
10
79
20
7
11
65
21
7
0
LINE
8
0
10
65
20
7
11
65
21
-7
0
LINE
8
0
10
65
20
10
11
79
21
10
0
LINE
8
0
10
79
20
10
11
79
21
24
0
LINE
8
0
10
79
20
24
11
65
21
24
0
LINE
8
0
10
65
20
24
11
65
21
10
0
LINE
8
0
10
65
20
27
11
79
21
27
0
LINE
8
0
10
79
20
27
11
79
21
41
0
LINE
8
0
10
79
20
41
11
65
21
41
0
LINE
8
0
10
65
20
41
11
65
21
27
0
LINE
8
0
10
105.5
20
-7
11
119.5
21
-7
0
LINE
8
0
10
119.5
20
-7
11
119.5
21
7
0
LINE
8
0
10
119.5
20
7
11
105.5
21
7
0
LINE
8
0
10
105.5
20
7
11
105.5
21
-7
0
LINE
8
0
10
105.5
20
10
11
119.5
21
10
0
LINE
8
0
10
119.5
20
10
11
119.5
21
24
0
LINE
8
0
10
119.5
20
24
11
105.5
21
24
0
LINE
8
0
10
105.5
20
24
11
105.5
21
10
0
LINE
8
0
10
105.5
20
27
11
119.5
21
27
0
LINE
8
0
10
119.5
20
27
11
119.5
21
41
0
LINE
8
0
10
119.5
20
41
11
105.5
21
41
0
LINE
8
0
10
105.5
20
41
11
105.5
21
27
0
LINE
8
0
10
123.5
20
-7
11
137.5
21
-7
0
LINE
8
0
10
137.5
20
-7
11
137.5
21
7
0
LINE
8
0
10
137.5
20
7
11
123.5
21
7
0
LINE
8
0
10
123.5
20
7
11
123.5
21
-7
0
LINE
8
0
10
123.5
20
10
11
137.5
21
10
0
LINE
8
0
10
137.5
20
10
11
137.5
21
24
0
LINE
8
0
10
137.5
20
24
11
123.5
21
24
0
LINE
8
0
10
123.5
20
24
11
123.5
21
10
0
LINE
8
0
10
123.5
20
27
11
137.5
21
27
0
LINE
8
0
10
137.5
20
27
11
137.5
21
41
0
LINE
8
0
10
137.5
20
41
11
123.5
21
41
0
LINE
8
0
10
123.5
20
41
11
123.5
21
27
0
LINE
8
0
10
141.5
20
-7
11
155.5
21
-7
0
LINE
8
0
10
155.5
20
-7
11
155.5
21
7
0
LINE
8
0
10
155.5
20
7
11
141.5
21
7
0
LINE
8
0
10
141.5
20
7
11
141.5
21
-7
0
LINE
8
0
10
141.5
20
10
11
155.5
21
10
0
LINE
8
0
10
155.5
20
10
11
155.5
21
24
0
LINE
8
0
10
155.5
20
24
11
141.5
21
24
0
LINE
8
0
10
141.5
20
24
11
141.5
21
10
0
LINE
8
0
10
141.5
20
27
11
155.5
21
27
0
LINE
8
0
10
155.5
20
27
11
155.5
21
41
0
LINE
8
0
10
155.5
20
41
11
141.5
21
41
0
LINE
8
0
10
141.5
20
41
11
141.5
21
27
0
LINE
8
0
10
159.5
20
-7
11
173.5
21
-7
0
LINE
8
0
10
173.5
20
-7
11
173.5
21
7
0
LINE
8
0
10
173.5
20
7
11
159.5
21
7
0
LINE
8
0
10
159.5
20
7
11
159.5
21
-7
0
LINE
8
0
10
159.5
20
10
11
173.5
21
10
0
LINE
8
0
10
173.5
20
10
11
173.5
21
24
0
LINE
8
0
10
173.5
20
24
11
159.5
21
24
0
LINE
8
0
10
159.5
20
24
11
159.5
21
10
0
LINE
8
0
10
159.5
20
27
11
173.5
21
27
0
LINE
8
0
10
173.5
20
27
11
173.5
21
41
0
LINE
8
0
10
173.5
20
41
11
159.5
21
41
0
LINE
8
0
10
159.5
20
41
11
159.5
21
27
0
LINE
8
0
10
177.5
20
-7
11
191.5
21
-7
0
LINE
8
0
10
191.5
20
-7
11
191.5
21
7
0
LINE
8
0
10
191.5
20
7
11
177.5
21
7
0
LINE
8
0
10
177.5
20
7
11
177.5
21
-7
0
LINE
8
0
10
177.5
20
10
11
191.5
21
10
0
LINE
8
0
10
191.5
20
10
11
191.5
21
24
0
LINE
8
0
10
191.5
20
24
11
177.5
21
24
0
LINE
8
0
10
177.5
20
24
11
177.5
21
10
0
LINE
8
0
10
177.5
20
27
11
191.5
21
27
0
LINE
8
0
10
191.5
20
27
11
191.5
21
41
0
LINE
8
0
10
191.5
20
41
11
177.5
21
41
0
LINE
8
0
10
177.5
20
41
11
177.5
21
27
0
ENDSEC
0
EOF