%TF.GenerationSoftware,KiCad,Pcbnew,(6.0.4)*%
%TF.CreationDate,2022-06-28T23:54:07-04:00*%
%TF.ProjectId,satpad,73617470-6164-42e6-9b69-6361645f7063,v1.0.0*%
%TF.SameCoordinates,Original*%
%TF.FileFunction,Soldermask,Top*%
%TF.FilePolarity,Negative*%
%FSLAX46Y46*%
G04 Gerber Fmt 4.6, Leading zero omitted, Abs format (unit mm)*
G04 Created by KiCad (PCBNEW (6.0.4)) date 2022-06-28 23:54:07*
%MOMM*%
%LPD*%
G01*
G04 APERTURE LIST*
G04 Aperture macros list*
%AMRoundRect*
0 Rectangle with rounded corners*
0 $1 Rounding radius*
0 $2 $3 $4 $5 $6 $7 $8 $9 X,Y pos of 4 corners*
0 Add a 4 corners polygon primitive as box body*
4,1,4,$2,$3,$4,$5,$6,$7,$8,$9,$2,$3,0*
0 Add four circle primitives for the rounded corners*
1,1,$1+$1,$2,$3*
1,1,$1+$1,$4,$5*
1,1,$1+$1,$6,$7*
1,1,$1+$1,$8,$9*
0 Add four rect primitives between the rounded corners*
20,1,$1+$1,$2,$3,$4,$5,0*
20,1,$1+$1,$4,$5,$6,$7,0*
20,1,$1+$1,$6,$7,$8,$9,0*
20,1,$1+$1,$8,$9,$2,$3,0*%
G04 Aperture macros list end*
%ADD10RoundRect,0.050000X-0.876300X0.876300X-0.876300X-0.876300X0.876300X-0.876300X0.876300X0.876300X0*%
%ADD11C,1.852600*%
%ADD12C,3.529000*%
%ADD13C,1.801800*%
%ADD14C,2.132000*%
%ADD15RoundRect,0.050000X-0.450000X-0.600000X0.450000X-0.600000X0.450000X0.600000X-0.450000X0.600000X0*%
%ADD16C,2.005000*%
%ADD17RoundRect,0.050000X-0.889000X-0.889000X0.889000X-0.889000X0.889000X0.889000X-0.889000X0.889000X0*%
%ADD18O,1.800000X1.800000*%
%ADD19RoundRect,0.050000X-0.850000X-0.850000X0.850000X-0.850000X0.850000X0.850000X-0.850000X0.850000X0*%
%ADD20C,1.700000*%
%ADD21C,1.600000*%
G04 APERTURE END LIST*
D10*
%TO.C,MCU1*%
X84630000Y38720000D03*
D11*
X84630000Y36180000D03*
X84630000Y33640000D03*
X84630000Y31100000D03*
X84630000Y28560000D03*
X84630000Y26020000D03*
X84630000Y23480000D03*
X84630000Y20940000D03*
X84630000Y18400000D03*
X84630000Y15860000D03*
X84630000Y13320000D03*
X84630000Y10780000D03*
X99870000Y38720000D03*
X99870000Y36180000D03*
X99870000Y33640000D03*
X99870000Y31100000D03*
X99870000Y28560000D03*
X99870000Y26020000D03*
X99870000Y23480000D03*
X99870000Y20940000D03*
X99870000Y18400000D03*
X99870000Y15860000D03*
X99870000Y13320000D03*
X99870000Y10780000D03*
%TD*%
D12*
%TO.C,S1*%
X0Y0D03*
D13*
X5500000Y0D03*
X-5500000Y0D03*
D14*
X5000000Y3800000D03*
X0Y5900000D03*
%TD*%
D15*
%TO.C,D1*%
X-1650000Y-4500000D03*
X1650000Y-4500000D03*
D16*
X3810000Y-4500000D03*
D17*
X-3810000Y-4500000D03*
%TD*%
D12*
%TO.C,S2*%
X0Y17000000D03*
D13*
X5500000Y17000000D03*
X-5500000Y17000000D03*
D14*
X5000000Y20800000D03*
X0Y22900000D03*
%TD*%
D15*
%TO.C,D2*%
X-1650000Y12500000D03*
X1650000Y12500000D03*
D16*
X3810000Y12500000D03*
D17*
X-3810000Y12500000D03*
%TD*%
D12*
%TO.C,S3*%
X0Y34000000D03*
D13*
X5500000Y34000000D03*
X-5500000Y34000000D03*
D14*
X5000000Y37800000D03*
X0Y39900000D03*
%TD*%
D15*
%TO.C,D3*%
X-1650000Y29500000D03*
X1650000Y29500000D03*
D16*
X3810000Y29500000D03*
D17*
X-3810000Y29500000D03*
%TD*%
D12*
%TO.C,S4*%
X18000000Y0D03*
D13*
X23500000Y0D03*
X12500000Y0D03*
D14*
X23000000Y3800000D03*
X18000000Y5900000D03*
%TD*%
D15*
%TO.C,D4*%
X16350000Y-4500000D03*
X19650000Y-4500000D03*
D16*
X21810000Y-4500000D03*
D17*
X14190000Y-4500000D03*
%TD*%
D12*
%TO.C,S5*%
X18000000Y17000000D03*
D13*
X23500000Y17000000D03*
X12500000Y17000000D03*
D14*
X23000000Y20800000D03*
X18000000Y22900000D03*
%TD*%
D15*
%TO.C,D5*%
X16350000Y12500000D03*
X19650000Y12500000D03*
D16*
X21810000Y12500000D03*
D17*
X14190000Y12500000D03*
%TD*%
D12*
%TO.C,S6*%
X18000000Y34000000D03*
D13*
X23500000Y34000000D03*
X12500000Y34000000D03*
D14*
X23000000Y37800000D03*
X18000000Y39900000D03*
%TD*%
D15*
%TO.C,D6*%
X16350000Y29500000D03*
X19650000Y29500000D03*
D16*
X21810000Y29500000D03*
D17*
X14190000Y29500000D03*
%TD*%
D12*
%TO.C,S7*%
X36000000Y0D03*
D13*
X41500000Y0D03*
X30500000Y0D03*
D14*
X41000000Y3800000D03*
X36000000Y5900000D03*
%TD*%
D15*
%TO.C,D7*%
X34350000Y-4500000D03*
X37650000Y-4500000D03*
D16*
X39810000Y-4500000D03*
D17*
X32190000Y-4500000D03*
%TD*%
D12*
%TO.C,S8*%
X36000000Y17000000D03*
D13*
X41500000Y17000000D03*
X30500000Y17000000D03*
D14*
X41000000Y20800000D03*
X36000000Y22900000D03*
%TD*%
D15*
%TO.C,D8*%
X34350000Y12500000D03*
X37650000Y12500000D03*
D16*
X39810000Y12500000D03*
D17*
X32190000Y12500000D03*
%TD*%
D12*
%TO.C,S9*%
X36000000Y34000000D03*
D13*
X41500000Y34000000D03*
X30500000Y34000000D03*
D14*
X41000000Y37800000D03*
X36000000Y39900000D03*
%TD*%
D15*
%TO.C,D9*%
X34350000Y29500000D03*
X37650000Y29500000D03*
D16*
X39810000Y29500000D03*
D17*
X32190000Y29500000D03*
%TD*%
D12*
%TO.C,S10*%
X54000000Y0D03*
D13*
X59500000Y0D03*
X48500000Y0D03*
D14*
X59000000Y3800000D03*
X54000000Y5900000D03*
%TD*%
D15*
%TO.C,D10*%
X52350000Y-4500000D03*
X55650000Y-4500000D03*
D16*
X57810000Y-4500000D03*
D17*
X50190000Y-4500000D03*
%TD*%
D14*
%TO.C,S11*%
X54000000Y22900000D03*
X59000000Y20800000D03*
D13*
X48500000Y17000000D03*
X59500000Y17000000D03*
D12*
X54000000Y17000000D03*
%TD*%
D15*
%TO.C,D11*%
X52350000Y12500000D03*
X55650000Y12500000D03*
D16*
X57810000Y12500000D03*
D17*
X50190000Y12500000D03*
%TD*%
D12*
%TO.C,S12*%
X54000000Y34000000D03*
D13*
X59500000Y34000000D03*
X48500000Y34000000D03*
D14*
X59000000Y37800000D03*
X54000000Y39900000D03*
%TD*%
D15*
%TO.C,D12*%
X52350000Y29500000D03*
X55650000Y29500000D03*
D16*
X57810000Y29500000D03*
D17*
X50190000Y29500000D03*
%TD*%
D12*
%TO.C,S13*%
X72000000Y0D03*
D13*
X77500000Y0D03*
X66500000Y0D03*
D14*
X77000000Y3800000D03*
X72000000Y5900000D03*
%TD*%
D15*
%TO.C,D13*%
X70350000Y-4500000D03*
X73650000Y-4500000D03*
D16*
X75810000Y-4500000D03*
D17*
X68190000Y-4500000D03*
%TD*%
D12*
%TO.C,S14*%
X72000000Y17000000D03*
D13*
X77500000Y17000000D03*
X66500000Y17000000D03*
D14*
X77000000Y20800000D03*
X72000000Y22900000D03*
%TD*%
D15*
%TO.C,D14*%
X70350000Y12500000D03*
X73650000Y12500000D03*
D16*
X75810000Y12500000D03*
D17*
X68190000Y12500000D03*
%TD*%
D12*
%TO.C,S15*%
X72000000Y34000000D03*
D13*
X77500000Y34000000D03*
X66500000Y34000000D03*
D14*
X77000000Y37800000D03*
X72000000Y39900000D03*
%TD*%
D15*
%TO.C,D15*%
X70350000Y29500000D03*
X73650000Y29500000D03*
D16*
X75810000Y29500000D03*
D17*
X68190000Y29500000D03*
%TD*%
D12*
%TO.C,S16*%
X112500000Y0D03*
D13*
X118000000Y0D03*
X107000000Y0D03*
D14*
X117500000Y3800000D03*
X112500000Y5900000D03*
%TD*%
D15*
%TO.C,D16*%
X110850000Y-4500000D03*
X114150000Y-4500000D03*
D16*
X116310000Y-4500000D03*
D17*
X108690000Y-4500000D03*
%TD*%
D12*
%TO.C,S17*%
X112500000Y17000000D03*
D13*
X118000000Y17000000D03*
X107000000Y17000000D03*
D14*
X117500000Y20800000D03*
X112500000Y22900000D03*
%TD*%
D15*
%TO.C,D17*%
X110850000Y12500000D03*
X114150000Y12500000D03*
D16*
X116310000Y12500000D03*
D17*
X108690000Y12500000D03*
%TD*%
D12*
%TO.C,S18*%
X112500000Y34000000D03*
D13*
X118000000Y34000000D03*
X107000000Y34000000D03*
D14*
X117500000Y37800000D03*
X112500000Y39900000D03*
%TD*%
D15*
%TO.C,D18*%
X110850000Y29500000D03*
X114150000Y29500000D03*
D16*
X116310000Y29500000D03*
D17*
X108690000Y29500000D03*
%TD*%
D12*
%TO.C,S19*%
X130500000Y0D03*
D13*
X136000000Y0D03*
X125000000Y0D03*
D14*
X135500000Y3800000D03*
X130500000Y5900000D03*
%TD*%
D15*
%TO.C,D19*%
X128850000Y-4500000D03*
X132150000Y-4500000D03*
D16*
X134310000Y-4500000D03*
D17*
X126690000Y-4500000D03*
%TD*%
D12*
%TO.C,S20*%
X130500000Y17000000D03*
D13*
X136000000Y17000000D03*
X125000000Y17000000D03*
D14*
X135500000Y20800000D03*
X130500000Y22900000D03*
%TD*%
D15*
%TO.C,D20*%
X128850000Y12500000D03*
X132150000Y12500000D03*
D16*
X134310000Y12500000D03*
D17*
X126690000Y12500000D03*
%TD*%
D12*
%TO.C,S21*%
X130500000Y34000000D03*
D13*
X136000000Y34000000D03*
X125000000Y34000000D03*
D14*
X135500000Y37800000D03*
X130500000Y39900000D03*
%TD*%
D15*
%TO.C,D21*%
X128850000Y29500000D03*
X132150000Y29500000D03*
D16*
X134310000Y29500000D03*
D17*
X126690000Y29500000D03*
%TD*%
D12*
%TO.C,S22*%
X148500000Y0D03*
D13*
X154000000Y0D03*
X143000000Y0D03*
D14*
X153500000Y3800000D03*
X148500000Y5900000D03*
%TD*%
D15*
%TO.C,D22*%
X146850000Y-4500000D03*
X150150000Y-4500000D03*
D16*
X152310000Y-4500000D03*
D17*
X144690000Y-4500000D03*
%TD*%
D12*
%TO.C,S23*%
X148500000Y17000000D03*
D13*
X154000000Y17000000D03*
X143000000Y17000000D03*
D14*
X153500000Y20800000D03*
X148500000Y22900000D03*
%TD*%
D15*
%TO.C,D23*%
X146850000Y12500000D03*
X150150000Y12500000D03*
D16*
X152310000Y12500000D03*
D17*
X144690000Y12500000D03*
%TD*%
D12*
%TO.C,S24*%
X148500000Y34000000D03*
D13*
X154000000Y34000000D03*
X143000000Y34000000D03*
D14*
X153500000Y37800000D03*
X148500000Y39900000D03*
%TD*%
D15*
%TO.C,D24*%
X146850000Y29500000D03*
X150150000Y29500000D03*
D16*
X152310000Y29500000D03*
D17*
X144690000Y29500000D03*
%TD*%
D12*
%TO.C,S25*%
X166500000Y0D03*
D13*
X172000000Y0D03*
X161000000Y0D03*
D14*
X171500000Y3800000D03*
X166500000Y5900000D03*
%TD*%
D15*
%TO.C,D25*%
X164850000Y-4500000D03*
X168150000Y-4500000D03*
D16*
X170310000Y-4500000D03*
D17*
X162690000Y-4500000D03*
%TD*%
D12*
%TO.C,S26*%
X166500000Y17000000D03*
D13*
X172000000Y17000000D03*
X161000000Y17000000D03*
D14*
X171500000Y20800000D03*
X166500000Y22900000D03*
%TD*%
D15*
%TO.C,D26*%
X164850000Y12500000D03*
X168150000Y12500000D03*
D16*
X170310000Y12500000D03*
D17*
X162690000Y12500000D03*
%TD*%
D12*
%TO.C,S27*%
X166500000Y34000000D03*
D13*
X172000000Y34000000D03*
X161000000Y34000000D03*
D14*
X171500000Y37800000D03*
X166500000Y39900000D03*
%TD*%
D15*
%TO.C,D27*%
X164850000Y29500000D03*
X168150000Y29500000D03*
D16*
X170310000Y29500000D03*
D17*
X162690000Y29500000D03*
%TD*%
D12*
%TO.C,S28*%
X184500000Y0D03*
D13*
X190000000Y0D03*
X179000000Y0D03*
D14*
X189500000Y3800000D03*
X184500000Y5900000D03*
%TD*%
D15*
%TO.C,D28*%
X182850000Y-4500000D03*
X186150000Y-4500000D03*
D16*
X188310000Y-4500000D03*
D17*
X180690000Y-4500000D03*
%TD*%
D12*
%TO.C,S29*%
X184500000Y17000000D03*
D13*
X190000000Y17000000D03*
X179000000Y17000000D03*
D14*
X189500000Y20800000D03*
X184500000Y22900000D03*
%TD*%
D15*
%TO.C,D29*%
X182850000Y12500000D03*
X186150000Y12500000D03*
D16*
X188310000Y12500000D03*
D17*
X180690000Y12500000D03*
%TD*%
D12*
%TO.C,S30*%
X184500000Y34000000D03*
D13*
X190000000Y34000000D03*
X179000000Y34000000D03*
D14*
X189500000Y37800000D03*
X184500000Y39900000D03*
%TD*%
D15*
%TO.C,D30*%
X182850000Y29500000D03*
X186150000Y29500000D03*
D16*
X188310000Y29500000D03*
D17*
X180690000Y29500000D03*
%TD*%
D18*
%TO.C,OLED1*%
X88430000Y8100000D03*
X90970000Y8100000D03*
X93510000Y8100000D03*
D19*
X96050000Y8100000D03*
%TD*%
D20*
%TO.C,REF\u002A\u002A*%
X84650000Y5200000D03*
X86500000Y5200000D03*
X85875000Y2810000D03*
X85875000Y270000D03*
X85875000Y-2270000D03*
X85875000Y-4810000D03*
D21*
X85875000Y-7300000D03*
%TD*%
M02*
