%TF.GenerationSoftware,KiCad,Pcbnew,(6.0.4)*%
%TF.CreationDate,2022-07-04T17:45:23-04:00*%
%TF.ProjectId,satpad,73617470-6164-42e6-9b69-6361645f7063,v1.0.0*%
%TF.SameCoordinates,Original*%
%TF.FileFunction,Paste,Bot*%
%TF.FilePolarity,Positive*%
%FSLAX46Y46*%
G04 Gerber Fmt 4.6, Leading zero omitted, Abs format (unit mm)*
G04 Created by KiCad (PCBNEW (6.0.4)) date 2022-07-04 17:45:23*
%MOMM*%
%LPD*%
G01*
G04 APERTURE LIST*
%ADD10R,0.900000X1.200000*%
G04 APERTURE END LIST*
D10*
%TO.C,D9*%
X34350000Y29500000D03*
X37650000Y29500000D03*
%TD*%
%TO.C,D1*%
X-1650000Y-4500000D03*
X1650000Y-4500000D03*
%TD*%
%TO.C,D5*%
X16350000Y12500000D03*
X19650000Y12500000D03*
%TD*%
%TO.C,D11*%
X52350000Y12500000D03*
X55650000Y12500000D03*
%TD*%
%TO.C,D30*%
X182850000Y29500000D03*
X186150000Y29500000D03*
%TD*%
%TO.C,D19*%
X128850000Y-4500000D03*
X132150000Y-4500000D03*
%TD*%
%TO.C,D10*%
X52350000Y-4500000D03*
X55650000Y-4500000D03*
%TD*%
%TO.C,D8*%
X34350000Y12500000D03*
X37650000Y12500000D03*
%TD*%
%TO.C,D26*%
X164850000Y12500000D03*
X168150000Y12500000D03*
%TD*%
%TO.C,D25*%
X164850000Y-4500000D03*
X168150000Y-4500000D03*
%TD*%
%TO.C,D4*%
X16350000Y-4500000D03*
X19650000Y-4500000D03*
%TD*%
%TO.C,D7*%
X34350000Y-4500000D03*
X37650000Y-4500000D03*
%TD*%
%TO.C,D17*%
X110850000Y12500000D03*
X114150000Y12500000D03*
%TD*%
%TO.C,D13*%
X70350000Y-4500000D03*
X73650000Y-4500000D03*
%TD*%
%TO.C,D14*%
X70350000Y12500000D03*
X73650000Y12500000D03*
%TD*%
%TO.C,D16*%
X110850000Y-4500000D03*
X114150000Y-4500000D03*
%TD*%
%TO.C,D24*%
X146850000Y29500000D03*
X150150000Y29500000D03*
%TD*%
%TO.C,D21*%
X128850000Y29500000D03*
X132150000Y29500000D03*
%TD*%
%TO.C,D29*%
X182850000Y12500000D03*
X186150000Y12500000D03*
%TD*%
%TO.C,D20*%
X128850000Y12500000D03*
X132150000Y12500000D03*
%TD*%
%TO.C,D15*%
X70350000Y29500000D03*
X73650000Y29500000D03*
%TD*%
%TO.C,D22*%
X146850000Y-4500000D03*
X150150000Y-4500000D03*
%TD*%
%TO.C,D28*%
X182850000Y-4500000D03*
X186150000Y-4500000D03*
%TD*%
%TO.C,D6*%
X16350000Y29500000D03*
X19650000Y29500000D03*
%TD*%
%TO.C,D18*%
X110850000Y29500000D03*
X114150000Y29500000D03*
%TD*%
%TO.C,D23*%
X146850000Y12500000D03*
X150150000Y12500000D03*
%TD*%
%TO.C,D2*%
X-1650000Y12500000D03*
X1650000Y12500000D03*
%TD*%
%TO.C,D27*%
X164850000Y29500000D03*
X168150000Y29500000D03*
%TD*%
%TO.C,D3*%
X-1650000Y29500000D03*
X1650000Y29500000D03*
%TD*%
%TO.C,D12*%
X52350000Y29500000D03*
X55650000Y29500000D03*
%TD*%
M02*
