M48
; DRILL file {KiCad (6.0.4)} date Mon Jul  4 17:45:21 2022
; FORMAT={-:-/ absolute / inch / decimal}
; #@! TF.CreationDate,2022-07-04T17:45:21-04:00
; #@! TF.GenerationSoftware,Kicad,Pcbnew,(6.0.4)
; #@! TF.FileFunction,Plated,1,2,PTH
FMAT,2
INCH
; #@! TA.AperFunction,Plated,PTH,ViaDrill
T1C0.0157
; #@! TA.AperFunction,Plated,PTH,ComponentDrill
T2C0.0354
; #@! TA.AperFunction,Plated,PTH,ComponentDrill
T3C0.0390
; #@! TA.AperFunction,Plated,PTH,ComponentDrill
T4C0.0394
; #@! TA.AperFunction,Plated,PTH,ComponentDrill
T5C0.0430
; #@! TA.AperFunction,Plated,PTH,ComponentDrill
T6C0.0500
%
G90
G05
T1
X3.2283Y1.0709
X3.5906Y0.9291
X3.5906Y0.8504
X3.6614Y1.0906
X3.7214Y1.0906
T2
X3.3327Y0.2047
X3.3809Y0.1106
X3.3809Y0.0106
X3.3809Y-0.0894
X3.3809Y-0.1894
X3.4055Y0.2047
T3
X-0.15Y1.1614
X-0.15Y0.4921
X-0.15Y-0.1772
X0.15Y1.1614
X0.15Y0.4921
X0.15Y-0.1772
X0.5587Y1.1614
X0.5587Y0.4921
X0.5587Y-0.1772
X0.8587Y1.1614
X0.8587Y0.4921
X0.8587Y-0.1772
X1.2673Y1.1614
X1.2673Y0.4921
X1.2673Y-0.1772
X1.5673Y1.1614
X1.5673Y0.4921
X1.5673Y-0.1772
X1.976Y1.1614
X1.976Y0.4921
X1.976Y-0.1772
X2.276Y1.1614
X2.276Y0.4921
X2.276Y-0.1772
X2.6846Y1.1614
X2.6846Y0.4921
X2.6846Y-0.1772
X2.9846Y1.1614
X2.9846Y0.4921
X2.9846Y-0.1772
X4.2791Y1.1614
X4.2791Y0.4921
X4.2791Y-0.1772
X4.5791Y1.1614
X4.5791Y0.4921
X4.5791Y-0.1772
X4.9878Y1.1614
X4.9878Y0.4921
X4.9878Y-0.1772
X5.2878Y1.1614
X5.2878Y0.4921
X5.2878Y-0.1772
X5.6965Y1.1614
X5.6965Y0.4921
X5.6965Y-0.1772
X5.9965Y1.1614
X5.9965Y0.4921
X5.9965Y-0.1772
X6.4051Y1.1614
X6.4051Y0.4921
X6.4051Y-0.1772
X6.7051Y1.1614
X6.7051Y0.4921
X6.7051Y-0.1772
X7.1138Y1.1614
X7.1138Y0.4921
X7.1138Y-0.1772
X7.4138Y1.1614
X7.4138Y0.4921
X7.4138Y-0.1772
T4
X3.4815Y0.3189
X3.5815Y0.3189
X3.6815Y0.3189
X3.7815Y0.3189
T5
X3.3319Y1.5244
X3.3319Y1.4244
X3.3319Y1.3244
X3.3319Y1.2244
X3.3319Y1.1244
X3.3319Y1.0244
X3.3319Y0.9244
X3.3319Y0.8244
X3.3319Y0.7244
X3.3319Y0.6244
X3.3319Y0.5244
X3.3319Y0.4244
X3.9319Y1.5244
X3.9319Y1.4244
X3.9319Y1.3244
X3.9319Y1.2244
X3.9319Y1.1244
X3.9319Y1.0244
X3.9319Y0.9244
X3.9319Y0.8244
X3.9319Y0.7244
X3.9319Y0.6244
X3.9319Y0.5244
X3.9319Y0.4244
T6
X0.0Y1.5709
X0.0Y0.9016
X0.0Y0.2323
X0.1969Y1.4882
X0.1969Y0.8189
X0.1969Y0.1496
X0.7087Y1.5709
X0.7087Y0.9016
X0.7087Y0.2323
X0.9055Y1.4882
X0.9055Y0.8189
X0.9055Y0.1496
X1.4173Y1.5709
X1.4173Y0.9016
X1.4173Y0.2323
X1.6142Y1.4882
X1.6142Y0.8189
X1.6142Y0.1496
X2.126Y1.5709
X2.126Y0.9016
X2.126Y0.2323
X2.3228Y1.4882
X2.3228Y0.8189
X2.3228Y0.1496
X2.8346Y1.5709
X2.8346Y0.9016
X2.8346Y0.2323
X3.0315Y1.4882
X3.0315Y0.8189
X3.0315Y0.1496
X4.4291Y1.5709
X4.4291Y0.9016
X4.4291Y0.2323
X4.626Y1.4882
X4.626Y0.8189
X4.626Y0.1496
X5.1378Y1.5709
X5.1378Y0.9016
X5.1378Y0.2323
X5.3346Y1.4882
X5.3346Y0.8189
X5.3346Y0.1496
X5.8465Y1.5709
X5.8465Y0.9016
X5.8465Y0.2323
X6.0433Y1.4882
X6.0433Y0.8189
X6.0433Y0.1496
X6.5551Y1.5709
X6.5551Y0.9016
X6.5551Y0.2323
X6.752Y1.4882
X6.752Y0.8189
X6.752Y0.1496
X7.2638Y1.5709
X7.2638Y0.9016
X7.2638Y0.2323
X7.4606Y1.4882
X7.4606Y0.8189
X7.4606Y0.1496
T0
M30
