%TF.GenerationSoftware,KiCad,Pcbnew,(6.0.4)*%
%TF.CreationDate,2022-06-28T23:54:07-04:00*%
%TF.ProjectId,satpad,73617470-6164-42e6-9b69-6361645f7063,v1.0.0*%
%TF.SameCoordinates,Original*%
%TF.FileFunction,Legend,Top*%
%TF.FilePolarity,Positive*%
%FSLAX46Y46*%
G04 Gerber Fmt 4.6, Leading zero omitted, Abs format (unit mm)*
G04 Created by KiCad (PCBNEW (6.0.4)) date 2022-06-28 23:54:07*
%MOMM*%
%LPD*%
G01*
G04 APERTURE LIST*
%ADD10C,0.150000*%
%ADD11C,0.100000*%
%ADD12R,1.752600X1.752600*%
%ADD13C,1.752600*%
G04 APERTURE END LIST*
D10*
%TO.C,MCU1*%
X86897619Y38358095D02*
X86630952Y38739047D01*
X86440476Y38358095D02*
X86440476Y39158095D01*
X86745238Y39158095D01*
X86821428Y39120000D01*
X86859523Y39081904D01*
X86897619Y39005714D01*
X86897619Y38891428D01*
X86859523Y38815238D01*
X86821428Y38777142D01*
X86745238Y38739047D01*
X86440476Y38739047D01*
X87202380Y38586666D02*
X87583333Y38586666D01*
X87126190Y38358095D02*
X87392857Y39158095D01*
X87659523Y38358095D01*
X87850000Y39158095D02*
X88040476Y38358095D01*
X88192857Y38929523D01*
X88345238Y38358095D01*
X88535714Y39158095D01*
X86840476Y36580000D02*
X86764285Y36618095D01*
X86650000Y36618095D01*
X86535714Y36580000D01*
X86459523Y36503809D01*
X86421428Y36427619D01*
X86383333Y36275238D01*
X86383333Y36160952D01*
X86421428Y36008571D01*
X86459523Y35932380D01*
X86535714Y35856190D01*
X86650000Y35818095D01*
X86726190Y35818095D01*
X86840476Y35856190D01*
X86878571Y35894285D01*
X86878571Y36160952D01*
X86726190Y36160952D01*
X87221428Y35818095D02*
X87221428Y36618095D01*
X87678571Y35818095D01*
X87678571Y36618095D01*
X88059523Y35818095D02*
X88059523Y36618095D01*
X88250000Y36618095D01*
X88364285Y36580000D01*
X88440476Y36503809D01*
X88478571Y36427619D01*
X88516666Y36275238D01*
X88516666Y36160952D01*
X88478571Y36008571D01*
X88440476Y35932380D01*
X88364285Y35856190D01*
X88250000Y35818095D01*
X88059523Y35818095D01*
X87011904Y33278095D02*
X86745238Y33659047D01*
X86554761Y33278095D02*
X86554761Y34078095D01*
X86859523Y34078095D01*
X86935714Y34040000D01*
X86973809Y34001904D01*
X87011904Y33925714D01*
X87011904Y33811428D01*
X86973809Y33735238D01*
X86935714Y33697142D01*
X86859523Y33659047D01*
X86554761Y33659047D01*
X87316666Y33316190D02*
X87430952Y33278095D01*
X87621428Y33278095D01*
X87697619Y33316190D01*
X87735714Y33354285D01*
X87773809Y33430476D01*
X87773809Y33506666D01*
X87735714Y33582857D01*
X87697619Y33620952D01*
X87621428Y33659047D01*
X87469047Y33697142D01*
X87392857Y33735238D01*
X87354761Y33773333D01*
X87316666Y33849523D01*
X87316666Y33925714D01*
X87354761Y34001904D01*
X87392857Y34040000D01*
X87469047Y34078095D01*
X87659523Y34078095D01*
X87773809Y34040000D01*
X88002380Y34078095D02*
X88459523Y34078095D01*
X88230952Y33278095D02*
X88230952Y34078095D01*
X86383333Y31538095D02*
X86650000Y30738095D01*
X86916666Y31538095D01*
X87640476Y30814285D02*
X87602380Y30776190D01*
X87488095Y30738095D01*
X87411904Y30738095D01*
X87297619Y30776190D01*
X87221428Y30852380D01*
X87183333Y30928571D01*
X87145238Y31080952D01*
X87145238Y31195238D01*
X87183333Y31347619D01*
X87221428Y31423809D01*
X87297619Y31500000D01*
X87411904Y31538095D01*
X87488095Y31538095D01*
X87602380Y31500000D01*
X87640476Y31461904D01*
X88440476Y30814285D02*
X88402380Y30776190D01*
X88288095Y30738095D01*
X88211904Y30738095D01*
X88097619Y30776190D01*
X88021428Y30852380D01*
X87983333Y30928571D01*
X87945238Y31080952D01*
X87945238Y31195238D01*
X87983333Y31347619D01*
X88021428Y31423809D01*
X88097619Y31500000D01*
X88211904Y31538095D01*
X88288095Y31538095D01*
X88402380Y31500000D01*
X88440476Y31461904D01*
X86478571Y28198095D02*
X86478571Y28998095D01*
X86783333Y28998095D01*
X86859523Y28960000D01*
X86897619Y28921904D01*
X86935714Y28845714D01*
X86935714Y28731428D01*
X86897619Y28655238D01*
X86859523Y28617142D01*
X86783333Y28579047D01*
X86478571Y28579047D01*
X87240476Y28921904D02*
X87278571Y28960000D01*
X87354761Y28998095D01*
X87545238Y28998095D01*
X87621428Y28960000D01*
X87659523Y28921904D01*
X87697619Y28845714D01*
X87697619Y28769523D01*
X87659523Y28655238D01*
X87202380Y28198095D01*
X87697619Y28198095D01*
X88459523Y28198095D02*
X88002380Y28198095D01*
X88230952Y28198095D02*
X88230952Y28998095D01*
X88154761Y28883809D01*
X88078571Y28807619D01*
X88002380Y28769523D01*
X86478571Y25658095D02*
X86478571Y26458095D01*
X86783333Y26458095D01*
X86859523Y26420000D01*
X86897619Y26381904D01*
X86935714Y26305714D01*
X86935714Y26191428D01*
X86897619Y26115238D01*
X86859523Y26077142D01*
X86783333Y26039047D01*
X86478571Y26039047D01*
X87240476Y26381904D02*
X87278571Y26420000D01*
X87354761Y26458095D01*
X87545238Y26458095D01*
X87621428Y26420000D01*
X87659523Y26381904D01*
X87697619Y26305714D01*
X87697619Y26229523D01*
X87659523Y26115238D01*
X87202380Y25658095D01*
X87697619Y25658095D01*
X88192857Y26458095D02*
X88269047Y26458095D01*
X88345238Y26420000D01*
X88383333Y26381904D01*
X88421428Y26305714D01*
X88459523Y26153333D01*
X88459523Y25962857D01*
X88421428Y25810476D01*
X88383333Y25734285D01*
X88345238Y25696190D01*
X88269047Y25658095D01*
X88192857Y25658095D01*
X88116666Y25696190D01*
X88078571Y25734285D01*
X88040476Y25810476D01*
X88002380Y25962857D01*
X88002380Y26153333D01*
X88040476Y26305714D01*
X88078571Y26381904D01*
X88116666Y26420000D01*
X88192857Y26458095D01*
X86478571Y23118095D02*
X86478571Y23918095D01*
X86783333Y23918095D01*
X86859523Y23880000D01*
X86897619Y23841904D01*
X86935714Y23765714D01*
X86935714Y23651428D01*
X86897619Y23575238D01*
X86859523Y23537142D01*
X86783333Y23499047D01*
X86478571Y23499047D01*
X87697619Y23118095D02*
X87240476Y23118095D01*
X87469047Y23118095D02*
X87469047Y23918095D01*
X87392857Y23803809D01*
X87316666Y23727619D01*
X87240476Y23689523D01*
X88078571Y23118095D02*
X88230952Y23118095D01*
X88307142Y23156190D01*
X88345238Y23194285D01*
X88421428Y23308571D01*
X88459523Y23460952D01*
X88459523Y23765714D01*
X88421428Y23841904D01*
X88383333Y23880000D01*
X88307142Y23918095D01*
X88154761Y23918095D01*
X88078571Y23880000D01*
X88040476Y23841904D01*
X88002380Y23765714D01*
X88002380Y23575238D01*
X88040476Y23499047D01*
X88078571Y23460952D01*
X88154761Y23422857D01*
X88307142Y23422857D01*
X88383333Y23460952D01*
X88421428Y23499047D01*
X88459523Y23575238D01*
X86478571Y20578095D02*
X86478571Y21378095D01*
X86783333Y21378095D01*
X86859523Y21340000D01*
X86897619Y21301904D01*
X86935714Y21225714D01*
X86935714Y21111428D01*
X86897619Y21035238D01*
X86859523Y20997142D01*
X86783333Y20959047D01*
X86478571Y20959047D01*
X87697619Y20578095D02*
X87240476Y20578095D01*
X87469047Y20578095D02*
X87469047Y21378095D01*
X87392857Y21263809D01*
X87316666Y21187619D01*
X87240476Y21149523D01*
X88154761Y21035238D02*
X88078571Y21073333D01*
X88040476Y21111428D01*
X88002380Y21187619D01*
X88002380Y21225714D01*
X88040476Y21301904D01*
X88078571Y21340000D01*
X88154761Y21378095D01*
X88307142Y21378095D01*
X88383333Y21340000D01*
X88421428Y21301904D01*
X88459523Y21225714D01*
X88459523Y21187619D01*
X88421428Y21111428D01*
X88383333Y21073333D01*
X88307142Y21035238D01*
X88154761Y21035238D01*
X88078571Y20997142D01*
X88040476Y20959047D01*
X88002380Y20882857D01*
X88002380Y20730476D01*
X88040476Y20654285D01*
X88078571Y20616190D01*
X88154761Y20578095D01*
X88307142Y20578095D01*
X88383333Y20616190D01*
X88421428Y20654285D01*
X88459523Y20730476D01*
X88459523Y20882857D01*
X88421428Y20959047D01*
X88383333Y20997142D01*
X88307142Y21035238D01*
X86478571Y18038095D02*
X86478571Y18838095D01*
X86783333Y18838095D01*
X86859523Y18800000D01*
X86897619Y18761904D01*
X86935714Y18685714D01*
X86935714Y18571428D01*
X86897619Y18495238D01*
X86859523Y18457142D01*
X86783333Y18419047D01*
X86478571Y18419047D01*
X87697619Y18038095D02*
X87240476Y18038095D01*
X87469047Y18038095D02*
X87469047Y18838095D01*
X87392857Y18723809D01*
X87316666Y18647619D01*
X87240476Y18609523D01*
X88421428Y18838095D02*
X88040476Y18838095D01*
X88002380Y18457142D01*
X88040476Y18495238D01*
X88116666Y18533333D01*
X88307142Y18533333D01*
X88383333Y18495238D01*
X88421428Y18457142D01*
X88459523Y18380952D01*
X88459523Y18190476D01*
X88421428Y18114285D01*
X88383333Y18076190D01*
X88307142Y18038095D01*
X88116666Y18038095D01*
X88040476Y18076190D01*
X88002380Y18114285D01*
X86478571Y15498095D02*
X86478571Y16298095D01*
X86783333Y16298095D01*
X86859523Y16260000D01*
X86897619Y16221904D01*
X86935714Y16145714D01*
X86935714Y16031428D01*
X86897619Y15955238D01*
X86859523Y15917142D01*
X86783333Y15879047D01*
X86478571Y15879047D01*
X87697619Y15498095D02*
X87240476Y15498095D01*
X87469047Y15498095D02*
X87469047Y16298095D01*
X87392857Y16183809D01*
X87316666Y16107619D01*
X87240476Y16069523D01*
X88383333Y16031428D02*
X88383333Y15498095D01*
X88192857Y16336190D02*
X88002380Y15764761D01*
X88497619Y15764761D01*
X86478571Y12958095D02*
X86478571Y13758095D01*
X86783333Y13758095D01*
X86859523Y13720000D01*
X86897619Y13681904D01*
X86935714Y13605714D01*
X86935714Y13491428D01*
X86897619Y13415238D01*
X86859523Y13377142D01*
X86783333Y13339047D01*
X86478571Y13339047D01*
X87697619Y12958095D02*
X87240476Y12958095D01*
X87469047Y12958095D02*
X87469047Y13758095D01*
X87392857Y13643809D01*
X87316666Y13567619D01*
X87240476Y13529523D01*
X88383333Y13758095D02*
X88230952Y13758095D01*
X88154761Y13720000D01*
X88116666Y13681904D01*
X88040476Y13567619D01*
X88002380Y13415238D01*
X88002380Y13110476D01*
X88040476Y13034285D01*
X88078571Y12996190D01*
X88154761Y12958095D01*
X88307142Y12958095D01*
X88383333Y12996190D01*
X88421428Y13034285D01*
X88459523Y13110476D01*
X88459523Y13300952D01*
X88421428Y13377142D01*
X88383333Y13415238D01*
X88307142Y13453333D01*
X88154761Y13453333D01*
X88078571Y13415238D01*
X88040476Y13377142D01*
X88002380Y13300952D01*
X86478571Y10418095D02*
X86478571Y11218095D01*
X86783333Y11218095D01*
X86859523Y11180000D01*
X86897619Y11141904D01*
X86935714Y11065714D01*
X86935714Y10951428D01*
X86897619Y10875238D01*
X86859523Y10837142D01*
X86783333Y10799047D01*
X86478571Y10799047D01*
X87697619Y10418095D02*
X87240476Y10418095D01*
X87469047Y10418095D02*
X87469047Y11218095D01*
X87392857Y11103809D01*
X87316666Y11027619D01*
X87240476Y10989523D01*
X88192857Y11218095D02*
X88269047Y11218095D01*
X88345238Y11180000D01*
X88383333Y11141904D01*
X88421428Y11065714D01*
X88459523Y10913333D01*
X88459523Y10722857D01*
X88421428Y10570476D01*
X88383333Y10494285D01*
X88345238Y10456190D01*
X88269047Y10418095D01*
X88192857Y10418095D01*
X88116666Y10456190D01*
X88078571Y10494285D01*
X88040476Y10570476D01*
X88002380Y10722857D01*
X88002380Y10913333D01*
X88040476Y11065714D01*
X88078571Y11141904D01*
X88116666Y11180000D01*
X88192857Y11218095D01*
X96078571Y38358095D02*
X96078571Y39158095D01*
X96383333Y39158095D01*
X96459523Y39120000D01*
X96497619Y39081904D01*
X96535714Y39005714D01*
X96535714Y38891428D01*
X96497619Y38815238D01*
X96459523Y38777142D01*
X96383333Y38739047D01*
X96078571Y38739047D01*
X97030952Y39158095D02*
X97107142Y39158095D01*
X97183333Y39120000D01*
X97221428Y39081904D01*
X97259523Y39005714D01*
X97297619Y38853333D01*
X97297619Y38662857D01*
X97259523Y38510476D01*
X97221428Y38434285D01*
X97183333Y38396190D01*
X97107142Y38358095D01*
X97030952Y38358095D01*
X96954761Y38396190D01*
X96916666Y38434285D01*
X96878571Y38510476D01*
X96840476Y38662857D01*
X96840476Y38853333D01*
X96878571Y39005714D01*
X96916666Y39081904D01*
X96954761Y39120000D01*
X97030952Y39158095D01*
X98059523Y38358095D02*
X97602380Y38358095D01*
X97830952Y38358095D02*
X97830952Y39158095D01*
X97754761Y39043809D01*
X97678571Y38967619D01*
X97602380Y38929523D01*
X96078571Y35818095D02*
X96078571Y36618095D01*
X96383333Y36618095D01*
X96459523Y36580000D01*
X96497619Y36541904D01*
X96535714Y36465714D01*
X96535714Y36351428D01*
X96497619Y36275238D01*
X96459523Y36237142D01*
X96383333Y36199047D01*
X96078571Y36199047D01*
X97030952Y36618095D02*
X97107142Y36618095D01*
X97183333Y36580000D01*
X97221428Y36541904D01*
X97259523Y36465714D01*
X97297619Y36313333D01*
X97297619Y36122857D01*
X97259523Y35970476D01*
X97221428Y35894285D01*
X97183333Y35856190D01*
X97107142Y35818095D01*
X97030952Y35818095D01*
X96954761Y35856190D01*
X96916666Y35894285D01*
X96878571Y35970476D01*
X96840476Y36122857D01*
X96840476Y36313333D01*
X96878571Y36465714D01*
X96916666Y36541904D01*
X96954761Y36580000D01*
X97030952Y36618095D01*
X97792857Y36618095D02*
X97869047Y36618095D01*
X97945238Y36580000D01*
X97983333Y36541904D01*
X98021428Y36465714D01*
X98059523Y36313333D01*
X98059523Y36122857D01*
X98021428Y35970476D01*
X97983333Y35894285D01*
X97945238Y35856190D01*
X97869047Y35818095D01*
X97792857Y35818095D01*
X97716666Y35856190D01*
X97678571Y35894285D01*
X97640476Y35970476D01*
X97602380Y36122857D01*
X97602380Y36313333D01*
X97640476Y36465714D01*
X97678571Y36541904D01*
X97716666Y36580000D01*
X97792857Y36618095D01*
X96440476Y34040000D02*
X96364285Y34078095D01*
X96250000Y34078095D01*
X96135714Y34040000D01*
X96059523Y33963809D01*
X96021428Y33887619D01*
X95983333Y33735238D01*
X95983333Y33620952D01*
X96021428Y33468571D01*
X96059523Y33392380D01*
X96135714Y33316190D01*
X96250000Y33278095D01*
X96326190Y33278095D01*
X96440476Y33316190D01*
X96478571Y33354285D01*
X96478571Y33620952D01*
X96326190Y33620952D01*
X96821428Y33278095D02*
X96821428Y34078095D01*
X97278571Y33278095D01*
X97278571Y34078095D01*
X97659523Y33278095D02*
X97659523Y34078095D01*
X97850000Y34078095D01*
X97964285Y34040000D01*
X98040476Y33963809D01*
X98078571Y33887619D01*
X98116666Y33735238D01*
X98116666Y33620952D01*
X98078571Y33468571D01*
X98040476Y33392380D01*
X97964285Y33316190D01*
X97850000Y33278095D01*
X97659523Y33278095D01*
X96440476Y31500000D02*
X96364285Y31538095D01*
X96250000Y31538095D01*
X96135714Y31500000D01*
X96059523Y31423809D01*
X96021428Y31347619D01*
X95983333Y31195238D01*
X95983333Y31080952D01*
X96021428Y30928571D01*
X96059523Y30852380D01*
X96135714Y30776190D01*
X96250000Y30738095D01*
X96326190Y30738095D01*
X96440476Y30776190D01*
X96478571Y30814285D01*
X96478571Y31080952D01*
X96326190Y31080952D01*
X96821428Y30738095D02*
X96821428Y31538095D01*
X97278571Y30738095D01*
X97278571Y31538095D01*
X97659523Y30738095D02*
X97659523Y31538095D01*
X97850000Y31538095D01*
X97964285Y31500000D01*
X98040476Y31423809D01*
X98078571Y31347619D01*
X98116666Y31195238D01*
X98116666Y31080952D01*
X98078571Y30928571D01*
X98040476Y30852380D01*
X97964285Y30776190D01*
X97850000Y30738095D01*
X97659523Y30738095D01*
X96078571Y28198095D02*
X96078571Y28998095D01*
X96383333Y28998095D01*
X96459523Y28960000D01*
X96497619Y28921904D01*
X96535714Y28845714D01*
X96535714Y28731428D01*
X96497619Y28655238D01*
X96459523Y28617142D01*
X96383333Y28579047D01*
X96078571Y28579047D01*
X97030952Y28998095D02*
X97107142Y28998095D01*
X97183333Y28960000D01*
X97221428Y28921904D01*
X97259523Y28845714D01*
X97297619Y28693333D01*
X97297619Y28502857D01*
X97259523Y28350476D01*
X97221428Y28274285D01*
X97183333Y28236190D01*
X97107142Y28198095D01*
X97030952Y28198095D01*
X96954761Y28236190D01*
X96916666Y28274285D01*
X96878571Y28350476D01*
X96840476Y28502857D01*
X96840476Y28693333D01*
X96878571Y28845714D01*
X96916666Y28921904D01*
X96954761Y28960000D01*
X97030952Y28998095D01*
X97602380Y28921904D02*
X97640476Y28960000D01*
X97716666Y28998095D01*
X97907142Y28998095D01*
X97983333Y28960000D01*
X98021428Y28921904D01*
X98059523Y28845714D01*
X98059523Y28769523D01*
X98021428Y28655238D01*
X97564285Y28198095D01*
X98059523Y28198095D01*
X96078571Y25658095D02*
X96078571Y26458095D01*
X96383333Y26458095D01*
X96459523Y26420000D01*
X96497619Y26381904D01*
X96535714Y26305714D01*
X96535714Y26191428D01*
X96497619Y26115238D01*
X96459523Y26077142D01*
X96383333Y26039047D01*
X96078571Y26039047D01*
X97030952Y26458095D02*
X97107142Y26458095D01*
X97183333Y26420000D01*
X97221428Y26381904D01*
X97259523Y26305714D01*
X97297619Y26153333D01*
X97297619Y25962857D01*
X97259523Y25810476D01*
X97221428Y25734285D01*
X97183333Y25696190D01*
X97107142Y25658095D01*
X97030952Y25658095D01*
X96954761Y25696190D01*
X96916666Y25734285D01*
X96878571Y25810476D01*
X96840476Y25962857D01*
X96840476Y26153333D01*
X96878571Y26305714D01*
X96916666Y26381904D01*
X96954761Y26420000D01*
X97030952Y26458095D01*
X97564285Y26458095D02*
X98059523Y26458095D01*
X97792857Y26153333D01*
X97907142Y26153333D01*
X97983333Y26115238D01*
X98021428Y26077142D01*
X98059523Y26000952D01*
X98059523Y25810476D01*
X98021428Y25734285D01*
X97983333Y25696190D01*
X97907142Y25658095D01*
X97678571Y25658095D01*
X97602380Y25696190D01*
X97564285Y25734285D01*
X96078571Y23118095D02*
X96078571Y23918095D01*
X96383333Y23918095D01*
X96459523Y23880000D01*
X96497619Y23841904D01*
X96535714Y23765714D01*
X96535714Y23651428D01*
X96497619Y23575238D01*
X96459523Y23537142D01*
X96383333Y23499047D01*
X96078571Y23499047D01*
X97030952Y23918095D02*
X97107142Y23918095D01*
X97183333Y23880000D01*
X97221428Y23841904D01*
X97259523Y23765714D01*
X97297619Y23613333D01*
X97297619Y23422857D01*
X97259523Y23270476D01*
X97221428Y23194285D01*
X97183333Y23156190D01*
X97107142Y23118095D01*
X97030952Y23118095D01*
X96954761Y23156190D01*
X96916666Y23194285D01*
X96878571Y23270476D01*
X96840476Y23422857D01*
X96840476Y23613333D01*
X96878571Y23765714D01*
X96916666Y23841904D01*
X96954761Y23880000D01*
X97030952Y23918095D01*
X97983333Y23651428D02*
X97983333Y23118095D01*
X97792857Y23956190D02*
X97602380Y23384761D01*
X98097619Y23384761D01*
X96078571Y20578095D02*
X96078571Y21378095D01*
X96383333Y21378095D01*
X96459523Y21340000D01*
X96497619Y21301904D01*
X96535714Y21225714D01*
X96535714Y21111428D01*
X96497619Y21035238D01*
X96459523Y20997142D01*
X96383333Y20959047D01*
X96078571Y20959047D01*
X97030952Y21378095D02*
X97107142Y21378095D01*
X97183333Y21340000D01*
X97221428Y21301904D01*
X97259523Y21225714D01*
X97297619Y21073333D01*
X97297619Y20882857D01*
X97259523Y20730476D01*
X97221428Y20654285D01*
X97183333Y20616190D01*
X97107142Y20578095D01*
X97030952Y20578095D01*
X96954761Y20616190D01*
X96916666Y20654285D01*
X96878571Y20730476D01*
X96840476Y20882857D01*
X96840476Y21073333D01*
X96878571Y21225714D01*
X96916666Y21301904D01*
X96954761Y21340000D01*
X97030952Y21378095D01*
X98021428Y21378095D02*
X97640476Y21378095D01*
X97602380Y20997142D01*
X97640476Y21035238D01*
X97716666Y21073333D01*
X97907142Y21073333D01*
X97983333Y21035238D01*
X98021428Y20997142D01*
X98059523Y20920952D01*
X98059523Y20730476D01*
X98021428Y20654285D01*
X97983333Y20616190D01*
X97907142Y20578095D01*
X97716666Y20578095D01*
X97640476Y20616190D01*
X97602380Y20654285D01*
X96078571Y18038095D02*
X96078571Y18838095D01*
X96383333Y18838095D01*
X96459523Y18800000D01*
X96497619Y18761904D01*
X96535714Y18685714D01*
X96535714Y18571428D01*
X96497619Y18495238D01*
X96459523Y18457142D01*
X96383333Y18419047D01*
X96078571Y18419047D01*
X97030952Y18838095D02*
X97107142Y18838095D01*
X97183333Y18800000D01*
X97221428Y18761904D01*
X97259523Y18685714D01*
X97297619Y18533333D01*
X97297619Y18342857D01*
X97259523Y18190476D01*
X97221428Y18114285D01*
X97183333Y18076190D01*
X97107142Y18038095D01*
X97030952Y18038095D01*
X96954761Y18076190D01*
X96916666Y18114285D01*
X96878571Y18190476D01*
X96840476Y18342857D01*
X96840476Y18533333D01*
X96878571Y18685714D01*
X96916666Y18761904D01*
X96954761Y18800000D01*
X97030952Y18838095D01*
X97983333Y18838095D02*
X97830952Y18838095D01*
X97754761Y18800000D01*
X97716666Y18761904D01*
X97640476Y18647619D01*
X97602380Y18495238D01*
X97602380Y18190476D01*
X97640476Y18114285D01*
X97678571Y18076190D01*
X97754761Y18038095D01*
X97907142Y18038095D01*
X97983333Y18076190D01*
X98021428Y18114285D01*
X98059523Y18190476D01*
X98059523Y18380952D01*
X98021428Y18457142D01*
X97983333Y18495238D01*
X97907142Y18533333D01*
X97754761Y18533333D01*
X97678571Y18495238D01*
X97640476Y18457142D01*
X97602380Y18380952D01*
X96078571Y15498095D02*
X96078571Y16298095D01*
X96383333Y16298095D01*
X96459523Y16260000D01*
X96497619Y16221904D01*
X96535714Y16145714D01*
X96535714Y16031428D01*
X96497619Y15955238D01*
X96459523Y15917142D01*
X96383333Y15879047D01*
X96078571Y15879047D01*
X97030952Y16298095D02*
X97107142Y16298095D01*
X97183333Y16260000D01*
X97221428Y16221904D01*
X97259523Y16145714D01*
X97297619Y15993333D01*
X97297619Y15802857D01*
X97259523Y15650476D01*
X97221428Y15574285D01*
X97183333Y15536190D01*
X97107142Y15498095D01*
X97030952Y15498095D01*
X96954761Y15536190D01*
X96916666Y15574285D01*
X96878571Y15650476D01*
X96840476Y15802857D01*
X96840476Y15993333D01*
X96878571Y16145714D01*
X96916666Y16221904D01*
X96954761Y16260000D01*
X97030952Y16298095D01*
X97564285Y16298095D02*
X98097619Y16298095D01*
X97754761Y15498095D01*
X96078571Y12958095D02*
X96078571Y13758095D01*
X96383333Y13758095D01*
X96459523Y13720000D01*
X96497619Y13681904D01*
X96535714Y13605714D01*
X96535714Y13491428D01*
X96497619Y13415238D01*
X96459523Y13377142D01*
X96383333Y13339047D01*
X96078571Y13339047D01*
X97030952Y13758095D02*
X97107142Y13758095D01*
X97183333Y13720000D01*
X97221428Y13681904D01*
X97259523Y13605714D01*
X97297619Y13453333D01*
X97297619Y13262857D01*
X97259523Y13110476D01*
X97221428Y13034285D01*
X97183333Y12996190D01*
X97107142Y12958095D01*
X97030952Y12958095D01*
X96954761Y12996190D01*
X96916666Y13034285D01*
X96878571Y13110476D01*
X96840476Y13262857D01*
X96840476Y13453333D01*
X96878571Y13605714D01*
X96916666Y13681904D01*
X96954761Y13720000D01*
X97030952Y13758095D01*
X97754761Y13415238D02*
X97678571Y13453333D01*
X97640476Y13491428D01*
X97602380Y13567619D01*
X97602380Y13605714D01*
X97640476Y13681904D01*
X97678571Y13720000D01*
X97754761Y13758095D01*
X97907142Y13758095D01*
X97983333Y13720000D01*
X98021428Y13681904D01*
X98059523Y13605714D01*
X98059523Y13567619D01*
X98021428Y13491428D01*
X97983333Y13453333D01*
X97907142Y13415238D01*
X97754761Y13415238D01*
X97678571Y13377142D01*
X97640476Y13339047D01*
X97602380Y13262857D01*
X97602380Y13110476D01*
X97640476Y13034285D01*
X97678571Y12996190D01*
X97754761Y12958095D01*
X97907142Y12958095D01*
X97983333Y12996190D01*
X98021428Y13034285D01*
X98059523Y13110476D01*
X98059523Y13262857D01*
X98021428Y13339047D01*
X97983333Y13377142D01*
X97907142Y13415238D01*
X96078571Y10418095D02*
X96078571Y11218095D01*
X96383333Y11218095D01*
X96459523Y11180000D01*
X96497619Y11141904D01*
X96535714Y11065714D01*
X96535714Y10951428D01*
X96497619Y10875238D01*
X96459523Y10837142D01*
X96383333Y10799047D01*
X96078571Y10799047D01*
X97030952Y11218095D02*
X97107142Y11218095D01*
X97183333Y11180000D01*
X97221428Y11141904D01*
X97259523Y11065714D01*
X97297619Y10913333D01*
X97297619Y10722857D01*
X97259523Y10570476D01*
X97221428Y10494285D01*
X97183333Y10456190D01*
X97107142Y10418095D01*
X97030952Y10418095D01*
X96954761Y10456190D01*
X96916666Y10494285D01*
X96878571Y10570476D01*
X96840476Y10722857D01*
X96840476Y10913333D01*
X96878571Y11065714D01*
X96916666Y11141904D01*
X96954761Y11180000D01*
X97030952Y11218095D01*
X97678571Y10418095D02*
X97830952Y10418095D01*
X97907142Y10456190D01*
X97945238Y10494285D01*
X98021428Y10608571D01*
X98059523Y10760952D01*
X98059523Y11065714D01*
X98021428Y11141904D01*
X97983333Y11180000D01*
X97907142Y11218095D01*
X97754761Y11218095D01*
X97678571Y11180000D01*
X97640476Y11141904D01*
X97602380Y11065714D01*
X97602380Y10875238D01*
X97640476Y10799047D01*
X97678571Y10760952D01*
X97754761Y10722857D01*
X97907142Y10722857D01*
X97983333Y10760952D01*
X98021428Y10799047D01*
X98059523Y10875238D01*
X83360000Y42530000D02*
X83360000Y9510000D01*
X83360000Y9510000D02*
X101140000Y9510000D01*
X101140000Y9510000D02*
X101140000Y42530000D01*
X101140000Y42530000D02*
X83360000Y42530000D01*
X85900000Y39990000D02*
X85900000Y37450000D01*
X85900000Y39990000D02*
X83360000Y39990000D01*
X85900000Y37450000D02*
X83360000Y37450000D01*
D11*
%TO.C,D1*%
X250000Y-4500000D02*
X750000Y-4500000D01*
X250000Y-4900000D02*
X-350000Y-4500000D01*
X250000Y-4100000D02*
X250000Y-4900000D01*
X-350000Y-4500000D02*
X250000Y-4100000D01*
X-350000Y-4500000D02*
X-350000Y-5050000D01*
X-350000Y-4500000D02*
X-350000Y-3950000D01*
X-750000Y-4500000D02*
X-350000Y-4500000D01*
%TO.C,D2*%
X250000Y12500000D02*
X750000Y12500000D01*
X250000Y12100000D02*
X-350000Y12500000D01*
X250000Y12900000D02*
X250000Y12100000D01*
X-350000Y12500000D02*
X250000Y12900000D01*
X-350000Y12500000D02*
X-350000Y11950000D01*
X-350000Y12500000D02*
X-350000Y13050000D01*
X-750000Y12500000D02*
X-350000Y12500000D01*
%TO.C,D3*%
X250000Y29500000D02*
X750000Y29500000D01*
X250000Y29100000D02*
X-350000Y29500000D01*
X250000Y29900000D02*
X250000Y29100000D01*
X-350000Y29500000D02*
X250000Y29900000D01*
X-350000Y29500000D02*
X-350000Y28950000D01*
X-350000Y29500000D02*
X-350000Y30050000D01*
X-750000Y29500000D02*
X-350000Y29500000D01*
%TO.C,D4*%
X18250000Y-4500000D02*
X18750000Y-4500000D01*
X18250000Y-4900000D02*
X17650000Y-4500000D01*
X18250000Y-4100000D02*
X18250000Y-4900000D01*
X17650000Y-4500000D02*
X18250000Y-4100000D01*
X17650000Y-4500000D02*
X17650000Y-5050000D01*
X17650000Y-4500000D02*
X17650000Y-3950000D01*
X17250000Y-4500000D02*
X17650000Y-4500000D01*
%TO.C,D5*%
X18250000Y12500000D02*
X18750000Y12500000D01*
X18250000Y12100000D02*
X17650000Y12500000D01*
X18250000Y12900000D02*
X18250000Y12100000D01*
X17650000Y12500000D02*
X18250000Y12900000D01*
X17650000Y12500000D02*
X17650000Y11950000D01*
X17650000Y12500000D02*
X17650000Y13050000D01*
X17250000Y12500000D02*
X17650000Y12500000D01*
%TO.C,D6*%
X18250000Y29500000D02*
X18750000Y29500000D01*
X18250000Y29100000D02*
X17650000Y29500000D01*
X18250000Y29900000D02*
X18250000Y29100000D01*
X17650000Y29500000D02*
X18250000Y29900000D01*
X17650000Y29500000D02*
X17650000Y28950000D01*
X17650000Y29500000D02*
X17650000Y30050000D01*
X17250000Y29500000D02*
X17650000Y29500000D01*
%TO.C,D7*%
X36250000Y-4500000D02*
X36750000Y-4500000D01*
X36250000Y-4900000D02*
X35650000Y-4500000D01*
X36250000Y-4100000D02*
X36250000Y-4900000D01*
X35650000Y-4500000D02*
X36250000Y-4100000D01*
X35650000Y-4500000D02*
X35650000Y-5050000D01*
X35650000Y-4500000D02*
X35650000Y-3950000D01*
X35250000Y-4500000D02*
X35650000Y-4500000D01*
%TO.C,D8*%
X36250000Y12500000D02*
X36750000Y12500000D01*
X36250000Y12100000D02*
X35650000Y12500000D01*
X36250000Y12900000D02*
X36250000Y12100000D01*
X35650000Y12500000D02*
X36250000Y12900000D01*
X35650000Y12500000D02*
X35650000Y11950000D01*
X35650000Y12500000D02*
X35650000Y13050000D01*
X35250000Y12500000D02*
X35650000Y12500000D01*
%TO.C,D9*%
X36250000Y29500000D02*
X36750000Y29500000D01*
X36250000Y29100000D02*
X35650000Y29500000D01*
X36250000Y29900000D02*
X36250000Y29100000D01*
X35650000Y29500000D02*
X36250000Y29900000D01*
X35650000Y29500000D02*
X35650000Y28950000D01*
X35650000Y29500000D02*
X35650000Y30050000D01*
X35250000Y29500000D02*
X35650000Y29500000D01*
%TO.C,D10*%
X54250000Y-4500000D02*
X54750000Y-4500000D01*
X54250000Y-4900000D02*
X53650000Y-4500000D01*
X54250000Y-4100000D02*
X54250000Y-4900000D01*
X53650000Y-4500000D02*
X54250000Y-4100000D01*
X53650000Y-4500000D02*
X53650000Y-5050000D01*
X53650000Y-4500000D02*
X53650000Y-3950000D01*
X53250000Y-4500000D02*
X53650000Y-4500000D01*
%TO.C,D11*%
X54250000Y12500000D02*
X54750000Y12500000D01*
X54250000Y12100000D02*
X53650000Y12500000D01*
X54250000Y12900000D02*
X54250000Y12100000D01*
X53650000Y12500000D02*
X54250000Y12900000D01*
X53650000Y12500000D02*
X53650000Y11950000D01*
X53650000Y12500000D02*
X53650000Y13050000D01*
X53250000Y12500000D02*
X53650000Y12500000D01*
%TO.C,D12*%
X54250000Y29500000D02*
X54750000Y29500000D01*
X54250000Y29100000D02*
X53650000Y29500000D01*
X54250000Y29900000D02*
X54250000Y29100000D01*
X53650000Y29500000D02*
X54250000Y29900000D01*
X53650000Y29500000D02*
X53650000Y28950000D01*
X53650000Y29500000D02*
X53650000Y30050000D01*
X53250000Y29500000D02*
X53650000Y29500000D01*
%TO.C,D13*%
X72250000Y-4500000D02*
X72750000Y-4500000D01*
X72250000Y-4900000D02*
X71650000Y-4500000D01*
X72250000Y-4100000D02*
X72250000Y-4900000D01*
X71650000Y-4500000D02*
X72250000Y-4100000D01*
X71650000Y-4500000D02*
X71650000Y-5050000D01*
X71650000Y-4500000D02*
X71650000Y-3950000D01*
X71250000Y-4500000D02*
X71650000Y-4500000D01*
%TO.C,D14*%
X72250000Y12500000D02*
X72750000Y12500000D01*
X72250000Y12100000D02*
X71650000Y12500000D01*
X72250000Y12900000D02*
X72250000Y12100000D01*
X71650000Y12500000D02*
X72250000Y12900000D01*
X71650000Y12500000D02*
X71650000Y11950000D01*
X71650000Y12500000D02*
X71650000Y13050000D01*
X71250000Y12500000D02*
X71650000Y12500000D01*
%TO.C,D15*%
X72250000Y29500000D02*
X72750000Y29500000D01*
X72250000Y29100000D02*
X71650000Y29500000D01*
X72250000Y29900000D02*
X72250000Y29100000D01*
X71650000Y29500000D02*
X72250000Y29900000D01*
X71650000Y29500000D02*
X71650000Y28950000D01*
X71650000Y29500000D02*
X71650000Y30050000D01*
X71250000Y29500000D02*
X71650000Y29500000D01*
%TO.C,D16*%
X112750000Y-4500000D02*
X113250000Y-4500000D01*
X112750000Y-4900000D02*
X112150000Y-4500000D01*
X112750000Y-4100000D02*
X112750000Y-4900000D01*
X112150000Y-4500000D02*
X112750000Y-4100000D01*
X112150000Y-4500000D02*
X112150000Y-5050000D01*
X112150000Y-4500000D02*
X112150000Y-3950000D01*
X111750000Y-4500000D02*
X112150000Y-4500000D01*
%TO.C,D17*%
X112750000Y12500000D02*
X113250000Y12500000D01*
X112750000Y12100000D02*
X112150000Y12500000D01*
X112750000Y12900000D02*
X112750000Y12100000D01*
X112150000Y12500000D02*
X112750000Y12900000D01*
X112150000Y12500000D02*
X112150000Y11950000D01*
X112150000Y12500000D02*
X112150000Y13050000D01*
X111750000Y12500000D02*
X112150000Y12500000D01*
%TO.C,D18*%
X112750000Y29500000D02*
X113250000Y29500000D01*
X112750000Y29100000D02*
X112150000Y29500000D01*
X112750000Y29900000D02*
X112750000Y29100000D01*
X112150000Y29500000D02*
X112750000Y29900000D01*
X112150000Y29500000D02*
X112150000Y28950000D01*
X112150000Y29500000D02*
X112150000Y30050000D01*
X111750000Y29500000D02*
X112150000Y29500000D01*
%TO.C,D19*%
X130750000Y-4500000D02*
X131250000Y-4500000D01*
X130750000Y-4900000D02*
X130150000Y-4500000D01*
X130750000Y-4100000D02*
X130750000Y-4900000D01*
X130150000Y-4500000D02*
X130750000Y-4100000D01*
X130150000Y-4500000D02*
X130150000Y-5050000D01*
X130150000Y-4500000D02*
X130150000Y-3950000D01*
X129750000Y-4500000D02*
X130150000Y-4500000D01*
%TO.C,D20*%
X130750000Y12500000D02*
X131250000Y12500000D01*
X130750000Y12100000D02*
X130150000Y12500000D01*
X130750000Y12900000D02*
X130750000Y12100000D01*
X130150000Y12500000D02*
X130750000Y12900000D01*
X130150000Y12500000D02*
X130150000Y11950000D01*
X130150000Y12500000D02*
X130150000Y13050000D01*
X129750000Y12500000D02*
X130150000Y12500000D01*
%TO.C,D21*%
X130750000Y29500000D02*
X131250000Y29500000D01*
X130750000Y29100000D02*
X130150000Y29500000D01*
X130750000Y29900000D02*
X130750000Y29100000D01*
X130150000Y29500000D02*
X130750000Y29900000D01*
X130150000Y29500000D02*
X130150000Y28950000D01*
X130150000Y29500000D02*
X130150000Y30050000D01*
X129750000Y29500000D02*
X130150000Y29500000D01*
%TO.C,D22*%
X148750000Y-4500000D02*
X149250000Y-4500000D01*
X148750000Y-4900000D02*
X148150000Y-4500000D01*
X148750000Y-4100000D02*
X148750000Y-4900000D01*
X148150000Y-4500000D02*
X148750000Y-4100000D01*
X148150000Y-4500000D02*
X148150000Y-5050000D01*
X148150000Y-4500000D02*
X148150000Y-3950000D01*
X147750000Y-4500000D02*
X148150000Y-4500000D01*
%TO.C,D23*%
X148750000Y12500000D02*
X149250000Y12500000D01*
X148750000Y12100000D02*
X148150000Y12500000D01*
X148750000Y12900000D02*
X148750000Y12100000D01*
X148150000Y12500000D02*
X148750000Y12900000D01*
X148150000Y12500000D02*
X148150000Y11950000D01*
X148150000Y12500000D02*
X148150000Y13050000D01*
X147750000Y12500000D02*
X148150000Y12500000D01*
%TO.C,D24*%
X148750000Y29500000D02*
X149250000Y29500000D01*
X148750000Y29100000D02*
X148150000Y29500000D01*
X148750000Y29900000D02*
X148750000Y29100000D01*
X148150000Y29500000D02*
X148750000Y29900000D01*
X148150000Y29500000D02*
X148150000Y28950000D01*
X148150000Y29500000D02*
X148150000Y30050000D01*
X147750000Y29500000D02*
X148150000Y29500000D01*
%TO.C,D25*%
X166750000Y-4500000D02*
X167250000Y-4500000D01*
X166750000Y-4900000D02*
X166150000Y-4500000D01*
X166750000Y-4100000D02*
X166750000Y-4900000D01*
X166150000Y-4500000D02*
X166750000Y-4100000D01*
X166150000Y-4500000D02*
X166150000Y-5050000D01*
X166150000Y-4500000D02*
X166150000Y-3950000D01*
X165750000Y-4500000D02*
X166150000Y-4500000D01*
%TO.C,D26*%
X166750000Y12500000D02*
X167250000Y12500000D01*
X166750000Y12100000D02*
X166150000Y12500000D01*
X166750000Y12900000D02*
X166750000Y12100000D01*
X166150000Y12500000D02*
X166750000Y12900000D01*
X166150000Y12500000D02*
X166150000Y11950000D01*
X166150000Y12500000D02*
X166150000Y13050000D01*
X165750000Y12500000D02*
X166150000Y12500000D01*
%TO.C,D27*%
X166750000Y29500000D02*
X167250000Y29500000D01*
X166750000Y29100000D02*
X166150000Y29500000D01*
X166750000Y29900000D02*
X166750000Y29100000D01*
X166150000Y29500000D02*
X166750000Y29900000D01*
X166150000Y29500000D02*
X166150000Y28950000D01*
X166150000Y29500000D02*
X166150000Y30050000D01*
X165750000Y29500000D02*
X166150000Y29500000D01*
%TO.C,D28*%
X184750000Y-4500000D02*
X185250000Y-4500000D01*
X184750000Y-4900000D02*
X184150000Y-4500000D01*
X184750000Y-4100000D02*
X184750000Y-4900000D01*
X184150000Y-4500000D02*
X184750000Y-4100000D01*
X184150000Y-4500000D02*
X184150000Y-5050000D01*
X184150000Y-4500000D02*
X184150000Y-3950000D01*
X183750000Y-4500000D02*
X184150000Y-4500000D01*
%TO.C,D29*%
X184750000Y12500000D02*
X185250000Y12500000D01*
X184750000Y12100000D02*
X184150000Y12500000D01*
X184750000Y12900000D02*
X184750000Y12100000D01*
X184150000Y12500000D02*
X184750000Y12900000D01*
X184150000Y12500000D02*
X184150000Y11950000D01*
X184150000Y12500000D02*
X184150000Y13050000D01*
X183750000Y12500000D02*
X184150000Y12500000D01*
%TO.C,D30*%
X184750000Y29500000D02*
X185250000Y29500000D01*
X184750000Y29100000D02*
X184150000Y29500000D01*
X184750000Y29900000D02*
X184750000Y29100000D01*
X184150000Y29500000D02*
X184750000Y29900000D01*
X184150000Y29500000D02*
X184150000Y28950000D01*
X184150000Y29500000D02*
X184150000Y30050000D01*
X183750000Y29500000D02*
X184150000Y29500000D01*
%TD*%
D12*
%TO.C,MCU1*%
X84630000Y38720000D03*
D13*
X84630000Y36180000D03*
X84630000Y33640000D03*
X84630000Y31100000D03*
X84630000Y28560000D03*
X84630000Y26020000D03*
X84630000Y23480000D03*
X84630000Y20940000D03*
X84630000Y18400000D03*
X84630000Y15860000D03*
X84630000Y13320000D03*
X84630000Y10780000D03*
X99870000Y38720000D03*
X99870000Y36180000D03*
X99870000Y33640000D03*
X99870000Y31100000D03*
X99870000Y28560000D03*
X99870000Y26020000D03*
X99870000Y23480000D03*
X99870000Y20940000D03*
X99870000Y18400000D03*
X99870000Y15860000D03*
X99870000Y13320000D03*
X99870000Y10780000D03*
%TD*%
M02*
