%TF.GenerationSoftware,KiCad,Pcbnew,(6.0.4)*%
%TF.CreationDate,2022-06-28T23:54:07-04:00*%
%TF.ProjectId,satpad,73617470-6164-42e6-9b69-6361645f7063,v1.0.0*%
%TF.SameCoordinates,Original*%
%TF.FileFunction,Copper,L2,Bot*%
%TF.FilePolarity,Positive*%
%FSLAX46Y46*%
G04 Gerber Fmt 4.6, Leading zero omitted, Abs format (unit mm)*
G04 Created by KiCad (PCBNEW (6.0.4)) date 2022-06-28 23:54:07*
%MOMM*%
%LPD*%
G01*
G04 APERTURE LIST*
%TA.AperFunction,ComponentPad*%
%ADD10R,1.752600X1.752600*%
%TD*%
%TA.AperFunction,ComponentPad*%
%ADD11C,1.752600*%
%TD*%
%TA.AperFunction,ComponentPad*%
%ADD12C,2.032000*%
%TD*%
%TA.AperFunction,SMDPad,CuDef*%
%ADD13R,0.900000X1.200000*%
%TD*%
%TA.AperFunction,ComponentPad*%
%ADD14C,1.905000*%
%TD*%
%TA.AperFunction,ComponentPad*%
%ADD15R,1.778000X1.778000*%
%TD*%
%TA.AperFunction,ComponentPad*%
%ADD16O,1.700000X1.700000*%
%TD*%
%TA.AperFunction,ComponentPad*%
%ADD17R,1.700000X1.700000*%
%TD*%
%TA.AperFunction,ComponentPad*%
%ADD18C,1.600000*%
%TD*%
%TA.AperFunction,ViaPad*%
%ADD19C,0.800000*%
%TD*%
%TA.AperFunction,Conductor*%
%ADD20C,0.250000*%
%TD*%
G04 APERTURE END LIST*
D10*
%TO.P,MCU1,1*%
%TO.N,RAW*%
X84630000Y38720000D03*
D11*
%TO.P,MCU1,2*%
%TO.N,GND*%
X84630000Y36180000D03*
%TO.P,MCU1,3*%
%TO.N,RST*%
X84630000Y33640000D03*
%TO.P,MCU1,4*%
%TO.N,VCC*%
X84630000Y31100000D03*
%TO.P,MCU1,5*%
%TO.N,P21*%
X84630000Y28560000D03*
%TO.P,MCU1,6*%
%TO.N,P20*%
X84630000Y26020000D03*
%TO.P,MCU1,7*%
%TO.N,P19*%
X84630000Y23480000D03*
%TO.P,MCU1,8*%
%TO.N,P18*%
X84630000Y20940000D03*
%TO.P,MCU1,9*%
%TO.N,P15*%
X84630000Y18400000D03*
%TO.P,MCU1,10*%
%TO.N,P14*%
X84630000Y15860000D03*
%TO.P,MCU1,11*%
%TO.N,P16*%
X84630000Y13320000D03*
%TO.P,MCU1,12*%
%TO.N,P10*%
X84630000Y10780000D03*
%TO.P,MCU1,13*%
%TO.N,P1*%
X99870000Y38720000D03*
%TO.P,MCU1,14*%
%TO.N,P0*%
X99870000Y36180000D03*
%TO.P,MCU1,15*%
%TO.N,GND*%
X99870000Y33640000D03*
%TO.P,MCU1,16*%
X99870000Y31100000D03*
%TO.P,MCU1,17*%
%TO.N,P2*%
X99870000Y28560000D03*
%TO.P,MCU1,18*%
%TO.N,P3*%
X99870000Y26020000D03*
%TO.P,MCU1,19*%
%TO.N,P4*%
X99870000Y23480000D03*
%TO.P,MCU1,20*%
%TO.N,P5*%
X99870000Y20940000D03*
%TO.P,MCU1,21*%
%TO.N,P6*%
X99870000Y18400000D03*
%TO.P,MCU1,22*%
%TO.N,P7*%
X99870000Y15860000D03*
%TO.P,MCU1,23*%
%TO.N,P8*%
X99870000Y13320000D03*
%TO.P,MCU1,24*%
%TO.N,P9*%
X99870000Y10780000D03*
%TD*%
D12*
%TO.P,S1,1*%
%TO.N,one_bottom*%
X5000000Y3800000D03*
%TO.P,S1,2*%
%TO.N,P21*%
X0Y5900000D03*
%TD*%
D13*
%TO.P,D1,2*%
%TO.N,one_bottom*%
X1650000Y-4500000D03*
%TO.P,D1,1*%
%TO.N,P10*%
X-1650000Y-4500000D03*
D14*
%TO.N,one_bottom*%
X3810000Y-4500000D03*
D15*
%TO.P,D1,2*%
%TO.N,P10*%
X-3810000Y-4500000D03*
%TD*%
D12*
%TO.P,S2,1*%
%TO.N,one_home*%
X5000000Y20800000D03*
%TO.P,S2,2*%
%TO.N,P21*%
X0Y22900000D03*
%TD*%
D13*
%TO.P,D2,2*%
%TO.N,one_home*%
X1650000Y12500000D03*
%TO.P,D2,1*%
%TO.N,P16*%
X-1650000Y12500000D03*
D14*
%TO.N,one_home*%
X3810000Y12500000D03*
D15*
%TO.P,D2,2*%
%TO.N,P16*%
X-3810000Y12500000D03*
%TD*%
D12*
%TO.P,S3,1*%
%TO.N,one_top*%
X5000000Y37800000D03*
%TO.P,S3,2*%
%TO.N,P21*%
X0Y39900000D03*
%TD*%
D13*
%TO.P,D3,2*%
%TO.N,one_top*%
X1650000Y29500000D03*
%TO.P,D3,1*%
%TO.N,P14*%
X-1650000Y29500000D03*
D14*
%TO.N,one_top*%
X3810000Y29500000D03*
D15*
%TO.P,D3,2*%
%TO.N,P14*%
X-3810000Y29500000D03*
%TD*%
D12*
%TO.P,S4,1*%
%TO.N,two_bottom*%
X23000000Y3800000D03*
%TO.P,S4,2*%
%TO.N,P20*%
X18000000Y5900000D03*
%TD*%
D13*
%TO.P,D4,2*%
%TO.N,two_bottom*%
X19650000Y-4500000D03*
%TO.P,D4,1*%
%TO.N,P10*%
X16350000Y-4500000D03*
D14*
%TO.N,two_bottom*%
X21810000Y-4500000D03*
D15*
%TO.P,D4,2*%
%TO.N,P10*%
X14190000Y-4500000D03*
%TD*%
D12*
%TO.P,S5,1*%
%TO.N,two_home*%
X23000000Y20800000D03*
%TO.P,S5,2*%
%TO.N,P20*%
X18000000Y22900000D03*
%TD*%
D13*
%TO.P,D5,2*%
%TO.N,two_home*%
X19650000Y12500000D03*
%TO.P,D5,1*%
%TO.N,P16*%
X16350000Y12500000D03*
D14*
%TO.N,two_home*%
X21810000Y12500000D03*
D15*
%TO.P,D5,2*%
%TO.N,P16*%
X14190000Y12500000D03*
%TD*%
D12*
%TO.P,S6,1*%
%TO.N,two_top*%
X23000000Y37800000D03*
%TO.P,S6,2*%
%TO.N,P20*%
X18000000Y39900000D03*
%TD*%
D13*
%TO.P,D6,2*%
%TO.N,two_top*%
X19650000Y29500000D03*
%TO.P,D6,1*%
%TO.N,P14*%
X16350000Y29500000D03*
D14*
%TO.N,two_top*%
X21810000Y29500000D03*
D15*
%TO.P,D6,2*%
%TO.N,P14*%
X14190000Y29500000D03*
%TD*%
D12*
%TO.P,S7,1*%
%TO.N,three_bottom*%
X41000000Y3800000D03*
%TO.P,S7,2*%
%TO.N,P19*%
X36000000Y5900000D03*
%TD*%
D13*
%TO.P,D7,2*%
%TO.N,three_bottom*%
X37650000Y-4500000D03*
%TO.P,D7,1*%
%TO.N,P10*%
X34350000Y-4500000D03*
D14*
%TO.N,three_bottom*%
X39810000Y-4500000D03*
D15*
%TO.P,D7,2*%
%TO.N,P10*%
X32190000Y-4500000D03*
%TD*%
D12*
%TO.P,S8,1*%
%TO.N,three_home*%
X41000000Y20800000D03*
%TO.P,S8,2*%
%TO.N,P19*%
X36000000Y22900000D03*
%TD*%
D13*
%TO.P,D8,2*%
%TO.N,three_home*%
X37650000Y12500000D03*
%TO.P,D8,1*%
%TO.N,P16*%
X34350000Y12500000D03*
D14*
%TO.N,three_home*%
X39810000Y12500000D03*
D15*
%TO.P,D8,2*%
%TO.N,P16*%
X32190000Y12500000D03*
%TD*%
D12*
%TO.P,S9,1*%
%TO.N,three_top*%
X41000000Y37800000D03*
%TO.P,S9,2*%
%TO.N,P19*%
X36000000Y39900000D03*
%TD*%
D13*
%TO.P,D9,2*%
%TO.N,three_top*%
X37650000Y29500000D03*
%TO.P,D9,1*%
%TO.N,P14*%
X34350000Y29500000D03*
D14*
%TO.N,three_top*%
X39810000Y29500000D03*
D15*
%TO.P,D9,2*%
%TO.N,P14*%
X32190000Y29500000D03*
%TD*%
D12*
%TO.P,S10,1*%
%TO.N,four_bottom*%
X59000000Y3800000D03*
%TO.P,S10,2*%
%TO.N,P18*%
X54000000Y5900000D03*
%TD*%
D13*
%TO.P,D10,2*%
%TO.N,four_bottom*%
X55650000Y-4500000D03*
%TO.P,D10,1*%
%TO.N,P10*%
X52350000Y-4500000D03*
D14*
%TO.N,four_bottom*%
X57810000Y-4500000D03*
D15*
%TO.P,D10,2*%
%TO.N,P10*%
X50190000Y-4500000D03*
%TD*%
D12*
%TO.P,S11,2*%
%TO.N,P18*%
X54000000Y22900000D03*
%TO.P,S11,1*%
%TO.N,four_home*%
X59000000Y20800000D03*
%TD*%
D13*
%TO.P,D11,2*%
%TO.N,four_home*%
X55650000Y12500000D03*
%TO.P,D11,1*%
%TO.N,P16*%
X52350000Y12500000D03*
D14*
%TO.N,four_home*%
X57810000Y12500000D03*
D15*
%TO.P,D11,2*%
%TO.N,P16*%
X50190000Y12500000D03*
%TD*%
D12*
%TO.P,S12,1*%
%TO.N,four_top*%
X59000000Y37800000D03*
%TO.P,S12,2*%
%TO.N,P18*%
X54000000Y39900000D03*
%TD*%
D13*
%TO.P,D12,2*%
%TO.N,four_top*%
X55650000Y29500000D03*
%TO.P,D12,1*%
%TO.N,P14*%
X52350000Y29500000D03*
D14*
%TO.N,four_top*%
X57810000Y29500000D03*
D15*
%TO.P,D12,2*%
%TO.N,P14*%
X50190000Y29500000D03*
%TD*%
D12*
%TO.P,S13,1*%
%TO.N,five_bottom*%
X77000000Y3800000D03*
%TO.P,S13,2*%
%TO.N,P15*%
X72000000Y5900000D03*
%TD*%
D13*
%TO.P,D13,2*%
%TO.N,five_bottom*%
X73650000Y-4500000D03*
%TO.P,D13,1*%
%TO.N,P10*%
X70350000Y-4500000D03*
D14*
%TO.N,five_bottom*%
X75810000Y-4500000D03*
D15*
%TO.P,D13,2*%
%TO.N,P10*%
X68190000Y-4500000D03*
%TD*%
D12*
%TO.P,S14,1*%
%TO.N,five_home*%
X77000000Y20800000D03*
%TO.P,S14,2*%
%TO.N,P15*%
X72000000Y22900000D03*
%TD*%
D13*
%TO.P,D14,2*%
%TO.N,five_home*%
X73650000Y12500000D03*
%TO.P,D14,1*%
%TO.N,P16*%
X70350000Y12500000D03*
D14*
%TO.N,five_home*%
X75810000Y12500000D03*
D15*
%TO.P,D14,2*%
%TO.N,P16*%
X68190000Y12500000D03*
%TD*%
D12*
%TO.P,S15,1*%
%TO.N,five_top*%
X77000000Y37800000D03*
%TO.P,S15,2*%
%TO.N,P15*%
X72000000Y39900000D03*
%TD*%
D13*
%TO.P,D15,2*%
%TO.N,five_top*%
X73650000Y29500000D03*
%TO.P,D15,1*%
%TO.N,P14*%
X70350000Y29500000D03*
D14*
%TO.N,five_top*%
X75810000Y29500000D03*
D15*
%TO.P,D15,2*%
%TO.N,P14*%
X68190000Y29500000D03*
%TD*%
D12*
%TO.P,S16,1*%
%TO.N,seven_bottom*%
X117500000Y3800000D03*
%TO.P,S16,2*%
%TO.N,P15*%
X112500000Y5900000D03*
%TD*%
D13*
%TO.P,D16,2*%
%TO.N,seven_bottom*%
X114150000Y-4500000D03*
%TO.P,D16,1*%
%TO.N,P4*%
X110850000Y-4500000D03*
D14*
%TO.N,seven_bottom*%
X116310000Y-4500000D03*
D15*
%TO.P,D16,2*%
%TO.N,P4*%
X108690000Y-4500000D03*
%TD*%
D12*
%TO.P,S17,1*%
%TO.N,seven_home*%
X117500000Y20800000D03*
%TO.P,S17,2*%
%TO.N,P15*%
X112500000Y22900000D03*
%TD*%
D13*
%TO.P,D17,2*%
%TO.N,seven_home*%
X114150000Y12500000D03*
%TO.P,D17,1*%
%TO.N,P0*%
X110850000Y12500000D03*
D14*
%TO.N,seven_home*%
X116310000Y12500000D03*
D15*
%TO.P,D17,2*%
%TO.N,P0*%
X108690000Y12500000D03*
%TD*%
D12*
%TO.P,S18,1*%
%TO.N,seven_top*%
X117500000Y37800000D03*
%TO.P,S18,2*%
%TO.N,P15*%
X112500000Y39900000D03*
%TD*%
D13*
%TO.P,D18,2*%
%TO.N,seven_top*%
X114150000Y29500000D03*
%TO.P,D18,1*%
%TO.N,P1*%
X110850000Y29500000D03*
D14*
%TO.N,seven_top*%
X116310000Y29500000D03*
D15*
%TO.P,D18,2*%
%TO.N,P1*%
X108690000Y29500000D03*
%TD*%
D12*
%TO.P,S19,1*%
%TO.N,eight_bottom*%
X135500000Y3800000D03*
%TO.P,S19,2*%
%TO.N,P18*%
X130500000Y5900000D03*
%TD*%
D13*
%TO.P,D19,2*%
%TO.N,eight_bottom*%
X132150000Y-4500000D03*
%TO.P,D19,1*%
%TO.N,P4*%
X128850000Y-4500000D03*
D14*
%TO.N,eight_bottom*%
X134310000Y-4500000D03*
D15*
%TO.P,D19,2*%
%TO.N,P4*%
X126690000Y-4500000D03*
%TD*%
D12*
%TO.P,S20,1*%
%TO.N,eight_home*%
X135500000Y20800000D03*
%TO.P,S20,2*%
%TO.N,P18*%
X130500000Y22900000D03*
%TD*%
D13*
%TO.P,D20,2*%
%TO.N,eight_home*%
X132150000Y12500000D03*
%TO.P,D20,1*%
%TO.N,P0*%
X128850000Y12500000D03*
D14*
%TO.N,eight_home*%
X134310000Y12500000D03*
D15*
%TO.P,D20,2*%
%TO.N,P0*%
X126690000Y12500000D03*
%TD*%
D12*
%TO.P,S21,1*%
%TO.N,eight_top*%
X135500000Y37800000D03*
%TO.P,S21,2*%
%TO.N,P18*%
X130500000Y39900000D03*
%TD*%
D13*
%TO.P,D21,2*%
%TO.N,eight_top*%
X132150000Y29500000D03*
%TO.P,D21,1*%
%TO.N,P1*%
X128850000Y29500000D03*
D14*
%TO.N,eight_top*%
X134310000Y29500000D03*
D15*
%TO.P,D21,2*%
%TO.N,P1*%
X126690000Y29500000D03*
%TD*%
D12*
%TO.P,S22,1*%
%TO.N,nine_bottom*%
X153500000Y3800000D03*
%TO.P,S22,2*%
%TO.N,P19*%
X148500000Y5900000D03*
%TD*%
D13*
%TO.P,D22,2*%
%TO.N,nine_bottom*%
X150150000Y-4500000D03*
%TO.P,D22,1*%
%TO.N,P4*%
X146850000Y-4500000D03*
D14*
%TO.N,nine_bottom*%
X152310000Y-4500000D03*
D15*
%TO.P,D22,2*%
%TO.N,P4*%
X144690000Y-4500000D03*
%TD*%
D12*
%TO.P,S23,1*%
%TO.N,nine_home*%
X153500000Y20800000D03*
%TO.P,S23,2*%
%TO.N,P19*%
X148500000Y22900000D03*
%TD*%
D13*
%TO.P,D23,2*%
%TO.N,nine_home*%
X150150000Y12500000D03*
%TO.P,D23,1*%
%TO.N,P0*%
X146850000Y12500000D03*
D14*
%TO.N,nine_home*%
X152310000Y12500000D03*
D15*
%TO.P,D23,2*%
%TO.N,P0*%
X144690000Y12500000D03*
%TD*%
D12*
%TO.P,S24,1*%
%TO.N,nine_top*%
X153500000Y37800000D03*
%TO.P,S24,2*%
%TO.N,P19*%
X148500000Y39900000D03*
%TD*%
D13*
%TO.P,D24,2*%
%TO.N,nine_top*%
X150150000Y29500000D03*
%TO.P,D24,1*%
%TO.N,P1*%
X146850000Y29500000D03*
D14*
%TO.N,nine_top*%
X152310000Y29500000D03*
D15*
%TO.P,D24,2*%
%TO.N,P1*%
X144690000Y29500000D03*
%TD*%
D12*
%TO.P,S25,1*%
%TO.N,ten_bottom*%
X171500000Y3800000D03*
%TO.P,S25,2*%
%TO.N,P20*%
X166500000Y5900000D03*
%TD*%
D13*
%TO.P,D25,2*%
%TO.N,ten_bottom*%
X168150000Y-4500000D03*
%TO.P,D25,1*%
%TO.N,P4*%
X164850000Y-4500000D03*
D14*
%TO.N,ten_bottom*%
X170310000Y-4500000D03*
D15*
%TO.P,D25,2*%
%TO.N,P4*%
X162690000Y-4500000D03*
%TD*%
D12*
%TO.P,S26,1*%
%TO.N,ten_home*%
X171500000Y20800000D03*
%TO.P,S26,2*%
%TO.N,P20*%
X166500000Y22900000D03*
%TD*%
D13*
%TO.P,D26,2*%
%TO.N,ten_home*%
X168150000Y12500000D03*
%TO.P,D26,1*%
%TO.N,P0*%
X164850000Y12500000D03*
D14*
%TO.N,ten_home*%
X170310000Y12500000D03*
D15*
%TO.P,D26,2*%
%TO.N,P0*%
X162690000Y12500000D03*
%TD*%
D12*
%TO.P,S27,1*%
%TO.N,ten_top*%
X171500000Y37800000D03*
%TO.P,S27,2*%
%TO.N,P20*%
X166500000Y39900000D03*
%TD*%
D13*
%TO.P,D27,2*%
%TO.N,ten_top*%
X168150000Y29500000D03*
%TO.P,D27,1*%
%TO.N,P1*%
X164850000Y29500000D03*
D14*
%TO.N,ten_top*%
X170310000Y29500000D03*
D15*
%TO.P,D27,2*%
%TO.N,P1*%
X162690000Y29500000D03*
%TD*%
D12*
%TO.P,S28,1*%
%TO.N,eleven_bottom*%
X189500000Y3800000D03*
%TO.P,S28,2*%
%TO.N,P21*%
X184500000Y5900000D03*
%TD*%
D13*
%TO.P,D28,2*%
%TO.N,eleven_bottom*%
X186150000Y-4500000D03*
%TO.P,D28,1*%
%TO.N,P4*%
X182850000Y-4500000D03*
D14*
%TO.N,eleven_bottom*%
X188310000Y-4500000D03*
D15*
%TO.P,D28,2*%
%TO.N,P4*%
X180690000Y-4500000D03*
%TD*%
D12*
%TO.P,S29,1*%
%TO.N,eleven_home*%
X189500000Y20800000D03*
%TO.P,S29,2*%
%TO.N,P21*%
X184500000Y22900000D03*
%TD*%
D13*
%TO.P,D29,2*%
%TO.N,eleven_home*%
X186150000Y12500000D03*
%TO.P,D29,1*%
%TO.N,P0*%
X182850000Y12500000D03*
D14*
%TO.N,eleven_home*%
X188310000Y12500000D03*
D15*
%TO.P,D29,2*%
%TO.N,P0*%
X180690000Y12500000D03*
%TD*%
D12*
%TO.P,S30,1*%
%TO.N,eleven_top*%
X189500000Y37800000D03*
%TO.P,S30,2*%
%TO.N,P21*%
X184500000Y39900000D03*
%TD*%
D13*
%TO.P,D30,2*%
%TO.N,eleven_top*%
X186150000Y29500000D03*
%TO.P,D30,1*%
%TO.N,P1*%
X182850000Y29500000D03*
D14*
%TO.N,eleven_top*%
X188310000Y29500000D03*
D15*
%TO.P,D30,2*%
%TO.N,P1*%
X180690000Y29500000D03*
%TD*%
D16*
%TO.P,OLED1,4*%
%TO.N,P2*%
X88430000Y8100000D03*
%TO.P,OLED1,3*%
%TO.N,P3*%
X90970000Y8100000D03*
%TO.P,OLED1,2*%
%TO.N,VCC*%
X93510000Y8100000D03*
D17*
%TO.P,OLED1,1*%
%TO.N,GND*%
X96050000Y8100000D03*
%TD*%
D18*
%TO.P,REF\u002A\u002A,S1*%
%TO.N,P6*%
X84650000Y5200000D03*
%TO.P,REF\u002A\u002A,S2*%
%TO.N,P7*%
X86500000Y5200000D03*
%TO.P,REF\u002A\u002A,A*%
%TO.N,P8*%
X85875000Y2810000D03*
%TO.P,REF\u002A\u002A,B*%
%TO.N,P9*%
X85875000Y270000D03*
%TO.P,REF\u002A\u002A,C*%
%TO.N,GND*%
X85875000Y-2270000D03*
%TO.P,REF\u002A\u002A,D*%
%TO.N,N/C*%
X85875000Y-4810000D03*
%TD*%
D19*
%TO.N,P19*%
X91200000Y23600000D03*
X93000000Y27700000D03*
%TO.N,P18*%
X91200000Y21600000D03*
X94522701Y27700000D03*
%TO.N,P14*%
X82000000Y27200000D03*
%TD*%
D20*
%TO.N,P14*%
X82000000Y27200000D02*
X82000000Y18490000D01*
X82000000Y18490000D02*
X84630000Y15860000D01*
%TO.N,P15*%
X84700000Y18400000D02*
X84630000Y18400000D01*
X92100000Y25800000D02*
X84700000Y18400000D01*
X92100000Y34758564D02*
X92100000Y25800000D01*
X111199040Y41200960D02*
X98542396Y41200960D01*
X98542396Y41200960D02*
X92100000Y34758564D01*
X112500000Y39900000D02*
X111199040Y41200960D01*
%TO.N,eleven_bottom*%
X186150000Y-4500000D02*
X188310000Y-4500000D01*
%TO.N,P4*%
X180690000Y-4500000D02*
X182850000Y-4500000D01*
%TO.N,ten_bottom*%
X168150000Y-4500000D02*
X170310000Y-4500000D01*
%TO.N,P4*%
X162690000Y-4500000D02*
X164850000Y-4500000D01*
%TO.N,nine_bottom*%
X150150000Y-4500000D02*
X152310000Y-4500000D01*
%TO.N,P4*%
X144690000Y-4500000D02*
X146850000Y-4500000D01*
%TO.N,eight_bottom*%
X132150000Y-4500000D02*
X134310000Y-4500000D01*
%TO.N,P4*%
X126690000Y-4500000D02*
X128850000Y-4500000D01*
%TO.N,seven_bottom*%
X114150000Y-4500000D02*
X116310000Y-4500000D01*
%TO.N,P4*%
X108690000Y-4500000D02*
X110850000Y-4500000D01*
%TO.N,P0*%
X110850000Y12500000D02*
X108690000Y12500000D01*
%TO.N,seven_home*%
X116310000Y12500000D02*
X114150000Y12500000D01*
%TO.N,P0*%
X128850000Y12500000D02*
X126690000Y12500000D01*
%TO.N,eight_home*%
X134310000Y12500000D02*
X132150000Y12500000D01*
%TO.N,P0*%
X146850000Y12500000D02*
X144690000Y12500000D01*
%TO.N,nine_home*%
X152310000Y12500000D02*
X150150000Y12500000D01*
%TO.N,P0*%
X164850000Y12500000D02*
X162690000Y12500000D01*
%TO.N,ten_home*%
X170310000Y12500000D02*
X168150000Y12500000D01*
%TO.N,P0*%
X182850000Y12500000D02*
X180690000Y12500000D01*
%TO.N,eleven_home*%
X188310000Y12500000D02*
X186150000Y12500000D01*
%TO.N,eleven_top*%
X186150000Y29500000D02*
X188310000Y29500000D01*
%TO.N,P1*%
X180690000Y29500000D02*
X182850000Y29500000D01*
%TO.N,ten_top*%
X168150000Y29500000D02*
X170310000Y29500000D01*
%TO.N,P1*%
X162690000Y29500000D02*
X164850000Y29500000D01*
%TO.N,nine_top*%
X150150000Y29500000D02*
X152310000Y29500000D01*
%TO.N,P1*%
X144690000Y29500000D02*
X146850000Y29500000D01*
%TO.N,eight_top*%
X132150000Y29500000D02*
X134310000Y29500000D01*
%TO.N,P1*%
X126690000Y29500000D02*
X128850000Y29500000D01*
%TO.N,seven_top*%
X114150000Y29500000D02*
X116310000Y29500000D01*
%TO.N,P1*%
X108690000Y29500000D02*
X110850000Y29500000D01*
%TO.N,five_bottom*%
X73650000Y-4500000D02*
X75810000Y-4500000D01*
%TO.N,P10*%
X68190000Y-4500000D02*
X70350000Y-4500000D01*
%TO.N,four_bottom*%
X55650000Y-4500000D02*
X57810000Y-4500000D01*
%TO.N,P10*%
X50190000Y-4500000D02*
X52350000Y-4500000D01*
%TO.N,three_bottom*%
X37650000Y-4500000D02*
X39810000Y-4500000D01*
%TO.N,P10*%
X32190000Y-4500000D02*
X34350000Y-4500000D01*
%TO.N,two_bottom*%
X19650000Y-4500000D02*
X21810000Y-4500000D01*
%TO.N,P10*%
X14190000Y-4500000D02*
X16350000Y-4500000D01*
%TO.N,one_bottom*%
X1650000Y-4500000D02*
X3810000Y-4500000D01*
%TO.N,P10*%
X-3810000Y-4500000D02*
X-1650000Y-4500000D01*
%TO.N,five_home*%
X73650000Y12500000D02*
X75810000Y12500000D01*
%TO.N,P16*%
X68190000Y12500000D02*
X70350000Y12500000D01*
%TO.N,four_home*%
X55650000Y12500000D02*
X57810000Y12500000D01*
%TO.N,P16*%
X50190000Y12500000D02*
X52350000Y12500000D01*
%TO.N,three_home*%
X37650000Y12500000D02*
X39810000Y12500000D01*
%TO.N,P16*%
X32190000Y12500000D02*
X34350000Y12500000D01*
%TO.N,two_home*%
X19650000Y12500000D02*
X21810000Y12500000D01*
%TO.N,P16*%
X14190000Y12500000D02*
X16350000Y12500000D01*
%TO.N,one_home*%
X1650000Y12500000D02*
X3810000Y12500000D01*
%TO.N,P16*%
X-3810000Y12500000D02*
X-1650000Y12500000D01*
%TO.N,five_top*%
X73650000Y29500000D02*
X75810000Y29500000D01*
%TO.N,P14*%
X68190000Y29500000D02*
X70350000Y29500000D01*
%TO.N,four_top*%
X55650000Y29500000D02*
X57810000Y29500000D01*
%TO.N,P14*%
X50190000Y29500000D02*
X52350000Y29500000D01*
%TO.N,three_top*%
X37650000Y29500000D02*
X39810000Y29500000D01*
%TO.N,P14*%
X32190000Y29500000D02*
X34350000Y29500000D01*
%TO.N,two_top*%
X19650000Y29500000D02*
X21810000Y29500000D01*
%TO.N,P14*%
X14190000Y29500000D02*
X16350000Y29500000D01*
%TO.N,one_top*%
X1650000Y29500000D02*
X3810000Y29500000D01*
%TO.N,P14*%
X-3810000Y29500000D02*
X-1650000Y29500000D01*
%TO.N,P18*%
X92319282Y21600000D02*
X91200000Y21600000D01*
X94522701Y27700000D02*
X94522701Y23803419D01*
X94522701Y23803419D02*
X92319282Y21600000D01*
%TO.N,P19*%
X93000000Y27700000D02*
X93000000Y25400000D01*
X93000000Y25400000D02*
X91200000Y23600000D01*
%TO.N,P20*%
X86000000Y27390000D02*
X84630000Y26020000D01*
X98356198Y41650480D02*
X86000000Y29294282D01*
X164749520Y41650480D02*
X98356198Y41650480D01*
X86000000Y29294282D02*
X86000000Y27390000D01*
X166500000Y39900000D02*
X164749520Y41650480D01*
%TO.N,P21*%
X84630000Y28560000D02*
X98170000Y42100000D01*
X98170000Y42100000D02*
X182300000Y42100000D01*
X182300000Y42100000D02*
X184500000Y39900000D01*
%TO.N,GND*%
X96050000Y7905000D02*
X96050000Y8100000D01*
X85875000Y-2270000D02*
X96050000Y7905000D01*
%TO.N,P2*%
X92650480Y10416198D02*
X92650480Y21295480D01*
X91634282Y9400000D02*
X92650480Y10416198D01*
X89700000Y9400000D02*
X91634282Y9400000D01*
X92650480Y21295480D02*
X99870000Y28515000D01*
X88430000Y8130000D02*
X89700000Y9400000D01*
X88430000Y8100000D02*
X88430000Y8130000D01*
X99870000Y28515000D02*
X99870000Y28560000D01*
%TO.N,P3*%
X98010718Y26020000D02*
X99870000Y26020000D01*
X93100000Y21109282D02*
X98010718Y26020000D01*
X93100000Y10230000D02*
X93100000Y21109282D01*
X90970000Y8100000D02*
X93100000Y10230000D01*
%TO.N,eleven_bottom*%
X188310000Y2610000D02*
X188310000Y-4500000D01*
X189500000Y3800000D02*
X188310000Y2610000D01*
%TO.N,eleven_home*%
X188310000Y19610000D02*
X188310000Y12500000D01*
X189500000Y20800000D02*
X188310000Y19610000D01*
%TO.N,eleven_top*%
X188310000Y36610000D02*
X188310000Y29500000D01*
X189500000Y37800000D02*
X188310000Y36610000D01*
%TO.N,P21*%
X184500000Y12400000D02*
X184500000Y5900000D01*
X182410979Y20810979D02*
X182410979Y14489021D01*
X182410979Y14489021D02*
X184500000Y12400000D01*
X184500000Y22900000D02*
X182410979Y20810979D01*
X184500000Y29549022D02*
X184500000Y22900000D01*
X182410979Y37810979D02*
X182410979Y31638043D01*
X182410979Y31638043D02*
X184500000Y29549022D01*
X184500000Y39900000D02*
X182410979Y37810979D01*
%TO.N,ten_bottom*%
X171500000Y3800000D02*
X170310000Y2610000D01*
X170310000Y2610000D02*
X170310000Y-4500000D01*
%TO.N,ten_home*%
X170310000Y19610000D02*
X170310000Y12500000D01*
X171500000Y20800000D02*
X170310000Y19610000D01*
%TO.N,ten_top*%
X170310000Y36610000D02*
X170310000Y29500000D01*
X171500000Y37800000D02*
X170310000Y36610000D01*
%TO.N,P20*%
X166500000Y12549022D02*
X166500000Y5900000D01*
X164410979Y14638043D02*
X166500000Y12549022D01*
X164410979Y20810979D02*
X164410979Y14638043D01*
X166500000Y22900000D02*
X164410979Y20810979D01*
X164410979Y31489021D02*
X166500000Y29400000D01*
X164410979Y37810979D02*
X164410979Y31489021D01*
X166500000Y29400000D02*
X166500000Y22900000D01*
X166500000Y39900000D02*
X164410979Y37810979D01*
%TO.N,nine_bottom*%
X152310000Y2610000D02*
X152310000Y-4500000D01*
X153500000Y3800000D02*
X152310000Y2610000D01*
%TO.N,nine_home*%
X152310000Y19610000D02*
X152310000Y12500000D01*
X153500000Y20800000D02*
X152310000Y19610000D01*
%TO.N,nine_top*%
X152310000Y36610000D02*
X152310000Y29500000D01*
X153500000Y37800000D02*
X152310000Y36610000D01*
%TO.N,P19*%
X148500000Y29549022D02*
X148500000Y22900000D01*
X146410979Y31638043D02*
X148500000Y29549022D01*
X146410979Y37810979D02*
X146410979Y31638043D01*
X148500000Y39900000D02*
X146410979Y37810979D01*
X148500000Y12400000D02*
X148500000Y5900000D01*
X146410979Y20810979D02*
X146410979Y14489021D01*
X148500000Y22900000D02*
X146410979Y20810979D01*
X146410979Y14489021D02*
X148500000Y12400000D01*
%TO.N,eight_bottom*%
X134310000Y2610000D02*
X134310000Y-4500000D01*
X135500000Y3800000D02*
X134310000Y2610000D01*
%TO.N,eight_top*%
X134310000Y36610000D02*
X134310000Y29500000D01*
X135500000Y37800000D02*
X134310000Y36610000D01*
%TO.N,eight_home*%
X134310000Y19610000D02*
X134310000Y12500000D01*
X135500000Y20800000D02*
X134310000Y19610000D01*
%TO.N,P18*%
X130500000Y12549022D02*
X130500000Y5900000D01*
X128410979Y14638043D02*
X130500000Y12549022D01*
X128410979Y20810979D02*
X128410979Y14638043D01*
X130500000Y22900000D02*
X128410979Y20810979D01*
X130500000Y29549022D02*
X130500000Y22900000D01*
X128410979Y31638043D02*
X130500000Y29549022D01*
X128410979Y37810979D02*
X128410979Y31638043D01*
X130500000Y39900000D02*
X128410979Y37810979D01*
%TO.N,seven_bottom*%
X116310000Y2610000D02*
X116310000Y-4500000D01*
X117500000Y3800000D02*
X116310000Y2610000D01*
%TO.N,seven_home*%
X116310000Y19610000D02*
X116310000Y12500000D01*
X117500000Y20800000D02*
X116310000Y19610000D01*
%TO.N,seven_top*%
X117500000Y37800000D02*
X116310000Y36610000D01*
X116310000Y36610000D02*
X116310000Y29500000D01*
%TO.N,P15*%
X112500000Y12400000D02*
X112500000Y5900000D01*
X110410979Y14489021D02*
X112500000Y12400000D01*
X110410979Y20810979D02*
X110410979Y14489021D01*
X112500000Y22900000D02*
X110410979Y20810979D01*
X112500000Y29549022D02*
X112500000Y22900000D01*
X110410979Y31638043D02*
X112500000Y29549022D01*
X112500000Y39900000D02*
X110410979Y37810979D01*
X110410979Y37810979D02*
X110410979Y31638043D01*
%TO.N,four_top*%
X57810000Y36610000D02*
X57810000Y29500000D01*
X59000000Y37800000D02*
X57810000Y36610000D01*
%TO.N,four_home*%
X57810000Y19610000D02*
X57810000Y12500000D01*
X59000000Y20800000D02*
X57810000Y19610000D01*
%TO.N,five_top*%
X75810000Y36610000D02*
X75810000Y29500000D01*
X77000000Y37800000D02*
X75810000Y36610000D01*
%TO.N,five_home*%
X75810000Y19610000D02*
X75810000Y12500000D01*
X77000000Y20800000D02*
X75810000Y19610000D01*
%TO.N,five_bottom*%
X75810000Y2610000D02*
X75810000Y-4500000D01*
X77000000Y3800000D02*
X75810000Y2610000D01*
%TO.N,four_bottom*%
X57810000Y2610000D02*
X57810000Y-4500000D01*
X59000000Y3800000D02*
X57810000Y2610000D01*
%TO.N,three_bottom*%
X39810000Y2610000D02*
X39810000Y-4500000D01*
X41000000Y3800000D02*
X39810000Y2610000D01*
%TO.N,two_bottom*%
X21810000Y2610000D02*
X21810000Y-4500000D01*
X23000000Y3800000D02*
X21810000Y2610000D01*
%TO.N,one_bottom*%
X3810000Y2610000D02*
X3810000Y-4500000D01*
X5000000Y3800000D02*
X3810000Y2610000D01*
%TO.N,one_home*%
X3810000Y19610000D02*
X3810000Y12500000D01*
X5000000Y20800000D02*
X3810000Y19610000D01*
%TO.N,three_home*%
X39810000Y19610000D02*
X39810000Y12500000D01*
X41000000Y20800000D02*
X39810000Y19610000D01*
%TO.N,three_top*%
X39810000Y36610000D02*
X39810000Y29500000D01*
X41000000Y37800000D02*
X39810000Y36610000D01*
%TO.N,P15*%
X72000000Y12549022D02*
X72000000Y5900000D01*
X69910979Y20810979D02*
X69910979Y14638043D01*
X72000000Y22900000D02*
X69910979Y20810979D01*
X69910979Y14638043D02*
X72000000Y12549022D01*
X72000000Y29400000D02*
X72000000Y22900000D01*
X69910979Y31489021D02*
X72000000Y29400000D01*
X69910979Y37810979D02*
X69910979Y31489021D01*
X72000000Y39900000D02*
X69910979Y37810979D01*
%TO.N,P18*%
X51910979Y14638043D02*
X54000000Y12549022D01*
X51910979Y20810979D02*
X51910979Y14638043D01*
X54000000Y12549022D02*
X54000000Y5900000D01*
X54000000Y22900000D02*
X51910979Y20810979D01*
X54000000Y29400000D02*
X54000000Y22900000D01*
X51910979Y31489021D02*
X54000000Y29400000D01*
X51910979Y37810979D02*
X51910979Y31489021D01*
X54000000Y39900000D02*
X51910979Y37810979D01*
%TO.N,P19*%
X36000000Y12549022D02*
X36000000Y5900000D01*
X33910979Y14638043D02*
X36000000Y12549022D01*
X33910979Y20810979D02*
X33910979Y14638043D01*
X36000000Y22900000D02*
X33910979Y20810979D01*
X36000000Y29500000D02*
X36000000Y22900000D01*
X33910979Y37810979D02*
X33910979Y31589021D01*
X33910979Y31589021D02*
X36000000Y29500000D01*
X36000000Y39900000D02*
X33910979Y37810979D01*
%TO.N,two_home*%
X21810000Y19610000D02*
X21810000Y12500000D01*
X23000000Y20800000D02*
X21810000Y19610000D01*
%TO.N,two_top*%
X21810000Y36610000D02*
X21810000Y29500000D01*
X23000000Y37800000D02*
X21810000Y36610000D01*
%TO.N,P20*%
X18000000Y12549022D02*
X18000000Y5900000D01*
X15910979Y14638043D02*
X18000000Y12549022D01*
X15910979Y20810979D02*
X15910979Y14638043D01*
X18000000Y22900000D02*
X15910979Y20810979D01*
X18000000Y29400000D02*
X18000000Y22900000D01*
X15910979Y37810979D02*
X15910979Y31489021D01*
X18000000Y39900000D02*
X15910979Y37810979D01*
X15910979Y31489021D02*
X18000000Y29400000D01*
%TO.N,one_top*%
X3810000Y36610000D02*
X3810000Y29500000D01*
X5000000Y37800000D02*
X3810000Y36610000D01*
%TO.N,P21*%
X0Y12400000D02*
X0Y5900000D01*
X-2089021Y14489021D02*
X0Y12400000D01*
X0Y22900000D02*
X-2089021Y20810979D01*
X-2089021Y20810979D02*
X-2089021Y14489021D01*
X0Y29549022D02*
X0Y22900000D01*
X-2089021Y31638043D02*
X0Y29549022D01*
X-2089021Y37810979D02*
X-2089021Y31638043D01*
X0Y39900000D02*
X-2089021Y37810979D01*
%TD*%
M02*
