%TF.GenerationSoftware,KiCad,Pcbnew,(6.0.4)*%
%TF.CreationDate,2022-07-04T17:45:23-04:00*%
%TF.ProjectId,satpad,73617470-6164-42e6-9b69-6361645f7063,v1.0.0*%
%TF.SameCoordinates,Original*%
%TF.FileFunction,Legend,Bot*%
%TF.FilePolarity,Positive*%
%FSLAX46Y46*%
G04 Gerber Fmt 4.6, Leading zero omitted, Abs format (unit mm)*
G04 Created by KiCad (PCBNEW (6.0.4)) date 2022-07-04 17:45:23*
%MOMM*%
%LPD*%
G01*
G04 APERTURE LIST*
%ADD10C,0.150000*%
%ADD11C,0.300000*%
%ADD12C,0.100000*%
%ADD13R,1.752600X1.752600*%
%ADD14C,1.752600*%
G04 APERTURE END LIST*
D10*
X95728571Y-799761D02*
X95585714Y-847380D01*
X95347619Y-847380D01*
X95252380Y-799761D01*
X95204761Y-752142D01*
X95157142Y-656904D01*
X95157142Y-561666D01*
X95204761Y-466428D01*
X95252380Y-418809D01*
X95347619Y-371190D01*
X95538095Y-323571D01*
X95633333Y-275952D01*
X95680952Y-228333D01*
X95728571Y-133095D01*
X95728571Y-37857D01*
X95680952Y57380D01*
X95633333Y105000D01*
X95538095Y152619D01*
X95300000Y152619D01*
X95157142Y105000D01*
X94871428Y-180714D02*
X94490476Y-180714D01*
X94728571Y152619D02*
X94728571Y-704523D01*
X94680952Y-799761D01*
X94585714Y-847380D01*
X94490476Y-847380D01*
X93728571Y-847380D02*
X93728571Y-323571D01*
X93776190Y-228333D01*
X93871428Y-180714D01*
X94061904Y-180714D01*
X94157142Y-228333D01*
X93728571Y-799761D02*
X93823809Y-847380D01*
X94061904Y-847380D01*
X94157142Y-799761D01*
X94204761Y-704523D01*
X94204761Y-609285D01*
X94157142Y-514047D01*
X94061904Y-466428D01*
X93823809Y-466428D01*
X93728571Y-418809D01*
X93395238Y-180714D02*
X93014285Y-180714D01*
X93252380Y152619D02*
X93252380Y-704523D01*
X93204761Y-799761D01*
X93109523Y-847380D01*
X93014285Y-847380D01*
X92680952Y-847380D02*
X92680952Y152619D01*
X92300000Y152619D01*
X92204761Y105000D01*
X92157142Y57380D01*
X92109523Y-37857D01*
X92109523Y-180714D01*
X92157142Y-275952D01*
X92204761Y-323571D01*
X92300000Y-371190D01*
X92680952Y-371190D01*
X91252380Y-847380D02*
X91252380Y-323571D01*
X91300000Y-228333D01*
X91395238Y-180714D01*
X91585714Y-180714D01*
X91680952Y-228333D01*
X91252380Y-799761D02*
X91347619Y-847380D01*
X91585714Y-847380D01*
X91680952Y-799761D01*
X91728571Y-704523D01*
X91728571Y-609285D01*
X91680952Y-514047D01*
X91585714Y-466428D01*
X91347619Y-466428D01*
X91252380Y-418809D01*
X90347619Y-847380D02*
X90347619Y152619D01*
X90347619Y-799761D02*
X90442857Y-847380D01*
X90633333Y-847380D01*
X90728571Y-799761D01*
X90776190Y-752142D01*
X90823809Y-656904D01*
X90823809Y-371190D01*
X90776190Y-275952D01*
X90728571Y-228333D01*
X90633333Y-180714D01*
X90442857Y-180714D01*
X90347619Y-228333D01*
X89871428Y-752142D02*
X89823809Y-799761D01*
X89871428Y-847380D01*
X89919047Y-799761D01*
X89871428Y-752142D01*
X89871428Y-847380D01*
X88871428Y-847380D02*
X89442857Y-847380D01*
X89157142Y-847380D02*
X89157142Y152619D01*
X89252380Y9761D01*
X89347619Y-85476D01*
X89442857Y-133095D01*
X96061904Y-1790714D02*
X96061904Y-2647857D01*
X96109523Y-2743095D01*
X96204761Y-2790714D01*
X96252380Y-2790714D01*
X96061904Y-1457380D02*
X96109523Y-1505000D01*
X96061904Y-1552619D01*
X96014285Y-1505000D01*
X96061904Y-1457380D01*
X96061904Y-1552619D01*
X95157142Y-2457380D02*
X95157142Y-1933571D01*
X95204761Y-1838333D01*
X95300000Y-1790714D01*
X95490476Y-1790714D01*
X95585714Y-1838333D01*
X95157142Y-2409761D02*
X95252380Y-2457380D01*
X95490476Y-2457380D01*
X95585714Y-2409761D01*
X95633333Y-2314523D01*
X95633333Y-2219285D01*
X95585714Y-2124047D01*
X95490476Y-2076428D01*
X95252380Y-2076428D01*
X95157142Y-2028809D01*
X94728571Y-2409761D02*
X94633333Y-2457380D01*
X94442857Y-2457380D01*
X94347619Y-2409761D01*
X94300000Y-2314523D01*
X94300000Y-2266904D01*
X94347619Y-2171666D01*
X94442857Y-2124047D01*
X94585714Y-2124047D01*
X94680952Y-2076428D01*
X94728571Y-1981190D01*
X94728571Y-1933571D01*
X94680952Y-1838333D01*
X94585714Y-1790714D01*
X94442857Y-1790714D01*
X94347619Y-1838333D01*
X93728571Y-2457380D02*
X93823809Y-2409761D01*
X93871428Y-2362142D01*
X93919047Y-2266904D01*
X93919047Y-1981190D01*
X93871428Y-1885952D01*
X93823809Y-1838333D01*
X93728571Y-1790714D01*
X93585714Y-1790714D01*
X93490476Y-1838333D01*
X93442857Y-1885952D01*
X93395238Y-1981190D01*
X93395238Y-2266904D01*
X93442857Y-2362142D01*
X93490476Y-2409761D01*
X93585714Y-2457380D01*
X93728571Y-2457380D01*
X92966666Y-1790714D02*
X92966666Y-2457380D01*
X92966666Y-1885952D02*
X92919047Y-1838333D01*
X92823809Y-1790714D01*
X92680952Y-1790714D01*
X92585714Y-1838333D01*
X92538095Y-1933571D01*
X92538095Y-2457380D01*
X92061904Y-2457380D02*
X92061904Y-1457380D01*
X91633333Y-2457380D02*
X91633333Y-1933571D01*
X91680952Y-1838333D01*
X91776190Y-1790714D01*
X91919047Y-1790714D01*
X92014285Y-1838333D01*
X92061904Y-1885952D01*
X90728571Y-2457380D02*
X90728571Y-1933571D01*
X90776190Y-1838333D01*
X90871428Y-1790714D01*
X91061904Y-1790714D01*
X91157142Y-1838333D01*
X90728571Y-2409761D02*
X90823809Y-2457380D01*
X91061904Y-2457380D01*
X91157142Y-2409761D01*
X91204761Y-2314523D01*
X91204761Y-2219285D01*
X91157142Y-2124047D01*
X91061904Y-2076428D01*
X90823809Y-2076428D01*
X90728571Y-2028809D01*
X90347619Y-1790714D02*
X89823809Y-1790714D01*
X90347619Y-2457380D01*
X89823809Y-2457380D01*
X89061904Y-2409761D02*
X89157142Y-2457380D01*
X89347619Y-2457380D01*
X89442857Y-2409761D01*
X89490476Y-2314523D01*
X89490476Y-1933571D01*
X89442857Y-1838333D01*
X89347619Y-1790714D01*
X89157142Y-1790714D01*
X89061904Y-1838333D01*
X89014285Y-1933571D01*
X89014285Y-2028809D01*
X89490476Y-2124047D01*
X88442857Y-2457380D02*
X88538095Y-2409761D01*
X88585714Y-2314523D01*
X88585714Y-1457380D01*
D11*
%TO.C,G\u002A\u002A\u002A*%
X92942571Y24562000D02*
X93087714Y24634571D01*
X93305428Y24634571D01*
X93523142Y24562000D01*
X93668285Y24416857D01*
X93740857Y24271714D01*
X93813428Y23981428D01*
X93813428Y23763714D01*
X93740857Y23473428D01*
X93668285Y23328285D01*
X93523142Y23183142D01*
X93305428Y23110571D01*
X93160285Y23110571D01*
X92942571Y23183142D01*
X92870000Y23255714D01*
X92870000Y23763714D01*
X93160285Y23763714D01*
X91999142Y24634571D02*
X91999142Y24271714D01*
X92362000Y24416857D02*
X91999142Y24271714D01*
X91636285Y24416857D01*
X92216857Y23981428D02*
X91999142Y24271714D01*
X91781428Y23981428D01*
X90838000Y24634571D02*
X90838000Y24271714D01*
X91200857Y24416857D02*
X90838000Y24271714D01*
X90475142Y24416857D01*
X91055714Y23981428D02*
X90838000Y24271714D01*
X90620285Y23981428D01*
X89676857Y24634571D02*
X89676857Y24271714D01*
X90039714Y24416857D02*
X89676857Y24271714D01*
X89314000Y24416857D01*
X89894571Y23981428D02*
X89676857Y24271714D01*
X89459142Y23981428D01*
D12*
%TO.C,D9*%
X36250000Y29500000D02*
X36750000Y29500000D01*
X35650000Y29500000D02*
X35650000Y28950000D01*
X36250000Y29900000D02*
X36250000Y29100000D01*
X35650000Y29500000D02*
X36250000Y29900000D01*
X36250000Y29100000D02*
X35650000Y29500000D01*
X35650000Y29500000D02*
X35650000Y30050000D01*
X35250000Y29500000D02*
X35650000Y29500000D01*
%TO.C,D1*%
X250000Y-4100000D02*
X250000Y-4900000D01*
X-350000Y-4500000D02*
X-350000Y-3950000D01*
X-350000Y-4500000D02*
X-350000Y-5050000D01*
X-350000Y-4500000D02*
X250000Y-4100000D01*
X250000Y-4500000D02*
X750000Y-4500000D01*
X250000Y-4900000D02*
X-350000Y-4500000D01*
X-750000Y-4500000D02*
X-350000Y-4500000D01*
%TO.C,D5*%
X18250000Y12900000D02*
X18250000Y12100000D01*
X17650000Y12500000D02*
X18250000Y12900000D01*
X18250000Y12100000D02*
X17650000Y12500000D01*
X17650000Y12500000D02*
X17650000Y13050000D01*
X18250000Y12500000D02*
X18750000Y12500000D01*
X17250000Y12500000D02*
X17650000Y12500000D01*
X17650000Y12500000D02*
X17650000Y11950000D01*
%TO.C,D11*%
X53250000Y12500000D02*
X53650000Y12500000D01*
X53650000Y12500000D02*
X54250000Y12900000D01*
X53650000Y12500000D02*
X53650000Y13050000D01*
X54250000Y12900000D02*
X54250000Y12100000D01*
X54250000Y12500000D02*
X54750000Y12500000D01*
X54250000Y12100000D02*
X53650000Y12500000D01*
X53650000Y12500000D02*
X53650000Y11950000D01*
%TO.C,D30*%
X184150000Y29500000D02*
X184150000Y28950000D01*
X184750000Y29900000D02*
X184750000Y29100000D01*
X184750000Y29100000D02*
X184150000Y29500000D01*
X184150000Y29500000D02*
X184750000Y29900000D01*
X183750000Y29500000D02*
X184150000Y29500000D01*
X184750000Y29500000D02*
X185250000Y29500000D01*
X184150000Y29500000D02*
X184150000Y30050000D01*
%TO.C,D19*%
X129750000Y-4500000D02*
X130150000Y-4500000D01*
X130150000Y-4500000D02*
X130150000Y-3950000D01*
X130750000Y-4500000D02*
X131250000Y-4500000D01*
X130750000Y-4100000D02*
X130750000Y-4900000D01*
X130150000Y-4500000D02*
X130750000Y-4100000D01*
X130150000Y-4500000D02*
X130150000Y-5050000D01*
X130750000Y-4900000D02*
X130150000Y-4500000D01*
%TO.C,D10*%
X54250000Y-4900000D02*
X53650000Y-4500000D01*
X53250000Y-4500000D02*
X53650000Y-4500000D01*
X53650000Y-4500000D02*
X53650000Y-5050000D01*
X54250000Y-4500000D02*
X54750000Y-4500000D01*
X53650000Y-4500000D02*
X54250000Y-4100000D01*
X53650000Y-4500000D02*
X53650000Y-3950000D01*
X54250000Y-4100000D02*
X54250000Y-4900000D01*
%TO.C,D8*%
X35650000Y12500000D02*
X36250000Y12900000D01*
X35250000Y12500000D02*
X35650000Y12500000D01*
X35650000Y12500000D02*
X35650000Y13050000D01*
X35650000Y12500000D02*
X35650000Y11950000D01*
X36250000Y12100000D02*
X35650000Y12500000D01*
X36250000Y12900000D02*
X36250000Y12100000D01*
X36250000Y12500000D02*
X36750000Y12500000D01*
%TO.C,D26*%
X166150000Y12500000D02*
X166150000Y11950000D01*
X166750000Y12100000D02*
X166150000Y12500000D01*
X166150000Y12500000D02*
X166150000Y13050000D01*
X165750000Y12500000D02*
X166150000Y12500000D01*
X166750000Y12900000D02*
X166750000Y12100000D01*
X166750000Y12500000D02*
X167250000Y12500000D01*
X166150000Y12500000D02*
X166750000Y12900000D01*
%TO.C,D25*%
X165750000Y-4500000D02*
X166150000Y-4500000D01*
X166750000Y-4100000D02*
X166750000Y-4900000D01*
X166150000Y-4500000D02*
X166750000Y-4100000D01*
X166150000Y-4500000D02*
X166150000Y-5050000D01*
X166750000Y-4500000D02*
X167250000Y-4500000D01*
X166750000Y-4900000D02*
X166150000Y-4500000D01*
X166150000Y-4500000D02*
X166150000Y-3950000D01*
%TO.C,D4*%
X17650000Y-4500000D02*
X17650000Y-3950000D01*
X17650000Y-4500000D02*
X18250000Y-4100000D01*
X18250000Y-4900000D02*
X17650000Y-4500000D01*
X18250000Y-4500000D02*
X18750000Y-4500000D01*
X17250000Y-4500000D02*
X17650000Y-4500000D01*
X18250000Y-4100000D02*
X18250000Y-4900000D01*
X17650000Y-4500000D02*
X17650000Y-5050000D01*
%TO.C,D7*%
X36250000Y-4500000D02*
X36750000Y-4500000D01*
X36250000Y-4900000D02*
X35650000Y-4500000D01*
X35650000Y-4500000D02*
X36250000Y-4100000D01*
X35250000Y-4500000D02*
X35650000Y-4500000D01*
X35650000Y-4500000D02*
X35650000Y-3950000D01*
X35650000Y-4500000D02*
X35650000Y-5050000D01*
X36250000Y-4100000D02*
X36250000Y-4900000D01*
%TO.C,D17*%
X112750000Y12900000D02*
X112750000Y12100000D01*
X111750000Y12500000D02*
X112150000Y12500000D01*
X112150000Y12500000D02*
X112150000Y13050000D01*
X112750000Y12500000D02*
X113250000Y12500000D01*
X112150000Y12500000D02*
X112750000Y12900000D01*
X112750000Y12100000D02*
X112150000Y12500000D01*
X112150000Y12500000D02*
X112150000Y11950000D01*
%TO.C,D13*%
X71250000Y-4500000D02*
X71650000Y-4500000D01*
X71650000Y-4500000D02*
X71650000Y-5050000D01*
X72250000Y-4900000D02*
X71650000Y-4500000D01*
X72250000Y-4100000D02*
X72250000Y-4900000D01*
X71650000Y-4500000D02*
X71650000Y-3950000D01*
X72250000Y-4500000D02*
X72750000Y-4500000D01*
X71650000Y-4500000D02*
X72250000Y-4100000D01*
%TO.C,D14*%
X72250000Y12100000D02*
X71650000Y12500000D01*
X72250000Y12900000D02*
X72250000Y12100000D01*
X71650000Y12500000D02*
X71650000Y11950000D01*
X71650000Y12500000D02*
X72250000Y12900000D01*
X71650000Y12500000D02*
X71650000Y13050000D01*
X72250000Y12500000D02*
X72750000Y12500000D01*
X71250000Y12500000D02*
X71650000Y12500000D01*
%TO.C,D16*%
X112150000Y-4500000D02*
X112750000Y-4100000D01*
X112150000Y-4500000D02*
X112150000Y-3950000D01*
X111750000Y-4500000D02*
X112150000Y-4500000D01*
X112750000Y-4100000D02*
X112750000Y-4900000D01*
X112750000Y-4500000D02*
X113250000Y-4500000D01*
X112150000Y-4500000D02*
X112150000Y-5050000D01*
X112750000Y-4900000D02*
X112150000Y-4500000D01*
%TO.C,D24*%
X147750000Y29500000D02*
X148150000Y29500000D01*
X148750000Y29100000D02*
X148150000Y29500000D01*
X148150000Y29500000D02*
X148150000Y28950000D01*
X148150000Y29500000D02*
X148750000Y29900000D01*
X148150000Y29500000D02*
X148150000Y30050000D01*
X148750000Y29900000D02*
X148750000Y29100000D01*
X148750000Y29500000D02*
X149250000Y29500000D01*
%TO.C,D21*%
X130150000Y29500000D02*
X130150000Y28950000D01*
X130750000Y29500000D02*
X131250000Y29500000D01*
X130150000Y29500000D02*
X130150000Y30050000D01*
X129750000Y29500000D02*
X130150000Y29500000D01*
X130750000Y29100000D02*
X130150000Y29500000D01*
X130750000Y29900000D02*
X130750000Y29100000D01*
X130150000Y29500000D02*
X130750000Y29900000D01*
%TO.C,D29*%
X184150000Y12500000D02*
X184150000Y11950000D01*
X184750000Y12900000D02*
X184750000Y12100000D01*
X184750000Y12100000D02*
X184150000Y12500000D01*
X184150000Y12500000D02*
X184750000Y12900000D01*
X184150000Y12500000D02*
X184150000Y13050000D01*
X183750000Y12500000D02*
X184150000Y12500000D01*
X184750000Y12500000D02*
X185250000Y12500000D01*
%TO.C,D20*%
X130150000Y12500000D02*
X130150000Y11950000D01*
X130750000Y12500000D02*
X131250000Y12500000D01*
X130150000Y12500000D02*
X130150000Y13050000D01*
X130750000Y12900000D02*
X130750000Y12100000D01*
X129750000Y12500000D02*
X130150000Y12500000D01*
X130750000Y12100000D02*
X130150000Y12500000D01*
X130150000Y12500000D02*
X130750000Y12900000D01*
%TO.C,D15*%
X71650000Y29500000D02*
X71650000Y28950000D01*
X72250000Y29900000D02*
X72250000Y29100000D01*
X71650000Y29500000D02*
X72250000Y29900000D01*
X71650000Y29500000D02*
X71650000Y30050000D01*
X71250000Y29500000D02*
X71650000Y29500000D01*
X72250000Y29100000D02*
X71650000Y29500000D01*
X72250000Y29500000D02*
X72750000Y29500000D01*
%TO.C,D22*%
X148750000Y-4500000D02*
X149250000Y-4500000D01*
X148150000Y-4500000D02*
X148150000Y-5050000D01*
X148150000Y-4500000D02*
X148150000Y-3950000D01*
X147750000Y-4500000D02*
X148150000Y-4500000D01*
X148750000Y-4100000D02*
X148750000Y-4900000D01*
X148750000Y-4900000D02*
X148150000Y-4500000D01*
X148150000Y-4500000D02*
X148750000Y-4100000D01*
%TO.C,D28*%
X183750000Y-4500000D02*
X184150000Y-4500000D01*
X184150000Y-4500000D02*
X184150000Y-3950000D01*
X184150000Y-4500000D02*
X184150000Y-5050000D01*
X184150000Y-4500000D02*
X184750000Y-4100000D01*
X184750000Y-4100000D02*
X184750000Y-4900000D01*
X184750000Y-4900000D02*
X184150000Y-4500000D01*
X184750000Y-4500000D02*
X185250000Y-4500000D01*
%TO.C,D6*%
X18250000Y29100000D02*
X17650000Y29500000D01*
X17650000Y29500000D02*
X17650000Y30050000D01*
X18250000Y29500000D02*
X18750000Y29500000D01*
X17250000Y29500000D02*
X17650000Y29500000D01*
X18250000Y29900000D02*
X18250000Y29100000D01*
X17650000Y29500000D02*
X18250000Y29900000D01*
X17650000Y29500000D02*
X17650000Y28950000D01*
%TO.C,D18*%
X111750000Y29500000D02*
X112150000Y29500000D01*
X112750000Y29900000D02*
X112750000Y29100000D01*
X112150000Y29500000D02*
X112150000Y28950000D01*
X112150000Y29500000D02*
X112150000Y30050000D01*
X112150000Y29500000D02*
X112750000Y29900000D01*
X112750000Y29100000D02*
X112150000Y29500000D01*
X112750000Y29500000D02*
X113250000Y29500000D01*
%TO.C,D23*%
X148150000Y12500000D02*
X148150000Y11950000D01*
X148150000Y12500000D02*
X148150000Y13050000D01*
X148750000Y12100000D02*
X148150000Y12500000D01*
X148150000Y12500000D02*
X148750000Y12900000D01*
X148750000Y12900000D02*
X148750000Y12100000D01*
X147750000Y12500000D02*
X148150000Y12500000D01*
X148750000Y12500000D02*
X149250000Y12500000D01*
%TO.C,D2*%
X-750000Y12500000D02*
X-350000Y12500000D01*
X-350000Y12500000D02*
X-350000Y11950000D01*
X250000Y12500000D02*
X750000Y12500000D01*
X250000Y12900000D02*
X250000Y12100000D01*
X-350000Y12500000D02*
X250000Y12900000D01*
X-350000Y12500000D02*
X-350000Y13050000D01*
X250000Y12100000D02*
X-350000Y12500000D01*
%TO.C,D27*%
X165750000Y29500000D02*
X166150000Y29500000D01*
X166750000Y29900000D02*
X166750000Y29100000D01*
X166150000Y29500000D02*
X166150000Y30050000D01*
X166750000Y29100000D02*
X166150000Y29500000D01*
X166150000Y29500000D02*
X166150000Y28950000D01*
X166750000Y29500000D02*
X167250000Y29500000D01*
X166150000Y29500000D02*
X166750000Y29900000D01*
%TO.C,D3*%
X-350000Y29500000D02*
X-350000Y30050000D01*
X-750000Y29500000D02*
X-350000Y29500000D01*
X250000Y29100000D02*
X-350000Y29500000D01*
X250000Y29500000D02*
X750000Y29500000D01*
X-350000Y29500000D02*
X-350000Y28950000D01*
X250000Y29900000D02*
X250000Y29100000D01*
X-350000Y29500000D02*
X250000Y29900000D01*
%TO.C,D12*%
X53250000Y29500000D02*
X53650000Y29500000D01*
X53650000Y29500000D02*
X53650000Y28950000D01*
X54250000Y29100000D02*
X53650000Y29500000D01*
X54250000Y29900000D02*
X54250000Y29100000D01*
X54250000Y29500000D02*
X54750000Y29500000D01*
X53650000Y29500000D02*
X53650000Y30050000D01*
X53650000Y29500000D02*
X54250000Y29900000D01*
%TO.C,G\u002A\u002A\u002A*%
G36*
X93531158Y30318538D02*
G01*
X93580473Y30280000D01*
X93609440Y30271612D01*
X93615785Y30260000D01*
X93637463Y30220325D01*
X93631567Y30180000D01*
X93627617Y30152979D01*
X93580000Y30105535D01*
X93531119Y30069731D01*
X93526901Y30022669D01*
X93565056Y30006380D01*
X93580000Y30000000D01*
X93618245Y29981635D01*
X93635708Y29920000D01*
X93640000Y29904853D01*
X93661403Y29841571D01*
X93737415Y29771009D01*
X93814091Y29740000D01*
X93840087Y29729487D01*
X93939282Y29734190D01*
X93973624Y29739050D01*
X93994816Y29706667D01*
X94000000Y29698745D01*
X94023279Y29660000D01*
X94024474Y29658011D01*
X94116667Y29640000D01*
X94202564Y29625927D01*
X94250949Y29590000D01*
X94256516Y29582307D01*
X94270276Y29591894D01*
X94368226Y29591894D01*
X94371574Y29540000D01*
X94373509Y29510000D01*
X94387399Y29503215D01*
X94393685Y29560000D01*
X94388109Y29615025D01*
X94373509Y29610000D01*
X94368226Y29591894D01*
X94270276Y29591894D01*
X94286998Y29603545D01*
X94328086Y29680000D01*
X94335183Y29696104D01*
X94392449Y29800712D01*
X94448208Y29870254D01*
X94470815Y29884293D01*
X94490175Y29873357D01*
X94500586Y29818768D01*
X94503969Y29708432D01*
X94502536Y29560000D01*
X94502249Y29530254D01*
X94500305Y29460000D01*
X94500077Y29451744D01*
X94490136Y29300000D01*
X94488338Y29272550D01*
X94475823Y29178788D01*
X94469493Y29131367D01*
X94460526Y29100000D01*
X94450996Y29066667D01*
X94445995Y29049174D01*
X94437077Y29020000D01*
X94416650Y28953171D01*
X94446148Y28896912D01*
X94527674Y28893597D01*
X94582370Y28896828D01*
X94582872Y28880000D01*
X94583618Y28855004D01*
X94577394Y28827063D01*
X94598832Y28819278D01*
X94639116Y28823194D01*
X94715441Y28793565D01*
X94745891Y28780000D01*
X94757696Y28774741D01*
X94820267Y28775135D01*
X94912824Y28805934D01*
X95018245Y28854636D01*
X95167076Y28854636D01*
X95200000Y28840000D01*
X95221176Y28842887D01*
X95226667Y28866667D01*
X95220804Y28871454D01*
X95173334Y28866667D01*
X95167076Y28854636D01*
X95018245Y28854636D01*
X95055156Y28871688D01*
X95087345Y28887016D01*
X95244280Y28949030D01*
X95358526Y28971738D01*
X95421429Y28954550D01*
X95424336Y28896876D01*
X95420811Y28869073D01*
X95448808Y28866667D01*
X95460363Y28865674D01*
X95499295Y28858254D01*
X95537938Y28797189D01*
X95543549Y28769564D01*
X95549553Y28740000D01*
X95557164Y28702528D01*
X95556948Y28700000D01*
X95550694Y28626667D01*
X95548424Y28600053D01*
X95545235Y28586667D01*
X95543243Y28578307D01*
X95548024Y28546667D01*
X95548786Y28541628D01*
X95603927Y28562102D01*
X95648309Y28596934D01*
X95659647Y28620000D01*
X95720000Y28620000D01*
X95740000Y28600000D01*
X95760000Y28620000D01*
X95740000Y28640000D01*
X95720000Y28620000D01*
X95659647Y28620000D01*
X95680000Y28661408D01*
X95683428Y28689257D01*
X95723216Y28718315D01*
X95815996Y28696002D01*
X95817396Y28695459D01*
X95856935Y28660154D01*
X95844555Y28620000D01*
X95836200Y28592900D01*
X95799453Y28548967D01*
X95734855Y28536440D01*
X95706947Y28543002D01*
X95697812Y28523542D01*
X95699541Y28518540D01*
X95667399Y28496819D01*
X95582754Y28488000D01*
X95528114Y28486935D01*
X95323436Y28460000D01*
X95218616Y28446206D01*
X94926299Y28354127D01*
X94904562Y28344360D01*
X94825177Y28300000D01*
X94769121Y28268676D01*
X94727749Y28240000D01*
X94641184Y28180000D01*
X94625579Y28169184D01*
X94493445Y28061550D01*
X94491878Y28060000D01*
X94436264Y28004994D01*
X94392226Y27961437D01*
X94364866Y27920000D01*
X94341432Y27884510D01*
X94339322Y27834536D01*
X94362166Y27740000D01*
X94367309Y27718716D01*
X94422043Y27580000D01*
X94424435Y27573937D01*
X94460353Y27503334D01*
X94501390Y27422667D01*
X94503114Y27420000D01*
X94528977Y27380000D01*
X94588865Y27287373D01*
X94612561Y27254629D01*
X94634282Y27220000D01*
X94660890Y27177581D01*
X94672917Y27139584D01*
X94668438Y27137537D01*
X94610222Y27139612D01*
X94512021Y27157289D01*
X94474073Y27165095D01*
X94394329Y27170349D01*
X94393994Y27169564D01*
X94384220Y27146667D01*
X94383885Y27145882D01*
X94433992Y27100000D01*
X94440088Y27094418D01*
X94560280Y27018683D01*
X94694664Y26946667D01*
X94741809Y26921402D01*
X94826742Y26877213D01*
X94845569Y26866667D01*
X94928880Y26820000D01*
X94956956Y26804273D01*
X94994949Y26780000D01*
X95046618Y26746989D01*
X95080000Y26714962D01*
X95086732Y26698921D01*
X95140000Y26680000D01*
X95167640Y26675207D01*
X95200000Y26637640D01*
X95202368Y26624249D01*
X95237092Y26618203D01*
X95268671Y26620648D01*
X95359005Y26601353D01*
X95421597Y26580000D01*
X95478572Y26560563D01*
X95516434Y26546667D01*
X95559678Y26530796D01*
X95680818Y26494265D01*
X95707400Y26489564D01*
X95761481Y26480000D01*
X95806588Y26472261D01*
X95818421Y26460000D01*
X95840000Y26437640D01*
X95843141Y26423172D01*
X95880000Y26420001D01*
X95902934Y26421083D01*
X95920613Y26372361D01*
X95920713Y26364913D01*
X95928845Y26324494D01*
X95958461Y26358879D01*
X95961960Y26364280D01*
X95987294Y26389988D01*
X96008430Y26375026D01*
X96028514Y26309671D01*
X96047896Y26200000D01*
X96050688Y26184202D01*
X96056891Y26140000D01*
X96074793Y26012433D01*
X96078096Y25988895D01*
X96079535Y25978330D01*
X96081131Y25969564D01*
X96100475Y25863334D01*
X96111316Y25803795D01*
X96122726Y25760000D01*
X96153732Y25640985D01*
X96198018Y25523887D01*
X96237401Y25440000D01*
X96280137Y25348969D01*
X96368583Y25120000D01*
X96404971Y25025797D01*
X96424308Y24960000D01*
X96453698Y24860000D01*
X96498296Y24708254D01*
X96498814Y24706077D01*
X96517526Y24608518D01*
X96529731Y24493396D01*
X96535653Y24348260D01*
X96535514Y24160657D01*
X96529535Y23918139D01*
X96527609Y23866667D01*
X96526112Y23826667D01*
X96522869Y23740000D01*
X96520982Y23689564D01*
X96519876Y23660000D01*
X96518379Y23620000D01*
X96517939Y23608254D01*
X96514892Y23540000D01*
X96510428Y23440000D01*
X96508515Y23397146D01*
X96500489Y23260000D01*
X96498148Y23220000D01*
X96492296Y23120000D01*
X96488784Y23060000D01*
X96485717Y23007598D01*
X96482771Y22973004D01*
X96479961Y22940000D01*
X96468041Y22800000D01*
X96456056Y22659235D01*
X96451419Y22620000D01*
X96446691Y22580000D01*
X96438023Y22506667D01*
X96433295Y22466667D01*
X96423052Y22380000D01*
X96416661Y22325932D01*
X96412745Y22300000D01*
X96407711Y22266667D01*
X96401671Y22226667D01*
X96385564Y22120000D01*
X96374716Y22048158D01*
X96367444Y22000000D01*
X96364660Y21981563D01*
X96357310Y21940000D01*
X96351415Y21906667D01*
X96300717Y21620000D01*
X96297180Y21600000D01*
X96284173Y21520000D01*
X96271165Y21440000D01*
X96251654Y21320000D01*
X96228892Y21180000D01*
X96202877Y21020000D01*
X96189918Y20940295D01*
X96136263Y20440000D01*
X96129828Y20380000D01*
X96110524Y20200000D01*
X96080494Y19920000D01*
X96075784Y19860000D01*
X96068958Y19773046D01*
X96062853Y19700000D01*
X96040653Y19434386D01*
X96025173Y19260000D01*
X96018072Y19180000D01*
X96010970Y19100000D01*
X96008168Y19068434D01*
X96003547Y19018843D01*
X95996201Y18940000D01*
X95991718Y18891892D01*
X95988746Y18860000D01*
X95985019Y18820000D01*
X95984838Y18818058D01*
X95977565Y18740000D01*
X95973521Y18696605D01*
X95972711Y18688306D01*
X95966041Y18620000D01*
X95946512Y18420000D01*
X95938731Y18340313D01*
X95938699Y18340000D01*
X95924026Y18197640D01*
X95913963Y18100000D01*
X95910527Y18066667D01*
X95905818Y18020974D01*
X95892368Y17900000D01*
X95876802Y17760000D01*
X95873211Y17731332D01*
X95869726Y17703504D01*
X95869085Y17700000D01*
X95858109Y17640000D01*
X95831693Y17495599D01*
X95820212Y17460000D01*
X95787960Y17360000D01*
X95771159Y17307907D01*
X95762769Y17289564D01*
X95697406Y17146667D01*
X95675313Y17098368D01*
X95645486Y17039635D01*
X95625989Y17004395D01*
X95624999Y17002605D01*
X95590362Y16940000D01*
X95568231Y16900000D01*
X95565897Y16895781D01*
X95510535Y16820000D01*
X95494580Y16798160D01*
X95481772Y16786667D01*
X95435582Y16745219D01*
X95414120Y16725960D01*
X95309682Y16660000D01*
X95307098Y16658368D01*
X95250097Y16626667D01*
X95218147Y16608898D01*
X95083076Y16538434D01*
X94980212Y16490150D01*
X94946702Y16480421D01*
X94821233Y16464570D01*
X94634299Y16455902D01*
X94398364Y16454126D01*
X94125895Y16458948D01*
X93829358Y16470078D01*
X93521219Y16487223D01*
X93213944Y16510092D01*
X92920000Y16538393D01*
X92739952Y16558371D01*
X92522379Y16584296D01*
X92370286Y16605959D01*
X92327502Y16614636D01*
X92567076Y16614636D01*
X92600000Y16600000D01*
X92621176Y16602887D01*
X92626667Y16626667D01*
X92620804Y16631454D01*
X92573334Y16626667D01*
X92567076Y16614636D01*
X92327502Y16614636D01*
X92275074Y16625269D01*
X92228142Y16644132D01*
X92224394Y16654636D01*
X92727076Y16654636D01*
X92760000Y16640000D01*
X92781176Y16642887D01*
X92785128Y16660000D01*
X92920000Y16660000D01*
X92940000Y16640000D01*
X92960000Y16660000D01*
X95080000Y16660000D01*
X95100000Y16640000D01*
X95120000Y16660000D01*
X95100000Y16680000D01*
X95080000Y16660000D01*
X92960000Y16660000D01*
X92940000Y16680000D01*
X92920000Y16660000D01*
X92785128Y16660000D01*
X92786667Y16666667D01*
X92780804Y16671454D01*
X92733334Y16666667D01*
X92727076Y16654636D01*
X92224394Y16654636D01*
X92220890Y16664455D01*
X92244715Y16688147D01*
X92248639Y16690968D01*
X92261390Y16704167D01*
X92490834Y16704167D01*
X92491453Y16690513D01*
X92543334Y16683158D01*
X92582652Y16689564D01*
X92573749Y16700000D01*
X94880000Y16700000D01*
X94900000Y16680000D01*
X94920000Y16700000D01*
X94900000Y16720000D01*
X94880000Y16700000D01*
X92573749Y16700000D01*
X92567500Y16707325D01*
X92544369Y16713716D01*
X92490834Y16704167D01*
X92261390Y16704167D01*
X92270394Y16713488D01*
X92222337Y16702089D01*
X92151563Y16698997D01*
X92021647Y16722805D01*
X91979504Y16734636D01*
X92327076Y16734636D01*
X92360000Y16720000D01*
X92381176Y16722887D01*
X92384247Y16736187D01*
X95213334Y16736187D01*
X95213649Y16712456D01*
X95214830Y16700000D01*
X95216667Y16680613D01*
X95224665Y16684971D01*
X95273354Y16715046D01*
X95305627Y16745219D01*
X95270021Y16770620D01*
X95241082Y16774354D01*
X95220953Y16746667D01*
X95213334Y16736187D01*
X92384247Y16736187D01*
X92386667Y16746667D01*
X92380804Y16751454D01*
X92333334Y16746667D01*
X92327076Y16734636D01*
X91979504Y16734636D01*
X91850297Y16770909D01*
X91839187Y16774636D01*
X92567076Y16774636D01*
X92600000Y16760000D01*
X92621176Y16762887D01*
X92623889Y16774636D01*
X95367076Y16774636D01*
X95400000Y16760000D01*
X95421176Y16762887D01*
X95426667Y16786667D01*
X95420804Y16791454D01*
X95373334Y16786667D01*
X95367076Y16774636D01*
X92623889Y16774636D01*
X92626667Y16786667D01*
X92620804Y16791454D01*
X92573334Y16786667D01*
X92567076Y16774636D01*
X91839187Y16774636D01*
X91703960Y16820000D01*
X91960000Y16820000D01*
X91980000Y16800000D01*
X92000000Y16820000D01*
X92280000Y16820000D01*
X92300000Y16800000D01*
X92320000Y16820000D01*
X95280000Y16820000D01*
X95300000Y16800000D01*
X95320000Y16820000D01*
X95300000Y16840000D01*
X95280000Y16820000D01*
X92320000Y16820000D01*
X92300000Y16840000D01*
X92280000Y16820000D01*
X92000000Y16820000D01*
X91980000Y16840000D01*
X91960000Y16820000D01*
X91703960Y16820000D01*
X91649248Y16838354D01*
X91484263Y16900000D01*
X91640000Y16900000D01*
X91660000Y16880000D01*
X91680000Y16900000D01*
X91660000Y16920000D01*
X91640000Y16900000D01*
X91484263Y16900000D01*
X91430236Y16920187D01*
X91381339Y16940000D01*
X91520000Y16940000D01*
X91540000Y16920000D01*
X91560000Y16940000D01*
X91540000Y16960000D01*
X91520000Y16940000D01*
X91381339Y16940000D01*
X91204994Y17011455D01*
X91053667Y17077396D01*
X91329808Y17077396D01*
X91340000Y17040000D01*
X91348218Y17028160D01*
X91384722Y17000000D01*
X91390193Y17002605D01*
X91380000Y17040000D01*
X91371783Y17051841D01*
X91335279Y17080000D01*
X91329808Y17077396D01*
X91053667Y17077396D01*
X91001793Y17100000D01*
X91200000Y17100000D01*
X91220000Y17080000D01*
X91240000Y17100000D01*
X91220000Y17120000D01*
X91200000Y17100000D01*
X91001793Y17100000D01*
X90985258Y17107205D01*
X90950970Y17123338D01*
X91380000Y17123338D01*
X91418735Y17100000D01*
X91480000Y17063087D01*
X91528372Y17036178D01*
X91601419Y17005752D01*
X91636963Y17004395D01*
X91618000Y17035505D01*
X91571078Y17063991D01*
X91480000Y17097173D01*
X91380000Y17123338D01*
X90950970Y17123338D01*
X90926958Y17134636D01*
X91567076Y17134636D01*
X91600000Y17120000D01*
X91621176Y17122887D01*
X91626667Y17146667D01*
X91620804Y17151454D01*
X91573334Y17146667D01*
X91567076Y17134636D01*
X90926958Y17134636D01*
X90782763Y17202483D01*
X90609243Y17292336D01*
X90589472Y17304167D01*
X90770834Y17304167D01*
X90771453Y17290513D01*
X90823334Y17283158D01*
X90862652Y17289564D01*
X90847500Y17307325D01*
X90824369Y17313716D01*
X90770834Y17304167D01*
X90589472Y17304167D01*
X90476432Y17371810D01*
X90396067Y17435952D01*
X90392545Y17445495D01*
X90513194Y17445495D01*
X90523334Y17425419D01*
X90560906Y17403044D01*
X90640000Y17363212D01*
X90698084Y17336367D01*
X90711529Y17336439D01*
X90662355Y17377794D01*
X90657652Y17380804D01*
X95688547Y17380804D01*
X95693021Y17336439D01*
X95693334Y17333334D01*
X95705365Y17327076D01*
X95720000Y17360000D01*
X95717114Y17381176D01*
X95693334Y17386667D01*
X95688547Y17380804D01*
X90657652Y17380804D01*
X90608818Y17412058D01*
X90549915Y17438224D01*
X90513194Y17445495D01*
X90392545Y17445495D01*
X90387192Y17460000D01*
X90680000Y17460000D01*
X90700000Y17440000D01*
X90720000Y17460000D01*
X95600000Y17460000D01*
X95620000Y17440000D01*
X95640000Y17460000D01*
X95620000Y17480000D01*
X95600000Y17460000D01*
X90720000Y17460000D01*
X90700000Y17480000D01*
X90680000Y17460000D01*
X90387192Y17460000D01*
X90379882Y17479808D01*
X90372607Y17495521D01*
X90313801Y17489969D01*
X90308983Y17488731D01*
X90253065Y17484330D01*
X90259926Y17519880D01*
X90273000Y17547957D01*
X90248638Y17545339D01*
X90200503Y17546900D01*
X90097052Y17584641D01*
X90024752Y17620000D01*
X90160000Y17620000D01*
X90180000Y17600000D01*
X90200000Y17620000D01*
X90180000Y17640000D01*
X90320000Y17640000D01*
X90321628Y17629037D01*
X90334305Y17620000D01*
X90362361Y17600000D01*
X90376829Y17603141D01*
X90380000Y17640000D01*
X90371791Y17651971D01*
X90337640Y17680000D01*
X90333648Y17678961D01*
X90320000Y17640000D01*
X90180000Y17640000D01*
X90160000Y17620000D01*
X90024752Y17620000D01*
X89956522Y17653369D01*
X89874390Y17700000D01*
X90080000Y17700000D01*
X90100000Y17680000D01*
X90120000Y17700000D01*
X90100000Y17720000D01*
X90080000Y17700000D01*
X89874390Y17700000D01*
X89813385Y17734636D01*
X89967076Y17734636D01*
X90000000Y17720000D01*
X90021176Y17722887D01*
X90025128Y17740000D01*
X90200000Y17740000D01*
X90220000Y17720000D01*
X90240000Y17740000D01*
X90220000Y17760000D01*
X90200000Y17740000D01*
X90025128Y17740000D01*
X90026667Y17746667D01*
X90020804Y17751454D01*
X89973334Y17746667D01*
X89967076Y17734636D01*
X89813385Y17734636D01*
X89794283Y17745481D01*
X89721172Y17792275D01*
X90298942Y17792275D01*
X90299294Y17774260D01*
X90348275Y17742572D01*
X90355131Y17740000D01*
X90355864Y17739725D01*
X90395945Y17731332D01*
X90370667Y17764964D01*
X90341256Y17787789D01*
X90298942Y17792275D01*
X89721172Y17792275D01*
X89625704Y17853379D01*
X89565376Y17892133D01*
X89551748Y17900000D01*
X89720000Y17900000D01*
X89740000Y17880000D01*
X89760000Y17900000D01*
X89740000Y17920000D01*
X89720000Y17900000D01*
X89551748Y17900000D01*
X89416133Y17978283D01*
X89265616Y18055611D01*
X89257951Y18060000D01*
X89440000Y18060000D01*
X89460000Y18040000D01*
X89474636Y18054636D01*
X89647076Y18054636D01*
X89680000Y18040000D01*
X89701176Y18042887D01*
X89706667Y18066667D01*
X89700804Y18071454D01*
X89653334Y18066667D01*
X89649866Y18060000D01*
X89647076Y18054636D01*
X89474636Y18054636D01*
X89480000Y18060000D01*
X89460000Y18080000D01*
X89440000Y18060000D01*
X89257951Y18060000D01*
X89188098Y18100000D01*
X89520000Y18100000D01*
X89540000Y18080000D01*
X89560000Y18100000D01*
X89540000Y18120000D01*
X89520000Y18100000D01*
X89188098Y18100000D01*
X89144527Y18124950D01*
X88988597Y18236015D01*
X88956573Y18263369D01*
X89061943Y18263369D01*
X89064738Y18222078D01*
X89077650Y18193002D01*
X89107146Y18161296D01*
X89120000Y18197640D01*
X89118579Y18208504D01*
X89080459Y18259717D01*
X89061943Y18263369D01*
X88956573Y18263369D01*
X88866858Y18340000D01*
X88960000Y18340000D01*
X88980000Y18320000D01*
X89000000Y18340000D01*
X89080000Y18340000D01*
X89100000Y18320000D01*
X89120000Y18340000D01*
X89100000Y18360000D01*
X89080000Y18340000D01*
X89000000Y18340000D01*
X88980000Y18360000D01*
X88960000Y18340000D01*
X88866858Y18340000D01*
X88847561Y18356483D01*
X88834173Y18369251D01*
X88778289Y18420000D01*
X88920000Y18420000D01*
X88940000Y18400000D01*
X88960000Y18420000D01*
X95840000Y18420000D01*
X95860000Y18400000D01*
X95880000Y18420000D01*
X95860000Y18440000D01*
X95840000Y18420000D01*
X88960000Y18420000D01*
X88940000Y18440000D01*
X88920000Y18420000D01*
X88778289Y18420000D01*
X88727814Y18465837D01*
X88643760Y18534113D01*
X88599194Y18560000D01*
X88574007Y18571336D01*
X88510435Y18620000D01*
X88760000Y18620000D01*
X88780000Y18600000D01*
X88800000Y18620000D01*
X88780000Y18640000D01*
X88760000Y18620000D01*
X88510435Y18620000D01*
X88502916Y18625756D01*
X88422358Y18700000D01*
X88480000Y18700000D01*
X88500000Y18680000D01*
X88520000Y18700000D01*
X88500000Y18720000D01*
X88480000Y18700000D01*
X88422358Y18700000D01*
X88411508Y18710000D01*
X88368275Y18751695D01*
X88567984Y18751695D01*
X88600000Y18720000D01*
X88634265Y18701142D01*
X88638034Y18700000D01*
X88700000Y18681226D01*
X88712017Y18688306D01*
X88680000Y18720000D01*
X88645736Y18738859D01*
X88641970Y18740000D01*
X88760000Y18740000D01*
X88780000Y18720000D01*
X88800000Y18740000D01*
X88780000Y18760000D01*
X88760000Y18740000D01*
X88641970Y18740000D01*
X88580000Y18758775D01*
X88567984Y18751695D01*
X88368275Y18751695D01*
X88343362Y18775721D01*
X89040000Y18775721D01*
X89051087Y18760819D01*
X89096935Y18766384D01*
X89139717Y18799542D01*
X89143369Y18818058D01*
X89102078Y18815263D01*
X89071377Y18801411D01*
X89040000Y18775721D01*
X88343362Y18775721D01*
X88308683Y18809166D01*
X88297116Y18820000D01*
X88400000Y18820000D01*
X88420000Y18800000D01*
X88440000Y18820000D01*
X88420000Y18840000D01*
X88400000Y18820000D01*
X88297116Y18820000D01*
X88254409Y18860000D01*
X89400000Y18860000D01*
X89420000Y18840000D01*
X89440000Y18860000D01*
X89420000Y18880000D01*
X89400000Y18860000D01*
X88254409Y18860000D01*
X88211702Y18900000D01*
X88440000Y18900000D01*
X88460000Y18880000D01*
X88472602Y18892602D01*
X89103215Y18892602D01*
X89160000Y18886316D01*
X89215025Y18891892D01*
X89210000Y18906492D01*
X89191894Y18911775D01*
X89110000Y18906492D01*
X89106829Y18900000D01*
X89103215Y18892602D01*
X88472602Y18892602D01*
X88480000Y18900000D01*
X88460000Y18920000D01*
X88440000Y18900000D01*
X88211702Y18900000D01*
X88170871Y18938243D01*
X88168949Y18940000D01*
X88360000Y18940000D01*
X88380000Y18920000D01*
X88400000Y18940000D01*
X88380000Y18960000D01*
X88360000Y18940000D01*
X88168949Y18940000D01*
X88084018Y19017640D01*
X88160000Y19017640D01*
X88160390Y19012048D01*
X88183544Y19003239D01*
X88197136Y19017731D01*
X88292845Y19017731D01*
X88300000Y19001226D01*
X88327080Y19006153D01*
X88400000Y19040000D01*
X88427156Y19062270D01*
X88420000Y19078775D01*
X88392921Y19073848D01*
X88381475Y19068535D01*
X88320000Y19040000D01*
X88292845Y19017731D01*
X88197136Y19017731D01*
X88223820Y19046181D01*
X88233553Y19068535D01*
X88206181Y19063820D01*
X88188412Y19051472D01*
X88160000Y19017640D01*
X88084018Y19017640D01*
X88033528Y19063796D01*
X88021367Y19074827D01*
X87891159Y19207184D01*
X87823837Y19300000D01*
X87840000Y19300000D01*
X87860000Y19280000D01*
X87880000Y19300000D01*
X87860000Y19320000D01*
X87840000Y19300000D01*
X87823837Y19300000D01*
X87810975Y19317733D01*
X87785645Y19397973D01*
X87820000Y19439408D01*
X87823797Y19439973D01*
X87868851Y19409196D01*
X87920000Y19331344D01*
X87938229Y19300000D01*
X87967655Y19249405D01*
X88038464Y19157167D01*
X88103227Y19098680D01*
X88145146Y19091813D01*
X88147041Y19129949D01*
X88145286Y19134636D01*
X88207076Y19134636D01*
X88240000Y19120000D01*
X88261176Y19122887D01*
X88266667Y19146667D01*
X88260804Y19151454D01*
X88213334Y19146667D01*
X88207076Y19134636D01*
X88145286Y19134636D01*
X88127996Y19180804D01*
X88328547Y19180804D01*
X88331989Y19146667D01*
X88333334Y19133334D01*
X88345365Y19127076D01*
X88360000Y19160000D01*
X88357584Y19177731D01*
X88452845Y19177731D01*
X88460000Y19161226D01*
X88487080Y19166153D01*
X88560000Y19200000D01*
X88587156Y19222270D01*
X88580000Y19238775D01*
X88552921Y19233848D01*
X88480000Y19200000D01*
X88452845Y19177731D01*
X88357584Y19177731D01*
X88357114Y19181176D01*
X88333334Y19186667D01*
X88328547Y19180804D01*
X88127996Y19180804D01*
X88118345Y19206575D01*
X88100317Y19242684D01*
X88090898Y19274774D01*
X88123104Y19250000D01*
X88123764Y19249378D01*
X88194919Y19202882D01*
X88230248Y19227145D01*
X88228763Y19260000D01*
X88320000Y19260000D01*
X88340000Y19240000D01*
X88360000Y19260000D01*
X88340000Y19280000D01*
X88320000Y19260000D01*
X88228763Y19260000D01*
X88226066Y19319674D01*
X88215638Y19383195D01*
X88225277Y19417774D01*
X88271066Y19401497D01*
X88303975Y19384786D01*
X88405725Y19337829D01*
X88530000Y19284072D01*
X88582541Y19260000D01*
X88599806Y19252090D01*
X88650990Y19222270D01*
X88686238Y19201734D01*
X88720000Y19165428D01*
X88720438Y19162125D01*
X88723003Y19160000D01*
X88761809Y19127847D01*
X88850000Y19098560D01*
X88852192Y19098087D01*
X88956773Y19067319D01*
X88967038Y19062270D01*
X89027582Y19032491D01*
X89088441Y19010259D01*
X89187582Y19007259D01*
X89247947Y19016075D01*
X89264480Y19032070D01*
X89257608Y19038284D01*
X89330869Y19038284D01*
X89333720Y18993181D01*
X89358947Y18960000D01*
X89373689Y18966730D01*
X89384286Y19018843D01*
X89369491Y19077064D01*
X89346245Y19093851D01*
X89330869Y19038284D01*
X89257608Y19038284D01*
X89225908Y19066951D01*
X89176055Y19100000D01*
X89640000Y19100000D01*
X89660000Y19080000D01*
X89680000Y19100000D01*
X94960000Y19100000D01*
X94980000Y19080000D01*
X95000000Y19100000D01*
X95800000Y19100000D01*
X95820000Y19080000D01*
X95840000Y19100000D01*
X95820000Y19120000D01*
X95800000Y19100000D01*
X95000000Y19100000D01*
X94980000Y19120000D01*
X94960000Y19100000D01*
X89680000Y19100000D01*
X89660000Y19120000D01*
X89640000Y19100000D01*
X89176055Y19100000D01*
X89126221Y19133037D01*
X89115921Y19140000D01*
X89240000Y19140000D01*
X89260000Y19120000D01*
X89280000Y19140000D01*
X94880000Y19140000D01*
X94900000Y19120000D01*
X94914636Y19134636D01*
X95487076Y19134636D01*
X95520000Y19120000D01*
X95541176Y19122887D01*
X95545128Y19140000D01*
X95680000Y19140000D01*
X95700000Y19120000D01*
X95720000Y19140000D01*
X95700000Y19160000D01*
X95680000Y19140000D01*
X95545128Y19140000D01*
X95546667Y19146667D01*
X95540804Y19151454D01*
X95493334Y19146667D01*
X95489866Y19140000D01*
X95487076Y19134636D01*
X94914636Y19134636D01*
X94920000Y19140000D01*
X94900000Y19160000D01*
X94880000Y19140000D01*
X89280000Y19140000D01*
X89260000Y19160000D01*
X89240000Y19140000D01*
X89115921Y19140000D01*
X89060982Y19177138D01*
X88988791Y19232443D01*
X88966603Y19259937D01*
X88970464Y19261095D01*
X89027752Y19256097D01*
X89134121Y19238570D01*
X89266300Y19212958D01*
X89401017Y19183703D01*
X89515001Y19155248D01*
X89540224Y19152866D01*
X89573573Y19174636D01*
X89687076Y19174636D01*
X89720000Y19160000D01*
X89741176Y19162887D01*
X89746667Y19186667D01*
X89740804Y19191454D01*
X89693334Y19186667D01*
X89687076Y19174636D01*
X89573573Y19174636D01*
X89585893Y19182678D01*
X89578290Y19199927D01*
X89511665Y19237605D01*
X89375603Y19289019D01*
X89278078Y19320000D01*
X89540000Y19320000D01*
X89548175Y19309191D01*
X89604722Y19280000D01*
X89618172Y19283082D01*
X89619010Y19300000D01*
X89720000Y19300000D01*
X89740000Y19280000D01*
X89760000Y19300000D01*
X89740000Y19320000D01*
X89720000Y19300000D01*
X89619010Y19300000D01*
X89620000Y19320000D01*
X89611826Y19330810D01*
X89555279Y19360000D01*
X89541829Y19356919D01*
X89540000Y19320000D01*
X89278078Y19320000D01*
X89167186Y19355227D01*
X89100087Y19374636D01*
X89647076Y19374636D01*
X89680000Y19360000D01*
X89701176Y19362887D01*
X89706667Y19386667D01*
X89700804Y19391454D01*
X89653334Y19386667D01*
X89647076Y19374636D01*
X89100087Y19374636D01*
X88943258Y19420000D01*
X94600000Y19420000D01*
X94620000Y19400000D01*
X94640000Y19420000D01*
X94620000Y19440000D01*
X94600000Y19420000D01*
X88943258Y19420000D01*
X88883495Y19437287D01*
X88839612Y19460000D01*
X89080000Y19460000D01*
X89100000Y19440000D01*
X89120000Y19460000D01*
X89100000Y19480000D01*
X89080000Y19460000D01*
X88839612Y19460000D01*
X88819400Y19470461D01*
X88802843Y19494636D01*
X88927076Y19494636D01*
X88960000Y19480000D01*
X88981176Y19482887D01*
X88983889Y19494636D01*
X94207076Y19494636D01*
X94240000Y19480000D01*
X94261176Y19482887D01*
X94265128Y19500000D01*
X94360000Y19500000D01*
X94380000Y19480000D01*
X94400000Y19500000D01*
X94380000Y19520000D01*
X94360000Y19500000D01*
X94265128Y19500000D01*
X94266667Y19506667D01*
X94260804Y19511454D01*
X94213334Y19506667D01*
X94207076Y19494636D01*
X88983889Y19494636D01*
X88986667Y19506667D01*
X88980804Y19511454D01*
X88933334Y19506667D01*
X88927076Y19494636D01*
X88802843Y19494636D01*
X88777007Y19532359D01*
X88777139Y19566426D01*
X88800748Y19579539D01*
X88813129Y19574903D01*
X88858872Y19598175D01*
X88851735Y19620804D01*
X93968547Y19620804D01*
X93973334Y19573334D01*
X93985365Y19567076D01*
X93998842Y19597396D01*
X94089808Y19597396D01*
X94100000Y19560000D01*
X94108218Y19548160D01*
X94144722Y19520000D01*
X94150193Y19522605D01*
X94140000Y19560000D01*
X94131783Y19571841D01*
X94095279Y19600000D01*
X94089808Y19597396D01*
X93998842Y19597396D01*
X94000000Y19600000D01*
X93997274Y19620000D01*
X94200000Y19620000D01*
X94220000Y19600000D01*
X94222361Y19602361D01*
X94440000Y19602361D01*
X94444130Y19580207D01*
X94484559Y19539665D01*
X94491579Y19540804D01*
X94608547Y19540804D01*
X94610382Y19522605D01*
X94612662Y19500000D01*
X94613334Y19493334D01*
X94625365Y19487076D01*
X94640000Y19520000D01*
X94637114Y19541176D01*
X94613334Y19546667D01*
X94608547Y19540804D01*
X94491579Y19540804D01*
X94534421Y19547755D01*
X94545281Y19560209D01*
X94555166Y19615435D01*
X94544914Y19620000D01*
X94600000Y19620000D01*
X94620000Y19600000D01*
X94640000Y19620000D01*
X94620000Y19640000D01*
X94600000Y19620000D01*
X94544914Y19620000D01*
X94500000Y19640000D01*
X94472434Y19635766D01*
X94457126Y19620000D01*
X94440000Y19602361D01*
X94222361Y19602361D01*
X94240000Y19620000D01*
X94220000Y19640000D01*
X94200000Y19620000D01*
X93997274Y19620000D01*
X93997114Y19621176D01*
X93973334Y19626667D01*
X93968547Y19620804D01*
X88851735Y19620804D01*
X88848248Y19631858D01*
X88781913Y19663095D01*
X88718821Y19689600D01*
X88701913Y19723095D01*
X88695789Y19740000D01*
X93160000Y19740000D01*
X93180000Y19720000D01*
X93200000Y19740000D01*
X93180000Y19760000D01*
X93160000Y19740000D01*
X88695789Y19740000D01*
X88691317Y19752347D01*
X88635815Y19777640D01*
X93560000Y19777640D01*
X93560390Y19772048D01*
X93583544Y19763239D01*
X93599264Y19780000D01*
X93754000Y19780000D01*
X93755674Y19768962D01*
X93784658Y19740000D01*
X93797000Y19727667D01*
X93819705Y19730218D01*
X93827803Y19750081D01*
X93887698Y19750081D01*
X93897049Y19724777D01*
X93927718Y19699664D01*
X94007359Y19673402D01*
X94092335Y19666537D01*
X94143316Y19685365D01*
X94147611Y19700000D01*
X94400000Y19700000D01*
X94420000Y19680000D01*
X94440000Y19700000D01*
X94420000Y19720000D01*
X94400000Y19700000D01*
X94147611Y19700000D01*
X94154751Y19724333D01*
X94119182Y19769248D01*
X94030986Y19779691D01*
X93994719Y19775843D01*
X93913816Y19764463D01*
X93887698Y19750081D01*
X93827803Y19750081D01*
X93840000Y19780000D01*
X93833474Y19813025D01*
X93797000Y19832334D01*
X93788706Y19828535D01*
X93785141Y19826902D01*
X93754000Y19780000D01*
X93599264Y19780000D01*
X93623820Y19806181D01*
X93633553Y19828535D01*
X93606181Y19823820D01*
X93600684Y19820000D01*
X93588412Y19811472D01*
X93560000Y19777640D01*
X88635815Y19777640D01*
X88626215Y19782015D01*
X88555979Y19817421D01*
X88551619Y19860000D01*
X88720000Y19860000D01*
X88740000Y19840000D01*
X88760000Y19860000D01*
X88759196Y19860804D01*
X93248547Y19860804D01*
X93248628Y19860000D01*
X93253334Y19813334D01*
X93265365Y19807076D01*
X93271110Y19820000D01*
X93320000Y19820000D01*
X93340000Y19800000D01*
X93360000Y19820000D01*
X93340000Y19840000D01*
X93320000Y19820000D01*
X93271110Y19820000D01*
X93280000Y19840000D01*
X93277114Y19861176D01*
X93253334Y19866667D01*
X93248547Y19860804D01*
X88759196Y19860804D01*
X88740000Y19880000D01*
X88720000Y19860000D01*
X88551619Y19860000D01*
X88549244Y19883188D01*
X88550143Y19894636D01*
X92647076Y19894636D01*
X92680000Y19880000D01*
X92701176Y19882887D01*
X92705128Y19900000D01*
X92960000Y19900000D01*
X92980000Y19880000D01*
X93000000Y19900000D01*
X92980000Y19920000D01*
X93320000Y19920000D01*
X93321628Y19909037D01*
X93334305Y19900000D01*
X93362361Y19880000D01*
X93376829Y19883141D01*
X93377818Y19894636D01*
X93447076Y19894636D01*
X93480000Y19880000D01*
X93501176Y19882887D01*
X93505128Y19900000D01*
X93680000Y19900000D01*
X93700000Y19880000D01*
X93720000Y19900000D01*
X93700000Y19920000D01*
X93680000Y19900000D01*
X93505128Y19900000D01*
X93506667Y19906667D01*
X93500804Y19911454D01*
X93453334Y19906667D01*
X93447076Y19894636D01*
X93377818Y19894636D01*
X93380000Y19920000D01*
X93371791Y19931971D01*
X93362008Y19940000D01*
X93600000Y19940000D01*
X93620000Y19920000D01*
X93640000Y19940000D01*
X93800000Y19940000D01*
X93820000Y19920000D01*
X93840000Y19940000D01*
X94040000Y19940000D01*
X94060000Y19920000D01*
X94080000Y19940000D01*
X94160000Y19940000D01*
X94180000Y19920000D01*
X94200000Y19940000D01*
X94400000Y19940000D01*
X94420000Y19920000D01*
X94440000Y19940000D01*
X94420000Y19960000D01*
X94400000Y19940000D01*
X94200000Y19940000D01*
X94180000Y19960000D01*
X94160000Y19940000D01*
X94080000Y19940000D01*
X94060000Y19960000D01*
X94040000Y19940000D01*
X93840000Y19940000D01*
X93820000Y19960000D01*
X93800000Y19940000D01*
X93640000Y19940000D01*
X93620000Y19960000D01*
X93600000Y19940000D01*
X93362008Y19940000D01*
X93337640Y19960000D01*
X93333648Y19958961D01*
X93329341Y19946667D01*
X93320000Y19920000D01*
X92980000Y19920000D01*
X92960000Y19900000D01*
X92705128Y19900000D01*
X92706667Y19906667D01*
X92700804Y19911454D01*
X92653334Y19906667D01*
X92647076Y19894636D01*
X88550143Y19894636D01*
X88552802Y19928481D01*
X88547673Y19934636D01*
X92327076Y19934636D01*
X92360000Y19920000D01*
X92381176Y19922887D01*
X92383889Y19934636D01*
X92847076Y19934636D01*
X92880000Y19920000D01*
X92901176Y19922887D01*
X92906667Y19946667D01*
X92900804Y19951454D01*
X92853334Y19946667D01*
X92847076Y19934636D01*
X92383889Y19934636D01*
X92386667Y19946667D01*
X92380804Y19951454D01*
X92333334Y19946667D01*
X92327076Y19934636D01*
X88547673Y19934636D01*
X88526538Y19960000D01*
X88505768Y19972347D01*
X88456293Y20039533D01*
X88401637Y20145618D01*
X88401167Y20146680D01*
X88394773Y20163050D01*
X92299284Y20163050D01*
X92329937Y20072275D01*
X92433207Y20009775D01*
X92480516Y19996832D01*
X92603863Y19981455D01*
X92717017Y19986963D01*
X92786378Y20013045D01*
X92802141Y20024377D01*
X92878782Y20039971D01*
X92962428Y20027066D01*
X93010823Y19990000D01*
X93011623Y19987808D01*
X93042455Y19966525D01*
X93062810Y19980000D01*
X93480000Y19980000D01*
X93500000Y19960000D01*
X93520000Y19980000D01*
X93500000Y20000000D01*
X93480000Y19980000D01*
X93062810Y19980000D01*
X93105070Y20007977D01*
X93164331Y20046360D01*
X93240914Y20039245D01*
X93249987Y20034623D01*
X93335964Y20019828D01*
X93449784Y20026346D01*
X93571587Y20031051D01*
X93656555Y20002860D01*
X93708950Y19980000D01*
X93709835Y19979614D01*
X93753492Y20026950D01*
X93780246Y20068082D01*
X93814657Y20072912D01*
X93876721Y20022968D01*
X93881606Y20018549D01*
X93936526Y19974313D01*
X93956974Y19989261D01*
X93958181Y20022979D01*
X94065610Y20022979D01*
X94076063Y20000000D01*
X94111475Y20013887D01*
X94151375Y20058707D01*
X94154006Y20098627D01*
X94137237Y20096404D01*
X94088423Y20055966D01*
X94065610Y20022979D01*
X93958181Y20022979D01*
X93960000Y20073801D01*
X93961592Y20100000D01*
X94040000Y20100000D01*
X94060000Y20080000D01*
X94080000Y20100000D01*
X94060000Y20120000D01*
X94040000Y20100000D01*
X93961592Y20100000D01*
X93964369Y20145696D01*
X93995800Y20190608D01*
X94078013Y20200000D01*
X94167522Y20183463D01*
X94231709Y20136238D01*
X94234467Y20131812D01*
X94276068Y20100000D01*
X94277863Y20098627D01*
X94300893Y20081016D01*
X94403696Y20044815D01*
X94464920Y20029139D01*
X94529066Y19985546D01*
X94542232Y19940000D01*
X94553330Y19901605D01*
X94553545Y19900000D01*
X94557201Y19872700D01*
X94574483Y19821768D01*
X94601665Y19842693D01*
X94636998Y19877558D01*
X94686335Y19849666D01*
X94714705Y19812757D01*
X94688000Y19800000D01*
X94664766Y19796068D01*
X94654117Y19780000D01*
X94639941Y19758611D01*
X94653525Y19724333D01*
X94660813Y19705941D01*
X94670182Y19700000D01*
X94720000Y19668411D01*
X94766621Y19648204D01*
X94788412Y19620000D01*
X94800000Y19605001D01*
X94791416Y19586462D01*
X94740000Y19585535D01*
X94696630Y19584643D01*
X94680000Y19520947D01*
X94680177Y19520000D01*
X94689821Y19468511D01*
X94709646Y19460000D01*
X94730000Y19451262D01*
X94730185Y19451328D01*
X94814744Y19450187D01*
X94854669Y19420000D01*
X94879196Y19401455D01*
X94882088Y19386667D01*
X94893612Y19327730D01*
X94892353Y19300000D01*
X94891551Y19282324D01*
X94927220Y19212722D01*
X94982383Y19186667D01*
X95023564Y19167216D01*
X95180099Y19150340D01*
X95355270Y19172383D01*
X95377626Y19180000D01*
X95600000Y19180000D01*
X95620000Y19160000D01*
X95640000Y19180000D01*
X95620000Y19200000D01*
X95600000Y19180000D01*
X95377626Y19180000D01*
X95523245Y19229614D01*
X95569480Y19260000D01*
X95680000Y19260000D01*
X95700000Y19240000D01*
X95720000Y19260000D01*
X95700000Y19280000D01*
X95680000Y19260000D01*
X95569480Y19260000D01*
X95658190Y19318300D01*
X95665036Y19324592D01*
X95739644Y19376872D01*
X95790373Y19385951D01*
X95805220Y19381038D01*
X95833387Y19411760D01*
X95834245Y19417770D01*
X95846201Y19495336D01*
X95863813Y19604717D01*
X95869297Y19700000D01*
X95960000Y19700000D01*
X95980000Y19680000D01*
X96000000Y19700000D01*
X95980000Y19720000D01*
X95960000Y19700000D01*
X95869297Y19700000D01*
X95869451Y19702674D01*
X95828932Y19860000D01*
X95920000Y19860000D01*
X95940000Y19840000D01*
X95960000Y19860000D01*
X95940000Y19880000D01*
X95920000Y19860000D01*
X95828932Y19860000D01*
X95827532Y19865435D01*
X95802307Y19936496D01*
X95788563Y20057714D01*
X95788816Y20060000D01*
X95960000Y20060000D01*
X95980000Y20040000D01*
X96000000Y20060000D01*
X95980000Y20080000D01*
X95960000Y20060000D01*
X95788816Y20060000D01*
X95800999Y20170124D01*
X95828282Y20220804D01*
X95928547Y20220804D01*
X95933334Y20173334D01*
X95945365Y20167076D01*
X95960000Y20200000D01*
X95957114Y20221176D01*
X95933334Y20226667D01*
X95928547Y20220804D01*
X95828282Y20220804D01*
X95838616Y20240000D01*
X95849877Y20257668D01*
X95877731Y20340755D01*
X95887543Y20380000D01*
X95920000Y20380000D01*
X95940000Y20360000D01*
X95960000Y20380000D01*
X95940000Y20400000D01*
X95920000Y20380000D01*
X95887543Y20380000D01*
X95910217Y20470684D01*
X95910472Y20471894D01*
X96048226Y20471894D01*
X96053509Y20390000D01*
X96067399Y20383215D01*
X96073685Y20440000D01*
X96068109Y20495025D01*
X96053509Y20490000D01*
X96048226Y20471894D01*
X95910472Y20471894D01*
X95943011Y20626190D01*
X95971789Y20786013D01*
X95992227Y20928888D01*
X95998993Y21020000D01*
X96040000Y21020000D01*
X96060000Y21000000D01*
X96080000Y21020000D01*
X96060000Y21040000D01*
X96040000Y21020000D01*
X95998993Y21020000D01*
X96000000Y21033553D01*
X95984331Y21158027D01*
X95978313Y21180000D01*
X96080000Y21180000D01*
X96100000Y21160000D01*
X96120000Y21180000D01*
X96100000Y21200000D01*
X96080000Y21180000D01*
X95978313Y21180000D01*
X95939968Y21320000D01*
X96000000Y21320000D01*
X96001628Y21309037D01*
X96042361Y21280000D01*
X96056829Y21283141D01*
X96060000Y21320000D01*
X96051791Y21331971D01*
X96017640Y21360000D01*
X96013648Y21358961D01*
X96000000Y21320000D01*
X95939968Y21320000D01*
X95936809Y21331532D01*
X95888240Y21460804D01*
X96168547Y21460804D01*
X96173334Y21413334D01*
X96185365Y21407076D01*
X96200000Y21440000D01*
X96197114Y21461176D01*
X96173334Y21466667D01*
X96168547Y21460804D01*
X95888240Y21460804D01*
X95868350Y21513742D01*
X95855249Y21540804D01*
X95968547Y21540804D01*
X95973334Y21493334D01*
X95985365Y21487076D01*
X96000000Y21520000D01*
X95997114Y21541176D01*
X95973334Y21546667D01*
X95968547Y21540804D01*
X95855249Y21540804D01*
X95816910Y21620000D01*
X95880000Y21620000D01*
X95900000Y21600000D01*
X95920000Y21620000D01*
X95900000Y21640000D01*
X95880000Y21620000D01*
X95816910Y21620000D01*
X95790083Y21675415D01*
X95713137Y21787306D01*
X95639820Y21844644D01*
X95501909Y21877869D01*
X95353373Y21836454D01*
X95295376Y21817755D01*
X95184888Y21817048D01*
X95017773Y21843440D01*
X94973793Y21851915D01*
X94826510Y21872492D01*
X94713750Y21868793D01*
X94601770Y21840585D01*
X94560418Y21825818D01*
X94547977Y21820000D01*
X94474292Y21785540D01*
X94440000Y21753598D01*
X94432992Y21737985D01*
X94379206Y21720000D01*
X94377702Y21719983D01*
X94315137Y21700000D01*
X94290156Y21692021D01*
X94175332Y21626667D01*
X94155057Y21615127D01*
X94104288Y21580000D01*
X93982318Y21495610D01*
X93982170Y21495495D01*
X93885050Y21420000D01*
X93833593Y21380000D01*
X93782135Y21340000D01*
X93781848Y21339777D01*
X93770287Y21330380D01*
X93678758Y21260000D01*
X93533986Y21148679D01*
X93530927Y21146667D01*
X93341981Y21022382D01*
X93253307Y20980000D01*
X93197044Y20953109D01*
X93101949Y20942481D01*
X93099042Y20943283D01*
X93051149Y20951217D01*
X93074271Y20927621D01*
X93106065Y20895304D01*
X93079799Y20859876D01*
X93049389Y20852152D01*
X92991755Y20884876D01*
X92991030Y20885891D01*
X92964751Y20915093D01*
X92967981Y20900000D01*
X92973680Y20873367D01*
X92969574Y20840000D01*
X92969293Y20837720D01*
X92917613Y20762147D01*
X92855375Y20702058D01*
X92829935Y20677497D01*
X92817939Y20668535D01*
X92727481Y20600954D01*
X92631475Y20549705D01*
X92563141Y20540935D01*
X92534694Y20549047D01*
X92530569Y20536099D01*
X92532330Y20533880D01*
X92524049Y20500000D01*
X92521053Y20487742D01*
X92480749Y20440000D01*
X92464170Y20420362D01*
X92454462Y20411258D01*
X92393941Y20340000D01*
X92340907Y20277558D01*
X92299284Y20163050D01*
X88394773Y20163050D01*
X88354441Y20266315D01*
X88344953Y20340000D01*
X88400000Y20340000D01*
X88420000Y20320000D01*
X88440000Y20340000D01*
X88420000Y20360000D01*
X88400000Y20340000D01*
X88344953Y20340000D01*
X88344796Y20341218D01*
X88369076Y20395618D01*
X88375658Y20404541D01*
X88377166Y20419416D01*
X88326869Y20381591D01*
X88283517Y20346933D01*
X88233884Y20328052D01*
X88198840Y20361591D01*
X88196054Y20366276D01*
X88193529Y20416028D01*
X88261282Y20453334D01*
X88279298Y20459723D01*
X88281196Y20460804D01*
X92328547Y20460804D01*
X92333334Y20413334D01*
X92345365Y20407076D01*
X92360000Y20440000D01*
X92357114Y20461176D01*
X92333334Y20466667D01*
X92328547Y20460804D01*
X88281196Y20460804D01*
X88334739Y20491292D01*
X88338104Y20500000D01*
X88440000Y20500000D01*
X88460000Y20480000D01*
X88480000Y20500000D01*
X88460000Y20520000D01*
X88440000Y20500000D01*
X88338104Y20500000D01*
X88354557Y20542581D01*
X88342470Y20620000D01*
X92440000Y20620000D01*
X92460000Y20600000D01*
X92477640Y20617640D01*
X92600000Y20617640D01*
X92600390Y20612048D01*
X92623544Y20603239D01*
X92663820Y20646181D01*
X92673553Y20668535D01*
X92646181Y20663820D01*
X92640684Y20660000D01*
X92628412Y20651472D01*
X92601982Y20620000D01*
X92600000Y20617640D01*
X92477640Y20617640D01*
X92480000Y20620000D01*
X92460000Y20640000D01*
X92440000Y20620000D01*
X88342470Y20620000D01*
X88340637Y20631740D01*
X88314842Y20713553D01*
X88371466Y20713553D01*
X88376181Y20686181D01*
X88388435Y20668293D01*
X88420000Y20640000D01*
X88440450Y20650473D01*
X88445527Y20660000D01*
X92520000Y20660000D01*
X92540000Y20640000D01*
X92560000Y20660000D01*
X92540000Y20680000D01*
X92520000Y20660000D01*
X88445527Y20660000D01*
X88467938Y20702058D01*
X88464006Y20749328D01*
X88454223Y20754830D01*
X88440000Y20724306D01*
X88434777Y20704953D01*
X88393820Y20703820D01*
X88371466Y20713553D01*
X88314842Y20713553D01*
X88294862Y20776921D01*
X88267753Y20849712D01*
X88227572Y20920407D01*
X88197158Y20915402D01*
X88193856Y20910720D01*
X88159978Y20911370D01*
X88120720Y20975666D01*
X88119261Y20980000D01*
X88323424Y20980000D01*
X88334538Y20922901D01*
X88359172Y20860780D01*
X88384170Y20824882D01*
X88396577Y20840000D01*
X88393166Y20874611D01*
X88383305Y20900000D01*
X92720000Y20900000D01*
X92740000Y20880000D01*
X92760000Y20900000D01*
X92740000Y20920000D01*
X92720000Y20900000D01*
X88383305Y20900000D01*
X88360000Y20960000D01*
X88343885Y20980000D01*
X88400000Y20980000D01*
X88420000Y20960000D01*
X88440000Y20980000D01*
X88420000Y21000000D01*
X88400000Y20980000D01*
X88343885Y20980000D01*
X88338089Y20987193D01*
X88323424Y20980000D01*
X88119261Y20980000D01*
X88082297Y21089808D01*
X88072933Y21134636D01*
X93327076Y21134636D01*
X93360000Y21120000D01*
X93381176Y21122887D01*
X93386667Y21146667D01*
X93380804Y21151454D01*
X93333334Y21146667D01*
X93327076Y21134636D01*
X88072933Y21134636D01*
X88050925Y21240000D01*
X88049859Y21246603D01*
X88024145Y21362258D01*
X88022886Y21365836D01*
X88086592Y21365836D01*
X88090274Y21293131D01*
X88096929Y21266293D01*
X88112565Y21241619D01*
X88122171Y21260000D01*
X93360000Y21260000D01*
X93380000Y21240000D01*
X93400000Y21260000D01*
X93560000Y21260000D01*
X93580000Y21240000D01*
X93600000Y21260000D01*
X93580000Y21280000D01*
X93560000Y21260000D01*
X93400000Y21260000D01*
X93380000Y21280000D01*
X93360000Y21260000D01*
X88122171Y21260000D01*
X88138752Y21291726D01*
X88151620Y21355938D01*
X88134571Y21399332D01*
X88096465Y21389798D01*
X88086592Y21365836D01*
X88022886Y21365836D01*
X87993742Y21448669D01*
X87990896Y21454636D01*
X88527076Y21454636D01*
X88560000Y21440000D01*
X88581176Y21442887D01*
X88586667Y21466667D01*
X88580804Y21471454D01*
X88533334Y21466667D01*
X88527076Y21454636D01*
X87990896Y21454636D01*
X87985764Y21465395D01*
X87951753Y21551589D01*
X87913210Y21664642D01*
X87876264Y21784059D01*
X87847039Y21889343D01*
X87831662Y21959997D01*
X87836261Y21975526D01*
X87863485Y21925522D01*
X87908165Y21821510D01*
X87959513Y21687728D01*
X87961333Y21682759D01*
X88011658Y21562839D01*
X88056141Y21486240D01*
X88085343Y21469343D01*
X88092137Y21505019D01*
X88077196Y21598073D01*
X88070496Y21620000D01*
X88120000Y21620000D01*
X88140000Y21600000D01*
X88160000Y21620000D01*
X88140000Y21640000D01*
X88120000Y21620000D01*
X88070496Y21620000D01*
X88046049Y21700000D01*
X88440000Y21700000D01*
X88460000Y21680000D01*
X88480000Y21700000D01*
X88460000Y21720000D01*
X88440000Y21700000D01*
X88046049Y21700000D01*
X88039616Y21721052D01*
X88033141Y21740000D01*
X88120000Y21740000D01*
X88140000Y21720000D01*
X88160000Y21740000D01*
X88140000Y21760000D01*
X88120000Y21740000D01*
X88033141Y21740000D01*
X88007440Y21815208D01*
X88006069Y21820000D01*
X88320000Y21820000D01*
X88340000Y21800000D01*
X88360000Y21820000D01*
X88340000Y21840000D01*
X88320000Y21820000D01*
X88006069Y21820000D01*
X87973265Y21934629D01*
X87968815Y21960000D01*
X88000000Y21960000D01*
X88000459Y21950948D01*
X88017640Y21920000D01*
X88024056Y21921841D01*
X88060000Y21960000D01*
X88066251Y21975495D01*
X88042361Y22000000D01*
X88030751Y21998463D01*
X88000000Y21960000D01*
X87968815Y21960000D01*
X87960000Y22010249D01*
X87960476Y22030731D01*
X87972477Y22059130D01*
X88015733Y22051215D01*
X88110000Y22006489D01*
X88134456Y21994564D01*
X88178959Y21975495D01*
X88259303Y21941069D01*
X88363143Y21906636D01*
X88427359Y21873679D01*
X88478248Y21820000D01*
X88498967Y21798145D01*
X88528478Y21740000D01*
X88543134Y21711124D01*
X88542753Y21700000D01*
X88540738Y21641194D01*
X88539136Y21620964D01*
X88540279Y21620000D01*
X88582127Y21584719D01*
X88582203Y21584690D01*
X88638064Y21532543D01*
X88672247Y21466667D01*
X88685810Y21440528D01*
X88717883Y21379035D01*
X88741970Y21355938D01*
X88771503Y21327618D01*
X88819320Y21317559D01*
X88835886Y21351557D01*
X88976610Y21351557D01*
X88983026Y21321094D01*
X89000890Y21340000D01*
X93640000Y21340000D01*
X93660000Y21320000D01*
X93680000Y21340000D01*
X93660000Y21360000D01*
X93640000Y21340000D01*
X89000890Y21340000D01*
X89020404Y21360653D01*
X89033342Y21374156D01*
X89088945Y21374473D01*
X89108513Y21366234D01*
X89106171Y21380000D01*
X89360000Y21380000D01*
X89380000Y21360000D01*
X89400000Y21380000D01*
X89380000Y21400000D01*
X89360000Y21380000D01*
X89106171Y21380000D01*
X89103820Y21393820D01*
X89087655Y21415451D01*
X89075192Y21420000D01*
X93720000Y21420000D01*
X93740000Y21400000D01*
X93760000Y21420000D01*
X93740000Y21440000D01*
X93720000Y21420000D01*
X89075192Y21420000D01*
X89031882Y21435808D01*
X88985535Y21380000D01*
X88976610Y21351557D01*
X88835886Y21351557D01*
X88840000Y21360000D01*
X88838884Y21369523D01*
X88801256Y21400000D01*
X88785766Y21405957D01*
X88782888Y21453103D01*
X88785438Y21519219D01*
X88761316Y21616542D01*
X88749991Y21647909D01*
X88739782Y21705240D01*
X88769085Y21710306D01*
X88771940Y21709172D01*
X88816605Y21658230D01*
X88855556Y21565585D01*
X88859289Y21553229D01*
X88894712Y21475049D01*
X88929155Y21449719D01*
X88936017Y21452540D01*
X88963000Y21491000D01*
X88962644Y21500000D01*
X89120000Y21500000D01*
X89140000Y21480000D01*
X89160000Y21500000D01*
X89400000Y21500000D01*
X89420000Y21480000D01*
X89434636Y21494636D01*
X93647076Y21494636D01*
X93680000Y21480000D01*
X93800000Y21480000D01*
X93800459Y21470948D01*
X93817640Y21440000D01*
X93824056Y21441841D01*
X93860000Y21480000D01*
X93866251Y21495495D01*
X93842361Y21520000D01*
X93830751Y21518463D01*
X93821320Y21506667D01*
X93800000Y21480000D01*
X93680000Y21480000D01*
X93701176Y21482887D01*
X93706667Y21506667D01*
X93700804Y21511454D01*
X93653334Y21506667D01*
X93649866Y21500000D01*
X93647076Y21494636D01*
X89434636Y21494636D01*
X89440000Y21500000D01*
X89420000Y21520000D01*
X89400000Y21500000D01*
X89160000Y21500000D01*
X89140000Y21520000D01*
X89120000Y21500000D01*
X88962644Y21500000D01*
X88960939Y21543156D01*
X88960352Y21601869D01*
X89123602Y21601869D01*
X89161159Y21558438D01*
X89223861Y21531074D01*
X89316979Y21524020D01*
X89377989Y21556746D01*
X89378382Y21570009D01*
X89364275Y21580000D01*
X93600000Y21580000D01*
X93620000Y21560000D01*
X93640000Y21580000D01*
X93960000Y21580000D01*
X93980000Y21560000D01*
X94000000Y21580000D01*
X93980000Y21600000D01*
X93960000Y21580000D01*
X93640000Y21580000D01*
X93620000Y21600000D01*
X93600000Y21580000D01*
X89364275Y21580000D01*
X89335879Y21600111D01*
X89289560Y21614636D01*
X93687076Y21614636D01*
X93720000Y21600000D01*
X93741176Y21602887D01*
X93746667Y21626667D01*
X93740804Y21631454D01*
X93693334Y21626667D01*
X93687076Y21614636D01*
X89289560Y21614636D01*
X89259080Y21624194D01*
X89179410Y21634090D01*
X89128299Y21621632D01*
X89124345Y21604994D01*
X89123602Y21601869D01*
X88960352Y21601869D01*
X88960000Y21637143D01*
X88951689Y21681778D01*
X89003442Y21681778D01*
X89035037Y21629334D01*
X89040305Y21624166D01*
X89069607Y21604994D01*
X89057429Y21651726D01*
X89037481Y21689055D01*
X89010351Y21700000D01*
X89080000Y21700000D01*
X89100000Y21680000D01*
X89120000Y21700000D01*
X89100000Y21720000D01*
X89080000Y21700000D01*
X89010351Y21700000D01*
X89007726Y21701059D01*
X89003442Y21681778D01*
X88951689Y21681778D01*
X88942174Y21732882D01*
X88892495Y21820000D01*
X94360000Y21820000D01*
X94380000Y21800000D01*
X94400000Y21820000D01*
X94380000Y21840000D01*
X94360000Y21820000D01*
X88892495Y21820000D01*
X88890000Y21824376D01*
X88853455Y21862383D01*
X88848365Y21883618D01*
X88910524Y21870841D01*
X88983338Y21868583D01*
X89015451Y21900000D01*
X94400000Y21900000D01*
X94420000Y21880000D01*
X94440000Y21900000D01*
X94560000Y21900000D01*
X94580000Y21880000D01*
X94600000Y21900000D01*
X94595833Y21904167D01*
X95010834Y21904167D01*
X95011023Y21900000D01*
X95011453Y21890513D01*
X95063334Y21883158D01*
X95102652Y21889564D01*
X95098325Y21894636D01*
X95207076Y21894636D01*
X95218486Y21889564D01*
X95240000Y21880000D01*
X95261176Y21882887D01*
X95266667Y21906667D01*
X95260804Y21911454D01*
X95213334Y21906667D01*
X95207076Y21894636D01*
X95098325Y21894636D01*
X95087500Y21907325D01*
X95064369Y21913716D01*
X95010834Y21904167D01*
X94595833Y21904167D01*
X94580000Y21920000D01*
X94560000Y21900000D01*
X94440000Y21900000D01*
X94420000Y21920000D01*
X94400000Y21900000D01*
X89015451Y21900000D01*
X89044515Y21928435D01*
X89045280Y21929868D01*
X89049450Y21940000D01*
X94240000Y21940000D01*
X94260000Y21920000D01*
X94280000Y21940000D01*
X94260000Y21960000D01*
X94240000Y21940000D01*
X89049450Y21940000D01*
X89065913Y21980000D01*
X89160000Y21980000D01*
X89180000Y21960000D01*
X89200000Y21980000D01*
X90080000Y21980000D01*
X90100000Y21960000D01*
X90120000Y21980000D01*
X90100000Y22000000D01*
X90080000Y21980000D01*
X89200000Y21980000D01*
X89180000Y22000000D01*
X89160000Y21980000D01*
X89065913Y21980000D01*
X89068024Y21985130D01*
X89043991Y21982467D01*
X89025113Y21974747D01*
X89000000Y21995827D01*
X89007449Y22014169D01*
X89068329Y22046699D01*
X89166620Y22064323D01*
X89273268Y22063433D01*
X89359214Y22040421D01*
X89421631Y22015591D01*
X89470093Y22016760D01*
X89471330Y22020000D01*
X89720000Y22020000D01*
X89740000Y22000000D01*
X89760000Y22020000D01*
X89740000Y22040000D01*
X89720000Y22020000D01*
X89471330Y22020000D01*
X89474323Y22027836D01*
X89436667Y22041273D01*
X89434096Y22041349D01*
X89408271Y22054659D01*
X89449135Y22094636D01*
X89607076Y22094636D01*
X89640000Y22080000D01*
X89661176Y22082887D01*
X89666667Y22106667D01*
X89660804Y22111454D01*
X89613334Y22106667D01*
X89607076Y22094636D01*
X89449135Y22094636D01*
X89450808Y22096273D01*
X89482070Y22121013D01*
X89493368Y22145805D01*
X89430808Y22151317D01*
X89381064Y22156629D01*
X89271319Y22186231D01*
X89160351Y22231685D01*
X89120691Y22254636D01*
X89207076Y22254636D01*
X89240000Y22240000D01*
X89261176Y22242887D01*
X89266667Y22266667D01*
X89260804Y22271454D01*
X89213334Y22266667D01*
X89207076Y22254636D01*
X89120691Y22254636D01*
X89074474Y22281382D01*
X89040000Y22323716D01*
X89040906Y22329148D01*
X89083425Y22346540D01*
X89172856Y22337655D01*
X89286085Y22306717D01*
X89379632Y22266667D01*
X89400000Y22257947D01*
X89542145Y22199081D01*
X89741385Y22140692D01*
X89900078Y22106667D01*
X89961662Y22093463D01*
X90172763Y22064942D01*
X90274184Y22053338D01*
X90389139Y22031686D01*
X90421099Y22020000D01*
X90452763Y22008422D01*
X90496989Y21991905D01*
X90570483Y21980000D01*
X90603443Y21974661D01*
X90740000Y21965602D01*
X90865127Y21963884D01*
X90929990Y21969564D01*
X90935060Y21980000D01*
X96160000Y21980000D01*
X96180000Y21960000D01*
X96200000Y21980000D01*
X96180000Y22000000D01*
X96160000Y21980000D01*
X90935060Y21980000D01*
X90938394Y21986861D01*
X90902355Y22019785D01*
X90900983Y22020804D01*
X96248547Y22020804D01*
X96252662Y21980000D01*
X96253334Y21973334D01*
X96265365Y21967076D01*
X96280000Y22000000D01*
X96277114Y22021176D01*
X96253334Y22026667D01*
X96248547Y22020804D01*
X90900983Y22020804D01*
X90898431Y22022700D01*
X90802161Y22063212D01*
X90682355Y22079823D01*
X90627795Y22082436D01*
X90554017Y22093105D01*
X90455585Y22114572D01*
X90358628Y22140000D01*
X90680000Y22140000D01*
X90700000Y22120000D01*
X90714636Y22134636D01*
X90767076Y22134636D01*
X90800000Y22120000D01*
X90821176Y22122887D01*
X90826667Y22146667D01*
X90820804Y22151454D01*
X90773334Y22146667D01*
X90769866Y22140000D01*
X90767076Y22134636D01*
X90714636Y22134636D01*
X90720000Y22140000D01*
X90700000Y22160000D01*
X90680000Y22140000D01*
X90358628Y22140000D01*
X90322191Y22149556D01*
X90201460Y22184167D01*
X90450834Y22184167D01*
X90451453Y22170513D01*
X90503334Y22163158D01*
X90542652Y22169564D01*
X90536113Y22177229D01*
X90923896Y22177229D01*
X90925260Y22169564D01*
X90929174Y22147568D01*
X90929908Y22146667D01*
X90976852Y22089048D01*
X91017306Y22051230D01*
X91030142Y22048158D01*
X90995985Y22108181D01*
X90971608Y22140804D01*
X96208547Y22140804D01*
X96213334Y22093334D01*
X96225365Y22087076D01*
X96240000Y22120000D01*
X96237114Y22141176D01*
X96213334Y22146667D01*
X96208547Y22140804D01*
X90971608Y22140804D01*
X90955544Y22162303D01*
X90923896Y22177229D01*
X90536113Y22177229D01*
X90527500Y22187325D01*
X90504369Y22193716D01*
X90450834Y22184167D01*
X90201460Y22184167D01*
X90143527Y22200775D01*
X90097257Y22214636D01*
X90727076Y22214636D01*
X90760000Y22200000D01*
X90781176Y22202887D01*
X90786667Y22226667D01*
X90780804Y22231454D01*
X90733334Y22226667D01*
X90727076Y22214636D01*
X90097257Y22214636D01*
X89945825Y22260000D01*
X90240000Y22260000D01*
X90260000Y22240000D01*
X90280000Y22260000D01*
X90360000Y22260000D01*
X90380000Y22240000D01*
X90394636Y22254636D01*
X90487076Y22254636D01*
X90520000Y22240000D01*
X90541176Y22242887D01*
X90546667Y22266667D01*
X90540804Y22271454D01*
X90493334Y22266667D01*
X90489866Y22260000D01*
X90487076Y22254636D01*
X90394636Y22254636D01*
X90400000Y22260000D01*
X90380000Y22280000D01*
X90360000Y22260000D01*
X90280000Y22260000D01*
X90260000Y22280000D01*
X90240000Y22260000D01*
X89945825Y22260000D01*
X89909286Y22270946D01*
X89814341Y22300000D01*
X96280000Y22300000D01*
X96300000Y22280000D01*
X96320000Y22300000D01*
X96300000Y22320000D01*
X96280000Y22300000D01*
X89814341Y22300000D01*
X89609161Y22362787D01*
X89549769Y22380000D01*
X89720000Y22380000D01*
X89740000Y22360000D01*
X89760000Y22380000D01*
X90040000Y22380000D01*
X90060000Y22360000D01*
X90080000Y22380000D01*
X90060000Y22400000D01*
X90040000Y22380000D01*
X89760000Y22380000D01*
X89740000Y22400000D01*
X89720000Y22380000D01*
X89549769Y22380000D01*
X89483103Y22399321D01*
X89365345Y22428724D01*
X89296800Y22440000D01*
X89268894Y22445552D01*
X89266441Y22454636D01*
X89567076Y22454636D01*
X89600000Y22440000D01*
X89621176Y22442887D01*
X89626667Y22466667D01*
X89620804Y22471454D01*
X89573334Y22466667D01*
X89567076Y22454636D01*
X89266441Y22454636D01*
X89259717Y22479542D01*
X89261738Y22494636D01*
X89687076Y22494636D01*
X89720000Y22480000D01*
X89741176Y22482887D01*
X89746667Y22506667D01*
X89740804Y22511454D01*
X89693334Y22506667D01*
X89687076Y22494636D01*
X89261738Y22494636D01*
X89262295Y22498797D01*
X89216294Y22493043D01*
X89175857Y22487148D01*
X89104216Y22523501D01*
X89092555Y22534636D01*
X89367076Y22534636D01*
X89400000Y22520000D01*
X89421176Y22522887D01*
X89426667Y22546667D01*
X89420804Y22551454D01*
X89373334Y22546667D01*
X89367076Y22534636D01*
X89092555Y22534636D01*
X89075190Y22551218D01*
X89003334Y22580000D01*
X89000457Y22580804D01*
X96208547Y22580804D01*
X96211989Y22546667D01*
X96213334Y22533334D01*
X96225365Y22527076D01*
X96240000Y22560000D01*
X96237274Y22580000D01*
X96280000Y22580000D01*
X96300000Y22560000D01*
X96320000Y22580000D01*
X96300000Y22600000D01*
X96280000Y22580000D01*
X96237274Y22580000D01*
X96237114Y22581176D01*
X96213334Y22586667D01*
X96208547Y22580804D01*
X89000457Y22580804D01*
X88973053Y22588463D01*
X88947863Y22620000D01*
X88960000Y22620000D01*
X88980000Y22600000D01*
X89000000Y22620000D01*
X88980000Y22640000D01*
X88960000Y22620000D01*
X88947863Y22620000D01*
X88941722Y22627688D01*
X88911891Y22710004D01*
X88885695Y22820804D01*
X89008547Y22820804D01*
X89013334Y22773334D01*
X89025365Y22767076D01*
X89040000Y22800000D01*
X89037114Y22821176D01*
X89013334Y22826667D01*
X89008547Y22820804D01*
X88885695Y22820804D01*
X88879392Y22847462D01*
X88877890Y22855275D01*
X88931392Y22855275D01*
X88945413Y22855480D01*
X88975059Y22901547D01*
X88986886Y22940000D01*
X89080000Y22940000D01*
X89100000Y22920000D01*
X89120000Y22940000D01*
X89100000Y22960000D01*
X89080000Y22940000D01*
X88986886Y22940000D01*
X88997037Y22973004D01*
X88990486Y22993992D01*
X88955118Y22947000D01*
X88933607Y22900011D01*
X88931392Y22855275D01*
X88877890Y22855275D01*
X88840058Y23052110D01*
X88838744Y23060000D01*
X89000000Y23060000D01*
X89020000Y23040000D01*
X89040000Y23060000D01*
X89080000Y23060000D01*
X89100000Y23040000D01*
X89120000Y23060000D01*
X89100000Y23080000D01*
X89080000Y23060000D01*
X89040000Y23060000D01*
X89020000Y23080000D01*
X89000000Y23060000D01*
X88838744Y23060000D01*
X88828754Y23120000D01*
X88880000Y23120000D01*
X88881628Y23109037D01*
X88922361Y23080000D01*
X88936829Y23083141D01*
X88940000Y23120000D01*
X88931791Y23131971D01*
X88897640Y23160000D01*
X88893648Y23158961D01*
X88880000Y23120000D01*
X88828754Y23120000D01*
X88815711Y23198338D01*
X88814220Y23220000D01*
X88840000Y23220000D01*
X88860000Y23200000D01*
X88880000Y23220000D01*
X88960000Y23220000D01*
X88980000Y23200000D01*
X89000000Y23220000D01*
X88980000Y23240000D01*
X88960000Y23220000D01*
X88880000Y23220000D01*
X88860000Y23240000D01*
X88840000Y23220000D01*
X88814220Y23220000D01*
X88811468Y23260000D01*
X89080000Y23260000D01*
X89100000Y23240000D01*
X89114636Y23254636D01*
X93767076Y23254636D01*
X93800000Y23240000D01*
X93821176Y23242887D01*
X93823889Y23254636D01*
X93967076Y23254636D01*
X94000000Y23240000D01*
X94021176Y23242887D01*
X94025128Y23260000D01*
X94560000Y23260000D01*
X94580000Y23240000D01*
X94600000Y23260000D01*
X94960000Y23260000D01*
X94980000Y23240000D01*
X95000000Y23260000D01*
X94980000Y23280000D01*
X94960000Y23260000D01*
X94600000Y23260000D01*
X94580000Y23280000D01*
X94560000Y23260000D01*
X94025128Y23260000D01*
X94026667Y23266667D01*
X94020804Y23271454D01*
X93973334Y23266667D01*
X93967076Y23254636D01*
X93823889Y23254636D01*
X93826667Y23266667D01*
X93820804Y23271454D01*
X93773334Y23266667D01*
X93769866Y23260000D01*
X93767076Y23254636D01*
X89114636Y23254636D01*
X89120000Y23260000D01*
X89100000Y23280000D01*
X89080000Y23260000D01*
X88811468Y23260000D01*
X88809603Y23287101D01*
X88822839Y23338367D01*
X88825242Y23340804D01*
X88968547Y23340804D01*
X88973334Y23293334D01*
X88985365Y23287076D01*
X88992962Y23304167D01*
X93610834Y23304167D01*
X93611453Y23290513D01*
X93663334Y23283158D01*
X93702652Y23289564D01*
X93702287Y23289992D01*
X93884357Y23289992D01*
X93893291Y23289564D01*
X93904459Y23289029D01*
X93980000Y23320000D01*
X93998269Y23328057D01*
X94031399Y23349857D01*
X93992361Y23357189D01*
X93956863Y23353602D01*
X93900000Y23320000D01*
X93884357Y23289992D01*
X93702287Y23289992D01*
X93687500Y23307325D01*
X93664369Y23313716D01*
X93610834Y23304167D01*
X88992962Y23304167D01*
X89000000Y23320000D01*
X88997114Y23341176D01*
X88973334Y23346667D01*
X88968547Y23340804D01*
X88825242Y23340804D01*
X88856461Y23372466D01*
X88879726Y23395808D01*
X93760000Y23395808D01*
X93764901Y23372504D01*
X93792858Y23363527D01*
X93862087Y23372997D01*
X93939236Y23389997D01*
X94168585Y23389997D01*
X94200000Y23360000D01*
X94219848Y23349857D01*
X94234611Y23342313D01*
X94320000Y23323424D01*
X94345083Y23332720D01*
X94300000Y23360000D01*
X94272158Y23371362D01*
X94197666Y23393784D01*
X94168585Y23389997D01*
X93939236Y23389997D01*
X93990767Y23401352D01*
X94098985Y23417763D01*
X94252254Y23413596D01*
X94450767Y23380407D01*
X94559058Y23358604D01*
X94715929Y23332720D01*
X94731759Y23330108D01*
X94845567Y23323894D01*
X94912556Y23339905D01*
X94944800Y23378085D01*
X94950870Y23446513D01*
X94941355Y23460804D01*
X95088547Y23460804D01*
X95089988Y23446513D01*
X95093334Y23413334D01*
X95105365Y23407076D01*
X95120000Y23440000D01*
X95117114Y23461176D01*
X95093334Y23466667D01*
X95088547Y23460804D01*
X94941355Y23460804D01*
X94899942Y23523004D01*
X94869763Y23540000D01*
X95160000Y23540000D01*
X95180000Y23520000D01*
X95200000Y23540000D01*
X95180000Y23560000D01*
X95160000Y23540000D01*
X94869763Y23540000D01*
X94795126Y23582034D01*
X94655507Y23620000D01*
X94840000Y23620000D01*
X94860000Y23600000D01*
X94880000Y23620000D01*
X94860000Y23640000D01*
X94840000Y23620000D01*
X94655507Y23620000D01*
X94650609Y23621332D01*
X94480578Y23638630D01*
X94299218Y23631655D01*
X94237147Y23620000D01*
X94120718Y23598138D01*
X93959264Y23535808D01*
X93907418Y23506667D01*
X93876741Y23489424D01*
X93792603Y23432423D01*
X93787478Y23426667D01*
X93760000Y23395808D01*
X88879726Y23395808D01*
X88883263Y23399357D01*
X88886831Y23414636D01*
X93607076Y23414636D01*
X93640000Y23400000D01*
X93661176Y23402887D01*
X93666667Y23426667D01*
X93660804Y23431454D01*
X93613334Y23426667D01*
X93607076Y23414636D01*
X88886831Y23414636D01*
X88905510Y23494636D01*
X93647076Y23494636D01*
X93680000Y23480000D01*
X93701176Y23482887D01*
X93706667Y23506667D01*
X93700804Y23511454D01*
X93653334Y23506667D01*
X93647076Y23494636D01*
X88905510Y23494636D01*
X88905740Y23495622D01*
X88873442Y23620000D01*
X93920000Y23620000D01*
X93940000Y23600000D01*
X93960000Y23620000D01*
X93940000Y23640000D01*
X93920000Y23620000D01*
X88873442Y23620000D01*
X88868249Y23640000D01*
X88861744Y23660000D01*
X88960000Y23660000D01*
X88980000Y23640000D01*
X89000000Y23660000D01*
X88980000Y23680000D01*
X88960000Y23660000D01*
X88861744Y23660000D01*
X88855966Y23677766D01*
X88842082Y23744369D01*
X89046285Y23744369D01*
X89055834Y23690834D01*
X89069488Y23691453D01*
X89070700Y23700000D01*
X94480000Y23700000D01*
X94500000Y23680000D01*
X94520000Y23700000D01*
X94515833Y23704167D01*
X94690834Y23704167D01*
X94691023Y23700000D01*
X94691453Y23690513D01*
X94743334Y23683158D01*
X94782652Y23689564D01*
X94767500Y23707325D01*
X94744369Y23713716D01*
X94690834Y23704167D01*
X94515833Y23704167D01*
X94500000Y23720000D01*
X94480000Y23700000D01*
X89070700Y23700000D01*
X89075610Y23734636D01*
X94087076Y23734636D01*
X94120000Y23720000D01*
X94141176Y23722887D01*
X94145128Y23740000D01*
X94560000Y23740000D01*
X94580000Y23720000D01*
X94600000Y23740000D01*
X94580000Y23760000D01*
X94560000Y23740000D01*
X94145128Y23740000D01*
X94146667Y23746667D01*
X94140804Y23751454D01*
X94093334Y23746667D01*
X94091600Y23743334D01*
X94087076Y23734636D01*
X89075610Y23734636D01*
X89076843Y23743334D01*
X89070437Y23782652D01*
X89052676Y23767500D01*
X89046285Y23744369D01*
X88842082Y23744369D01*
X88827316Y23815203D01*
X88821083Y23860000D01*
X88880000Y23860000D01*
X88900000Y23840000D01*
X88914636Y23854636D01*
X93967076Y23854636D01*
X94000000Y23840000D01*
X94021176Y23842887D01*
X94026667Y23866667D01*
X94020804Y23871454D01*
X93973334Y23866667D01*
X93969866Y23860000D01*
X93967076Y23854636D01*
X88914636Y23854636D01*
X88920000Y23860000D01*
X88902604Y23877396D01*
X94209808Y23877396D01*
X94212732Y23866667D01*
X94220000Y23840000D01*
X94228218Y23828160D01*
X94264722Y23800000D01*
X94270193Y23802605D01*
X94265452Y23820000D01*
X94520000Y23820000D01*
X94540000Y23800000D01*
X94554636Y23814636D01*
X94807076Y23814636D01*
X94840000Y23800000D01*
X94861176Y23802887D01*
X94866667Y23826667D01*
X94860804Y23831454D01*
X94813334Y23826667D01*
X94809866Y23820000D01*
X94807076Y23814636D01*
X94554636Y23814636D01*
X94560000Y23820000D01*
X94540000Y23840000D01*
X94520000Y23820000D01*
X94265452Y23820000D01*
X94260000Y23840000D01*
X94251783Y23851841D01*
X94248160Y23854636D01*
X94367076Y23854636D01*
X94400000Y23840000D01*
X94421176Y23842887D01*
X94426667Y23866667D01*
X94420804Y23871454D01*
X94373334Y23866667D01*
X94367076Y23854636D01*
X94248160Y23854636D01*
X94215279Y23880000D01*
X94209808Y23877396D01*
X88902604Y23877396D01*
X88900000Y23880000D01*
X88880000Y23860000D01*
X88821083Y23860000D01*
X88801182Y24003018D01*
X88779778Y24220367D01*
X88765313Y24446406D01*
X88760000Y24660292D01*
X88758776Y24753488D01*
X88753392Y24860000D01*
X96160000Y24860000D01*
X96180000Y24840000D01*
X96200000Y24860000D01*
X96360000Y24860000D01*
X96380000Y24840000D01*
X96400000Y24860000D01*
X96380000Y24880000D01*
X96360000Y24860000D01*
X96200000Y24860000D01*
X96180000Y24880000D01*
X96160000Y24860000D01*
X88753392Y24860000D01*
X88750346Y24920251D01*
X88743593Y24980804D01*
X96328547Y24980804D01*
X96333334Y24933334D01*
X96345365Y24927076D01*
X96360000Y24960000D01*
X96357114Y24981176D01*
X96333334Y24986667D01*
X96328547Y24980804D01*
X88743593Y24980804D01*
X88735667Y25051877D01*
X88716818Y25125948D01*
X88710195Y25140804D01*
X96288547Y25140804D01*
X96293334Y25093334D01*
X96305365Y25087076D01*
X96320000Y25120000D01*
X96317114Y25141176D01*
X96293334Y25146667D01*
X96288547Y25140804D01*
X88710195Y25140804D01*
X88707937Y25145869D01*
X88681059Y25251433D01*
X88666937Y25379692D01*
X88663729Y25430481D01*
X88658624Y25460804D01*
X88768547Y25460804D01*
X88773334Y25413334D01*
X88785365Y25407076D01*
X88800000Y25440000D01*
X88797114Y25461176D01*
X88773334Y25466667D01*
X88768547Y25460804D01*
X88658624Y25460804D01*
X88651596Y25502553D01*
X88635698Y25513039D01*
X88625133Y25512048D01*
X88606007Y25564047D01*
X88589181Y25666665D01*
X88585984Y25704369D01*
X95886285Y25704369D01*
X95895834Y25650834D01*
X95909488Y25651453D01*
X95916843Y25703334D01*
X95910437Y25742652D01*
X95892676Y25727500D01*
X95886285Y25704369D01*
X88585984Y25704369D01*
X88582298Y25747837D01*
X88584928Y25784369D01*
X88646285Y25784369D01*
X88655834Y25730834D01*
X88669488Y25731453D01*
X88676843Y25783334D01*
X88675448Y25791894D01*
X96008226Y25791894D01*
X96008778Y25783334D01*
X96013509Y25710000D01*
X96027155Y25703334D01*
X96027399Y25703215D01*
X96033685Y25760000D01*
X96028109Y25815025D01*
X96013509Y25810000D01*
X96008226Y25791894D01*
X88675448Y25791894D01*
X88670869Y25820000D01*
X88720000Y25820000D01*
X88740000Y25800000D01*
X88760000Y25820000D01*
X88740000Y25840000D01*
X88720000Y25820000D01*
X88670869Y25820000D01*
X88670437Y25822652D01*
X88652676Y25807500D01*
X88646285Y25784369D01*
X88584928Y25784369D01*
X88589290Y25844943D01*
X88623603Y25891988D01*
X88662243Y25932345D01*
X88720553Y25932345D01*
X88760011Y25892159D01*
X88852840Y25848036D01*
X88941909Y25820000D01*
X88967217Y25812034D01*
X89052762Y25803799D01*
X89080000Y25836087D01*
X89079921Y25837370D01*
X89051822Y25864369D01*
X95886285Y25864369D01*
X95891330Y25836087D01*
X95895834Y25810834D01*
X95909488Y25811453D01*
X95916843Y25863334D01*
X95910437Y25902652D01*
X95892676Y25887500D01*
X95886285Y25864369D01*
X89051822Y25864369D01*
X89043126Y25872725D01*
X88959801Y25913080D01*
X88860064Y25946238D01*
X88774032Y25960000D01*
X88742606Y25957030D01*
X88720553Y25932345D01*
X88662243Y25932345D01*
X88673823Y25944440D01*
X88666652Y25984167D01*
X88970834Y25984167D01*
X88971453Y25970513D01*
X89023334Y25963158D01*
X89062652Y25969564D01*
X89047500Y25987325D01*
X89024369Y25993716D01*
X88970834Y25984167D01*
X88666652Y25984167D01*
X88661663Y26011810D01*
X88627574Y26037237D01*
X88781709Y26037237D01*
X88801362Y26019793D01*
X88872361Y26004641D01*
X88887058Y26005718D01*
X88916773Y26012433D01*
X88869511Y26027668D01*
X88834450Y26045591D01*
X88825691Y26089208D01*
X88833812Y26108779D01*
X88822671Y26106667D01*
X88805528Y26103417D01*
X88788015Y26087816D01*
X88781709Y26037237D01*
X88627574Y26037237D01*
X88580000Y26072722D01*
X88549422Y26094636D01*
X88647076Y26094636D01*
X88680000Y26080000D01*
X88701176Y26082887D01*
X88706667Y26106667D01*
X88700804Y26111454D01*
X88653334Y26106667D01*
X88647076Y26094636D01*
X88549422Y26094636D01*
X88516010Y26118581D01*
X88506660Y26140000D01*
X95960000Y26140000D01*
X95980000Y26120000D01*
X96000000Y26140000D01*
X95980000Y26160000D01*
X95960000Y26140000D01*
X88506660Y26140000D01*
X88480000Y26201075D01*
X88478041Y26220804D01*
X95888547Y26220804D01*
X95893334Y26173334D01*
X95905365Y26167076D01*
X95920000Y26200000D01*
X95917114Y26221176D01*
X95893334Y26226667D01*
X95888547Y26220804D01*
X88478041Y26220804D01*
X88477376Y26227500D01*
X88449156Y26330104D01*
X88399954Y26449543D01*
X88395359Y26460000D01*
X95000000Y26460000D01*
X95020000Y26440000D01*
X95040000Y26460000D01*
X95020000Y26480000D01*
X95000000Y26460000D01*
X88395359Y26460000D01*
X88377228Y26501266D01*
X88376372Y26504167D01*
X95210834Y26504167D01*
X95211453Y26490513D01*
X95263334Y26483158D01*
X95302652Y26489564D01*
X95287500Y26507325D01*
X95264369Y26513716D01*
X95210834Y26504167D01*
X88376372Y26504167D01*
X88367387Y26534636D01*
X95367076Y26534636D01*
X95400000Y26520000D01*
X95421176Y26522887D01*
X95426667Y26546667D01*
X95420804Y26551454D01*
X95373334Y26546667D01*
X95367076Y26534636D01*
X88367387Y26534636D01*
X88354009Y26580000D01*
X95280000Y26580000D01*
X95300000Y26560000D01*
X95320000Y26580000D01*
X95300000Y26600000D01*
X95280000Y26580000D01*
X88354009Y26580000D01*
X88350482Y26591960D01*
X88356716Y26637970D01*
X88366806Y26651671D01*
X88383336Y26727319D01*
X88384770Y26774636D01*
X88607076Y26774636D01*
X88640000Y26760000D01*
X88661176Y26762887D01*
X88665128Y26780000D01*
X94240000Y26780000D01*
X94260000Y26760000D01*
X94280000Y26780000D01*
X94260000Y26800000D01*
X94240000Y26780000D01*
X88665128Y26780000D01*
X88666667Y26786667D01*
X88660804Y26791454D01*
X88613334Y26786667D01*
X88607076Y26774636D01*
X88384770Y26774636D01*
X88386146Y26820000D01*
X94560000Y26820000D01*
X94580000Y26800000D01*
X94600000Y26820000D01*
X94760000Y26820000D01*
X94780000Y26800000D01*
X94800000Y26820000D01*
X94780000Y26840000D01*
X94760000Y26820000D01*
X94600000Y26820000D01*
X94580000Y26840000D01*
X94560000Y26820000D01*
X88386146Y26820000D01*
X88386763Y26840360D01*
X88386274Y26854636D01*
X94647076Y26854636D01*
X94680000Y26840000D01*
X94701176Y26842887D01*
X94706667Y26866667D01*
X94700804Y26871454D01*
X94653334Y26866667D01*
X94647076Y26854636D01*
X88386274Y26854636D01*
X88386091Y26859990D01*
X88388149Y26940000D01*
X88440000Y26940000D01*
X88460000Y26920000D01*
X88520000Y26920000D01*
X88521163Y26910439D01*
X88560000Y26880000D01*
X88569562Y26881163D01*
X88600000Y26920000D01*
X88598838Y26929562D01*
X88592364Y26934636D01*
X94447076Y26934636D01*
X94480000Y26920000D01*
X94501176Y26922887D01*
X94506667Y26946667D01*
X94500804Y26951454D01*
X94453334Y26946667D01*
X94447076Y26934636D01*
X88592364Y26934636D01*
X88560000Y26960000D01*
X88550439Y26958838D01*
X88535675Y26940000D01*
X88520000Y26920000D01*
X88460000Y26920000D01*
X88480000Y26940000D01*
X88460000Y26960000D01*
X88440000Y26940000D01*
X88388149Y26940000D01*
X88388731Y26962642D01*
X88410575Y27009347D01*
X88460000Y27020735D01*
X88460240Y27020738D01*
X88521362Y27043278D01*
X88533477Y27110471D01*
X88656487Y27110471D01*
X88663504Y27081307D01*
X88680744Y27100000D01*
X90080000Y27100000D01*
X90100000Y27080000D01*
X90120000Y27100000D01*
X90240000Y27100000D01*
X90260000Y27080000D01*
X90280000Y27100000D01*
X94280000Y27100000D01*
X94300000Y27080000D01*
X94320000Y27100000D01*
X94300000Y27120000D01*
X94280000Y27100000D01*
X90280000Y27100000D01*
X90260000Y27120000D01*
X90240000Y27100000D01*
X90120000Y27100000D01*
X90100000Y27120000D01*
X90080000Y27100000D01*
X88680744Y27100000D01*
X88701645Y27122662D01*
X88709655Y27138788D01*
X88709015Y27180000D01*
X88760000Y27180000D01*
X88780000Y27160000D01*
X88800000Y27180000D01*
X90080000Y27180000D01*
X90100000Y27160000D01*
X90120000Y27180000D01*
X90100000Y27200000D01*
X90080000Y27180000D01*
X88800000Y27180000D01*
X88780000Y27200000D01*
X88760000Y27180000D01*
X88709015Y27180000D01*
X88708947Y27184387D01*
X88695646Y27185287D01*
X88666197Y27141726D01*
X88656487Y27110471D01*
X88533477Y27110471D01*
X88535328Y27120735D01*
X88542078Y27190250D01*
X88564501Y27231695D01*
X90167984Y27231695D01*
X90200000Y27200000D01*
X90234265Y27181142D01*
X90238034Y27180000D01*
X90300000Y27161226D01*
X90312017Y27168306D01*
X90280000Y27200000D01*
X90245736Y27218859D01*
X90180000Y27238775D01*
X90167984Y27231695D01*
X88564501Y27231695D01*
X88572756Y27246952D01*
X88591420Y27272643D01*
X88562531Y27336952D01*
X88553741Y27347746D01*
X88537070Y27380000D01*
X88680000Y27380000D01*
X88700000Y27360000D01*
X88720000Y27380000D01*
X89760000Y27380000D01*
X89780000Y27360000D01*
X89800000Y27380000D01*
X89780000Y27400000D01*
X89760000Y27380000D01*
X88720000Y27380000D01*
X88700000Y27400000D01*
X88680000Y27380000D01*
X88537070Y27380000D01*
X88531830Y27390137D01*
X88571390Y27400001D01*
X88577129Y27400232D01*
X88603980Y27417640D01*
X89120000Y27417640D01*
X89120390Y27412048D01*
X89143544Y27403239D01*
X89157051Y27417640D01*
X89240000Y27417640D01*
X89240390Y27412048D01*
X89263544Y27403239D01*
X89277051Y27417640D01*
X89360000Y27417640D01*
X89360390Y27412048D01*
X89383544Y27403239D01*
X89399264Y27420000D01*
X89520000Y27420000D01*
X89540000Y27400000D01*
X89560000Y27420000D01*
X89540000Y27440000D01*
X89520000Y27420000D01*
X89399264Y27420000D01*
X89423820Y27446181D01*
X89433553Y27468535D01*
X89406181Y27463820D01*
X89388412Y27451472D01*
X89360000Y27417640D01*
X89277051Y27417640D01*
X89303820Y27446181D01*
X89313553Y27468535D01*
X89286181Y27463820D01*
X89268412Y27451472D01*
X89240000Y27417640D01*
X89157051Y27417640D01*
X89183820Y27446181D01*
X89193553Y27468535D01*
X89166181Y27463820D01*
X89148412Y27451472D01*
X89120000Y27417640D01*
X88603980Y27417640D01*
X88610125Y27421624D01*
X88624390Y27489402D01*
X88624178Y27540000D01*
X88680000Y27540000D01*
X88700000Y27520000D01*
X88720000Y27540000D01*
X88700000Y27560000D01*
X88680000Y27540000D01*
X88624178Y27540000D01*
X88624033Y27574636D01*
X89127076Y27574636D01*
X89160000Y27560000D01*
X89181176Y27562887D01*
X89186667Y27586667D01*
X89180804Y27591454D01*
X89133334Y27586667D01*
X89127076Y27574636D01*
X88624033Y27574636D01*
X88623842Y27620001D01*
X88621611Y27710620D01*
X88623468Y27803858D01*
X88630412Y27840001D01*
X88639460Y27838425D01*
X88686547Y27801929D01*
X88725082Y27744370D01*
X88728937Y27702270D01*
X88726874Y27699877D01*
X88747202Y27696760D01*
X88819280Y27719727D01*
X88901352Y27741204D01*
X89069293Y27728410D01*
X89220000Y27642351D01*
X89247163Y27624100D01*
X89331351Y27586667D01*
X89350407Y27578194D01*
X89462804Y27540000D01*
X89498795Y27527770D01*
X89670000Y27480840D01*
X89717773Y27468535D01*
X89764753Y27456434D01*
X89885449Y27420000D01*
X89906329Y27413697D01*
X89992986Y27380000D01*
X90003748Y27375815D01*
X90040000Y27348857D01*
X90041551Y27336067D01*
X90065907Y27332574D01*
X90067884Y27334230D01*
X90120084Y27331674D01*
X90203170Y27295306D01*
X90290909Y27241148D01*
X90357066Y27185221D01*
X90364511Y27168306D01*
X90375408Y27143549D01*
X90375521Y27138788D01*
X90375675Y27132323D01*
X90377871Y27134636D01*
X91047076Y27134636D01*
X91080000Y27120000D01*
X91101176Y27122887D01*
X91106667Y27146667D01*
X91100804Y27151454D01*
X91053334Y27146667D01*
X91047076Y27134636D01*
X90377871Y27134636D01*
X90411444Y27170000D01*
X90432852Y27184167D01*
X90810834Y27184167D01*
X90811453Y27170513D01*
X90863334Y27163158D01*
X90902652Y27169564D01*
X90887500Y27187325D01*
X90864369Y27193716D01*
X90810834Y27184167D01*
X90432852Y27184167D01*
X90484561Y27218386D01*
X90494860Y27220000D01*
X91000000Y27220000D01*
X91020000Y27200000D01*
X91034636Y27214636D01*
X91127076Y27214636D01*
X91160000Y27200000D01*
X91181176Y27202887D01*
X91185128Y27220000D01*
X94240000Y27220000D01*
X94260000Y27200000D01*
X94280000Y27220000D01*
X94260000Y27240000D01*
X94240000Y27220000D01*
X91185128Y27220000D01*
X91186667Y27226667D01*
X91180804Y27231454D01*
X91133334Y27226667D01*
X91129866Y27220000D01*
X91127076Y27214636D01*
X91034636Y27214636D01*
X91040000Y27220000D01*
X91020000Y27240000D01*
X91000000Y27220000D01*
X90494860Y27220000D01*
X90624410Y27240303D01*
X90710368Y27243496D01*
X90860646Y27257752D01*
X91018472Y27280074D01*
X91162031Y27306754D01*
X91269506Y27334085D01*
X91319084Y27358360D01*
X91351847Y27380000D01*
X94240000Y27380000D01*
X94260000Y27360000D01*
X94280000Y27380000D01*
X94260000Y27400000D01*
X94240000Y27380000D01*
X91351847Y27380000D01*
X91351942Y27380063D01*
X91435891Y27414636D01*
X91607076Y27414636D01*
X91640000Y27400000D01*
X91661176Y27402887D01*
X91665128Y27420000D01*
X91880000Y27420000D01*
X91900000Y27400000D01*
X91920000Y27420000D01*
X91900000Y27440000D01*
X91880000Y27420000D01*
X91665128Y27420000D01*
X91666667Y27426667D01*
X91660804Y27431454D01*
X91613334Y27426667D01*
X91607076Y27414636D01*
X91435891Y27414636D01*
X91443843Y27417911D01*
X91570000Y27458862D01*
X91589523Y27464546D01*
X91708941Y27502667D01*
X91711945Y27504369D01*
X91966285Y27504369D01*
X91975834Y27450834D01*
X91989488Y27451453D01*
X91996843Y27503334D01*
X91990437Y27542652D01*
X91972676Y27527500D01*
X91966285Y27504369D01*
X91711945Y27504369D01*
X91771678Y27538211D01*
X91792167Y27580000D01*
X91880000Y27580000D01*
X91900000Y27560000D01*
X91920000Y27580000D01*
X91900000Y27600000D01*
X91880000Y27580000D01*
X91792167Y27580000D01*
X91795957Y27587729D01*
X91800000Y27667773D01*
X91795317Y27710471D01*
X91856487Y27710471D01*
X91863504Y27681307D01*
X91901645Y27722662D01*
X91909655Y27738788D01*
X91909636Y27740000D01*
X91960000Y27740000D01*
X91980000Y27720000D01*
X92000000Y27740000D01*
X91980000Y27760000D01*
X91960000Y27740000D01*
X91909636Y27740000D01*
X91908947Y27784387D01*
X91895646Y27785287D01*
X91866197Y27741726D01*
X91856487Y27710471D01*
X91795317Y27710471D01*
X91792659Y27734710D01*
X91763204Y27872921D01*
X91755710Y27900804D01*
X91848547Y27900804D01*
X91853334Y27853334D01*
X91865365Y27847076D01*
X91880000Y27880000D01*
X91877274Y27900000D01*
X91920000Y27900000D01*
X91940000Y27880000D01*
X91960000Y27900000D01*
X91940000Y27920000D01*
X91920000Y27900000D01*
X91877274Y27900000D01*
X91877114Y27901176D01*
X91853334Y27906667D01*
X91848547Y27900804D01*
X91755710Y27900804D01*
X91744959Y27940804D01*
X94248547Y27940804D01*
X94252662Y27900000D01*
X94253334Y27893334D01*
X94265365Y27887076D01*
X94280000Y27920000D01*
X94277114Y27941176D01*
X94253334Y27946667D01*
X94248547Y27940804D01*
X91744959Y27940804D01*
X91716436Y28046931D01*
X91705564Y28081778D01*
X91843442Y28081778D01*
X91875037Y28029334D01*
X91880305Y28024166D01*
X91909607Y28004994D01*
X91897429Y28051726D01*
X91893008Y28060000D01*
X91960000Y28060000D01*
X91980000Y28040000D01*
X92000000Y28060000D01*
X94360000Y28060000D01*
X94380000Y28040000D01*
X94400000Y28060000D01*
X94380000Y28080000D01*
X94360000Y28060000D01*
X92000000Y28060000D01*
X91980000Y28080000D01*
X91960000Y28060000D01*
X91893008Y28060000D01*
X91877481Y28089055D01*
X91847726Y28101059D01*
X91843442Y28081778D01*
X91705564Y28081778D01*
X91674919Y28180000D01*
X94240000Y28180000D01*
X94260000Y28160000D01*
X94280000Y28180000D01*
X94260000Y28200000D01*
X94240000Y28180000D01*
X91674919Y28180000D01*
X91662439Y28220000D01*
X94480000Y28220000D01*
X94500000Y28200000D01*
X94520000Y28220000D01*
X94500000Y28240000D01*
X94480000Y28220000D01*
X91662439Y28220000D01*
X91657989Y28234264D01*
X91649444Y28260804D01*
X94568547Y28260804D01*
X94572662Y28220000D01*
X94573334Y28213334D01*
X94585365Y28207076D01*
X94600000Y28240000D01*
X94597114Y28261176D01*
X94573334Y28266667D01*
X94568547Y28260804D01*
X91649444Y28260804D01*
X91636825Y28300000D01*
X94360000Y28300000D01*
X94380000Y28280000D01*
X94400000Y28300000D01*
X94380000Y28320000D01*
X94360000Y28300000D01*
X91636825Y28300000D01*
X91617525Y28359945D01*
X91589394Y28460000D01*
X94880000Y28460000D01*
X94900000Y28440000D01*
X94920000Y28460000D01*
X94900000Y28480000D01*
X94880000Y28460000D01*
X91589394Y28460000D01*
X91571795Y28522598D01*
X91559966Y28584369D01*
X91606285Y28584369D01*
X91615834Y28530834D01*
X91629488Y28531453D01*
X91629939Y28534636D01*
X95207076Y28534636D01*
X95240000Y28520000D01*
X95261176Y28522887D01*
X95266667Y28546667D01*
X95260804Y28551454D01*
X95213334Y28546667D01*
X95207076Y28534636D01*
X91629939Y28534636D01*
X91635610Y28574636D01*
X95407076Y28574636D01*
X95440000Y28560000D01*
X95461176Y28562887D01*
X95466667Y28586667D01*
X95460804Y28591454D01*
X95413334Y28586667D01*
X95411600Y28583334D01*
X95407076Y28574636D01*
X91635610Y28574636D01*
X91636843Y28583334D01*
X91631743Y28614636D01*
X95207076Y28614636D01*
X95240000Y28600000D01*
X95261176Y28602887D01*
X95266667Y28626667D01*
X95260804Y28631454D01*
X95213334Y28626667D01*
X95207076Y28614636D01*
X91631743Y28614636D01*
X91630437Y28622652D01*
X91612676Y28607500D01*
X91606285Y28584369D01*
X91559966Y28584369D01*
X91551222Y28630026D01*
X91557989Y28672663D01*
X91589803Y28692858D01*
X91590363Y28700000D01*
X94320000Y28700000D01*
X94340000Y28680000D01*
X94360000Y28700000D01*
X94480000Y28700000D01*
X94500000Y28680000D01*
X94520000Y28700000D01*
X95480000Y28700000D01*
X95500000Y28680000D01*
X95520000Y28700000D01*
X95500000Y28720000D01*
X95480000Y28700000D01*
X94520000Y28700000D01*
X94500000Y28720000D01*
X94480000Y28700000D01*
X94360000Y28700000D01*
X94340000Y28720000D01*
X94320000Y28700000D01*
X91590363Y28700000D01*
X91593077Y28734636D01*
X94607076Y28734636D01*
X94640000Y28720000D01*
X94661176Y28722887D01*
X94665128Y28740000D01*
X94960000Y28740000D01*
X94980000Y28720000D01*
X95000000Y28740000D01*
X94980000Y28760000D01*
X94960000Y28740000D01*
X94665128Y28740000D01*
X94666667Y28746667D01*
X94660804Y28751454D01*
X94613334Y28746667D01*
X94607076Y28734636D01*
X91593077Y28734636D01*
X91593249Y28736832D01*
X91540000Y28760000D01*
X91537391Y28760046D01*
X91504500Y28780000D01*
X91640000Y28780000D01*
X91660000Y28760000D01*
X91680000Y28780000D01*
X94480000Y28780000D01*
X94500000Y28760000D01*
X94514636Y28774636D01*
X95047076Y28774636D01*
X95080000Y28760000D01*
X95101176Y28762887D01*
X95106090Y28784167D01*
X95250834Y28784167D01*
X95251453Y28770513D01*
X95303334Y28763158D01*
X95342652Y28769564D01*
X95327500Y28787325D01*
X95304369Y28793716D01*
X95264850Y28786667D01*
X95250834Y28784167D01*
X95106090Y28784167D01*
X95106667Y28786667D01*
X95100804Y28791454D01*
X95053334Y28786667D01*
X95047076Y28774636D01*
X94514636Y28774636D01*
X94520000Y28780000D01*
X94500000Y28800000D01*
X94480000Y28780000D01*
X91680000Y28780000D01*
X91660000Y28800000D01*
X91640000Y28780000D01*
X91504500Y28780000D01*
X91488920Y28789452D01*
X91485513Y28847211D01*
X91492413Y28854636D01*
X91607076Y28854636D01*
X91640000Y28840000D01*
X91661176Y28842887D01*
X91666667Y28866667D01*
X91660804Y28871454D01*
X91613334Y28866667D01*
X91607076Y28854636D01*
X91492413Y28854636D01*
X91530000Y28895080D01*
X91534316Y28897085D01*
X91530140Y28900804D01*
X94248547Y28900804D01*
X94251989Y28866667D01*
X94253334Y28853334D01*
X94265365Y28847076D01*
X94280000Y28880000D01*
X94277114Y28901176D01*
X94253334Y28906667D01*
X94248547Y28900804D01*
X91530140Y28900804D01*
X91527786Y28902901D01*
X91460397Y28891666D01*
X91382837Y28877713D01*
X91368467Y28889730D01*
X91412845Y28938559D01*
X91438698Y28962375D01*
X91503789Y28989543D01*
X91592449Y28964656D01*
X91643424Y28943717D01*
X91669063Y28939325D01*
X91633930Y28970887D01*
X91599363Y29014636D01*
X91927076Y29014636D01*
X91960000Y29000000D01*
X91981176Y29002887D01*
X91985128Y29020000D01*
X94280000Y29020000D01*
X94300000Y29000000D01*
X94320000Y29020000D01*
X94300000Y29040000D01*
X94280000Y29020000D01*
X91985128Y29020000D01*
X91986667Y29026667D01*
X91980804Y29031454D01*
X91933334Y29026667D01*
X91927076Y29014636D01*
X91599363Y29014636D01*
X91596292Y29018523D01*
X91593832Y29054636D01*
X91767076Y29054636D01*
X91800000Y29040000D01*
X91821176Y29042887D01*
X91826667Y29066667D01*
X91820804Y29071454D01*
X91773334Y29066667D01*
X91767076Y29054636D01*
X91593832Y29054636D01*
X91590742Y29100000D01*
X91960000Y29100000D01*
X91980000Y29080000D01*
X92000000Y29100000D01*
X91980000Y29120000D01*
X91960000Y29100000D01*
X91590742Y29100000D01*
X91588593Y29131537D01*
X91594870Y29158745D01*
X91640000Y29158745D01*
X91646760Y29140934D01*
X91700000Y29120000D01*
X91727337Y29121738D01*
X91760000Y29135721D01*
X91752631Y29146074D01*
X91744480Y29150471D01*
X94336487Y29150471D01*
X94340036Y29135721D01*
X94343504Y29121307D01*
X94381645Y29162662D01*
X94389655Y29178788D01*
X94388947Y29224387D01*
X94375646Y29225287D01*
X94372072Y29220000D01*
X94346197Y29181726D01*
X94336487Y29150471D01*
X91744480Y29150471D01*
X91700000Y29174466D01*
X91669321Y29180754D01*
X91640000Y29158745D01*
X91594870Y29158745D01*
X91595817Y29162850D01*
X91633258Y29220000D01*
X91960000Y29220000D01*
X91980000Y29200000D01*
X92000000Y29220000D01*
X91980000Y29240000D01*
X91960000Y29220000D01*
X91633258Y29220000D01*
X91636249Y29224566D01*
X91724325Y29240000D01*
X91804502Y29253869D01*
X91888391Y29318572D01*
X91910306Y29340000D01*
X92240000Y29340000D01*
X92260000Y29320000D01*
X92280000Y29340000D01*
X92260000Y29360000D01*
X92240000Y29340000D01*
X91910306Y29340000D01*
X91942278Y29371261D01*
X92034696Y29372738D01*
X92101352Y29365048D01*
X92103606Y29394167D01*
X92105957Y29420431D01*
X92160407Y29439542D01*
X92250696Y29443309D01*
X92353079Y29432918D01*
X92443810Y29409554D01*
X92499145Y29374406D01*
X92541634Y29340000D01*
X92552336Y29331334D01*
X92583196Y29340804D01*
X94328547Y29340804D01*
X94333334Y29293334D01*
X94345365Y29287076D01*
X94351110Y29300000D01*
X94400000Y29300000D01*
X94420000Y29280000D01*
X94440000Y29300000D01*
X94420000Y29320000D01*
X94400000Y29300000D01*
X94351110Y29300000D01*
X94360000Y29320000D01*
X94357114Y29341176D01*
X94333334Y29346667D01*
X94328547Y29340804D01*
X92583196Y29340804D01*
X92623555Y29353189D01*
X92661366Y29382683D01*
X92647640Y29398784D01*
X92627114Y29403818D01*
X92621686Y29442727D01*
X92642660Y29460648D01*
X92709704Y29461812D01*
X92715771Y29459525D01*
X92749970Y29454895D01*
X92746654Y29460000D01*
X92880000Y29460000D01*
X92900000Y29440000D01*
X92920000Y29460000D01*
X92900000Y29480000D01*
X92880000Y29460000D01*
X92746654Y29460000D01*
X92723076Y29496295D01*
X92710540Y29513010D01*
X92707637Y29540000D01*
X92800000Y29540000D01*
X92820000Y29520000D01*
X92840000Y29540000D01*
X92820000Y29560000D01*
X92800000Y29540000D01*
X92707637Y29540000D01*
X92705583Y29559095D01*
X92767418Y29605183D01*
X92844011Y29634641D01*
X92945107Y29645751D01*
X92945681Y29645683D01*
X93017272Y29661594D01*
X93036708Y29700804D01*
X93128547Y29700804D01*
X93133334Y29653334D01*
X93145365Y29647076D01*
X93151110Y29660000D01*
X93800000Y29660000D01*
X93820000Y29640000D01*
X93840000Y29660000D01*
X93820000Y29680000D01*
X93800000Y29660000D01*
X93151110Y29660000D01*
X93160000Y29680000D01*
X93158005Y29694636D01*
X93687076Y29694636D01*
X93720000Y29680000D01*
X93741176Y29682887D01*
X93746667Y29706667D01*
X93740804Y29711454D01*
X93693334Y29706667D01*
X93687076Y29694636D01*
X93158005Y29694636D01*
X93157114Y29701176D01*
X93133334Y29706667D01*
X93128547Y29700804D01*
X93036708Y29700804D01*
X93056138Y29740000D01*
X93600000Y29740000D01*
X93620000Y29720000D01*
X93640000Y29740000D01*
X93620000Y29760000D01*
X93600000Y29740000D01*
X93056138Y29740000D01*
X93056723Y29741181D01*
X93067146Y29848415D01*
X93048407Y29940804D01*
X93128547Y29940804D01*
X93133334Y29893334D01*
X93145365Y29887076D01*
X93160000Y29920000D01*
X93157114Y29941176D01*
X93133334Y29946667D01*
X93128547Y29940804D01*
X93048407Y29940804D01*
X93042533Y29969762D01*
X93005987Y30020000D01*
X93080000Y30020000D01*
X93100000Y30000000D01*
X93120000Y30020000D01*
X93118856Y30021144D01*
X93211425Y30021144D01*
X93211455Y30020000D01*
X93212667Y29974000D01*
X93224016Y29967104D01*
X93240000Y29995695D01*
X93245224Y30015048D01*
X93286181Y30016181D01*
X93309784Y30006380D01*
X93301666Y30037305D01*
X93277134Y30062867D01*
X93228152Y30044152D01*
X93211425Y30021144D01*
X93118856Y30021144D01*
X93100000Y30040000D01*
X93080000Y30020000D01*
X93005987Y30020000D01*
X92984609Y30049388D01*
X92969500Y30068144D01*
X93011754Y30079388D01*
X93049545Y30088384D01*
X93071754Y30131270D01*
X93071433Y30151871D01*
X93078377Y30180804D01*
X93128547Y30180804D01*
X93133334Y30133334D01*
X93145365Y30127076D01*
X93160000Y30160000D01*
X93157165Y30180804D01*
X93208547Y30180804D01*
X93210645Y30160000D01*
X93213334Y30133334D01*
X93225365Y30127076D01*
X93240000Y30160000D01*
X93237274Y30180000D01*
X93280000Y30180000D01*
X93300000Y30160000D01*
X93320000Y30180000D01*
X93300000Y30200000D01*
X93280000Y30180000D01*
X93237274Y30180000D01*
X93237114Y30181176D01*
X93213334Y30186667D01*
X93208547Y30180804D01*
X93157165Y30180804D01*
X93157114Y30181176D01*
X93133334Y30186667D01*
X93128547Y30180804D01*
X93078377Y30180804D01*
X93092018Y30237638D01*
X93100661Y30260000D01*
X93160000Y30260000D01*
X93180000Y30240000D01*
X93200000Y30260000D01*
X93240000Y30260000D01*
X93260000Y30240000D01*
X93280000Y30260000D01*
X93260000Y30280000D01*
X93240000Y30260000D01*
X93200000Y30260000D01*
X93180000Y30280000D01*
X93160000Y30260000D01*
X93100661Y30260000D01*
X93131580Y30340000D01*
X93360000Y30340000D01*
X93380000Y30320000D01*
X93400000Y30340000D01*
X93380000Y30360000D01*
X93360000Y30340000D01*
X93131580Y30340000D01*
X93135099Y30349105D01*
X93167879Y30414927D01*
X93171944Y30420000D01*
X93240000Y30420000D01*
X93260000Y30400000D01*
X93280000Y30420000D01*
X93260000Y30440000D01*
X93240000Y30420000D01*
X93171944Y30420000D01*
X93199701Y30454636D01*
X93367076Y30454636D01*
X93400000Y30440000D01*
X93421176Y30442887D01*
X93426667Y30466667D01*
X93420804Y30471454D01*
X93373334Y30466667D01*
X93367076Y30454636D01*
X93199701Y30454636D01*
X93233772Y30497150D01*
X93315099Y30527836D01*
X93383234Y30548561D01*
X93409009Y30592974D01*
X93408000Y30614931D01*
X93433755Y30623860D01*
X93441851Y30615606D01*
X93470893Y30547481D01*
X93489336Y30466667D01*
X93495219Y30440887D01*
X93497021Y30430099D01*
X93500111Y30420000D01*
X93524591Y30340000D01*
X93531158Y30318538D01*
G37*
G36*
X86600000Y26740000D02*
G01*
X86580000Y26720000D01*
X86560000Y26740000D01*
X86580000Y26760000D01*
X86600000Y26740000D01*
G37*
G36*
X88426667Y19586667D02*
G01*
X88432925Y19574636D01*
X88400000Y19560000D01*
X88378825Y19562887D01*
X88373334Y19586667D01*
X88379197Y19591454D01*
X88426667Y19586667D01*
G37*
G36*
X90440000Y27540000D02*
G01*
X90420000Y27520000D01*
X90400000Y27540000D01*
X90420000Y27560000D01*
X90440000Y27540000D01*
G37*
G36*
X86000000Y23580000D02*
G01*
X85980000Y23560000D01*
X85960000Y23580000D01*
X85980000Y23600000D01*
X86000000Y23580000D01*
G37*
G36*
X87527012Y20718507D02*
G01*
X87580000Y20680000D01*
X87586408Y20664646D01*
X87564722Y20640000D01*
X87552989Y20641494D01*
X87500000Y20680000D01*
X87493593Y20695355D01*
X87515279Y20720000D01*
X87527012Y20718507D01*
G37*
G36*
X86920000Y26580000D02*
G01*
X86900000Y26560000D01*
X86880000Y26580000D01*
X86900000Y26600000D01*
X86920000Y26580000D01*
G37*
G36*
X86920000Y22260000D02*
G01*
X86900000Y22240000D01*
X86880000Y22260000D01*
X86900000Y22280000D01*
X86920000Y22260000D01*
G37*
G36*
X88377965Y22130000D02*
G01*
X88391079Y22082505D01*
X88387742Y22051722D01*
X88350762Y22050177D01*
X88266659Y22078190D01*
X88125568Y22134636D01*
X88247076Y22134636D01*
X88280000Y22120000D01*
X88301176Y22122887D01*
X88306667Y22146667D01*
X88300804Y22151454D01*
X88253334Y22146667D01*
X88247076Y22134636D01*
X88125568Y22134636D01*
X88121954Y22136082D01*
X88006262Y22180021D01*
X87910986Y22209764D01*
X87867829Y22214495D01*
X87855994Y22220000D01*
X88080000Y22220000D01*
X88100000Y22200000D01*
X88120000Y22220000D01*
X88200000Y22220000D01*
X88220000Y22200000D01*
X88240000Y22220000D01*
X88220000Y22240000D01*
X88200000Y22220000D01*
X88120000Y22220000D01*
X88100000Y22240000D01*
X88080000Y22220000D01*
X87855994Y22220000D01*
X87852069Y22221826D01*
X87836630Y22260000D01*
X88000000Y22260000D01*
X88020000Y22240000D01*
X88040000Y22260000D01*
X88020000Y22280000D01*
X88000000Y22260000D01*
X87836630Y22260000D01*
X87828172Y22280913D01*
X87820511Y22330349D01*
X87847709Y22352099D01*
X87933092Y22342601D01*
X87986399Y22334096D01*
X88018130Y22335208D01*
X87980000Y22357291D01*
X87937966Y22381962D01*
X87940000Y22397802D01*
X87952239Y22406250D01*
X87921159Y22438438D01*
X87893219Y22461780D01*
X87884666Y22497999D01*
X87908916Y22503221D01*
X87977976Y22483133D01*
X88058894Y22441969D01*
X88122536Y22395532D01*
X88139768Y22359625D01*
X88135274Y22342692D01*
X88165528Y22296584D01*
X88188589Y22286492D01*
X88183820Y22313820D01*
X88174912Y22334410D01*
X88191440Y22360000D01*
X88201121Y22358749D01*
X88264623Y22315294D01*
X88307595Y22260000D01*
X88330988Y22229899D01*
X88335643Y22220000D01*
X88370127Y22146667D01*
X88377965Y22130000D01*
G37*
G36*
X86730667Y26684964D02*
G01*
X86735835Y26679696D01*
X86755007Y26650394D01*
X86708275Y26662572D01*
X86670946Y26682520D01*
X86658942Y26712275D01*
X86678223Y26716559D01*
X86730667Y26684964D01*
G37*
G36*
X88305310Y19847303D02*
G01*
X88404505Y19813833D01*
X88486107Y19778508D01*
X88520000Y19751517D01*
X88528265Y19740043D01*
X88580000Y19745535D01*
X88615406Y19749698D01*
X88640000Y19704280D01*
X88637110Y19672871D01*
X88617483Y19640000D01*
X88571362Y19654667D01*
X88483220Y19694286D01*
X88376786Y19747178D01*
X88274782Y19801623D01*
X88199929Y19845899D01*
X88174951Y19868285D01*
X88218638Y19868724D01*
X88305310Y19847303D01*
G37*
G36*
X89768000Y27728000D02*
G01*
X89826666Y27696504D01*
X89926013Y27680000D01*
X90007688Y27665394D01*
X90068013Y27623196D01*
X90071510Y27617947D01*
X90137021Y27575935D01*
X90240000Y27549597D01*
X90380000Y27532803D01*
X90238000Y27526402D01*
X90223778Y27525941D01*
X90120697Y27533191D01*
X90058000Y27555168D01*
X90049638Y27561653D01*
X89976390Y27598741D01*
X89870000Y27638270D01*
X89839916Y27648798D01*
X89754379Y27691595D01*
X89720000Y27731103D01*
X89727487Y27753417D01*
X89768000Y27728000D01*
G37*
G36*
X92680000Y30180000D02*
G01*
X92660000Y30160000D01*
X92640000Y30180000D01*
X92660000Y30200000D01*
X92680000Y30180000D01*
G37*
G36*
X87889250Y20318463D02*
G01*
X87920000Y20280000D01*
X87919542Y20270948D01*
X87902361Y20240000D01*
X87895945Y20241841D01*
X87860000Y20280000D01*
X87853750Y20295495D01*
X87877640Y20320000D01*
X87889250Y20318463D01*
G37*
G36*
X88122916Y22634805D02*
G01*
X88180000Y22600000D01*
X88188267Y22570538D01*
X88153288Y22564666D01*
X88080000Y22600000D01*
X88071951Y22605262D01*
X88042875Y22632915D01*
X88087640Y22639388D01*
X88122916Y22634805D01*
G37*
G36*
X85640000Y23740000D02*
G01*
X85620000Y23720000D01*
X85600000Y23740000D01*
X85620000Y23760000D01*
X85640000Y23740000D01*
G37*
G36*
X85509471Y27264795D02*
G01*
X85600000Y27220000D01*
X85605420Y27216859D01*
X85655442Y27177984D01*
X85640000Y27162690D01*
X85587143Y27174886D01*
X85502355Y27221273D01*
X85463805Y27254901D01*
X85460162Y27276479D01*
X85509471Y27264795D01*
G37*
G36*
X92877992Y29821242D02*
G01*
X92892602Y29807933D01*
X92896138Y29753751D01*
X92878278Y29736159D01*
X92828152Y29755849D01*
X92805911Y29791877D01*
X92821205Y29830571D01*
X92877992Y29821242D01*
G37*
G36*
X93122614Y30646306D02*
G01*
X93141447Y30577630D01*
X93137717Y30516306D01*
X93108362Y30482885D01*
X93087402Y30508244D01*
X93082536Y30610000D01*
X93086139Y30692644D01*
X93097090Y30702941D01*
X93122614Y30646306D01*
G37*
G36*
X88320000Y19620000D02*
G01*
X88300000Y19600000D01*
X88280000Y19620000D01*
X88300000Y19640000D01*
X88320000Y19620000D01*
G37*
G36*
X91368862Y29278475D02*
G01*
X91420000Y29240000D01*
X91423763Y29219392D01*
X91382361Y29200000D01*
X91352559Y29204896D01*
X91320000Y29240000D01*
X91321078Y29249491D01*
X91357640Y29280000D01*
X91368862Y29278475D01*
G37*
G36*
X86678865Y26268185D02*
G01*
X86685829Y26265505D01*
X86755161Y26226345D01*
X86751020Y26194451D01*
X86738635Y26188953D01*
X86666214Y26192714D01*
X86593259Y26228235D01*
X86560000Y26277933D01*
X86560325Y26280409D01*
X86597890Y26289283D01*
X86678865Y26268185D01*
G37*
G36*
X93640000Y20233467D02*
G01*
X93623553Y20220986D01*
X93547332Y20202730D01*
X93430000Y20189490D01*
X93349877Y20183477D01*
X93245951Y20174167D01*
X93194664Y20167400D01*
X93173109Y20187518D01*
X93150353Y20259255D01*
X93146471Y20300804D01*
X93208547Y20300804D01*
X93213334Y20253334D01*
X93225365Y20247076D01*
X93240000Y20280000D01*
X93237274Y20300000D01*
X93360000Y20300000D01*
X93380000Y20280000D01*
X93400000Y20300000D01*
X93380000Y20320000D01*
X93360000Y20300000D01*
X93237274Y20300000D01*
X93237114Y20301176D01*
X93213334Y20306667D01*
X93208547Y20300804D01*
X93146471Y20300804D01*
X93145177Y20314655D01*
X93174078Y20357956D01*
X93262876Y20383179D01*
X93295211Y20386585D01*
X93405001Y20374241D01*
X93517309Y20337363D01*
X93581955Y20300000D01*
X93604766Y20286816D01*
X93640000Y20233467D01*
G37*
G36*
X88529250Y27558463D02*
G01*
X88560000Y27520000D01*
X88559542Y27510948D01*
X88542361Y27480000D01*
X88535945Y27481841D01*
X88500000Y27520000D01*
X88493750Y27535495D01*
X88517640Y27560000D01*
X88529250Y27558463D01*
G37*
G36*
X94920000Y19780000D02*
G01*
X94900000Y19760000D01*
X94880000Y19780000D01*
X94900000Y19800000D01*
X94920000Y19780000D01*
G37*
G36*
X95560000Y26920000D02*
G01*
X95524284Y26920301D01*
X95435533Y26924438D01*
X95400000Y26931883D01*
X95414540Y26951015D01*
X95441817Y26980000D01*
X95520000Y26980000D01*
X95540000Y26960000D01*
X95560000Y26980000D01*
X95540000Y27000000D01*
X95520000Y26980000D01*
X95441817Y26980000D01*
X95472655Y27012770D01*
X95478835Y27018942D01*
X95607726Y27018942D01*
X95625741Y27019294D01*
X95657429Y27068275D01*
X95660276Y27075864D01*
X95668669Y27115945D01*
X95635037Y27090667D01*
X95612212Y27061256D01*
X95607726Y27018942D01*
X95478835Y27018942D01*
X95560000Y27100000D01*
X95720000Y27256236D01*
X95720000Y26920000D01*
X95560000Y26920000D01*
G37*
G36*
X96209562Y28278838D02*
G01*
X96240000Y28240000D01*
X96238838Y28230439D01*
X96200000Y28200000D01*
X96190439Y28201163D01*
X96160000Y28240000D01*
X96161163Y28249562D01*
X96200000Y28280000D01*
X96209562Y28278838D01*
G37*
G36*
X87462312Y26198201D02*
G01*
X87500000Y26160000D01*
X87507451Y26145838D01*
X87504722Y26120000D01*
X87497689Y26121800D01*
X87460000Y26160000D01*
X87452550Y26174163D01*
X87455279Y26200000D01*
X87462312Y26198201D01*
G37*
G36*
X88040000Y22907161D02*
G01*
X88038459Y22899913D01*
X87997640Y22880000D01*
X87984823Y22881837D01*
X87975527Y22912763D01*
X87976906Y22915932D01*
X87948593Y22931850D01*
X87867888Y22929929D01*
X87845202Y22927422D01*
X87781436Y22928406D01*
X87793072Y22951425D01*
X87816396Y22974496D01*
X87838333Y23044260D01*
X87836340Y23060804D01*
X87888547Y23060804D01*
X87893334Y23013334D01*
X87905365Y23007076D01*
X87920000Y23040000D01*
X87917114Y23061176D01*
X87893334Y23066667D01*
X87888547Y23060804D01*
X87836340Y23060804D01*
X87836017Y23063489D01*
X87843455Y23165539D01*
X87882244Y23201706D01*
X87936907Y23169682D01*
X87991965Y23067161D01*
X87997059Y23052921D01*
X88001289Y23040000D01*
X88027548Y22959795D01*
X88040000Y22907161D01*
G37*
G36*
X88720000Y19620000D02*
G01*
X88700000Y19600000D01*
X88680000Y19620000D01*
X88700000Y19640000D01*
X88720000Y19620000D01*
G37*
G36*
X86080000Y23540000D02*
G01*
X86060000Y23520000D01*
X86040000Y23540000D01*
X86060000Y23560000D01*
X86080000Y23540000D01*
G37*
G36*
X88249250Y20558463D02*
G01*
X88280000Y20520000D01*
X88279542Y20510948D01*
X88262361Y20480000D01*
X88255945Y20481841D01*
X88220000Y20520000D01*
X88213750Y20535495D01*
X88237640Y20560000D01*
X88249250Y20558463D01*
G37*
G36*
X87419490Y24279174D02*
G01*
X87386875Y24249388D01*
X87317699Y24247338D01*
X87265535Y24300000D01*
X87258173Y24360000D01*
X87320000Y24360000D01*
X87321628Y24349037D01*
X87362361Y24320000D01*
X87376829Y24323141D01*
X87380000Y24360000D01*
X87371791Y24371971D01*
X87337640Y24400000D01*
X87333648Y24398961D01*
X87320000Y24360000D01*
X87258173Y24360000D01*
X87256791Y24371260D01*
X87278649Y24446579D01*
X87322873Y24480000D01*
X87342731Y24473175D01*
X87389257Y24418240D01*
X87413138Y24360000D01*
X87421141Y24340482D01*
X87419490Y24279174D01*
G37*
G36*
X92800000Y30140000D02*
G01*
X92780000Y30120000D01*
X92760000Y30140000D01*
X92780000Y30160000D01*
X92800000Y30140000D01*
G37*
G36*
X94985008Y20418627D02*
G01*
X94969301Y20390827D01*
X94926381Y20367450D01*
X94842579Y20361600D01*
X94698717Y20370021D01*
X94569766Y20375655D01*
X94465337Y20370625D01*
X94417177Y20355432D01*
X94376767Y20338731D01*
X94276848Y20325194D01*
X94142071Y20320000D01*
X94011934Y20324421D01*
X93884445Y20347398D01*
X93797121Y20394288D01*
X93715971Y20460000D01*
X93840000Y20460000D01*
X93860000Y20440000D01*
X93874636Y20454636D01*
X94447076Y20454636D01*
X94480000Y20440000D01*
X94501176Y20442887D01*
X94503889Y20454636D01*
X94727076Y20454636D01*
X94760000Y20440000D01*
X94781176Y20442887D01*
X94785128Y20460000D01*
X94880000Y20460000D01*
X94900000Y20440000D01*
X94920000Y20460000D01*
X94900000Y20480000D01*
X94880000Y20460000D01*
X94785128Y20460000D01*
X94786667Y20466667D01*
X94780804Y20471454D01*
X94733334Y20466667D01*
X94727076Y20454636D01*
X94503889Y20454636D01*
X94506667Y20466667D01*
X94500804Y20471454D01*
X94453334Y20466667D01*
X94449866Y20460000D01*
X94447076Y20454636D01*
X93874636Y20454636D01*
X93880000Y20460000D01*
X93860000Y20480000D01*
X93840000Y20460000D01*
X93715971Y20460000D01*
X93705380Y20468576D01*
X93759699Y20504167D01*
X94250834Y20504167D01*
X94251453Y20490513D01*
X94303334Y20483158D01*
X94342652Y20489564D01*
X94327500Y20507325D01*
X94304369Y20513716D01*
X94250834Y20504167D01*
X93759699Y20504167D01*
X93808941Y20536432D01*
X93817276Y20541751D01*
X93872185Y20568274D01*
X93943352Y20583956D01*
X94046642Y20589849D01*
X94197923Y20587006D01*
X94413061Y20576477D01*
X94426669Y20575710D01*
X94620509Y20562562D01*
X94785887Y20547414D01*
X94905649Y20532078D01*
X94962639Y20518370D01*
X94984947Y20491447D01*
X94984949Y20489564D01*
X94984973Y20460000D01*
X94985008Y20418627D01*
G37*
G36*
X93217019Y30904834D02*
G01*
X93191854Y30841820D01*
X93147124Y30787896D01*
X93120887Y30791360D01*
X93133804Y30858275D01*
X93150351Y30887956D01*
X93199084Y30920000D01*
X93217019Y30904834D01*
G37*
G36*
X92906667Y30106667D02*
G01*
X92912925Y30094636D01*
X92880000Y30080000D01*
X92858825Y30082887D01*
X92853334Y30106667D01*
X92859197Y30111454D01*
X92906667Y30106667D01*
G37*
G36*
X87880000Y23260000D02*
G01*
X87860000Y23240000D01*
X87840000Y23260000D01*
X87860000Y23280000D01*
X87880000Y23260000D01*
G37*
G36*
X87809562Y20558838D02*
G01*
X87840000Y20520000D01*
X87838838Y20510439D01*
X87800000Y20480000D01*
X87790439Y20481163D01*
X87760000Y20520000D01*
X87761163Y20529562D01*
X87800000Y20560000D01*
X87809562Y20558838D01*
G37*
G36*
X94986667Y20066667D02*
G01*
X94992925Y20054636D01*
X94960000Y20040000D01*
X94938825Y20042887D01*
X94933334Y20066667D01*
X94939197Y20071454D01*
X94986667Y20066667D01*
G37*
G36*
X87702312Y23638201D02*
G01*
X87740000Y23600000D01*
X87747451Y23585838D01*
X87744722Y23560000D01*
X87737689Y23561800D01*
X87700000Y23600000D01*
X87692550Y23614163D01*
X87695279Y23640000D01*
X87702312Y23638201D01*
G37*
G36*
X91274686Y27960662D02*
G01*
X91313598Y27900000D01*
X91330785Y27873207D01*
X91364646Y27840000D01*
X91380870Y27833267D01*
X91392817Y27800000D01*
X91400000Y27780000D01*
X91395488Y27752399D01*
X91360000Y27720000D01*
X91348758Y27721734D01*
X91320000Y27762858D01*
X91305194Y27775604D01*
X91257143Y27742858D01*
X91200900Y27700106D01*
X91119478Y27683899D01*
X91064498Y27730000D01*
X91052594Y27743872D01*
X91052464Y27740000D01*
X91051164Y27701297D01*
X91051913Y27691940D01*
X91039357Y27660000D01*
X91028168Y27631537D01*
X90940000Y27596030D01*
X90916926Y27591422D01*
X90786792Y27574130D01*
X90645103Y27564733D01*
X90603432Y27563562D01*
X90533144Y27564870D01*
X90506037Y27580831D01*
X90524916Y27622445D01*
X90557384Y27660000D01*
X90640000Y27660000D01*
X90660000Y27640000D01*
X90680000Y27660000D01*
X90660000Y27680000D01*
X90640000Y27660000D01*
X90557384Y27660000D01*
X90592583Y27700715D01*
X90629788Y27740000D01*
X90720000Y27740000D01*
X90740000Y27720000D01*
X90760000Y27740000D01*
X90740000Y27760000D01*
X90720000Y27740000D01*
X90629788Y27740000D01*
X90706312Y27820804D01*
X90808547Y27820804D01*
X90813334Y27773334D01*
X90825365Y27767076D01*
X90840000Y27800000D01*
X90837165Y27820804D01*
X91168547Y27820804D01*
X91170645Y27800000D01*
X91173334Y27773334D01*
X91185365Y27767076D01*
X91200000Y27800000D01*
X91197114Y27821176D01*
X91173334Y27826667D01*
X91168547Y27820804D01*
X90837165Y27820804D01*
X90837114Y27821176D01*
X90813334Y27826667D01*
X90808547Y27820804D01*
X90706312Y27820804D01*
X90711843Y27826644D01*
X90770450Y27900000D01*
X91080000Y27900000D01*
X91100000Y27880000D01*
X91120000Y27900000D01*
X91100000Y27920000D01*
X91080000Y27900000D01*
X90770450Y27900000D01*
X90785579Y27918936D01*
X90867780Y28063369D01*
X90941943Y28063369D01*
X90944738Y28022078D01*
X90957650Y27993002D01*
X90987146Y27961296D01*
X91000000Y27997640D01*
X90998579Y28008504D01*
X90960459Y28059717D01*
X90941943Y28063369D01*
X90867780Y28063369D01*
X90869033Y28065570D01*
X90873576Y28077396D01*
X91129808Y28077396D01*
X91140000Y28040000D01*
X91148218Y28028160D01*
X91184722Y28000000D01*
X91190193Y28002605D01*
X91180000Y28040000D01*
X91171783Y28051841D01*
X91135279Y28080000D01*
X91129808Y28077396D01*
X90873576Y28077396D01*
X90927523Y28217826D01*
X90928080Y28220804D01*
X91048547Y28220804D01*
X91053334Y28173334D01*
X91065365Y28167076D01*
X91080000Y28200000D01*
X91077114Y28221176D01*
X91053334Y28226667D01*
X91048547Y28220804D01*
X90928080Y28220804D01*
X90952812Y28352929D01*
X90936659Y28448102D01*
X90935514Y28450111D01*
X90940588Y28462825D01*
X90990284Y28426372D01*
X91049244Y28355335D01*
X91125606Y28236389D01*
X91145409Y28200000D01*
X91201805Y28096372D01*
X91207939Y28084117D01*
X91252009Y28002605D01*
X91254693Y27997640D01*
X91274686Y27960662D01*
G37*
G36*
X88600000Y22100000D02*
G01*
X88653254Y22043176D01*
X88680000Y21993801D01*
X88678168Y21977599D01*
X88645662Y21964768D01*
X88577143Y22017143D01*
X88540064Y22061885D01*
X88518907Y22117100D01*
X88540568Y22135903D01*
X88600000Y22100000D01*
G37*
G36*
X95364731Y20064759D02*
G01*
X95400000Y20040000D01*
X95387927Y20013569D01*
X95324869Y20007979D01*
X95200000Y20040000D01*
X95191324Y20042800D01*
X95142204Y20062221D01*
X95159499Y20071661D01*
X95250000Y20076013D01*
X95277257Y20076071D01*
X95364731Y20064759D01*
G37*
G36*
X94840000Y20000000D02*
G01*
X94837114Y19978825D01*
X94813334Y19973334D01*
X94808547Y19979197D01*
X94813334Y20026667D01*
X94825365Y20032925D01*
X94840000Y20000000D01*
G37*
G36*
X86960000Y22160000D02*
G01*
X86957114Y22138825D01*
X86933334Y22133334D01*
X86928547Y22139197D01*
X86933334Y22186667D01*
X86945365Y22192925D01*
X86960000Y22160000D01*
G37*
%TD*%
D13*
%TO.C,MCU1*%
X84630000Y38720000D03*
D14*
X84630000Y36180000D03*
X84630000Y33640000D03*
X84630000Y31100000D03*
X84630000Y28560000D03*
X84630000Y26020000D03*
X84630000Y23480000D03*
X84630000Y20940000D03*
X84630000Y18400000D03*
X84630000Y15860000D03*
X84630000Y13320000D03*
X84630000Y10780000D03*
X99870000Y38720000D03*
X99870000Y36180000D03*
X99870000Y33640000D03*
X99870000Y31100000D03*
X99870000Y28560000D03*
X99870000Y26020000D03*
X99870000Y23480000D03*
X99870000Y20940000D03*
X99870000Y18400000D03*
X99870000Y15860000D03*
X99870000Y13320000D03*
X99870000Y10780000D03*
%TD*%
M02*
