%TF.GenerationSoftware,KiCad,Pcbnew,(6.0.4)*%
%TF.CreationDate,2022-07-31T16:16:28-04:00*%
%TF.ProjectId,satpad,73617470-6164-42e6-9b69-6361645f7063,v1.0.0*%
%TF.SameCoordinates,Original*%
%TF.FileFunction,Soldermask,Top*%
%TF.FilePolarity,Negative*%
%FSLAX46Y46*%
G04 Gerber Fmt 4.6, Leading zero omitted, Abs format (unit mm)*
G04 Created by KiCad (PCBNEW (6.0.4)) date 2022-07-31 16:16:28*
%MOMM*%
%LPD*%
G01*
G04 APERTURE LIST*
G04 Aperture macros list*
%AMRoundRect*
0 Rectangle with rounded corners*
0 $1 Rounding radius*
0 $2 $3 $4 $5 $6 $7 $8 $9 X,Y pos of 4 corners*
0 Add a 4 corners polygon primitive as box body*
4,1,4,$2,$3,$4,$5,$6,$7,$8,$9,$2,$3,0*
0 Add four circle primitives for the rounded corners*
1,1,$1+$1,$2,$3*
1,1,$1+$1,$4,$5*
1,1,$1+$1,$6,$7*
1,1,$1+$1,$8,$9*
0 Add four rect primitives between the rounded corners*
20,1,$1+$1,$2,$3,$4,$5,0*
20,1,$1+$1,$4,$5,$6,$7,0*
20,1,$1+$1,$6,$7,$8,$9,0*
20,1,$1+$1,$8,$9,$2,$3,0*%
G04 Aperture macros list end*
%ADD10C,3.529000*%
%ADD11C,1.801800*%
%ADD12C,2.600000*%
%ADD13RoundRect,0.050000X-0.600000X-0.600000X0.600000X-0.600000X0.600000X0.600000X-0.600000X0.600000X0*%
%ADD14C,2.005000*%
%ADD15RoundRect,0.050000X-0.889000X-0.889000X0.889000X-0.889000X0.889000X0.889000X-0.889000X0.889000X0*%
%ADD16C,2.900000*%
%ADD17RoundRect,0.050000X-0.876300X0.876300X-0.876300X-0.876300X0.876300X-0.876300X0.876300X0.876300X0*%
%ADD18C,1.852600*%
%ADD19RoundRect,0.450000X-0.400000X-0.400000X0.400000X-0.400000X0.400000X0.400000X-0.400000X0.400000X0*%
%ADD20O,1.800000X1.800000*%
%ADD21RoundRect,0.050000X-0.850000X-0.850000X0.850000X-0.850000X0.850000X0.850000X-0.850000X0.850000X0*%
%ADD22C,1.700000*%
%ADD23C,1.600000*%
%ADD24C,1.100000*%
%ADD25RoundRect,0.050000X-0.450000X-0.625000X0.450000X-0.625000X0.450000X0.625000X-0.450000X0.625000X0*%
%ADD26RoundRect,0.050000X-0.450000X-0.450000X0.450000X-0.450000X0.450000X0.450000X-0.450000X0.450000X0*%
G04 APERTURE END LIST*
D10*
%TO.C,S1*%
X0Y0D03*
D11*
X5500000Y0D03*
X-5500000Y0D03*
D12*
X5000000Y3800000D03*
X0Y5900000D03*
%TD*%
D13*
%TO.C,D1*%
X-1650000Y-4500000D03*
X1650000Y-4500000D03*
D14*
X3810000Y-4500000D03*
D15*
X-3810000Y-4500000D03*
%TD*%
D10*
%TO.C,S2*%
X0Y17000000D03*
D11*
X5500000Y17000000D03*
X-5500000Y17000000D03*
D12*
X5000000Y20800000D03*
X0Y22900000D03*
%TD*%
D13*
%TO.C,D2*%
X-1650000Y12500000D03*
X1650000Y12500000D03*
D14*
X3810000Y12500000D03*
D15*
X-3810000Y12500000D03*
%TD*%
D10*
%TO.C,S3*%
X0Y34000000D03*
D11*
X5500000Y34000000D03*
X-5500000Y34000000D03*
D12*
X5000000Y37800000D03*
X0Y39900000D03*
%TD*%
D13*
%TO.C,D3*%
X-1650000Y29500000D03*
X1650000Y29500000D03*
D14*
X3810000Y29500000D03*
D15*
X-3810000Y29500000D03*
%TD*%
D10*
%TO.C,S4*%
X18000000Y0D03*
D11*
X23500000Y0D03*
X12500000Y0D03*
D12*
X23000000Y3800000D03*
X18000000Y5900000D03*
%TD*%
D13*
%TO.C,D4*%
X16350000Y-4500000D03*
X19650000Y-4500000D03*
D14*
X21810000Y-4500000D03*
D15*
X14190000Y-4500000D03*
%TD*%
D10*
%TO.C,S5*%
X18000000Y17000000D03*
D11*
X23500000Y17000000D03*
X12500000Y17000000D03*
D12*
X23000000Y20800000D03*
X18000000Y22900000D03*
%TD*%
D13*
%TO.C,D5*%
X16350000Y12500000D03*
X19650000Y12500000D03*
D14*
X21810000Y12500000D03*
D15*
X14190000Y12500000D03*
%TD*%
D10*
%TO.C,S6*%
X18000000Y34000000D03*
D11*
X23500000Y34000000D03*
X12500000Y34000000D03*
D12*
X23000000Y37800000D03*
X18000000Y39900000D03*
%TD*%
D13*
%TO.C,D6*%
X16350000Y29500000D03*
X19650000Y29500000D03*
D14*
X21810000Y29500000D03*
D15*
X14190000Y29500000D03*
%TD*%
D10*
%TO.C,S7*%
X36000000Y0D03*
D11*
X41500000Y0D03*
X30500000Y0D03*
D12*
X41000000Y3800000D03*
X36000000Y5900000D03*
%TD*%
D13*
%TO.C,D7*%
X34350000Y-4500000D03*
X37650000Y-4500000D03*
D14*
X39810000Y-4500000D03*
D15*
X32190000Y-4500000D03*
%TD*%
D10*
%TO.C,S8*%
X36000000Y17000000D03*
D11*
X41500000Y17000000D03*
X30500000Y17000000D03*
D12*
X41000000Y20800000D03*
X36000000Y22900000D03*
%TD*%
D13*
%TO.C,D8*%
X34350000Y12500000D03*
X37650000Y12500000D03*
D14*
X39810000Y12500000D03*
D15*
X32190000Y12500000D03*
%TD*%
D10*
%TO.C,S9*%
X36000000Y34000000D03*
D11*
X41500000Y34000000D03*
X30500000Y34000000D03*
D12*
X41000000Y37800000D03*
X36000000Y39900000D03*
%TD*%
D13*
%TO.C,D9*%
X34350000Y29500000D03*
X37650000Y29500000D03*
D14*
X39810000Y29500000D03*
D15*
X32190000Y29500000D03*
%TD*%
D10*
%TO.C,S10*%
X54000000Y0D03*
D11*
X59500000Y0D03*
X48500000Y0D03*
D12*
X59000000Y3800000D03*
X54000000Y5900000D03*
%TD*%
D13*
%TO.C,D10*%
X52350000Y-4500000D03*
X55650000Y-4500000D03*
D14*
X57810000Y-4500000D03*
D15*
X50190000Y-4500000D03*
%TD*%
D10*
%TO.C,S11*%
X54000000Y17000000D03*
D11*
X59500000Y17000000D03*
X48500000Y17000000D03*
D12*
X59000000Y20800000D03*
X54000000Y22900000D03*
%TD*%
D13*
%TO.C,D11*%
X52350000Y12500000D03*
X55650000Y12500000D03*
D14*
X57810000Y12500000D03*
D15*
X50190000Y12500000D03*
%TD*%
D10*
%TO.C,S12*%
X54000000Y34000000D03*
D11*
X59500000Y34000000D03*
X48500000Y34000000D03*
D12*
X59000000Y37800000D03*
X54000000Y39900000D03*
%TD*%
D13*
%TO.C,D12*%
X52350000Y29500000D03*
X55650000Y29500000D03*
D14*
X57810000Y29500000D03*
D15*
X50190000Y29500000D03*
%TD*%
D10*
%TO.C,S13*%
X72000000Y0D03*
D11*
X77500000Y0D03*
X66500000Y0D03*
D12*
X77000000Y3800000D03*
X72000000Y5900000D03*
%TD*%
D13*
%TO.C,D13*%
X70350000Y-4500000D03*
X73650000Y-4500000D03*
D14*
X75810000Y-4500000D03*
D15*
X68190000Y-4500000D03*
%TD*%
D10*
%TO.C,S14*%
X72000000Y17000000D03*
D11*
X77500000Y17000000D03*
X66500000Y17000000D03*
D12*
X77000000Y20800000D03*
X72000000Y22900000D03*
%TD*%
D13*
%TO.C,D14*%
X70350000Y12500000D03*
X73650000Y12500000D03*
D14*
X75810000Y12500000D03*
D15*
X68190000Y12500000D03*
%TD*%
D10*
%TO.C,S15*%
X72000000Y34000000D03*
D11*
X77500000Y34000000D03*
X66500000Y34000000D03*
D12*
X77000000Y37800000D03*
X72000000Y39900000D03*
%TD*%
D13*
%TO.C,D15*%
X70350000Y29500000D03*
X73650000Y29500000D03*
D14*
X75810000Y29500000D03*
D15*
X68190000Y29500000D03*
%TD*%
D10*
%TO.C,S16*%
X180000000Y0D03*
D11*
X185500000Y0D03*
X174500000Y0D03*
D12*
X185000000Y3800000D03*
X180000000Y5900000D03*
%TD*%
D13*
%TO.C,D16*%
X178350000Y-4500000D03*
X181650000Y-4500000D03*
D14*
X183810000Y-4500000D03*
D15*
X176190000Y-4500000D03*
%TD*%
D10*
%TO.C,S17*%
X180000000Y17000000D03*
D11*
X185500000Y17000000D03*
X174500000Y17000000D03*
D12*
X185000000Y20800000D03*
X180000000Y22900000D03*
%TD*%
D13*
%TO.C,D17*%
X178350000Y12500000D03*
X181650000Y12500000D03*
D14*
X183810000Y12500000D03*
D15*
X176190000Y12500000D03*
%TD*%
D10*
%TO.C,S18*%
X180000000Y34000000D03*
D11*
X185500000Y34000000D03*
X174500000Y34000000D03*
D12*
X185000000Y37800000D03*
X180000000Y39900000D03*
%TD*%
D13*
%TO.C,D18*%
X178350000Y29500000D03*
X181650000Y29500000D03*
D14*
X183810000Y29500000D03*
D15*
X176190000Y29500000D03*
%TD*%
D10*
%TO.C,S19*%
X162000000Y0D03*
D11*
X167500000Y0D03*
X156500000Y0D03*
D12*
X167000000Y3800000D03*
X162000000Y5900000D03*
%TD*%
D13*
%TO.C,D19*%
X160350000Y-4500000D03*
X163650000Y-4500000D03*
D14*
X165810000Y-4500000D03*
D15*
X158190000Y-4500000D03*
%TD*%
D10*
%TO.C,S20*%
X162000000Y17000000D03*
D11*
X167500000Y17000000D03*
X156500000Y17000000D03*
D12*
X167000000Y20800000D03*
X162000000Y22900000D03*
%TD*%
D13*
%TO.C,D20*%
X160350000Y12500000D03*
X163650000Y12500000D03*
D14*
X165810000Y12500000D03*
D15*
X158190000Y12500000D03*
%TD*%
D10*
%TO.C,S21*%
X162000000Y34000000D03*
D11*
X167500000Y34000000D03*
X156500000Y34000000D03*
D12*
X167000000Y37800000D03*
X162000000Y39900000D03*
%TD*%
D13*
%TO.C,D21*%
X160350000Y29500000D03*
X163650000Y29500000D03*
D14*
X165810000Y29500000D03*
D15*
X158190000Y29500000D03*
%TD*%
D10*
%TO.C,S22*%
X144000000Y0D03*
D11*
X149500000Y0D03*
X138500000Y0D03*
D12*
X149000000Y3800000D03*
X144000000Y5900000D03*
%TD*%
D13*
%TO.C,D22*%
X142350000Y-4500000D03*
X145650000Y-4500000D03*
D14*
X147810000Y-4500000D03*
D15*
X140190000Y-4500000D03*
%TD*%
D10*
%TO.C,S23*%
X144000000Y17000000D03*
D11*
X149500000Y17000000D03*
X138500000Y17000000D03*
D12*
X149000000Y20800000D03*
X144000000Y22900000D03*
%TD*%
D13*
%TO.C,D23*%
X142350000Y12500000D03*
X145650000Y12500000D03*
D14*
X147810000Y12500000D03*
D15*
X140190000Y12500000D03*
%TD*%
D10*
%TO.C,S24*%
X144000000Y34000000D03*
D11*
X149500000Y34000000D03*
X138500000Y34000000D03*
D12*
X149000000Y37800000D03*
X144000000Y39900000D03*
%TD*%
D13*
%TO.C,D24*%
X142350000Y29500000D03*
X145650000Y29500000D03*
D14*
X147810000Y29500000D03*
D15*
X140190000Y29500000D03*
%TD*%
D10*
%TO.C,S25*%
X126000000Y0D03*
D11*
X131500000Y0D03*
X120500000Y0D03*
D12*
X131000000Y3800000D03*
X126000000Y5900000D03*
%TD*%
D13*
%TO.C,D25*%
X124350000Y-4500000D03*
X127650000Y-4500000D03*
D14*
X129810000Y-4500000D03*
D15*
X122190000Y-4500000D03*
%TD*%
D10*
%TO.C,S26*%
X126000000Y17000000D03*
D11*
X131500000Y17000000D03*
X120500000Y17000000D03*
D12*
X131000000Y20800000D03*
X126000000Y22900000D03*
%TD*%
D13*
%TO.C,D26*%
X124350000Y12500000D03*
X127650000Y12500000D03*
D14*
X129810000Y12500000D03*
D15*
X122190000Y12500000D03*
%TD*%
D10*
%TO.C,S27*%
X126000000Y34000000D03*
D11*
X131500000Y34000000D03*
X120500000Y34000000D03*
D12*
X131000000Y37800000D03*
X126000000Y39900000D03*
%TD*%
D13*
%TO.C,D27*%
X124350000Y29500000D03*
X127650000Y29500000D03*
D14*
X129810000Y29500000D03*
D15*
X122190000Y29500000D03*
%TD*%
D10*
%TO.C,S28*%
X108000000Y0D03*
D11*
X113500000Y0D03*
X102500000Y0D03*
D12*
X113000000Y3800000D03*
X108000000Y5900000D03*
%TD*%
D13*
%TO.C,D28*%
X106350000Y-4500000D03*
X109650000Y-4500000D03*
D14*
X111810000Y-4500000D03*
D15*
X104190000Y-4500000D03*
%TD*%
D10*
%TO.C,S29*%
X108000000Y17000000D03*
D11*
X113500000Y17000000D03*
X102500000Y17000000D03*
D12*
X113000000Y20800000D03*
X108000000Y22900000D03*
%TD*%
D13*
%TO.C,D29*%
X106350000Y12500000D03*
X109650000Y12500000D03*
D14*
X111810000Y12500000D03*
D15*
X104190000Y12500000D03*
%TD*%
D10*
%TO.C,S30*%
X108000000Y34000000D03*
D11*
X113500000Y34000000D03*
X102500000Y34000000D03*
D12*
X113000000Y37800000D03*
X108000000Y39900000D03*
%TD*%
D13*
%TO.C,D30*%
X106350000Y29500000D03*
X109650000Y29500000D03*
D14*
X111810000Y29500000D03*
D15*
X104190000Y29500000D03*
%TD*%
D16*
%TO.C,*%
X-8250000Y41750000D03*
%TD*%
%TO.C,*%
X-8250000Y-7750000D03*
%TD*%
%TO.C,*%
X63000000Y41750000D03*
%TD*%
%TO.C,*%
X63000000Y-7750000D03*
%TD*%
%TO.C,*%
X188250000Y41750000D03*
%TD*%
%TO.C,*%
X188250000Y-7750000D03*
%TD*%
%TO.C,*%
X117000000Y41750000D03*
%TD*%
%TO.C,*%
X117000000Y-7750000D03*
%TD*%
D17*
%TO.C,MCU1*%
X82380000Y37970000D03*
D18*
X82380000Y35430000D03*
X82380000Y32890000D03*
X82380000Y30350000D03*
X82380000Y27810000D03*
X82380000Y25270000D03*
X82380000Y22730000D03*
X82380000Y20190000D03*
X82380000Y17650000D03*
X82380000Y15110000D03*
X82380000Y12570000D03*
X82380000Y10030000D03*
X97620000Y37970000D03*
X97620000Y35430000D03*
X97620000Y32890000D03*
X97620000Y30350000D03*
X97620000Y27810000D03*
X97620000Y25270000D03*
X97620000Y22730000D03*
X97620000Y20190000D03*
X97620000Y17650000D03*
X97620000Y15110000D03*
X97620000Y12570000D03*
X97620000Y10030000D03*
D19*
X82380000Y40510000D03*
X97620000Y40510000D03*
%TD*%
D20*
%TO.C,OLED1*%
X86180000Y7600000D03*
X88720000Y7600000D03*
X91260000Y7600000D03*
D21*
X93800000Y7600000D03*
%TD*%
D22*
%TO.C,REF\u002A\u002A*%
X83150000Y5200000D03*
X85000000Y5200000D03*
X84375000Y2810000D03*
X84375000Y270000D03*
X84375000Y-2270000D03*
X84375000Y-4810000D03*
D23*
X84375000Y-7300000D03*
%TD*%
D24*
%TO.C,T1*%
X91500000Y41250000D03*
X88500000Y41250000D03*
D25*
X92250000Y39175000D03*
X89250000Y39175000D03*
X87750000Y39175000D03*
D26*
X93700000Y42350000D03*
X93700000Y40150000D03*
X86300000Y40150000D03*
X86300000Y42350000D03*
%TD*%
D19*
%TO.C,*%
X87750000Y36000000D03*
%TD*%
%TO.C,*%
X92250000Y36000000D03*
%TD*%
M02*
