M48
; DRILL file {KiCad (6.0.4)} date Sun Jul 31 16:16:25 2022
; FORMAT={-:-/ absolute / inch / decimal}
; #@! TF.CreationDate,2022-07-31T16:16:25-04:00
; #@! TF.GenerationSoftware,Kicad,Pcbnew,(6.0.4)
; #@! TF.FileFunction,Plated,1,2,PTH
FMAT,2
INCH
; #@! TA.AperFunction,Plated,PTH,ViaDrill
T1C0.0157
; #@! TA.AperFunction,Plated,PTH,ComponentDrill
T2C0.0354
; #@! TA.AperFunction,Plated,PTH,ComponentDrill
T3C0.0390
; #@! TA.AperFunction,Plated,PTH,ComponentDrill
T4C0.0394
; #@! TA.AperFunction,Plated,PTH,ComponentDrill
T5C0.0430
; #@! TA.AperFunction,Plated,PTH,ComponentDrill
T6C0.0433
; #@! TA.AperFunction,Plated,PTH,ComponentDrill
T7C0.0591
; #@! TA.AperFunction,Plated,PTH,ComponentDrill
T8C0.0866
%
G90
G05
T1
X2.9435Y1.0009
X3.6628Y0.3927
X3.6913Y0.4419
X3.937Y1.1417
X3.9409Y1.0433
X3.9409Y0.9449
X3.9409Y0.8465
T2
X3.2736Y0.2047
X3.3219Y0.1106
X3.3219Y0.0106
X3.3219Y-0.0894
X3.3219Y-0.1894
X3.3465Y0.2047
T3
X-0.15Y1.1614
X-0.15Y0.4921
X-0.15Y-0.1772
X0.15Y1.1614
X0.15Y0.4921
X0.15Y-0.1772
X0.5587Y1.1614
X0.5587Y0.4921
X0.5587Y-0.1772
X0.8587Y1.1614
X0.8587Y0.4921
X0.8587Y-0.1772
X1.2673Y1.1614
X1.2673Y0.4921
X1.2673Y-0.1772
X1.5673Y1.1614
X1.5673Y0.4921
X1.5673Y-0.1772
X1.976Y1.1614
X1.976Y0.4921
X1.976Y-0.1772
X2.276Y1.1614
X2.276Y0.4921
X2.276Y-0.1772
X2.6846Y1.1614
X2.6846Y0.4921
X2.6846Y-0.1772
X2.9846Y1.1614
X2.9846Y0.4921
X2.9846Y-0.1772
X4.102Y1.1614
X4.102Y0.4921
X4.102Y-0.1772
X4.402Y1.1614
X4.402Y0.4921
X4.402Y-0.1772
X4.8106Y1.1614
X4.8106Y0.4921
X4.8106Y-0.1772
X5.1106Y1.1614
X5.1106Y0.4921
X5.1106Y-0.1772
X5.5193Y1.1614
X5.5193Y0.4921
X5.5193Y-0.1772
X5.8193Y1.1614
X5.8193Y0.4921
X5.8193Y-0.1772
X6.228Y1.1614
X6.228Y0.4921
X6.228Y-0.1772
X6.528Y1.1614
X6.528Y0.4921
X6.528Y-0.1772
X6.9366Y1.1614
X6.9366Y0.4921
X6.9366Y-0.1772
X7.2366Y1.1614
X7.2366Y0.4921
X7.2366Y-0.1772
T4
X3.3929Y0.2992
X3.4929Y0.2992
X3.5929Y0.2992
X3.6929Y0.2992
T5
X3.2433Y1.4949
X3.2433Y1.3949
X3.2433Y1.2949
X3.2433Y1.1949
X3.2433Y1.0949
X3.2433Y0.9949
X3.2433Y0.8949
X3.2433Y0.7949
X3.2433Y0.6949
X3.2433Y0.5949
X3.2433Y0.4949
X3.2433Y0.3949
X3.8433Y1.4949
X3.8433Y1.3949
X3.8433Y1.2949
X3.8433Y1.1949
X3.8433Y1.0949
X3.8433Y0.9949
X3.8433Y0.8949
X3.8433Y0.7949
X3.8433Y0.6949
X3.8433Y0.5949
X3.8433Y0.4949
X3.8433Y0.3949
T6
X3.2433Y1.5949
X3.4547Y1.4173
X3.6319Y1.4173
X3.8433Y1.5949
T7
X0.0Y1.5709
X0.0Y0.9016
X0.0Y0.2323
X0.1969Y1.4882
X0.1969Y0.8189
X0.1969Y0.1496
X0.7087Y1.5709
X0.7087Y0.9016
X0.7087Y0.2323
X0.9055Y1.4882
X0.9055Y0.8189
X0.9055Y0.1496
X1.4173Y1.5709
X1.4173Y0.9016
X1.4173Y0.2323
X1.6142Y1.4882
X1.6142Y0.8189
X1.6142Y0.1496
X2.126Y1.5709
X2.126Y0.9016
X2.126Y0.2323
X2.3228Y1.4882
X2.3228Y0.8189
X2.3228Y0.1496
X2.8346Y1.5709
X2.8346Y0.9016
X2.8346Y0.2323
X3.0315Y1.4882
X3.0315Y0.8189
X3.0315Y0.1496
X4.252Y1.5709
X4.252Y0.9016
X4.252Y0.2323
X4.4488Y1.4882
X4.4488Y0.8189
X4.4488Y0.1496
X4.9606Y1.5709
X4.9606Y0.9016
X4.9606Y0.2323
X5.1575Y1.4882
X5.1575Y0.8189
X5.1575Y0.1496
X5.6693Y1.5709
X5.6693Y0.9016
X5.6693Y0.2323
X5.8661Y1.4882
X5.8661Y0.8189
X5.8661Y0.1496
X6.378Y1.5709
X6.378Y0.9016
X6.378Y0.2323
X6.5748Y1.4882
X6.5748Y0.8189
X6.5748Y0.1496
X7.0866Y1.5709
X7.0866Y0.9016
X7.0866Y0.2323
X7.2835Y1.4882
X7.2835Y0.8189
X7.2835Y0.1496
T8
X-0.3248Y1.6437
X-0.3248Y-0.3051
X2.4803Y1.6437
X2.4803Y-0.3051
X4.6063Y1.6437
X4.6063Y-0.3051
X7.4114Y1.6437
X7.4114Y-0.3051
T0
M30
