%TF.GenerationSoftware,KiCad,Pcbnew,(6.0.4)*%
%TF.CreationDate,2022-07-31T16:16:28-04:00*%
%TF.ProjectId,satpad,73617470-6164-42e6-9b69-6361645f7063,v1.0.0*%
%TF.SameCoordinates,Original*%
%TF.FileFunction,Legend,Bot*%
%TF.FilePolarity,Positive*%
%FSLAX46Y46*%
G04 Gerber Fmt 4.6, Leading zero omitted, Abs format (unit mm)*
G04 Created by KiCad (PCBNEW (6.0.4)) date 2022-07-31 16:16:28*
%MOMM*%
%LPD*%
G01*
G04 APERTURE LIST*
G04 Aperture macros list*
%AMRoundRect*
0 Rectangle with rounded corners*
0 $1 Rounding radius*
0 $2 $3 $4 $5 $6 $7 $8 $9 X,Y pos of 4 corners*
0 Add a 4 corners polygon primitive as box body*
4,1,4,$2,$3,$4,$5,$6,$7,$8,$9,$2,$3,0*
0 Add four circle primitives for the rounded corners*
1,1,$1+$1,$2,$3*
1,1,$1+$1,$4,$5*
1,1,$1+$1,$6,$7*
1,1,$1+$1,$8,$9*
0 Add four rect primitives between the rounded corners*
20,1,$1+$1,$2,$3,$4,$5,0*
20,1,$1+$1,$4,$5,$6,$7,0*
20,1,$1+$1,$6,$7,$8,$9,0*
20,1,$1+$1,$8,$9,$2,$3,0*%
G04 Aperture macros list end*
%ADD10C,0.300000*%
%ADD11C,0.150000*%
%ADD12C,0.100000*%
%ADD13R,1.752600X1.752600*%
%ADD14C,1.752600*%
%ADD15RoundRect,0.400000X-0.400000X-0.400000X0.400000X-0.400000X0.400000X0.400000X-0.400000X0.400000X0*%
G04 APERTURE END LIST*
D10*
X94714285Y16200357D02*
X94500000Y16128928D01*
X94142857Y16128928D01*
X94000000Y16200357D01*
X93928571Y16271785D01*
X93857142Y16414642D01*
X93857142Y16557500D01*
X93928571Y16700357D01*
X94000000Y16771785D01*
X94142857Y16843214D01*
X94428571Y16914642D01*
X94571428Y16986071D01*
X94642857Y17057500D01*
X94714285Y17200357D01*
X94714285Y17343214D01*
X94642857Y17486071D01*
X94571428Y17557500D01*
X94428571Y17628928D01*
X94071428Y17628928D01*
X93857142Y17557500D01*
X92571428Y16128928D02*
X92571428Y16914642D01*
X92642857Y17057500D01*
X92785714Y17128928D01*
X93071428Y17128928D01*
X93214285Y17057500D01*
X92571428Y16200357D02*
X92714285Y16128928D01*
X93071428Y16128928D01*
X93214285Y16200357D01*
X93285714Y16343214D01*
X93285714Y16486071D01*
X93214285Y16628928D01*
X93071428Y16700357D01*
X92714285Y16700357D01*
X92571428Y16771785D01*
X92071428Y17128928D02*
X91500000Y17128928D01*
X91857142Y17628928D02*
X91857142Y16343214D01*
X91785714Y16200357D01*
X91642857Y16128928D01*
X91500000Y16128928D01*
X91000000Y16128928D02*
X91000000Y17628928D01*
X90428571Y17628928D01*
X90285714Y17557500D01*
X90214285Y17486071D01*
X90142857Y17343214D01*
X90142857Y17128928D01*
X90214285Y16986071D01*
X90285714Y16914642D01*
X90428571Y16843214D01*
X91000000Y16843214D01*
X88857142Y16128928D02*
X88857142Y16914642D01*
X88928571Y17057500D01*
X89071428Y17128928D01*
X89357142Y17128928D01*
X89500000Y17057500D01*
X88857142Y16200357D02*
X89000000Y16128928D01*
X89357142Y16128928D01*
X89500000Y16200357D01*
X89571428Y16343214D01*
X89571428Y16486071D01*
X89500000Y16628928D01*
X89357142Y16700357D01*
X89000000Y16700357D01*
X88857142Y16771785D01*
X87500000Y16128928D02*
X87500000Y17628928D01*
X87500000Y16200357D02*
X87642857Y16128928D01*
X87928571Y16128928D01*
X88071428Y16200357D01*
X88142857Y16271785D01*
X88214285Y16414642D01*
X88214285Y16843214D01*
X88142857Y16986071D01*
X88071428Y17057500D01*
X87928571Y17128928D01*
X87642857Y17128928D01*
X87500000Y17057500D01*
X86785714Y16271785D02*
X86714285Y16200357D01*
X86785714Y16128928D01*
X86857142Y16200357D01*
X86785714Y16271785D01*
X86785714Y16128928D01*
X86142857Y17486071D02*
X86071428Y17557500D01*
X85928571Y17628928D01*
X85571428Y17628928D01*
X85428571Y17557500D01*
X85357142Y17486071D01*
X85285714Y17343214D01*
X85285714Y17200357D01*
X85357142Y16986071D01*
X86214285Y16128928D01*
X85285714Y16128928D01*
X95642857Y14713928D02*
X95642857Y13428214D01*
X95714285Y13285357D01*
X95857142Y13213928D01*
X95928571Y13213928D01*
X95642857Y15213928D02*
X95714285Y15142500D01*
X95642857Y15071071D01*
X95571428Y15142500D01*
X95642857Y15213928D01*
X95642857Y15071071D01*
X94285714Y13713928D02*
X94285714Y14499642D01*
X94357142Y14642500D01*
X94500000Y14713928D01*
X94785714Y14713928D01*
X94928571Y14642500D01*
X94285714Y13785357D02*
X94428571Y13713928D01*
X94785714Y13713928D01*
X94928571Y13785357D01*
X95000000Y13928214D01*
X95000000Y14071071D01*
X94928571Y14213928D01*
X94785714Y14285357D01*
X94428571Y14285357D01*
X94285714Y14356785D01*
X93642857Y13785357D02*
X93500000Y13713928D01*
X93214285Y13713928D01*
X93071428Y13785357D01*
X93000000Y13928214D01*
X93000000Y13999642D01*
X93071428Y14142500D01*
X93214285Y14213928D01*
X93428571Y14213928D01*
X93571428Y14285357D01*
X93642857Y14428214D01*
X93642857Y14499642D01*
X93571428Y14642500D01*
X93428571Y14713928D01*
X93214285Y14713928D01*
X93071428Y14642500D01*
X92142857Y13713928D02*
X92285714Y13785357D01*
X92357142Y13856785D01*
X92428571Y13999642D01*
X92428571Y14428214D01*
X92357142Y14571071D01*
X92285714Y14642500D01*
X92142857Y14713928D01*
X91928571Y14713928D01*
X91785714Y14642500D01*
X91714285Y14571071D01*
X91642857Y14428214D01*
X91642857Y13999642D01*
X91714285Y13856785D01*
X91785714Y13785357D01*
X91928571Y13713928D01*
X92142857Y13713928D01*
X91000000Y14713928D02*
X91000000Y13713928D01*
X91000000Y14571071D02*
X90928571Y14642500D01*
X90785714Y14713928D01*
X90571428Y14713928D01*
X90428571Y14642500D01*
X90357142Y14499642D01*
X90357142Y13713928D01*
X89642857Y13713928D02*
X89642857Y15213928D01*
X89000000Y13713928D02*
X89000000Y14499642D01*
X89071428Y14642500D01*
X89214285Y14713928D01*
X89428571Y14713928D01*
X89571428Y14642500D01*
X89642857Y14571071D01*
X87642857Y13713928D02*
X87642857Y14499642D01*
X87714285Y14642500D01*
X87857142Y14713928D01*
X88142857Y14713928D01*
X88285714Y14642500D01*
X87642857Y13785357D02*
X87785714Y13713928D01*
X88142857Y13713928D01*
X88285714Y13785357D01*
X88357142Y13928214D01*
X88357142Y14071071D01*
X88285714Y14213928D01*
X88142857Y14285357D01*
X87785714Y14285357D01*
X87642857Y14356785D01*
X87071428Y14713928D02*
X86285714Y14713928D01*
X87071428Y13713928D01*
X86285714Y13713928D01*
X85142857Y13785357D02*
X85285714Y13713928D01*
X85571428Y13713928D01*
X85714285Y13785357D01*
X85785714Y13928214D01*
X85785714Y14499642D01*
X85714285Y14642500D01*
X85571428Y14713928D01*
X85285714Y14713928D01*
X85142857Y14642500D01*
X85071428Y14499642D01*
X85071428Y14356785D01*
X85785714Y14213928D01*
X84214285Y13713928D02*
X84357142Y13785357D01*
X84428571Y13928214D01*
X84428571Y15213928D01*
D11*
X87369047Y33928571D02*
X88130952Y33928571D01*
X87750000Y33547619D02*
X87750000Y34309523D01*
X91869047Y33928571D02*
X92630952Y33928571D01*
D10*
%TO.C,G\u002A\u002A\u002A*%
X90842571Y26662000D02*
X90987714Y26734571D01*
X91205428Y26734571D01*
X91423142Y26662000D01*
X91568285Y26516857D01*
X91640857Y26371714D01*
X91713428Y26081428D01*
X91713428Y25863714D01*
X91640857Y25573428D01*
X91568285Y25428285D01*
X91423142Y25283142D01*
X91205428Y25210571D01*
X91060285Y25210571D01*
X90842571Y25283142D01*
X90770000Y25355714D01*
X90770000Y25863714D01*
X91060285Y25863714D01*
X89899142Y26734571D02*
X89899142Y26371714D01*
X90262000Y26516857D02*
X89899142Y26371714D01*
X89536285Y26516857D01*
X90116857Y26081428D02*
X89899142Y26371714D01*
X89681428Y26081428D01*
X88738000Y26734571D02*
X88738000Y26371714D01*
X89100857Y26516857D02*
X88738000Y26371714D01*
X88375142Y26516857D01*
X88955714Y26081428D02*
X88738000Y26371714D01*
X88520285Y26081428D01*
X87576857Y26734571D02*
X87576857Y26371714D01*
X87939714Y26516857D02*
X87576857Y26371714D01*
X87214000Y26516857D01*
X87794571Y26081428D02*
X87576857Y26371714D01*
X87359142Y26081428D01*
G36*
X92300000Y23600000D02*
G01*
X92280000Y23580000D01*
X92260000Y23600000D01*
X92280000Y23620000D01*
X92300000Y23600000D01*
G37*
G36*
X92346301Y22674735D02*
G01*
X92359248Y22673892D01*
X92570953Y22659361D01*
X92716350Y22646308D01*
X92808335Y22631789D01*
X92859804Y22612860D01*
X92883655Y22586579D01*
X92892783Y22550000D01*
X92894835Y22533672D01*
X92890828Y22492591D01*
X92856959Y22469889D01*
X92776514Y22459478D01*
X92632783Y22455268D01*
X92491456Y22449576D01*
X92342956Y22436931D01*
X92240000Y22420626D01*
X92185261Y22410267D01*
X92037308Y22405568D01*
X91885977Y22425783D01*
X91752097Y22465499D01*
X91656496Y22519303D01*
X91620000Y22581780D01*
X91644835Y22633705D01*
X91723720Y22668280D01*
X91862818Y22686117D01*
X92068291Y22688006D01*
X92346301Y22674735D01*
G37*
G36*
X91283650Y22509796D02*
G01*
X91400082Y22459959D01*
X91446522Y22434794D01*
X91524326Y22383052D01*
X91550982Y22349214D01*
X91537288Y22338254D01*
X91464137Y22315651D01*
X91350982Y22296285D01*
X91290414Y22288732D01*
X91179102Y22274675D01*
X91114664Y22266285D01*
X91080406Y22286144D01*
X91050663Y22357633D01*
X91047784Y22375292D01*
X91060699Y22449107D01*
X91136082Y22498377D01*
X91197678Y22516856D01*
X91283650Y22509796D01*
G37*
G36*
X92869250Y22178463D02*
G01*
X92900000Y22140000D01*
X92899542Y22130948D01*
X92882361Y22100000D01*
X92875945Y22101841D01*
X92840000Y22140000D01*
X92833750Y22155495D01*
X92857640Y22180000D01*
X92869250Y22178463D01*
G37*
G36*
X93265876Y22173836D02*
G01*
X93300000Y22130670D01*
X93278802Y22110636D01*
X93210000Y22114789D01*
X93146002Y22128789D01*
X93040000Y22141990D01*
X93001372Y22144086D01*
X92987292Y22153453D01*
X93046111Y22179808D01*
X93086246Y22191753D01*
X93184250Y22196205D01*
X93265876Y22173836D01*
G37*
G36*
X92722707Y22137754D02*
G01*
X92749689Y22106795D01*
X92757199Y22055468D01*
X92739935Y22031552D01*
X92713180Y22031238D01*
X92687813Y22102287D01*
X92683415Y22120032D01*
X92683095Y22160729D01*
X92722707Y22137754D01*
G37*
G36*
X92820000Y21880000D02*
G01*
X92800000Y21860000D01*
X92780000Y21880000D01*
X92800000Y21900000D01*
X92820000Y21880000D01*
G37*
G36*
X90580000Y32280000D02*
G01*
X90560000Y32260000D01*
X90540000Y32280000D01*
X90560000Y32300000D01*
X90580000Y32280000D01*
G37*
G36*
X90694385Y32254398D02*
G01*
X90780000Y32220000D01*
X90790004Y32213470D01*
X90819821Y32186662D01*
X90780000Y32181226D01*
X90745616Y32185603D01*
X90660000Y32220000D01*
X90649997Y32226531D01*
X90620180Y32253339D01*
X90660000Y32258775D01*
X90694385Y32254398D01*
G37*
G36*
X89294202Y31355446D02*
G01*
X89330843Y31307473D01*
X89330235Y31283168D01*
X89283343Y31284253D01*
X89252051Y31301393D01*
X89220000Y31347613D01*
X89220102Y31350579D01*
X89245981Y31373909D01*
X89294202Y31355446D01*
G37*
G36*
X93580000Y30880000D02*
G01*
X93560000Y30860000D01*
X93540000Y30880000D01*
X93560000Y30900000D01*
X93580000Y30880000D01*
G37*
G36*
X94109562Y30378838D02*
G01*
X94140000Y30340000D01*
X94138838Y30330439D01*
X94100000Y30300000D01*
X94090439Y30301163D01*
X94060000Y30340000D01*
X94061163Y30349562D01*
X94100000Y30380000D01*
X94109562Y30378838D01*
G37*
G36*
X88841885Y30608016D02*
G01*
X88907446Y30547109D01*
X88978925Y30457624D01*
X89036413Y30365628D01*
X89060000Y30297187D01*
X89068850Y30254726D01*
X89120000Y30180000D01*
X89152044Y30145798D01*
X89180000Y30081302D01*
X89199468Y30031635D01*
X89259057Y29960854D01*
X89312718Y29891151D01*
X89299767Y29839218D01*
X89215653Y29820000D01*
X89215608Y29820000D01*
X89124406Y29801903D01*
X89016965Y29758431D01*
X88956602Y29733101D01*
X88819659Y29692199D01*
X88668952Y29660996D01*
X88532140Y29644005D01*
X88294121Y29632878D01*
X88069570Y29643148D01*
X87880048Y29673386D01*
X87747115Y29722161D01*
X87727305Y29734336D01*
X87655123Y29789277D01*
X87620900Y29831438D01*
X87631738Y29847168D01*
X87694741Y29822815D01*
X87743560Y29803647D01*
X87792637Y29805971D01*
X87801109Y29808990D01*
X87861573Y29792478D01*
X87952618Y29744563D01*
X87972524Y29732543D01*
X88120114Y29667801D01*
X88251856Y29665515D01*
X88384327Y29729024D01*
X88534103Y29861666D01*
X88625336Y29966124D01*
X88746230Y30159580D01*
X88807890Y30348803D01*
X88803982Y30518377D01*
X88796002Y30587174D01*
X88813437Y30620000D01*
X88841885Y30608016D01*
G37*
G36*
X83398044Y29384684D02*
G01*
X83481627Y29338557D01*
X83503419Y29323601D01*
X83553172Y29277543D01*
X83537646Y29260264D01*
X83480116Y29273289D01*
X83405588Y29312393D01*
X83350291Y29359267D01*
X83341689Y29395023D01*
X83345598Y29397196D01*
X83398044Y29384684D01*
G37*
G36*
X93610231Y29295815D02*
G01*
X93632166Y29248107D01*
X93643452Y29180986D01*
X93620864Y29065922D01*
X93597796Y29023299D01*
X93545322Y28987764D01*
X93451615Y28995678D01*
X93447416Y28996526D01*
X93355760Y29019366D01*
X93307310Y29039358D01*
X93312158Y29057091D01*
X93360402Y29115573D01*
X93444393Y29196386D01*
X93526616Y29267955D01*
X93581090Y29304095D01*
X93610231Y29295815D01*
G37*
G36*
X84366667Y28886667D02*
G01*
X84372925Y28874636D01*
X84340000Y28860000D01*
X84318825Y28862887D01*
X84313334Y28886667D01*
X84319197Y28891454D01*
X84366667Y28886667D01*
G37*
G36*
X84529861Y28843854D02*
G01*
X84620000Y28800000D01*
X84626348Y28796326D01*
X84678453Y28756312D01*
X84657646Y28741418D01*
X84603448Y28752803D01*
X84517646Y28798728D01*
X84477927Y28834439D01*
X84478261Y28855281D01*
X84529861Y28843854D01*
G37*
G36*
X84804056Y28738160D02*
G01*
X84840000Y28700000D01*
X84846251Y28684506D01*
X84822361Y28660000D01*
X84810751Y28661538D01*
X84780000Y28700000D01*
X84780459Y28709053D01*
X84797640Y28740000D01*
X84804056Y28738160D01*
G37*
G36*
X84598498Y28370006D02*
G01*
X84621285Y28362451D01*
X84696429Y28325818D01*
X84716138Y28293750D01*
X84657218Y28261715D01*
X84571267Y28268313D01*
X84493721Y28304331D01*
X84460000Y28360536D01*
X84464620Y28381523D01*
X84503989Y28392736D01*
X84598498Y28370006D01*
G37*
G36*
X85347012Y28298507D02*
G01*
X85400000Y28260000D01*
X85406408Y28244646D01*
X85384722Y28220000D01*
X85372989Y28221494D01*
X85320000Y28260000D01*
X85313593Y28275355D01*
X85335279Y28300000D01*
X85347012Y28298507D01*
G37*
G36*
X85170726Y26619507D02*
G01*
X85227059Y26586584D01*
X85301980Y26517894D01*
X85350874Y26461545D01*
X85370292Y26412927D01*
X85338952Y26378506D01*
X85315197Y26364697D01*
X85219982Y26344925D01*
X85140000Y26400000D01*
X85112456Y26449000D01*
X85134756Y26513681D01*
X85154109Y26545584D01*
X85152987Y26593681D01*
X85146788Y26601848D01*
X85166361Y26620000D01*
X85170726Y26619507D01*
G37*
G36*
X85340000Y26180000D02*
G01*
X85337114Y26158825D01*
X85313334Y26153334D01*
X85308547Y26159197D01*
X85313334Y26206667D01*
X85325365Y26212925D01*
X85340000Y26180000D01*
G37*
G36*
X83547080Y25853848D02*
G01*
X83620000Y25820000D01*
X83647156Y25797731D01*
X83640000Y25781226D01*
X83612921Y25786153D01*
X83540000Y25820000D01*
X83512845Y25842270D01*
X83520000Y25858775D01*
X83547080Y25853848D01*
G37*
G36*
X83939945Y25671605D02*
G01*
X83987017Y25656345D01*
X84020000Y25635335D01*
X84019791Y25633083D01*
X83986378Y25618911D01*
X83926065Y25628842D01*
X83882306Y25656270D01*
X83885810Y25674239D01*
X83939945Y25671605D01*
G37*
G36*
X85603615Y25760144D02*
G01*
X85641265Y25703314D01*
X85658116Y25640000D01*
X85642662Y25633125D01*
X85599142Y25677080D01*
X85566766Y25731789D01*
X85562589Y25775922D01*
X85567294Y25779005D01*
X85603615Y25760144D01*
G37*
G36*
X85787483Y25394283D02*
G01*
X85833023Y25328792D01*
X85883038Y25224849D01*
X85923406Y25115037D01*
X85940000Y25031937D01*
X85937554Y25013367D01*
X85901950Y24990269D01*
X85810000Y25001495D01*
X85792488Y25005312D01*
X85690024Y25033778D01*
X85658006Y25060890D01*
X85688284Y25092759D01*
X85706804Y25109633D01*
X85730824Y25180584D01*
X85731400Y25306160D01*
X85748930Y25385609D01*
X85780607Y25399626D01*
X85787483Y25394283D01*
G37*
G36*
X86024417Y24731022D02*
G01*
X86080000Y24700000D01*
X86089350Y24676519D01*
X86057478Y24666070D01*
X85960000Y24700000D01*
X85922481Y24716613D01*
X85906354Y24732517D01*
X85967640Y24737189D01*
X86024417Y24731022D01*
G37*
G36*
X85140000Y24580000D02*
G01*
X85137114Y24558825D01*
X85113334Y24553334D01*
X85108547Y24559197D01*
X85113334Y24606667D01*
X85125365Y24612925D01*
X85140000Y24580000D01*
G37*
G36*
X84820000Y24340000D02*
G01*
X84838859Y24305736D01*
X84858775Y24240000D01*
X84851695Y24227984D01*
X84820000Y24260000D01*
X84801142Y24294265D01*
X84781226Y24360000D01*
X84788306Y24372017D01*
X84820000Y24340000D01*
G37*
G36*
X85919871Y24578643D02*
G01*
X86066499Y24495831D01*
X86149112Y24440367D01*
X86229317Y24379647D01*
X86260547Y24345831D01*
X86265964Y24311049D01*
X86285212Y24230000D01*
X86289899Y24180644D01*
X86250049Y24141435D01*
X86152756Y24154531D01*
X86000000Y24220000D01*
X85959585Y24239787D01*
X85857019Y24282836D01*
X85791543Y24300000D01*
X85772065Y24301248D01*
X85740000Y24316729D01*
X85736900Y24332965D01*
X85715721Y24396729D01*
X85710544Y24436145D01*
X85755721Y24460000D01*
X85787319Y24465201D01*
X85820000Y24500000D01*
X85818838Y24509562D01*
X85780000Y24540000D01*
X85770439Y24541163D01*
X85740000Y24580000D01*
X85750201Y24607848D01*
X85811384Y24616770D01*
X85919871Y24578643D01*
G37*
G36*
X86500000Y24210718D02*
G01*
X86549392Y24169053D01*
X86580000Y24110379D01*
X86577726Y24091772D01*
X86548000Y24060000D01*
X86507013Y24074971D01*
X86447360Y24135898D01*
X86420000Y24208339D01*
X86420378Y24218524D01*
X86439069Y24240406D01*
X86500000Y24210718D01*
G37*
G36*
X85427012Y22818507D02*
G01*
X85480000Y22780000D01*
X85486408Y22764646D01*
X85464722Y22740000D01*
X85452989Y22741494D01*
X85400000Y22780000D01*
X85393593Y22795355D01*
X85415279Y22820000D01*
X85427012Y22818507D01*
G37*
G36*
X85711291Y22658856D02*
G01*
X85740000Y22620000D01*
X85732368Y22600884D01*
X85677640Y22580000D01*
X85649068Y22585756D01*
X85640000Y22620000D01*
X85648188Y22630925D01*
X85702361Y22660000D01*
X85711291Y22658856D01*
G37*
G36*
X85780347Y22420921D02*
G01*
X85814000Y22378000D01*
X85816125Y22358582D01*
X85782000Y22346000D01*
X85760403Y22356898D01*
X85737859Y22396905D01*
X85769000Y22423000D01*
X85780347Y22420921D01*
G37*
G36*
X86247979Y21725890D02*
G01*
X86322355Y21677794D01*
X86366167Y21641640D01*
X86366415Y21633103D01*
X86300000Y21663212D01*
X86216941Y21705004D01*
X86180495Y21732186D01*
X86205689Y21740000D01*
X86247979Y21725890D01*
G37*
G36*
X94360247Y24702810D02*
G01*
X94302372Y24239075D01*
X94223468Y23740000D01*
X94182494Y23496650D01*
X94125303Y23132215D01*
X94111222Y23042489D01*
X94055850Y22637669D01*
X94013890Y22263178D01*
X93982858Y21900000D01*
X93952608Y21516680D01*
X93901967Y20961646D01*
X93842424Y20385192D01*
X93777210Y19820000D01*
X93751556Y19651827D01*
X93691394Y19423489D01*
X93595406Y19200000D01*
X93531381Y19077254D01*
X93444490Y18940262D01*
X93348158Y18838819D01*
X93220593Y18751636D01*
X93040000Y18657422D01*
X93035841Y18655389D01*
X92935505Y18608469D01*
X92848455Y18576433D01*
X92756035Y18556514D01*
X92639590Y18545948D01*
X92480464Y18541970D01*
X92260000Y18541815D01*
X92051953Y18545460D01*
X91760726Y18557290D01*
X91470195Y18575237D01*
X91220000Y18597190D01*
X91200181Y18599302D01*
X91010764Y18618089D01*
X90852828Y18631327D01*
X90742372Y18637823D01*
X90695395Y18636380D01*
X90666387Y18631257D01*
X90564687Y18641910D01*
X90408282Y18673912D01*
X90210153Y18723707D01*
X89983279Y18787739D01*
X89740642Y18862450D01*
X89495223Y18944284D01*
X89260000Y19029684D01*
X89197048Y19055294D01*
X89045184Y19123537D01*
X88855366Y19214224D01*
X88641357Y19320228D01*
X88416920Y19434423D01*
X88195817Y19549683D01*
X87991811Y19658883D01*
X87818665Y19754895D01*
X87690140Y19830595D01*
X87620000Y19878855D01*
X87605333Y19890152D01*
X87523123Y19941725D01*
X87397238Y20012778D01*
X87248404Y20091450D01*
X87226670Y20102763D01*
X87046818Y20207411D01*
X86868864Y20326935D01*
X86728404Y20437635D01*
X86713903Y20450621D01*
X86596495Y20555657D01*
X86441012Y20694633D01*
X86266000Y20850980D01*
X86090000Y21008127D01*
X86014340Y21076207D01*
X85849863Y21230413D01*
X85740182Y21345441D01*
X85678996Y21428294D01*
X85660000Y21485976D01*
X85674974Y21556349D01*
X85719669Y21577730D01*
X85778467Y21539326D01*
X85835382Y21444884D01*
X85876967Y21358695D01*
X85928517Y21290198D01*
X85966030Y21284684D01*
X85981273Y21347640D01*
X85982689Y21389171D01*
X85995712Y21414608D01*
X86035682Y21370000D01*
X86045062Y21357914D01*
X86100230Y21305446D01*
X86123466Y21326167D01*
X86114073Y21419637D01*
X86090146Y21539274D01*
X86225073Y21493755D01*
X86273017Y21474999D01*
X86403574Y21410544D01*
X86534956Y21332127D01*
X86596552Y21294043D01*
X86723843Y21228876D01*
X86825788Y21192843D01*
X86911847Y21167123D01*
X86963194Y21134834D01*
X86993257Y21114395D01*
X87072361Y21101331D01*
X87077426Y21101409D01*
X87131341Y21105685D01*
X87127338Y21127216D01*
X87063601Y21182925D01*
X86980391Y21247500D01*
X86903934Y21298594D01*
X86874324Y21317210D01*
X86853920Y21348825D01*
X86899791Y21360655D01*
X87003793Y21351952D01*
X87157780Y21321965D01*
X87165526Y21320168D01*
X87314593Y21285792D01*
X87402427Y21267761D01*
X87445176Y21264901D01*
X87458985Y21276039D01*
X87460000Y21300000D01*
X87439256Y21325231D01*
X87368001Y21340000D01*
X87305506Y21347555D01*
X87238001Y21377938D01*
X87197481Y21400777D01*
X87096993Y21438304D01*
X86965539Y21476911D01*
X86931720Y21486254D01*
X86754040Y21556620D01*
X86632791Y21644000D01*
X86534504Y21750053D01*
X86640604Y21723423D01*
X86647196Y21721800D01*
X86716000Y21714208D01*
X86716585Y21720804D01*
X92388547Y21720804D01*
X92393334Y21673334D01*
X92405365Y21667076D01*
X92420000Y21700000D01*
X92417114Y21721176D01*
X92393334Y21726667D01*
X92388547Y21720804D01*
X86716585Y21720804D01*
X86718501Y21742427D01*
X86671000Y21767861D01*
X86574330Y21764866D01*
X86541488Y21760692D01*
X86411776Y21778890D01*
X86294443Y21826667D01*
X91820000Y21826667D01*
X91854721Y21803129D01*
X91938241Y21793334D01*
X91941839Y21793349D01*
X92016672Y21803464D01*
X92035880Y21826667D01*
X92000532Y21847804D01*
X91917640Y21860000D01*
X91854198Y21851954D01*
X91820000Y21826667D01*
X86294443Y21826667D01*
X86239182Y21849169D01*
X86190207Y21874636D01*
X91667076Y21874636D01*
X91700000Y21860000D01*
X91721176Y21862887D01*
X91726667Y21886667D01*
X91720804Y21891454D01*
X91673334Y21886667D01*
X91667076Y21874636D01*
X86190207Y21874636D01*
X86135682Y21902989D01*
X86048070Y21959246D01*
X86028836Y21990013D01*
X86079118Y21992018D01*
X86200050Y21961987D01*
X86250407Y21948275D01*
X86352758Y21932347D01*
X86402786Y21944508D01*
X86406254Y21964764D01*
X86387893Y22043582D01*
X86345146Y22150294D01*
X86305233Y22229577D01*
X90225172Y22229577D01*
X90280911Y22154015D01*
X90338554Y22131197D01*
X90452882Y22115467D01*
X90583890Y22114323D01*
X90699780Y22127673D01*
X90768758Y22155424D01*
X90794982Y22160802D01*
X90862974Y22138409D01*
X90918497Y22121609D01*
X91040579Y22147542D01*
X91071133Y22160695D01*
X91139536Y22174177D01*
X91179816Y22140298D01*
X91180848Y22138642D01*
X91219839Y22105664D01*
X91276116Y22136777D01*
X91294016Y22149962D01*
X91363781Y22168137D01*
X91468745Y22142946D01*
X91568290Y22118983D01*
X91612914Y22138742D01*
X91632631Y22168107D01*
X91697066Y22172013D01*
X91786851Y22113801D01*
X91835737Y22075230D01*
X91856325Y22090417D01*
X91860000Y22173801D01*
X91864092Y22243776D01*
X91894423Y22290100D01*
X91973801Y22300000D01*
X92065721Y22280846D01*
X92157990Y22222222D01*
X92240764Y22165513D01*
X92354189Y22132222D01*
X92381590Y22128955D01*
X92455007Y22103119D01*
X92468247Y22050000D01*
X92474633Y22002837D01*
X92538247Y21980000D01*
X92596699Y21967725D01*
X92617884Y21928244D01*
X92571986Y21886667D01*
X92570000Y21884868D01*
X92553797Y21852649D01*
X92579876Y21826667D01*
X92610000Y21796656D01*
X92648206Y21764752D01*
X92693352Y21706066D01*
X92692940Y21700000D01*
X92690939Y21670573D01*
X92637095Y21675581D01*
X92594880Y21679845D01*
X92587629Y21629932D01*
X92603257Y21593190D01*
X92660534Y21556165D01*
X92696970Y21553530D01*
X92783795Y21540724D01*
X92814617Y21513421D01*
X92808227Y21459297D01*
X92806645Y21403878D01*
X92846418Y21319297D01*
X92850391Y21315583D01*
X92939726Y21276644D01*
X93072858Y21264641D01*
X93154528Y21268112D01*
X93298794Y21287084D01*
X93407997Y21329382D01*
X93513070Y21404859D01*
X93529603Y21418506D01*
X93608659Y21476475D01*
X93656649Y21500000D01*
X93684692Y21520273D01*
X93727777Y21591483D01*
X93764479Y21683967D01*
X93780000Y21765837D01*
X93779583Y21773805D01*
X93758676Y21856918D01*
X93715945Y21962897D01*
X93691392Y22018346D01*
X93672462Y22094683D01*
X93680428Y22180576D01*
X93715223Y22308943D01*
X93718822Y22320967D01*
X93793036Y22584143D01*
X93850215Y22817080D01*
X93886993Y23004773D01*
X93900000Y23132215D01*
X93896233Y23187019D01*
X93857663Y23355677D01*
X93787766Y23543354D01*
X93699437Y23718608D01*
X93605574Y23850000D01*
X93569204Y23887645D01*
X93476508Y23960674D01*
X93395468Y23973666D01*
X93303400Y23932841D01*
X93288092Y23924431D01*
X93218060Y23907565D01*
X93110373Y23912301D01*
X92945439Y23938974D01*
X92858295Y23955062D01*
X92736562Y23971615D01*
X92643305Y23967044D01*
X92545844Y23937747D01*
X92411496Y23880123D01*
X92360506Y23856900D01*
X92007251Y23661256D01*
X91941392Y23624781D01*
X91701327Y23440000D01*
X91580000Y23346613D01*
X91497515Y23275094D01*
X91384578Y23186739D01*
X91300000Y23131481D01*
X91262616Y23111347D01*
X91155763Y23047061D01*
X91012495Y22952802D01*
X90823690Y22822467D01*
X90580222Y22649953D01*
X90487167Y22580914D01*
X90326940Y22440773D01*
X90240061Y22324411D01*
X90225172Y22229577D01*
X86305233Y22229577D01*
X86290443Y22258957D01*
X86236217Y22343628D01*
X86194898Y22378361D01*
X86160856Y22390028D01*
X86097470Y22443049D01*
X86066286Y22497439D01*
X86093927Y22536247D01*
X86117096Y22564417D01*
X86113866Y22643198D01*
X86103669Y22671899D01*
X86104861Y22698211D01*
X86153478Y22664300D01*
X86199457Y22634145D01*
X86240851Y22627517D01*
X86245835Y22642296D01*
X86235919Y22710529D01*
X86205630Y22806345D01*
X86165267Y22903539D01*
X86125132Y22975905D01*
X86095526Y22997235D01*
X86091062Y22995682D01*
X86052808Y23024693D01*
X86003555Y23103084D01*
X85954411Y23207702D01*
X85916483Y23315390D01*
X85900879Y23402994D01*
X85900529Y23410091D01*
X85898640Y23420000D01*
X86000000Y23420000D01*
X86008210Y23408030D01*
X86042361Y23380000D01*
X86046353Y23381040D01*
X86060000Y23420000D01*
X86058373Y23430964D01*
X86045697Y23440000D01*
X86660000Y23440000D01*
X86680000Y23420000D01*
X86700000Y23440000D01*
X86680000Y23460000D01*
X86660000Y23440000D01*
X86045697Y23440000D01*
X86017640Y23460000D01*
X86003172Y23456860D01*
X86000000Y23420000D01*
X85898640Y23420000D01*
X85884194Y23495800D01*
X85848415Y23627586D01*
X85800000Y23780001D01*
X85791012Y23806429D01*
X85740649Y23955759D01*
X85712855Y24044593D01*
X85704835Y24086308D01*
X85713795Y24094281D01*
X85736942Y24081891D01*
X85757036Y24055834D01*
X85797833Y23969795D01*
X85841859Y23849530D01*
X85847006Y23833846D01*
X85895787Y23702099D01*
X85938393Y23613992D01*
X85968554Y23580310D01*
X85980000Y23611841D01*
X85970150Y23662713D01*
X85939755Y23768920D01*
X85895975Y23902482D01*
X85858601Y24022314D01*
X85835923Y24122285D01*
X85836477Y24169810D01*
X85841029Y24172577D01*
X85899080Y24167142D01*
X85990663Y24132509D01*
X86117682Y24081259D01*
X86246271Y24043016D01*
X86354177Y23993630D01*
X86423485Y23887677D01*
X86425736Y23882122D01*
X86478908Y23769400D01*
X86540723Y23662605D01*
X86599853Y23578031D01*
X86644967Y23531970D01*
X86664737Y23540715D01*
X86668369Y23596107D01*
X86663752Y23651738D01*
X86641912Y23730000D01*
X86634123Y23798643D01*
X86675492Y23820000D01*
X86727035Y23782876D01*
X86762640Y23680000D01*
X86786429Y23592060D01*
X86820293Y23544862D01*
X86848321Y23571390D01*
X86860000Y23672458D01*
X86855028Y23702361D01*
X87064135Y23702361D01*
X87101159Y23658438D01*
X87121755Y23646110D01*
X87194936Y23622886D01*
X87220000Y23661256D01*
X87191861Y23706196D01*
X87126457Y23734272D01*
X87069434Y23722767D01*
X87064135Y23702361D01*
X86855028Y23702361D01*
X86842678Y23776646D01*
X86778442Y23892458D01*
X86696884Y23980000D01*
X86798442Y23980000D01*
X86815817Y23980364D01*
X86882708Y24002878D01*
X86900000Y24075556D01*
X86911885Y24136787D01*
X86950000Y24169255D01*
X86969161Y24169102D01*
X87059245Y24171503D01*
X87180000Y24176976D01*
X87360000Y24186555D01*
X87150000Y24282498D01*
X87148517Y24283177D01*
X87021116Y24350633D01*
X86951588Y24406991D01*
X86945238Y24445648D01*
X87007372Y24460000D01*
X87028715Y24457766D01*
X87122250Y24431822D01*
X87237372Y24386131D01*
X87392039Y24322632D01*
X87620157Y24248491D01*
X87836014Y24198398D01*
X88010912Y24180000D01*
X88035671Y24179619D01*
X88167100Y24167548D01*
X88269999Y24143803D01*
X88345840Y24120824D01*
X88466427Y24096165D01*
X88594145Y24078616D01*
X88707599Y24070321D01*
X88785394Y24073424D01*
X88806137Y24090071D01*
X88788297Y24104355D01*
X88707520Y24133888D01*
X88590492Y24157464D01*
X88587365Y24157909D01*
X88450213Y24184375D01*
X88275414Y24227153D01*
X88100000Y24277201D01*
X88090366Y24280186D01*
X87920186Y24332004D01*
X87758818Y24379707D01*
X87640000Y24413313D01*
X87573252Y24431478D01*
X87302444Y24509986D01*
X87086365Y24581020D01*
X86932917Y24641818D01*
X86850000Y24689616D01*
X86801107Y24769402D01*
X86780000Y24923839D01*
X86778871Y24967442D01*
X86766411Y25067051D01*
X86744612Y25117150D01*
X86714938Y25168517D01*
X86691392Y25265471D01*
X86680945Y25371332D01*
X86689567Y25450000D01*
X86703520Y25471416D01*
X86768560Y25500000D01*
X86804462Y25512101D01*
X86802696Y25530511D01*
X91700150Y25530511D01*
X91700875Y25528465D01*
X91746655Y25518220D01*
X91849604Y25516580D01*
X91990000Y25523990D01*
X92128509Y25531201D01*
X92305297Y25521498D01*
X92455030Y25483479D01*
X92461078Y25481297D01*
X92639724Y25430569D01*
X92755769Y25429297D01*
X92809557Y25477570D01*
X92801435Y25575481D01*
X92782920Y25606096D01*
X92695766Y25664178D01*
X92561808Y25708417D01*
X92403464Y25732589D01*
X92243153Y25730471D01*
X92219326Y25727350D01*
X92090893Y25700346D01*
X91952876Y25659102D01*
X91827157Y25611675D01*
X91735620Y25566125D01*
X91700150Y25530511D01*
X86802696Y25530511D01*
X86798909Y25570000D01*
X86778533Y25625753D01*
X86742083Y25776616D01*
X86711516Y25984092D01*
X86685811Y26255960D01*
X86663949Y26600000D01*
X86658606Y26692975D01*
X86643274Y26904958D01*
X86625789Y27088158D01*
X86607918Y27225523D01*
X86591426Y27300000D01*
X86565895Y27382392D01*
X86533625Y27518612D01*
X86503531Y27673712D01*
X86492176Y27742681D01*
X86476809Y27874839D01*
X86481646Y27956820D01*
X86506886Y28008297D01*
X86520725Y28027359D01*
X86620000Y28027359D01*
X86639820Y27999319D01*
X86710000Y27969807D01*
X86772021Y27953930D01*
X86870000Y27920865D01*
X86910694Y27910821D01*
X86940000Y27933025D01*
X86924829Y27961622D01*
X86860000Y27997305D01*
X86810461Y28011359D01*
X86700000Y28042696D01*
X86651598Y28048625D01*
X86620000Y28027359D01*
X86520725Y28027359D01*
X86523526Y28031217D01*
X86527117Y28080955D01*
X86468703Y28140997D01*
X86409742Y28211756D01*
X86380000Y28303263D01*
X86366181Y28373355D01*
X86312926Y28467818D01*
X86303405Y28479224D01*
X86269854Y28549338D01*
X86254318Y28659092D01*
X86253543Y28828251D01*
X86257855Y28968395D01*
X86265703Y29069652D01*
X86282239Y29123247D01*
X86313322Y29146466D01*
X86364808Y29156591D01*
X86397831Y29168208D01*
X86428990Y29221268D01*
X86438473Y29333589D01*
X86438973Y29356134D01*
X86454696Y29462454D01*
X86490000Y29500000D01*
X86508417Y29502828D01*
X86540000Y29540000D01*
X86524999Y29563250D01*
X86460000Y29580000D01*
X86454316Y29580066D01*
X86389395Y29598963D01*
X86392274Y29636802D01*
X86462398Y29672217D01*
X86512509Y29694888D01*
X86529465Y29745051D01*
X86516747Y29846883D01*
X86488698Y30000000D01*
X86576008Y29922300D01*
X86670080Y29869042D01*
X86839514Y29841288D01*
X86970409Y29825209D01*
X87107855Y29755871D01*
X87194326Y29698681D01*
X87286901Y29669603D01*
X87296415Y29668864D01*
X87396831Y29649144D01*
X87545094Y29609012D01*
X87717965Y29555900D01*
X87892209Y29497237D01*
X88044587Y29440457D01*
X88151864Y29392988D01*
X88164670Y29386687D01*
X88298444Y29346139D01*
X88440000Y29333929D01*
X88562683Y29344112D01*
X88719432Y29363790D01*
X88880491Y29388945D01*
X89024906Y29415972D01*
X89131727Y29441266D01*
X89180000Y29461225D01*
X89217434Y29483013D01*
X89311946Y29521936D01*
X89440000Y29567136D01*
X89479415Y29580433D01*
X89602913Y29630596D01*
X89668641Y29679200D01*
X89693357Y29737518D01*
X89687023Y29807782D01*
X89659199Y29936411D01*
X89614307Y30104064D01*
X89556900Y30292232D01*
X89508609Y30446543D01*
X89460276Y30622954D01*
X89442119Y30730248D01*
X89453544Y30771182D01*
X89495567Y30800474D01*
X89486726Y30840587D01*
X89421256Y30860000D01*
X89372039Y30870671D01*
X89365535Y30920000D01*
X89368120Y30958999D01*
X89314280Y30981077D01*
X89281323Y30990118D01*
X89298398Y31024898D01*
X89376222Y31095124D01*
X89425716Y31139086D01*
X89486013Y31219298D01*
X89490017Y31293858D01*
X89482401Y31329391D01*
X89496163Y31364069D01*
X89566010Y31354918D01*
X89657609Y31354734D01*
X89759254Y31419299D01*
X89762083Y31421927D01*
X89841754Y31474795D01*
X89901512Y31479067D01*
X89928652Y31471585D01*
X89981905Y31503082D01*
X90036406Y31535444D01*
X90141337Y31548012D01*
X90264655Y31539138D01*
X90376471Y31511176D01*
X90446895Y31466477D01*
X90465185Y31443188D01*
X90492464Y31425931D01*
X90498728Y31482458D01*
X90512926Y31539996D01*
X90566266Y31631187D01*
X90637272Y31707816D01*
X90702321Y31740000D01*
X90722249Y31765636D01*
X90716426Y31840000D01*
X90713681Y31851455D01*
X90711764Y31920840D01*
X90756426Y31940000D01*
X90763833Y31939801D01*
X90803026Y31915994D01*
X90796426Y31840000D01*
X90795886Y31837828D01*
X90790631Y31762004D01*
X90831385Y31740000D01*
X90883471Y31759211D01*
X90926087Y31845251D01*
X90940000Y32003272D01*
X90939968Y32008847D01*
X90925497Y32104589D01*
X90890000Y32143158D01*
X90860524Y32148419D01*
X90890000Y32166492D01*
X90908710Y32176861D01*
X90940000Y32225266D01*
X90943332Y32243165D01*
X90971839Y32321932D01*
X91020000Y32429446D01*
X91027117Y32444178D01*
X91077607Y32551713D01*
X91093986Y32603829D01*
X91076846Y32615612D01*
X91026780Y32602152D01*
X90987660Y32595437D01*
X90970446Y32618529D01*
X90972852Y32687782D01*
X90992297Y32819457D01*
X91008862Y32910518D01*
X91041366Y33022625D01*
X91077070Y33059304D01*
X91117812Y33023542D01*
X91119887Y33018719D01*
X91111269Y32955919D01*
X91070229Y32864914D01*
X91030681Y32788321D01*
X91024348Y32731942D01*
X91060294Y32682564D01*
X91104120Y32654103D01*
X91191073Y32643581D01*
X91267438Y32672791D01*
X91300613Y32734666D01*
X91302936Y32760852D01*
X91319954Y32770464D01*
X91347122Y32725112D01*
X91376851Y32640121D01*
X91401552Y32530819D01*
X91411239Y32482528D01*
X91446181Y32402862D01*
X91503516Y32380001D01*
X91565554Y32360641D01*
X91571892Y32301713D01*
X91513801Y32213150D01*
X91485073Y32180163D01*
X91470237Y32146760D01*
X91511332Y32140000D01*
X91556612Y32116844D01*
X91567531Y32031745D01*
X91566798Y32015959D01*
X91588863Y31929954D01*
X91672074Y31868568D01*
X91673255Y31867991D01*
X91771280Y31835818D01*
X91837189Y31857667D01*
X91883444Y31875127D01*
X91911370Y31820844D01*
X91920794Y31794757D01*
X91971227Y31751819D01*
X92076256Y31740001D01*
X92084529Y31740060D01*
X92183722Y31754413D01*
X92221331Y31790000D01*
X92240375Y31842015D01*
X92291110Y31920333D01*
X92350442Y31989943D01*
X92395072Y32020001D01*
X92397417Y32016701D01*
X92402830Y31960136D01*
X92404484Y31847731D01*
X92402837Y31698110D01*
X92398347Y31529901D01*
X92391474Y31361729D01*
X92382676Y31212220D01*
X92372412Y31100000D01*
X92376096Y31028280D01*
X92422778Y30999333D01*
X92424012Y30999307D01*
X92500873Y30977000D01*
X92596692Y30925847D01*
X92625099Y30907524D01*
X92680610Y30880538D01*
X92736299Y30880903D01*
X92815587Y30912144D01*
X92941895Y30977783D01*
X93047277Y31030066D01*
X93180796Y31076445D01*
X93277104Y31077153D01*
X93322685Y31057704D01*
X93410626Y30972435D01*
X93466760Y30855743D01*
X93471824Y30740893D01*
X93467871Y30691713D01*
X93495335Y30660001D01*
X93514109Y30665135D01*
X93540000Y30715103D01*
X93549170Y30751899D01*
X93600000Y30820001D01*
X93655979Y30849632D01*
X93720000Y30820001D01*
X93752609Y30787168D01*
X93780000Y30734515D01*
X93772085Y30713496D01*
X93712897Y30659406D01*
X93620459Y30605645D01*
X93524364Y30567895D01*
X93454204Y30561840D01*
X93380824Y30565895D01*
X93248616Y30548226D01*
X93086742Y30512811D01*
X92918948Y30465679D01*
X92768984Y30412858D01*
X92660596Y30360376D01*
X92606280Y30322092D01*
X92502877Y30234899D01*
X92397825Y30133313D01*
X92306818Y30033836D01*
X92245547Y29952971D01*
X92229703Y29907221D01*
X92235550Y29895524D01*
X92268539Y29825459D01*
X92315806Y29722439D01*
X92323981Y29704846D01*
X92400645Y29558902D01*
X92483697Y29423153D01*
X92551890Y29316712D01*
X92571718Y29255422D01*
X92538630Y29225548D01*
X92450000Y29210523D01*
X92320000Y29195977D01*
X92540000Y29092047D01*
X92632618Y29046051D01*
X92784203Y28963251D01*
X92904529Y28888978D01*
X92926694Y28874821D01*
X93048842Y28811626D01*
X93211086Y28741846D01*
X93384529Y28678173D01*
X93439042Y28660009D01*
X93602901Y28605199D01*
X93741699Y28558480D01*
X93830000Y28528402D01*
X93906381Y28483900D01*
X93941309Y28425148D01*
X93963721Y28170770D01*
X94016126Y27933025D01*
X94037276Y27837077D01*
X94151560Y27533045D01*
X94195018Y27441807D01*
X94283251Y27250113D01*
X94347037Y27091824D01*
X94390190Y26948040D01*
X94416527Y26799864D01*
X94429863Y26628397D01*
X94434013Y26414742D01*
X94432791Y26140000D01*
X94423050Y25640509D01*
X94415103Y25477570D01*
X94399628Y25160267D01*
X94360247Y24702810D01*
G37*
D12*
%TO.C,D1*%
X250000Y-4500000D02*
X750000Y-4500000D01*
X250000Y-4900000D02*
X-350000Y-4500000D01*
X250000Y-4100000D02*
X250000Y-4900000D01*
X-350000Y-4500000D02*
X250000Y-4100000D01*
X-350000Y-4500000D02*
X-350000Y-5050000D01*
X-350000Y-4500000D02*
X-350000Y-3950000D01*
X-750000Y-4500000D02*
X-350000Y-4500000D01*
%TO.C,D2*%
X250000Y12500000D02*
X750000Y12500000D01*
X250000Y12100000D02*
X-350000Y12500000D01*
X250000Y12900000D02*
X250000Y12100000D01*
X-350000Y12500000D02*
X250000Y12900000D01*
X-350000Y12500000D02*
X-350000Y11950000D01*
X-350000Y12500000D02*
X-350000Y13050000D01*
X-750000Y12500000D02*
X-350000Y12500000D01*
%TO.C,D3*%
X250000Y29500000D02*
X750000Y29500000D01*
X250000Y29100000D02*
X-350000Y29500000D01*
X250000Y29900000D02*
X250000Y29100000D01*
X-350000Y29500000D02*
X250000Y29900000D01*
X-350000Y29500000D02*
X-350000Y28950000D01*
X-350000Y29500000D02*
X-350000Y30050000D01*
X-750000Y29500000D02*
X-350000Y29500000D01*
%TO.C,D4*%
X18250000Y-4500000D02*
X18750000Y-4500000D01*
X18250000Y-4900000D02*
X17650000Y-4500000D01*
X18250000Y-4100000D02*
X18250000Y-4900000D01*
X17650000Y-4500000D02*
X18250000Y-4100000D01*
X17650000Y-4500000D02*
X17650000Y-5050000D01*
X17650000Y-4500000D02*
X17650000Y-3950000D01*
X17250000Y-4500000D02*
X17650000Y-4500000D01*
%TO.C,D5*%
X18250000Y12500000D02*
X18750000Y12500000D01*
X18250000Y12100000D02*
X17650000Y12500000D01*
X18250000Y12900000D02*
X18250000Y12100000D01*
X17650000Y12500000D02*
X18250000Y12900000D01*
X17650000Y12500000D02*
X17650000Y11950000D01*
X17650000Y12500000D02*
X17650000Y13050000D01*
X17250000Y12500000D02*
X17650000Y12500000D01*
%TO.C,D6*%
X18250000Y29500000D02*
X18750000Y29500000D01*
X18250000Y29100000D02*
X17650000Y29500000D01*
X18250000Y29900000D02*
X18250000Y29100000D01*
X17650000Y29500000D02*
X18250000Y29900000D01*
X17650000Y29500000D02*
X17650000Y28950000D01*
X17650000Y29500000D02*
X17650000Y30050000D01*
X17250000Y29500000D02*
X17650000Y29500000D01*
%TO.C,D7*%
X36250000Y-4500000D02*
X36750000Y-4500000D01*
X36250000Y-4900000D02*
X35650000Y-4500000D01*
X36250000Y-4100000D02*
X36250000Y-4900000D01*
X35650000Y-4500000D02*
X36250000Y-4100000D01*
X35650000Y-4500000D02*
X35650000Y-5050000D01*
X35650000Y-4500000D02*
X35650000Y-3950000D01*
X35250000Y-4500000D02*
X35650000Y-4500000D01*
%TO.C,D8*%
X36250000Y12500000D02*
X36750000Y12500000D01*
X36250000Y12100000D02*
X35650000Y12500000D01*
X36250000Y12900000D02*
X36250000Y12100000D01*
X35650000Y12500000D02*
X36250000Y12900000D01*
X35650000Y12500000D02*
X35650000Y11950000D01*
X35650000Y12500000D02*
X35650000Y13050000D01*
X35250000Y12500000D02*
X35650000Y12500000D01*
%TO.C,D9*%
X36250000Y29500000D02*
X36750000Y29500000D01*
X36250000Y29100000D02*
X35650000Y29500000D01*
X36250000Y29900000D02*
X36250000Y29100000D01*
X35650000Y29500000D02*
X36250000Y29900000D01*
X35650000Y29500000D02*
X35650000Y28950000D01*
X35650000Y29500000D02*
X35650000Y30050000D01*
X35250000Y29500000D02*
X35650000Y29500000D01*
%TO.C,D10*%
X54250000Y-4500000D02*
X54750000Y-4500000D01*
X54250000Y-4900000D02*
X53650000Y-4500000D01*
X54250000Y-4100000D02*
X54250000Y-4900000D01*
X53650000Y-4500000D02*
X54250000Y-4100000D01*
X53650000Y-4500000D02*
X53650000Y-5050000D01*
X53650000Y-4500000D02*
X53650000Y-3950000D01*
X53250000Y-4500000D02*
X53650000Y-4500000D01*
%TO.C,D11*%
X54250000Y12500000D02*
X54750000Y12500000D01*
X54250000Y12100000D02*
X53650000Y12500000D01*
X54250000Y12900000D02*
X54250000Y12100000D01*
X53650000Y12500000D02*
X54250000Y12900000D01*
X53650000Y12500000D02*
X53650000Y11950000D01*
X53650000Y12500000D02*
X53650000Y13050000D01*
X53250000Y12500000D02*
X53650000Y12500000D01*
%TO.C,D12*%
X54250000Y29500000D02*
X54750000Y29500000D01*
X54250000Y29100000D02*
X53650000Y29500000D01*
X54250000Y29900000D02*
X54250000Y29100000D01*
X53650000Y29500000D02*
X54250000Y29900000D01*
X53650000Y29500000D02*
X53650000Y28950000D01*
X53650000Y29500000D02*
X53650000Y30050000D01*
X53250000Y29500000D02*
X53650000Y29500000D01*
%TO.C,D13*%
X72250000Y-4500000D02*
X72750000Y-4500000D01*
X72250000Y-4900000D02*
X71650000Y-4500000D01*
X72250000Y-4100000D02*
X72250000Y-4900000D01*
X71650000Y-4500000D02*
X72250000Y-4100000D01*
X71650000Y-4500000D02*
X71650000Y-5050000D01*
X71650000Y-4500000D02*
X71650000Y-3950000D01*
X71250000Y-4500000D02*
X71650000Y-4500000D01*
%TO.C,D14*%
X72250000Y12500000D02*
X72750000Y12500000D01*
X72250000Y12100000D02*
X71650000Y12500000D01*
X72250000Y12900000D02*
X72250000Y12100000D01*
X71650000Y12500000D02*
X72250000Y12900000D01*
X71650000Y12500000D02*
X71650000Y11950000D01*
X71650000Y12500000D02*
X71650000Y13050000D01*
X71250000Y12500000D02*
X71650000Y12500000D01*
%TO.C,D15*%
X72250000Y29500000D02*
X72750000Y29500000D01*
X72250000Y29100000D02*
X71650000Y29500000D01*
X72250000Y29900000D02*
X72250000Y29100000D01*
X71650000Y29500000D02*
X72250000Y29900000D01*
X71650000Y29500000D02*
X71650000Y28950000D01*
X71650000Y29500000D02*
X71650000Y30050000D01*
X71250000Y29500000D02*
X71650000Y29500000D01*
%TO.C,D16*%
X180250000Y-4500000D02*
X180750000Y-4500000D01*
X180250000Y-4900000D02*
X179650000Y-4500000D01*
X180250000Y-4100000D02*
X180250000Y-4900000D01*
X179650000Y-4500000D02*
X180250000Y-4100000D01*
X179650000Y-4500000D02*
X179650000Y-5050000D01*
X179650000Y-4500000D02*
X179650000Y-3950000D01*
X179250000Y-4500000D02*
X179650000Y-4500000D01*
%TO.C,D17*%
X180250000Y12500000D02*
X180750000Y12500000D01*
X180250000Y12100000D02*
X179650000Y12500000D01*
X180250000Y12900000D02*
X180250000Y12100000D01*
X179650000Y12500000D02*
X180250000Y12900000D01*
X179650000Y12500000D02*
X179650000Y11950000D01*
X179650000Y12500000D02*
X179650000Y13050000D01*
X179250000Y12500000D02*
X179650000Y12500000D01*
%TO.C,D18*%
X180250000Y29500000D02*
X180750000Y29500000D01*
X180250000Y29100000D02*
X179650000Y29500000D01*
X180250000Y29900000D02*
X180250000Y29100000D01*
X179650000Y29500000D02*
X180250000Y29900000D01*
X179650000Y29500000D02*
X179650000Y28950000D01*
X179650000Y29500000D02*
X179650000Y30050000D01*
X179250000Y29500000D02*
X179650000Y29500000D01*
%TO.C,D19*%
X162250000Y-4500000D02*
X162750000Y-4500000D01*
X162250000Y-4900000D02*
X161650000Y-4500000D01*
X162250000Y-4100000D02*
X162250000Y-4900000D01*
X161650000Y-4500000D02*
X162250000Y-4100000D01*
X161650000Y-4500000D02*
X161650000Y-5050000D01*
X161650000Y-4500000D02*
X161650000Y-3950000D01*
X161250000Y-4500000D02*
X161650000Y-4500000D01*
%TO.C,D20*%
X162250000Y12500000D02*
X162750000Y12500000D01*
X162250000Y12100000D02*
X161650000Y12500000D01*
X162250000Y12900000D02*
X162250000Y12100000D01*
X161650000Y12500000D02*
X162250000Y12900000D01*
X161650000Y12500000D02*
X161650000Y11950000D01*
X161650000Y12500000D02*
X161650000Y13050000D01*
X161250000Y12500000D02*
X161650000Y12500000D01*
%TO.C,D21*%
X162250000Y29500000D02*
X162750000Y29500000D01*
X162250000Y29100000D02*
X161650000Y29500000D01*
X162250000Y29900000D02*
X162250000Y29100000D01*
X161650000Y29500000D02*
X162250000Y29900000D01*
X161650000Y29500000D02*
X161650000Y28950000D01*
X161650000Y29500000D02*
X161650000Y30050000D01*
X161250000Y29500000D02*
X161650000Y29500000D01*
%TO.C,D22*%
X144250000Y-4500000D02*
X144750000Y-4500000D01*
X144250000Y-4900000D02*
X143650000Y-4500000D01*
X144250000Y-4100000D02*
X144250000Y-4900000D01*
X143650000Y-4500000D02*
X144250000Y-4100000D01*
X143650000Y-4500000D02*
X143650000Y-5050000D01*
X143650000Y-4500000D02*
X143650000Y-3950000D01*
X143250000Y-4500000D02*
X143650000Y-4500000D01*
%TO.C,D23*%
X144250000Y12500000D02*
X144750000Y12500000D01*
X144250000Y12100000D02*
X143650000Y12500000D01*
X144250000Y12900000D02*
X144250000Y12100000D01*
X143650000Y12500000D02*
X144250000Y12900000D01*
X143650000Y12500000D02*
X143650000Y11950000D01*
X143650000Y12500000D02*
X143650000Y13050000D01*
X143250000Y12500000D02*
X143650000Y12500000D01*
%TO.C,D24*%
X144250000Y29500000D02*
X144750000Y29500000D01*
X144250000Y29100000D02*
X143650000Y29500000D01*
X144250000Y29900000D02*
X144250000Y29100000D01*
X143650000Y29500000D02*
X144250000Y29900000D01*
X143650000Y29500000D02*
X143650000Y28950000D01*
X143650000Y29500000D02*
X143650000Y30050000D01*
X143250000Y29500000D02*
X143650000Y29500000D01*
%TO.C,D25*%
X126250000Y-4500000D02*
X126750000Y-4500000D01*
X126250000Y-4900000D02*
X125650000Y-4500000D01*
X126250000Y-4100000D02*
X126250000Y-4900000D01*
X125650000Y-4500000D02*
X126250000Y-4100000D01*
X125650000Y-4500000D02*
X125650000Y-5050000D01*
X125650000Y-4500000D02*
X125650000Y-3950000D01*
X125250000Y-4500000D02*
X125650000Y-4500000D01*
%TO.C,D26*%
X126250000Y12500000D02*
X126750000Y12500000D01*
X126250000Y12100000D02*
X125650000Y12500000D01*
X126250000Y12900000D02*
X126250000Y12100000D01*
X125650000Y12500000D02*
X126250000Y12900000D01*
X125650000Y12500000D02*
X125650000Y11950000D01*
X125650000Y12500000D02*
X125650000Y13050000D01*
X125250000Y12500000D02*
X125650000Y12500000D01*
%TO.C,D27*%
X126250000Y29500000D02*
X126750000Y29500000D01*
X126250000Y29100000D02*
X125650000Y29500000D01*
X126250000Y29900000D02*
X126250000Y29100000D01*
X125650000Y29500000D02*
X126250000Y29900000D01*
X125650000Y29500000D02*
X125650000Y28950000D01*
X125650000Y29500000D02*
X125650000Y30050000D01*
X125250000Y29500000D02*
X125650000Y29500000D01*
%TO.C,D28*%
X108250000Y-4500000D02*
X108750000Y-4500000D01*
X108250000Y-4900000D02*
X107650000Y-4500000D01*
X108250000Y-4100000D02*
X108250000Y-4900000D01*
X107650000Y-4500000D02*
X108250000Y-4100000D01*
X107650000Y-4500000D02*
X107650000Y-5050000D01*
X107650000Y-4500000D02*
X107650000Y-3950000D01*
X107250000Y-4500000D02*
X107650000Y-4500000D01*
%TO.C,D29*%
X108250000Y12500000D02*
X108750000Y12500000D01*
X108250000Y12100000D02*
X107650000Y12500000D01*
X108250000Y12900000D02*
X108250000Y12100000D01*
X107650000Y12500000D02*
X108250000Y12900000D01*
X107650000Y12500000D02*
X107650000Y11950000D01*
X107650000Y12500000D02*
X107650000Y13050000D01*
X107250000Y12500000D02*
X107650000Y12500000D01*
%TO.C,D30*%
X108250000Y29500000D02*
X108750000Y29500000D01*
X108250000Y29100000D02*
X107650000Y29500000D01*
X108250000Y29900000D02*
X108250000Y29100000D01*
X107650000Y29500000D02*
X108250000Y29900000D01*
X107650000Y29500000D02*
X107650000Y28950000D01*
X107650000Y29500000D02*
X107650000Y30050000D01*
X107250000Y29500000D02*
X107650000Y29500000D01*
%TD*%
D13*
%TO.C,MCU1*%
X82380000Y37970000D03*
D14*
X82380000Y35430000D03*
X82380000Y32890000D03*
X82380000Y30350000D03*
X82380000Y27810000D03*
X82380000Y25270000D03*
X82380000Y22730000D03*
X82380000Y20190000D03*
X82380000Y17650000D03*
X82380000Y15110000D03*
X82380000Y12570000D03*
X82380000Y10030000D03*
X97620000Y37970000D03*
X97620000Y35430000D03*
X97620000Y32890000D03*
X97620000Y30350000D03*
X97620000Y27810000D03*
X97620000Y25270000D03*
X97620000Y22730000D03*
X97620000Y20190000D03*
X97620000Y17650000D03*
X97620000Y15110000D03*
X97620000Y12570000D03*
X97620000Y10030000D03*
D15*
X82380000Y40510000D03*
X97620000Y40510000D03*
%TD*%
M02*
