%TF.GenerationSoftware,KiCad,Pcbnew,(6.0.4)*%
%TF.CreationDate,2022-07-31T16:16:28-04:00*%
%TF.ProjectId,satpad,73617470-6164-42e6-9b69-6361645f7063,v1.0.0*%
%TF.SameCoordinates,Original*%
%TF.FileFunction,Copper,L2,Bot*%
%TF.FilePolarity,Positive*%
%FSLAX46Y46*%
G04 Gerber Fmt 4.6, Leading zero omitted, Abs format (unit mm)*
G04 Created by KiCad (PCBNEW (6.0.4)) date 2022-07-31 16:16:28*
%MOMM*%
%LPD*%
G01*
G04 APERTURE LIST*
G04 Aperture macros list*
%AMRoundRect*
0 Rectangle with rounded corners*
0 $1 Rounding radius*
0 $2 $3 $4 $5 $6 $7 $8 $9 X,Y pos of 4 corners*
0 Add a 4 corners polygon primitive as box body*
4,1,4,$2,$3,$4,$5,$6,$7,$8,$9,$2,$3,0*
0 Add four circle primitives for the rounded corners*
1,1,$1+$1,$2,$3*
1,1,$1+$1,$4,$5*
1,1,$1+$1,$6,$7*
1,1,$1+$1,$8,$9*
0 Add four rect primitives between the rounded corners*
20,1,$1+$1,$2,$3,$4,$5,0*
20,1,$1+$1,$4,$5,$6,$7,0*
20,1,$1+$1,$6,$7,$8,$9,0*
20,1,$1+$1,$8,$9,$2,$3,0*%
G04 Aperture macros list end*
%TA.AperFunction,ComponentPad*%
%ADD10C,2.500000*%
%TD*%
%TA.AperFunction,SMDPad,CuDef*%
%ADD11R,1.200000X1.200000*%
%TD*%
%TA.AperFunction,ComponentPad*%
%ADD12C,1.905000*%
%TD*%
%TA.AperFunction,ComponentPad*%
%ADD13R,1.778000X1.778000*%
%TD*%
%TA.AperFunction,ComponentPad*%
%ADD14C,2.800000*%
%TD*%
%TA.AperFunction,ComponentPad*%
%ADD15R,1.752600X1.752600*%
%TD*%
%TA.AperFunction,ComponentPad*%
%ADD16C,1.752600*%
%TD*%
%TA.AperFunction,ComponentPad*%
%ADD17RoundRect,0.400000X-0.400000X-0.400000X0.400000X-0.400000X0.400000X0.400000X-0.400000X0.400000X0*%
%TD*%
%TA.AperFunction,ComponentPad*%
%ADD18O,1.700000X1.700000*%
%TD*%
%TA.AperFunction,ComponentPad*%
%ADD19R,1.700000X1.700000*%
%TD*%
%TA.AperFunction,ComponentPad*%
%ADD20C,1.600000*%
%TD*%
%TA.AperFunction,WasherPad*%
%ADD21C,1.000000*%
%TD*%
%TA.AperFunction,ViaPad*%
%ADD22C,0.800000*%
%TD*%
%TA.AperFunction,Conductor*%
%ADD23C,0.250000*%
%TD*%
G04 APERTURE END LIST*
D10*
%TO.P,S1,1*%
%TO.N,pinky_bottom*%
X5000000Y3800000D03*
%TO.P,S1,2*%
%TO.N,F4*%
X0Y5900000D03*
%TD*%
D11*
%TO.P,D1,1*%
%TO.N,B6*%
X-1650000Y-4500000D03*
%TO.P,D1,2*%
%TO.N,pinky_bottom*%
X1650000Y-4500000D03*
D12*
%TO.P,D1,1*%
X3810000Y-4500000D03*
D13*
%TO.P,D1,2*%
%TO.N,B6*%
X-3810000Y-4500000D03*
%TD*%
D10*
%TO.P,S2,1*%
%TO.N,pinky_home*%
X5000000Y20800000D03*
%TO.P,S2,2*%
%TO.N,F4*%
X0Y22900000D03*
%TD*%
D11*
%TO.P,D2,1*%
%TO.N,B2*%
X-1650000Y12500000D03*
%TO.P,D2,2*%
%TO.N,pinky_home*%
X1650000Y12500000D03*
D12*
%TO.P,D2,1*%
X3810000Y12500000D03*
D13*
%TO.P,D2,2*%
%TO.N,B2*%
X-3810000Y12500000D03*
%TD*%
D10*
%TO.P,S3,1*%
%TO.N,pinky_top*%
X5000000Y37800000D03*
%TO.P,S3,2*%
%TO.N,F4*%
X0Y39900000D03*
%TD*%
D11*
%TO.P,D3,1*%
%TO.N,B3*%
X-1650000Y29500000D03*
%TO.P,D3,2*%
%TO.N,pinky_top*%
X1650000Y29500000D03*
D12*
%TO.P,D3,1*%
X3810000Y29500000D03*
D13*
%TO.P,D3,2*%
%TO.N,B3*%
X-3810000Y29500000D03*
%TD*%
D10*
%TO.P,S4,1*%
%TO.N,ring_bottom*%
X23000000Y3800000D03*
%TO.P,S4,2*%
%TO.N,F5*%
X18000000Y5900000D03*
%TD*%
D11*
%TO.P,D4,1*%
%TO.N,B6*%
X16350000Y-4500000D03*
%TO.P,D4,2*%
%TO.N,ring_bottom*%
X19650000Y-4500000D03*
D12*
%TO.P,D4,1*%
X21810000Y-4500000D03*
D13*
%TO.P,D4,2*%
%TO.N,B6*%
X14190000Y-4500000D03*
%TD*%
D10*
%TO.P,S5,1*%
%TO.N,ring_home*%
X23000000Y20800000D03*
%TO.P,S5,2*%
%TO.N,F5*%
X18000000Y22900000D03*
%TD*%
D11*
%TO.P,D5,1*%
%TO.N,B2*%
X16350000Y12500000D03*
%TO.P,D5,2*%
%TO.N,ring_home*%
X19650000Y12500000D03*
D12*
%TO.P,D5,1*%
X21810000Y12500000D03*
D13*
%TO.P,D5,2*%
%TO.N,B2*%
X14190000Y12500000D03*
%TD*%
D10*
%TO.P,S6,1*%
%TO.N,ring_top*%
X23000000Y37800000D03*
%TO.P,S6,2*%
%TO.N,F5*%
X18000000Y39900000D03*
%TD*%
D11*
%TO.P,D6,1*%
%TO.N,B3*%
X16350000Y29500000D03*
%TO.P,D6,2*%
%TO.N,ring_top*%
X19650000Y29500000D03*
D12*
%TO.P,D6,1*%
X21810000Y29500000D03*
D13*
%TO.P,D6,2*%
%TO.N,B3*%
X14190000Y29500000D03*
%TD*%
D10*
%TO.P,S7,1*%
%TO.N,middle_bottom*%
X41000000Y3800000D03*
%TO.P,S7,2*%
%TO.N,F6*%
X36000000Y5900000D03*
%TD*%
D11*
%TO.P,D7,1*%
%TO.N,B6*%
X34350000Y-4500000D03*
%TO.P,D7,2*%
%TO.N,middle_bottom*%
X37650000Y-4500000D03*
D12*
%TO.P,D7,1*%
X39810000Y-4500000D03*
D13*
%TO.P,D7,2*%
%TO.N,B6*%
X32190000Y-4500000D03*
%TD*%
D10*
%TO.P,S8,1*%
%TO.N,middle_home*%
X41000000Y20800000D03*
%TO.P,S8,2*%
%TO.N,F6*%
X36000000Y22900000D03*
%TD*%
D11*
%TO.P,D8,1*%
%TO.N,B2*%
X34350000Y12500000D03*
%TO.P,D8,2*%
%TO.N,middle_home*%
X37650000Y12500000D03*
D12*
%TO.P,D8,1*%
X39810000Y12500000D03*
D13*
%TO.P,D8,2*%
%TO.N,B2*%
X32190000Y12500000D03*
%TD*%
D10*
%TO.P,S9,1*%
%TO.N,middle_top*%
X41000000Y37800000D03*
%TO.P,S9,2*%
%TO.N,F6*%
X36000000Y39900000D03*
%TD*%
D11*
%TO.P,D9,1*%
%TO.N,B3*%
X34350000Y29500000D03*
%TO.P,D9,2*%
%TO.N,middle_top*%
X37650000Y29500000D03*
D12*
%TO.P,D9,1*%
X39810000Y29500000D03*
D13*
%TO.P,D9,2*%
%TO.N,B3*%
X32190000Y29500000D03*
%TD*%
D10*
%TO.P,S10,1*%
%TO.N,index_bottom*%
X59000000Y3800000D03*
%TO.P,S10,2*%
%TO.N,F7*%
X54000000Y5900000D03*
%TD*%
D11*
%TO.P,D10,1*%
%TO.N,B6*%
X52350000Y-4500000D03*
%TO.P,D10,2*%
%TO.N,index_bottom*%
X55650000Y-4500000D03*
D12*
%TO.P,D10,1*%
X57810000Y-4500000D03*
D13*
%TO.P,D10,2*%
%TO.N,B6*%
X50190000Y-4500000D03*
%TD*%
D10*
%TO.P,S11,1*%
%TO.N,index_home*%
X59000000Y20800000D03*
%TO.P,S11,2*%
%TO.N,F7*%
X54000000Y22900000D03*
%TD*%
D11*
%TO.P,D11,1*%
%TO.N,B2*%
X52350000Y12500000D03*
%TO.P,D11,2*%
%TO.N,index_home*%
X55650000Y12500000D03*
D12*
%TO.P,D11,1*%
X57810000Y12500000D03*
D13*
%TO.P,D11,2*%
%TO.N,B2*%
X50190000Y12500000D03*
%TD*%
D10*
%TO.P,S12,1*%
%TO.N,index_top*%
X59000000Y37800000D03*
%TO.P,S12,2*%
%TO.N,F7*%
X54000000Y39900000D03*
%TD*%
D11*
%TO.P,D12,1*%
%TO.N,B3*%
X52350000Y29500000D03*
%TO.P,D12,2*%
%TO.N,index_top*%
X55650000Y29500000D03*
D12*
%TO.P,D12,1*%
X57810000Y29500000D03*
D13*
%TO.P,D12,2*%
%TO.N,B3*%
X50190000Y29500000D03*
%TD*%
D10*
%TO.P,S13,1*%
%TO.N,inner_bottom*%
X77000000Y3800000D03*
%TO.P,S13,2*%
%TO.N,B1*%
X72000000Y5900000D03*
%TD*%
D11*
%TO.P,D13,1*%
%TO.N,B6*%
X70350000Y-4500000D03*
%TO.P,D13,2*%
%TO.N,inner_bottom*%
X73650000Y-4500000D03*
D12*
%TO.P,D13,1*%
X75810000Y-4500000D03*
D13*
%TO.P,D13,2*%
%TO.N,B6*%
X68190000Y-4500000D03*
%TD*%
D10*
%TO.P,S14,1*%
%TO.N,inner_home*%
X77000000Y20800000D03*
%TO.P,S14,2*%
%TO.N,B1*%
X72000000Y22900000D03*
%TD*%
D11*
%TO.P,D14,1*%
%TO.N,B2*%
X70350000Y12500000D03*
%TO.P,D14,2*%
%TO.N,inner_home*%
X73650000Y12500000D03*
D12*
%TO.P,D14,1*%
X75810000Y12500000D03*
D13*
%TO.P,D14,2*%
%TO.N,B2*%
X68190000Y12500000D03*
%TD*%
D10*
%TO.P,S15,1*%
%TO.N,inner_top*%
X77000000Y37800000D03*
%TO.P,S15,2*%
%TO.N,B1*%
X72000000Y39900000D03*
%TD*%
D11*
%TO.P,D15,1*%
%TO.N,B3*%
X70350000Y29500000D03*
%TO.P,D15,2*%
%TO.N,inner_top*%
X73650000Y29500000D03*
D12*
%TO.P,D15,1*%
X75810000Y29500000D03*
D13*
%TO.P,D15,2*%
%TO.N,B3*%
X68190000Y29500000D03*
%TD*%
D10*
%TO.P,S16,1*%
%TO.N,mirror_pinky_bottom*%
X185000000Y3800000D03*
%TO.P,S16,2*%
%TO.N,F4*%
X180000000Y5900000D03*
%TD*%
D11*
%TO.P,D16,1*%
%TO.N,D4*%
X178350000Y-4500000D03*
%TO.P,D16,2*%
%TO.N,mirror_pinky_bottom*%
X181650000Y-4500000D03*
D12*
%TO.P,D16,1*%
X183810000Y-4500000D03*
D13*
%TO.P,D16,2*%
%TO.N,D4*%
X176190000Y-4500000D03*
%TD*%
D10*
%TO.P,S17,1*%
%TO.N,mirror_pinky_home*%
X185000000Y20800000D03*
%TO.P,S17,2*%
%TO.N,F4*%
X180000000Y22900000D03*
%TD*%
D11*
%TO.P,D17,1*%
%TO.N,D2*%
X178350000Y12500000D03*
%TO.P,D17,2*%
%TO.N,mirror_pinky_home*%
X181650000Y12500000D03*
D12*
%TO.P,D17,1*%
X183810000Y12500000D03*
D13*
%TO.P,D17,2*%
%TO.N,D2*%
X176190000Y12500000D03*
%TD*%
D10*
%TO.P,S18,1*%
%TO.N,mirror_pinky_top*%
X185000000Y37800000D03*
%TO.P,S18,2*%
%TO.N,F4*%
X180000000Y39900000D03*
%TD*%
D11*
%TO.P,D18,1*%
%TO.N,D3*%
X178350000Y29500000D03*
%TO.P,D18,2*%
%TO.N,mirror_pinky_top*%
X181650000Y29500000D03*
D12*
%TO.P,D18,1*%
X183810000Y29500000D03*
D13*
%TO.P,D18,2*%
%TO.N,D3*%
X176190000Y29500000D03*
%TD*%
D10*
%TO.P,S19,1*%
%TO.N,mirror_ring_bottom*%
X167000000Y3800000D03*
%TO.P,S19,2*%
%TO.N,F5*%
X162000000Y5900000D03*
%TD*%
D11*
%TO.P,D19,1*%
%TO.N,D4*%
X160350000Y-4500000D03*
%TO.P,D19,2*%
%TO.N,mirror_ring_bottom*%
X163650000Y-4500000D03*
D12*
%TO.P,D19,1*%
X165810000Y-4500000D03*
D13*
%TO.P,D19,2*%
%TO.N,D4*%
X158190000Y-4500000D03*
%TD*%
D10*
%TO.P,S20,1*%
%TO.N,mirror_ring_home*%
X167000000Y20800000D03*
%TO.P,S20,2*%
%TO.N,F5*%
X162000000Y22900000D03*
%TD*%
D11*
%TO.P,D20,1*%
%TO.N,D2*%
X160350000Y12500000D03*
%TO.P,D20,2*%
%TO.N,mirror_ring_home*%
X163650000Y12500000D03*
D12*
%TO.P,D20,1*%
X165810000Y12500000D03*
D13*
%TO.P,D20,2*%
%TO.N,D2*%
X158190000Y12500000D03*
%TD*%
D10*
%TO.P,S21,1*%
%TO.N,mirror_ring_top*%
X167000000Y37800000D03*
%TO.P,S21,2*%
%TO.N,F5*%
X162000000Y39900000D03*
%TD*%
D11*
%TO.P,D21,1*%
%TO.N,D3*%
X160350000Y29500000D03*
%TO.P,D21,2*%
%TO.N,mirror_ring_top*%
X163650000Y29500000D03*
D12*
%TO.P,D21,1*%
X165810000Y29500000D03*
D13*
%TO.P,D21,2*%
%TO.N,D3*%
X158190000Y29500000D03*
%TD*%
D10*
%TO.P,S22,1*%
%TO.N,mirror_middle_bottom*%
X149000000Y3800000D03*
%TO.P,S22,2*%
%TO.N,F6*%
X144000000Y5900000D03*
%TD*%
D11*
%TO.P,D22,1*%
%TO.N,D4*%
X142350000Y-4500000D03*
%TO.P,D22,2*%
%TO.N,mirror_middle_bottom*%
X145650000Y-4500000D03*
D12*
%TO.P,D22,1*%
X147810000Y-4500000D03*
D13*
%TO.P,D22,2*%
%TO.N,D4*%
X140190000Y-4500000D03*
%TD*%
D10*
%TO.P,S23,1*%
%TO.N,mirror_middle_home*%
X149000000Y20800000D03*
%TO.P,S23,2*%
%TO.N,F6*%
X144000000Y22900000D03*
%TD*%
D11*
%TO.P,D23,1*%
%TO.N,D2*%
X142350000Y12500000D03*
%TO.P,D23,2*%
%TO.N,mirror_middle_home*%
X145650000Y12500000D03*
D12*
%TO.P,D23,1*%
X147810000Y12500000D03*
D13*
%TO.P,D23,2*%
%TO.N,D2*%
X140190000Y12500000D03*
%TD*%
D10*
%TO.P,S24,1*%
%TO.N,mirror_middle_top*%
X149000000Y37800000D03*
%TO.P,S24,2*%
%TO.N,F6*%
X144000000Y39900000D03*
%TD*%
D11*
%TO.P,D24,1*%
%TO.N,D3*%
X142350000Y29500000D03*
%TO.P,D24,2*%
%TO.N,mirror_middle_top*%
X145650000Y29500000D03*
D12*
%TO.P,D24,1*%
X147810000Y29500000D03*
D13*
%TO.P,D24,2*%
%TO.N,D3*%
X140190000Y29500000D03*
%TD*%
D10*
%TO.P,S25,1*%
%TO.N,mirror_index_bottom*%
X131000000Y3800000D03*
%TO.P,S25,2*%
%TO.N,F7*%
X126000000Y5900000D03*
%TD*%
D11*
%TO.P,D25,1*%
%TO.N,D4*%
X124350000Y-4500000D03*
%TO.P,D25,2*%
%TO.N,mirror_index_bottom*%
X127650000Y-4500000D03*
D12*
%TO.P,D25,1*%
X129810000Y-4500000D03*
D13*
%TO.P,D25,2*%
%TO.N,D4*%
X122190000Y-4500000D03*
%TD*%
D10*
%TO.P,S26,1*%
%TO.N,mirror_index_home*%
X131000000Y20800000D03*
%TO.P,S26,2*%
%TO.N,F7*%
X126000000Y22900000D03*
%TD*%
D11*
%TO.P,D26,1*%
%TO.N,D2*%
X124350000Y12500000D03*
%TO.P,D26,2*%
%TO.N,mirror_index_home*%
X127650000Y12500000D03*
D12*
%TO.P,D26,1*%
X129810000Y12500000D03*
D13*
%TO.P,D26,2*%
%TO.N,D2*%
X122190000Y12500000D03*
%TD*%
D10*
%TO.P,S27,1*%
%TO.N,mirror_index_top*%
X131000000Y37800000D03*
%TO.P,S27,2*%
%TO.N,F7*%
X126000000Y39900000D03*
%TD*%
D11*
%TO.P,D27,1*%
%TO.N,D3*%
X124350000Y29500000D03*
%TO.P,D27,2*%
%TO.N,mirror_index_top*%
X127650000Y29500000D03*
D12*
%TO.P,D27,1*%
X129810000Y29500000D03*
D13*
%TO.P,D27,2*%
%TO.N,D3*%
X122190000Y29500000D03*
%TD*%
D10*
%TO.P,S28,1*%
%TO.N,mirror_inner_bottom*%
X113000000Y3800000D03*
%TO.P,S28,2*%
%TO.N,B1*%
X108000000Y5900000D03*
%TD*%
D11*
%TO.P,D28,1*%
%TO.N,D4*%
X106350000Y-4500000D03*
%TO.P,D28,2*%
%TO.N,mirror_inner_bottom*%
X109650000Y-4500000D03*
D12*
%TO.P,D28,1*%
X111810000Y-4500000D03*
D13*
%TO.P,D28,2*%
%TO.N,D4*%
X104190000Y-4500000D03*
%TD*%
D10*
%TO.P,S29,1*%
%TO.N,mirror_inner_home*%
X113000000Y20800000D03*
%TO.P,S29,2*%
%TO.N,B1*%
X108000000Y22900000D03*
%TD*%
D11*
%TO.P,D29,1*%
%TO.N,D2*%
X106350000Y12500000D03*
%TO.P,D29,2*%
%TO.N,mirror_inner_home*%
X109650000Y12500000D03*
D12*
%TO.P,D29,1*%
X111810000Y12500000D03*
D13*
%TO.P,D29,2*%
%TO.N,D2*%
X104190000Y12500000D03*
%TD*%
D10*
%TO.P,S30,1*%
%TO.N,mirror_inner_top*%
X113000000Y37800000D03*
%TO.P,S30,2*%
%TO.N,B1*%
X108000000Y39900000D03*
%TD*%
D11*
%TO.P,D30,1*%
%TO.N,D3*%
X106350000Y29500000D03*
%TO.P,D30,2*%
%TO.N,mirror_inner_top*%
X109650000Y29500000D03*
D12*
%TO.P,D30,1*%
X111810000Y29500000D03*
D13*
%TO.P,D30,2*%
%TO.N,D3*%
X104190000Y29500000D03*
%TD*%
D14*
%TO.P,,1*%
%TO.N,N/C*%
X-8250000Y41750000D03*
%TD*%
%TO.P,,1*%
%TO.N,N/C*%
X-8250000Y-7750000D03*
%TD*%
%TO.P,,1*%
%TO.N,N/C*%
X63000000Y41750000D03*
%TD*%
%TO.P,,1*%
%TO.N,N/C*%
X63000000Y-7750000D03*
%TD*%
%TO.P,,1*%
%TO.N,N/C*%
X188250000Y41750000D03*
%TD*%
%TO.P,,1*%
%TO.N,N/C*%
X188250000Y-7750000D03*
%TD*%
%TO.P,,1*%
%TO.N,N/C*%
X117000000Y41750000D03*
%TD*%
%TO.P,,1*%
%TO.N,N/C*%
X117000000Y-7750000D03*
%TD*%
D15*
%TO.P,MCU1,1*%
%TO.N,RAW*%
X82380000Y37970000D03*
D16*
%TO.P,MCU1,2*%
%TO.N,GND*%
X82380000Y35430000D03*
%TO.P,MCU1,3*%
%TO.N,RST*%
X82380000Y32890000D03*
%TO.P,MCU1,4*%
%TO.N,VCC*%
X82380000Y30350000D03*
%TO.P,MCU1,5*%
%TO.N,F4*%
X82380000Y27810000D03*
%TO.P,MCU1,6*%
%TO.N,F5*%
X82380000Y25270000D03*
%TO.P,MCU1,7*%
%TO.N,F6*%
X82380000Y22730000D03*
%TO.P,MCU1,8*%
%TO.N,F7*%
X82380000Y20190000D03*
%TO.P,MCU1,9*%
%TO.N,B1*%
X82380000Y17650000D03*
%TO.P,MCU1,10*%
%TO.N,B3*%
X82380000Y15110000D03*
%TO.P,MCU1,11*%
%TO.N,B2*%
X82380000Y12570000D03*
%TO.P,MCU1,12*%
%TO.N,B6*%
X82380000Y10030000D03*
%TO.P,MCU1,13*%
%TO.N,D3*%
X97620000Y37970000D03*
%TO.P,MCU1,14*%
%TO.N,D2*%
X97620000Y35430000D03*
%TO.P,MCU1,15*%
%TO.N,GND*%
X97620000Y32890000D03*
%TO.P,MCU1,16*%
X97620000Y30350000D03*
%TO.P,MCU1,17*%
%TO.N,D1*%
X97620000Y27810000D03*
%TO.P,MCU1,18*%
%TO.N,D0*%
X97620000Y25270000D03*
%TO.P,MCU1,19*%
%TO.N,D4*%
X97620000Y22730000D03*
%TO.P,MCU1,20*%
%TO.N,C6*%
X97620000Y20190000D03*
%TO.P,MCU1,21*%
%TO.N,D7*%
X97620000Y17650000D03*
%TO.P,MCU1,22*%
%TO.N,E6*%
X97620000Y15110000D03*
%TO.P,MCU1,23*%
%TO.N,B4*%
X97620000Y12570000D03*
%TO.P,MCU1,24*%
%TO.N,B5*%
X97620000Y10030000D03*
D17*
%TO.P,MCU1,25*%
%TO.N,Bplus*%
X82380000Y40510000D03*
%TO.N,Bminus*%
X97620000Y40510000D03*
%TD*%
D18*
%TO.P,OLED1,4*%
%TO.N,D1*%
X86180000Y7600000D03*
%TO.P,OLED1,3*%
%TO.N,D0*%
X88720000Y7600000D03*
%TO.P,OLED1,2*%
%TO.N,VCC*%
X91260000Y7600000D03*
D19*
%TO.P,OLED1,1*%
%TO.N,GND*%
X93800000Y7600000D03*
%TD*%
D20*
%TO.P,REF\u002A\u002A,S1*%
%TO.N,D7*%
X83150000Y5200000D03*
%TO.P,REF\u002A\u002A,S2*%
%TO.N,E6*%
X85000000Y5200000D03*
%TO.P,REF\u002A\u002A,A*%
%TO.N,B4*%
X84375000Y2810000D03*
%TO.P,REF\u002A\u002A,B*%
%TO.N,B5*%
X84375000Y270000D03*
%TO.P,REF\u002A\u002A,C*%
%TO.N,GND*%
X84375000Y-2270000D03*
%TO.P,REF\u002A\u002A,D*%
%TO.N,N/C*%
X84375000Y-4810000D03*
%TD*%
D21*
%TO.P,T1,*%
%TO.N,*%
X91500000Y41250000D03*
X88500000Y41250000D03*
%TD*%
D17*
%TO.P,,1*%
%TO.N,BAT*%
X87750000Y36000000D03*
%TD*%
%TO.P,,1*%
%TO.N,Bminus*%
X92250000Y36000000D03*
%TD*%
D22*
%TO.N,F4*%
X100000000Y29000000D03*
%TO.N,F5*%
X100100000Y26500000D03*
%TO.N,F6*%
X100100000Y24000000D03*
%TO.N,F7*%
X100100000Y21500000D03*
%TO.N,B3*%
X74765876Y25422580D03*
%TO.N,GND*%
X93758552Y11224500D03*
%TO.N,VCC*%
X93034052Y9974020D03*
%TD*%
D23*
%TO.N,F4*%
X83580811Y29010811D02*
X82380000Y27810000D01*
X99989189Y29010811D02*
X83580811Y29010811D01*
X100000000Y29000000D02*
X99989189Y29010811D01*
%TO.N,F5*%
X83610000Y26500000D02*
X82380000Y25270000D01*
X100100000Y26500000D02*
X83610000Y26500000D01*
%TO.N,F6*%
X83650000Y24000000D02*
X82380000Y22730000D01*
X100100000Y24000000D02*
X83650000Y24000000D01*
%TO.N,F7*%
X83690000Y21500000D02*
X82380000Y20190000D01*
X100100000Y21500000D02*
X83690000Y21500000D01*
%TO.N,B1*%
X83630000Y18900000D02*
X82380000Y17650000D01*
X98068204Y18900000D02*
X83630000Y18900000D01*
X100129189Y16839015D02*
X98068204Y18900000D01*
X100129189Y13770811D02*
X100129189Y16839015D01*
X108000000Y5900000D02*
X100129189Y13770811D01*
%TO.N,B3*%
X81100000Y23400000D02*
X81100000Y16390000D01*
X79077420Y25422580D02*
X81100000Y23400000D01*
X81100000Y16390000D02*
X82380000Y15110000D01*
X74765876Y25422580D02*
X79077420Y25422580D01*
%TO.N,F4*%
X180000000Y12600000D02*
X180000000Y5900000D01*
X177910979Y20810979D02*
X177910979Y14689021D01*
X180000000Y22900000D02*
X177910979Y20810979D01*
X177910979Y14689021D02*
X180000000Y12600000D01*
X180000000Y29725489D02*
X180000000Y22900000D01*
X177910979Y31814510D02*
X180000000Y29725489D01*
X177910979Y37810979D02*
X177910979Y31814510D01*
X180000000Y39900000D02*
X177910979Y37810979D01*
%TO.N,F5*%
X162000000Y12699022D02*
X162000000Y5900000D01*
X159910979Y14788043D02*
X162000000Y12699022D01*
X159910979Y20810979D02*
X159910979Y14788043D01*
X162000000Y22900000D02*
X159910979Y20810979D01*
X162000000Y29600000D02*
X162000000Y22900000D01*
X159910979Y37810979D02*
X159910979Y31689021D01*
X159910979Y31689021D02*
X162000000Y29600000D01*
X162000000Y39900000D02*
X159910979Y37810979D01*
%TO.N,F6*%
X144000000Y12699022D02*
X144000000Y5900000D01*
X141910979Y14788043D02*
X144000000Y12699022D01*
X141910979Y20810979D02*
X141910979Y14788043D01*
X144000000Y22900000D02*
X141910979Y20810979D01*
X141910979Y31689021D02*
X144000000Y29600000D01*
X141910979Y37810979D02*
X141910979Y31689021D01*
X144000000Y29600000D02*
X144000000Y22900000D01*
X144000000Y39900000D02*
X141910979Y37810979D01*
%TO.N,F7*%
X126000000Y12600000D02*
X126000000Y5900000D01*
X123910979Y14689021D02*
X126000000Y12600000D01*
X123910979Y20810979D02*
X123910979Y14689021D01*
X126000000Y22900000D02*
X123910979Y20810979D01*
X123910979Y31689021D02*
X126000000Y29600000D01*
X126000000Y29600000D02*
X126000000Y22900000D01*
X126000000Y39900000D02*
X123910979Y37810979D01*
X123910979Y37810979D02*
X123910979Y31689021D01*
%TO.N,B1*%
X108000000Y12800000D02*
X108000000Y5900000D01*
X105910979Y14889021D02*
X108000000Y12800000D01*
X105910979Y20810979D02*
X105910979Y14889021D01*
X108000000Y22900000D02*
X105910979Y20810979D01*
X105910979Y31689021D02*
X108000000Y29600000D01*
X108000000Y29600000D02*
X108000000Y22900000D01*
X105910979Y37810979D02*
X105910979Y31689021D01*
X108000000Y39900000D02*
X105910979Y37810979D01*
X72000000Y12699022D02*
X72000000Y5900000D01*
X69910979Y14788043D02*
X72000000Y12699022D01*
X69910979Y20810979D02*
X69910979Y14788043D01*
X72000000Y22900000D02*
X69910979Y20810979D01*
X72000000Y29699022D02*
X72000000Y22900000D01*
X69910979Y31788043D02*
X72000000Y29699022D01*
X69910979Y37810979D02*
X69910979Y31788043D01*
X72000000Y39900000D02*
X69910979Y37810979D01*
%TO.N,F7*%
X54000000Y12600000D02*
X54000000Y5900000D01*
X51910979Y14689021D02*
X54000000Y12600000D01*
X54000000Y22900000D02*
X51910979Y20810979D01*
X51910979Y20810979D02*
X51910979Y14689021D01*
X51910979Y31689021D02*
X54000000Y29600000D01*
X51910979Y37810979D02*
X51910979Y31689021D01*
X54000000Y39900000D02*
X51910979Y37810979D01*
X54000000Y29600000D02*
X54000000Y22900000D01*
%TO.N,F6*%
X33910979Y20810979D02*
X33910979Y14788043D01*
X36000000Y12699022D02*
X36000000Y5900000D01*
X36000000Y22900000D02*
X33910979Y20810979D01*
X33910979Y14788043D02*
X36000000Y12699022D01*
X33910979Y31788043D02*
X36000000Y29699022D01*
X33910979Y37810979D02*
X33910979Y31788043D01*
X36000000Y29699022D02*
X36000000Y22900000D01*
X36000000Y39900000D02*
X33910979Y37810979D01*
%TO.N,F5*%
X18000000Y12600000D02*
X18000000Y5900000D01*
X15910979Y14689021D02*
X18000000Y12600000D01*
X15910979Y20810979D02*
X15910979Y14689021D01*
X18000000Y22900000D02*
X15910979Y20810979D01*
X18000000Y29699022D02*
X18000000Y22900000D01*
X15910979Y31788043D02*
X18000000Y29699022D01*
X15910979Y37810979D02*
X15910979Y31788043D01*
X18000000Y39900000D02*
X15910979Y37810979D01*
%TO.N,F4*%
X0Y12699022D02*
X0Y5900000D01*
X-2089021Y14788043D02*
X0Y12699022D01*
X-2089021Y20810979D02*
X-2089021Y14788043D01*
X0Y22900000D02*
X-2089021Y20810979D01*
X0Y29699022D02*
X0Y22900000D01*
X-2089021Y31788043D02*
X0Y29699022D01*
X-2089021Y37810979D02*
X-2089021Y31788043D01*
X0Y39900000D02*
X-2089021Y37810979D01*
%TO.N,mirror_pinky_bottom*%
X181650000Y-4500000D02*
X183810000Y-4500000D01*
%TO.N,D4*%
X176190000Y-4500000D02*
X178350000Y-4500000D01*
%TO.N,mirror_ring_bottom*%
X163650000Y-4500000D02*
X165810000Y-4500000D01*
%TO.N,D4*%
X158190000Y-4500000D02*
X160350000Y-4500000D01*
%TO.N,mirror_middle_bottom*%
X145650000Y-4500000D02*
X147810000Y-4500000D01*
%TO.N,D4*%
X140190000Y-4500000D02*
X142350000Y-4500000D01*
%TO.N,mirror_index_bottom*%
X127650000Y-4500000D02*
X129810000Y-4500000D01*
%TO.N,D4*%
X122190000Y-4500000D02*
X124350000Y-4500000D01*
%TO.N,mirror_inner_bottom*%
X109650000Y-4500000D02*
X111810000Y-4500000D01*
%TO.N,D4*%
X104190000Y-4500000D02*
X106350000Y-4500000D01*
%TO.N,D2*%
X106350000Y12500000D02*
X104190000Y12500000D01*
%TO.N,mirror_inner_home*%
X111810000Y12500000D02*
X109650000Y12500000D01*
%TO.N,D2*%
X124350000Y12500000D02*
X122190000Y12500000D01*
%TO.N,mirror_index_home*%
X129810000Y12500000D02*
X127650000Y12500000D01*
%TO.N,D2*%
X142350000Y12500000D02*
X140190000Y12500000D01*
%TO.N,mirror_middle_home*%
X147810000Y12500000D02*
X145650000Y12500000D01*
%TO.N,D2*%
X160350000Y12500000D02*
X158190000Y12500000D01*
%TO.N,mirror_ring_home*%
X165810000Y12500000D02*
X163650000Y12500000D01*
%TO.N,D2*%
X178350000Y12500000D02*
X176190000Y12500000D01*
%TO.N,mirror_pinky_home*%
X183810000Y12500000D02*
X181650000Y12500000D01*
%TO.N,mirror_pinky_top*%
X181650000Y29500000D02*
X183810000Y29500000D01*
%TO.N,D3*%
X176190000Y29500000D02*
X178350000Y29500000D01*
%TO.N,mirror_ring_top*%
X163650000Y29500000D02*
X165810000Y29500000D01*
%TO.N,D3*%
X158190000Y29500000D02*
X160350000Y29500000D01*
%TO.N,mirror_middle_top*%
X145650000Y29500000D02*
X147810000Y29500000D01*
%TO.N,D3*%
X140190000Y29500000D02*
X142350000Y29500000D01*
%TO.N,mirror_index_top*%
X127650000Y29500000D02*
X129810000Y29500000D01*
%TO.N,D3*%
X122190000Y29500000D02*
X124350000Y29500000D01*
%TO.N,mirror_inner_top*%
X109650000Y29500000D02*
X111810000Y29500000D01*
%TO.N,D3*%
X104190000Y29500000D02*
X106350000Y29500000D01*
%TO.N,inner_top*%
X73650000Y29500000D02*
X75810000Y29500000D01*
%TO.N,B3*%
X68190000Y29500000D02*
X70350000Y29500000D01*
%TO.N,index_top*%
X55650000Y29500000D02*
X57810000Y29500000D01*
%TO.N,B3*%
X50190000Y29500000D02*
X52350000Y29500000D01*
%TO.N,B2*%
X52350000Y12500000D02*
X50190000Y12500000D01*
%TO.N,index_home*%
X57810000Y12500000D02*
X55650000Y12500000D01*
%TO.N,B2*%
X70350000Y12500000D02*
X68190000Y12500000D01*
%TO.N,inner_home*%
X75810000Y12500000D02*
X73650000Y12500000D01*
%TO.N,inner_bottom*%
X73650000Y-4500000D02*
X75810000Y-4500000D01*
%TO.N,B6*%
X68190000Y-4500000D02*
X70350000Y-4500000D01*
%TO.N,index_bottom*%
X55650000Y-4500000D02*
X57810000Y-4500000D01*
%TO.N,B6*%
X50190000Y-4500000D02*
X52350000Y-4500000D01*
%TO.N,middle_bottom*%
X37650000Y-4500000D02*
X39810000Y-4500000D01*
%TO.N,B6*%
X32190000Y-4500000D02*
X34350000Y-4500000D01*
%TO.N,ring_bottom*%
X19650000Y-4500000D02*
X21810000Y-4500000D01*
%TO.N,B6*%
X14190000Y-4500000D02*
X16350000Y-4500000D01*
%TO.N,pinky_bottom*%
X1650000Y-4500000D02*
X3810000Y-4500000D01*
%TO.N,B6*%
X-3810000Y-4500000D02*
X-1650000Y-4500000D01*
%TO.N,B2*%
X-1650000Y12500000D02*
X-3810000Y12500000D01*
%TO.N,pinky_home*%
X3810000Y12500000D02*
X1650000Y12500000D01*
%TO.N,B2*%
X16350000Y12500000D02*
X14190000Y12500000D01*
%TO.N,ring_home*%
X21810000Y12500000D02*
X19650000Y12500000D01*
%TO.N,B2*%
X34350000Y12500000D02*
X32190000Y12500000D01*
%TO.N,middle_home*%
X39810000Y12500000D02*
X37650000Y12500000D01*
%TO.N,middle_top*%
X37650000Y29500000D02*
X39810000Y29500000D01*
%TO.N,B3*%
X32190000Y29500000D02*
X34350000Y29500000D01*
%TO.N,ring_top*%
X19650000Y29500000D02*
X21810000Y29500000D01*
%TO.N,B3*%
X14190000Y29500000D02*
X16350000Y29500000D01*
%TO.N,pinky_top*%
X1650000Y29500000D02*
X3810000Y29500000D01*
%TO.N,B3*%
X-3810000Y29500000D02*
X-1650000Y29500000D01*
%TO.N,VCC*%
X93034052Y9374052D02*
X91260000Y7600000D01*
X93034052Y9974020D02*
X93034052Y9374052D01*
%TO.N,GND*%
X93758552Y7641448D02*
X93800000Y7600000D01*
X93758552Y11224500D02*
X93758552Y7641448D01*
X92500000Y6300000D02*
X93800000Y7600000D01*
X87900000Y6300000D02*
X92500000Y6300000D01*
X85600000Y-1045000D02*
X85600000Y4000000D01*
X85600000Y4000000D02*
X87900000Y6300000D01*
X84375000Y-2270000D02*
X85600000Y-1045000D01*
%TD*%
M02*
