%TF.GenerationSoftware,KiCad,Pcbnew,(6.0.4)*%
%TF.CreationDate,2022-07-31T16:16:28-04:00*%
%TF.ProjectId,satpad,73617470-6164-42e6-9b69-6361645f7063,v1.0.0*%
%TF.SameCoordinates,Original*%
%TF.FileFunction,Paste,Top*%
%TF.FilePolarity,Positive*%
%FSLAX46Y46*%
G04 Gerber Fmt 4.6, Leading zero omitted, Abs format (unit mm)*
G04 Created by KiCad (PCBNEW (6.0.4)) date 2022-07-31 16:16:28*
%MOMM*%
%LPD*%
G01*
G04 APERTURE LIST*
%ADD10R,1.200000X1.200000*%
%ADD11R,0.900000X1.250000*%
%ADD12R,0.900000X0.900000*%
G04 APERTURE END LIST*
D10*
%TO.C,D1*%
X-1650000Y-4500000D03*
X1650000Y-4500000D03*
%TD*%
%TO.C,D2*%
X-1650000Y12500000D03*
X1650000Y12500000D03*
%TD*%
%TO.C,D3*%
X-1650000Y29500000D03*
X1650000Y29500000D03*
%TD*%
%TO.C,D4*%
X16350000Y-4500000D03*
X19650000Y-4500000D03*
%TD*%
%TO.C,D5*%
X16350000Y12500000D03*
X19650000Y12500000D03*
%TD*%
%TO.C,D6*%
X16350000Y29500000D03*
X19650000Y29500000D03*
%TD*%
%TO.C,D7*%
X34350000Y-4500000D03*
X37650000Y-4500000D03*
%TD*%
%TO.C,D8*%
X34350000Y12500000D03*
X37650000Y12500000D03*
%TD*%
%TO.C,D9*%
X34350000Y29500000D03*
X37650000Y29500000D03*
%TD*%
%TO.C,D10*%
X52350000Y-4500000D03*
X55650000Y-4500000D03*
%TD*%
%TO.C,D11*%
X52350000Y12500000D03*
X55650000Y12500000D03*
%TD*%
%TO.C,D12*%
X52350000Y29500000D03*
X55650000Y29500000D03*
%TD*%
%TO.C,D13*%
X70350000Y-4500000D03*
X73650000Y-4500000D03*
%TD*%
%TO.C,D14*%
X70350000Y12500000D03*
X73650000Y12500000D03*
%TD*%
%TO.C,D15*%
X70350000Y29500000D03*
X73650000Y29500000D03*
%TD*%
%TO.C,D16*%
X178350000Y-4500000D03*
X181650000Y-4500000D03*
%TD*%
%TO.C,D17*%
X178350000Y12500000D03*
X181650000Y12500000D03*
%TD*%
%TO.C,D18*%
X178350000Y29500000D03*
X181650000Y29500000D03*
%TD*%
%TO.C,D19*%
X160350000Y-4500000D03*
X163650000Y-4500000D03*
%TD*%
%TO.C,D20*%
X160350000Y12500000D03*
X163650000Y12500000D03*
%TD*%
%TO.C,D21*%
X160350000Y29500000D03*
X163650000Y29500000D03*
%TD*%
%TO.C,D22*%
X142350000Y-4500000D03*
X145650000Y-4500000D03*
%TD*%
%TO.C,D23*%
X142350000Y12500000D03*
X145650000Y12500000D03*
%TD*%
%TO.C,D24*%
X142350000Y29500000D03*
X145650000Y29500000D03*
%TD*%
%TO.C,D25*%
X124350000Y-4500000D03*
X127650000Y-4500000D03*
%TD*%
%TO.C,D26*%
X124350000Y12500000D03*
X127650000Y12500000D03*
%TD*%
%TO.C,D27*%
X124350000Y29500000D03*
X127650000Y29500000D03*
%TD*%
%TO.C,D28*%
X106350000Y-4500000D03*
X109650000Y-4500000D03*
%TD*%
%TO.C,D29*%
X106350000Y12500000D03*
X109650000Y12500000D03*
%TD*%
%TO.C,D30*%
X106350000Y29500000D03*
X109650000Y29500000D03*
%TD*%
D11*
%TO.C,T1*%
X92250000Y39175000D03*
X89250000Y39175000D03*
X87750000Y39175000D03*
D12*
X93700000Y42350000D03*
X93700000Y40150000D03*
X86300000Y40150000D03*
X86300000Y42350000D03*
%TD*%
M02*
