M48
; DRILL file {KiCad (6.0.4)} date Sun Jul 31 16:16:25 2022
; FORMAT={-:-/ absolute / inch / decimal}
; #@! TF.CreationDate,2022-07-31T16:16:25-04:00
; #@! TF.GenerationSoftware,Kicad,Pcbnew,(6.0.4)
; #@! TF.FileFunction,NonPlated,1,2,NPTH
FMAT,2
INCH
; #@! TA.AperFunction,NonPlated,NPTH,ComponentDrill
T1C0.0354
; #@! TA.AperFunction,NonPlated,NPTH,ComponentDrill
T2C0.0591
; #@! TA.AperFunction,NonPlated,NPTH,ComponentDrill
T3C0.0670
; #@! TA.AperFunction,NonPlated,NPTH,ComponentDrill
T4C0.1350
%
G90
G05
T1
X3.4843Y1.624
X3.6024Y1.624
T2
X3.3219Y-0.2874
T3
X-0.2165Y1.3386
X-0.2165Y0.6693
X-0.2165Y0.0
X0.2165Y1.3386
X0.2165Y0.6693
X0.2165Y0.0
X0.4921Y1.3386
X0.4921Y0.6693
X0.4921Y0.0
X0.9252Y1.3386
X0.9252Y0.6693
X0.9252Y0.0
X1.2008Y1.3386
X1.2008Y0.6693
X1.2008Y0.0
X1.6339Y1.3386
X1.6339Y0.6693
X1.6339Y0.0
X1.9094Y1.3386
X1.9094Y0.6693
X1.9094Y0.0
X2.3425Y1.3386
X2.3425Y0.6693
X2.3425Y0.0
X2.6181Y1.3386
X2.6181Y0.6693
X2.6181Y0.0
X3.0512Y1.3386
X3.0512Y0.6693
X3.0512Y0.0
X4.0354Y1.3386
X4.0354Y0.6693
X4.0354Y0.0
X4.4685Y1.3386
X4.4685Y0.6693
X4.4685Y0.0
X4.7441Y1.3386
X4.7441Y0.6693
X4.7441Y0.0
X5.1772Y1.3386
X5.1772Y0.6693
X5.1772Y0.0
X5.4528Y1.3386
X5.4528Y0.6693
X5.4528Y0.0
X5.8858Y1.3386
X5.8858Y0.6693
X5.8858Y0.0
X6.1614Y1.3386
X6.1614Y0.6693
X6.1614Y0.0
X6.5945Y1.3386
X6.5945Y0.6693
X6.5945Y0.0
X6.8701Y1.3386
X6.8701Y0.6693
X6.8701Y0.0
X7.3031Y1.3386
X7.3031Y0.6693
X7.3031Y0.0
T4
X0.0Y1.3386
X0.0Y0.6693
X0.0Y0.0
X0.7087Y1.3386
X0.7087Y0.6693
X0.7087Y0.0
X1.4173Y1.3386
X1.4173Y0.6693
X1.4173Y0.0
X2.126Y1.3386
X2.126Y0.6693
X2.126Y0.0
X2.8346Y1.3386
X2.8346Y0.6693
X2.8346Y0.0
X4.252Y1.3386
X4.252Y0.6693
X4.252Y0.0
X4.9606Y1.3386
X4.9606Y0.6693
X4.9606Y0.0
X5.6693Y1.3386
X5.6693Y0.6693
X5.6693Y0.0
X6.378Y1.3386
X6.378Y0.6693
X6.378Y0.0
X7.0866Y1.3386
X7.0866Y0.6693
X7.0866Y0.0
T0
M30
