0
SECTION
2
HEADER
9
$INSUNITS
70
4
0
ENDSEC
0
SECTION
2
TABLES
0
TABLE
2
LTYPE
0
LTYPE
72
65
70
64
2
CONTINUOUS
3
______
73
0
40
0
0
ENDTAB
0
TABLE
2
LAYER
0
ENDTAB
0
ENDSEC
0
SECTION
2
ENTITIES
0
LINE
8
0
10
-7
20
-7
11
7
21
-7
0
LINE
8
0
10
7
20
-7
11
7
21
7
0
LINE
8
0
10
7
20
7
11
-7
21
7
0
LINE
8
0
10
-7
20
7
11
-7
21
-7
0
LINE
8
0
10
-7
20
10
11
7
21
10
0
LINE
8
0
10
7
20
10
11
7
21
24
0
LINE
8
0
10
7
20
24
11
-7
21
24
0
LINE
8
0
10
-7
20
24
11
-7
21
10
0
LINE
8
0
10
-7
20
27
11
7
21
27
0
LINE
8
0
10
7
20
27
11
7
21
41
0
LINE
8
0
10
7
20
41
11
-7
21
41
0
LINE
8
0
10
-7
20
41
11
-7
21
27
0
LINE
8
0
10
11
20
-7
11
25
21
-7
0
LINE
8
0
10
25
20
-7
11
25
21
7
0
LINE
8
0
10
25
20
7
11
11
21
7
0
LINE
8
0
10
11
20
7
11
11
21
-7
0
LINE
8
0
10
11
20
10
11
25
21
10
0
LINE
8
0
10
25
20
10
11
25
21
24
0
LINE
8
0
10
25
20
24
11
11
21
24
0
LINE
8
0
10
11
20
24
11
11
21
10
0
LINE
8
0
10
11
20
27
11
25
21
27
0
LINE
8
0
10
25
20
27
11
25
21
41
0
LINE
8
0
10
25
20
41
11
11
21
41
0
LINE
8
0
10
11
20
41
11
11
21
27
0
LINE
8
0
10
29
20
-7
11
43
21
-7
0
LINE
8
0
10
43
20
-7
11
43
21
7
0
LINE
8
0
10
43
20
7
11
29
21
7
0
LINE
8
0
10
29
20
7
11
29
21
-7
0
LINE
8
0
10
29
20
10
11
43
21
10
0
LINE
8
0
10
43
20
10
11
43
21
24
0
LINE
8
0
10
43
20
24
11
29
21
24
0
LINE
8
0
10
29
20
24
11
29
21
10
0
LINE
8
0
10
29
20
27
11
43
21
27
0
LINE
8
0
10
43
20
27
11
43
21
41
0
LINE
8
0
10
43
20
41
11
29
21
41
0
LINE
8
0
10
29
20
41
11
29
21
27
0
LINE
8
0
10
47
20
-7
11
61
21
-7
0
LINE
8
0
10
61
20
-7
11
61
21
7
0
LINE
8
0
10
61
20
7
11
47
21
7
0
LINE
8
0
10
47
20
7
11
47
21
-7
0
LINE
8
0
10
47
20
10
11
61
21
10
0
LINE
8
0
10
61
20
10
11
61
21
24
0
LINE
8
0
10
61
20
24
11
47
21
24
0
LINE
8
0
10
47
20
24
11
47
21
10
0
LINE
8
0
10
47
20
27
11
61
21
27
0
LINE
8
0
10
61
20
27
11
61
21
41
0
LINE
8
0
10
61
20
41
11
47
21
41
0
LINE
8
0
10
47
20
41
11
47
21
27
0
LINE
8
0
10
65
20
-7
11
79
21
-7
0
LINE
8
0
10
79
20
-7
11
79
21
7
0
LINE
8
0
10
79
20
7
11
65
21
7
0
LINE
8
0
10
65
20
7
11
65
21
-7
0
LINE
8
0
10
65
20
10
11
79
21
10
0
LINE
8
0
10
79
20
10
11
79
21
24
0
LINE
8
0
10
79
20
24
11
65
21
24
0
LINE
8
0
10
65
20
24
11
65
21
10
0
LINE
8
0
10
65
20
27
11
79
21
27
0
LINE
8
0
10
79
20
27
11
79
21
41
0
LINE
8
0
10
79
20
41
11
65
21
41
0
LINE
8
0
10
65
20
41
11
65
21
27
0
LINE
8
0
10
173
20
-7
11
187
21
-7
0
LINE
8
0
10
187
20
-7
11
187
21
7
0
LINE
8
0
10
187
20
7
11
173
21
7
0
LINE
8
0
10
173
20
7
11
173
21
-7
0
LINE
8
0
10
173
20
10
11
187
21
10
0
LINE
8
0
10
187
20
10
11
187
21
24
0
LINE
8
0
10
187
20
24
11
173
21
24
0
LINE
8
0
10
173
20
24
11
173
21
10
0
LINE
8
0
10
173
20
27
11
187
21
27
0
LINE
8
0
10
187
20
27
11
187
21
41
0
LINE
8
0
10
187
20
41
11
173
21
41
0
LINE
8
0
10
173
20
41
11
173
21
27
0
LINE
8
0
10
155
20
-7
11
169
21
-7
0
LINE
8
0
10
169
20
-7
11
169
21
7
0
LINE
8
0
10
169
20
7
11
155
21
7
0
LINE
8
0
10
155
20
7
11
155
21
-7
0
LINE
8
0
10
155
20
10
11
169
21
10
0
LINE
8
0
10
169
20
10
11
169
21
24
0
LINE
8
0
10
169
20
24
11
155
21
24
0
LINE
8
0
10
155
20
24
11
155
21
10
0
LINE
8
0
10
155
20
27
11
169
21
27
0
LINE
8
0
10
169
20
27
11
169
21
41
0
LINE
8
0
10
169
20
41
11
155
21
41
0
LINE
8
0
10
155
20
41
11
155
21
27
0
LINE
8
0
10
137
20
-7
11
151
21
-7
0
LINE
8
0
10
151
20
-7
11
151
21
7
0
LINE
8
0
10
151
20
7
11
137
21
7
0
LINE
8
0
10
137
20
7
11
137
21
-7
0
LINE
8
0
10
137
20
10
11
151
21
10
0
LINE
8
0
10
151
20
10
11
151
21
24
0
LINE
8
0
10
151
20
24
11
137
21
24
0
LINE
8
0
10
137
20
24
11
137
21
10
0
LINE
8
0
10
137
20
27
11
151
21
27
0
LINE
8
0
10
151
20
27
11
151
21
41
0
LINE
8
0
10
151
20
41
11
137
21
41
0
LINE
8
0
10
137
20
41
11
137
21
27
0
LINE
8
0
10
119
20
-7
11
133
21
-7
0
LINE
8
0
10
133
20
-7
11
133
21
7
0
LINE
8
0
10
133
20
7
11
119
21
7
0
LINE
8
0
10
119
20
7
11
119
21
-7
0
LINE
8
0
10
119
20
10
11
133
21
10
0
LINE
8
0
10
133
20
10
11
133
21
24
0
LINE
8
0
10
133
20
24
11
119
21
24
0
LINE
8
0
10
119
20
24
11
119
21
10
0
LINE
8
0
10
119
20
27
11
133
21
27
0
LINE
8
0
10
133
20
27
11
133
21
41
0
LINE
8
0
10
133
20
41
11
119
21
41
0
LINE
8
0
10
119
20
41
11
119
21
27
0
LINE
8
0
10
101
20
-7
11
115
21
-7
0
LINE
8
0
10
115
20
-7
11
115
21
7
0
LINE
8
0
10
115
20
7
11
101
21
7
0
LINE
8
0
10
101
20
7
11
101
21
-7
0
LINE
8
0
10
101
20
10
11
115
21
10
0
LINE
8
0
10
115
20
10
11
115
21
24
0
LINE
8
0
10
115
20
24
11
101
21
24
0
LINE
8
0
10
101
20
24
11
101
21
10
0
LINE
8
0
10
101
20
27
11
115
21
27
0
LINE
8
0
10
115
20
27
11
115
21
41
0
LINE
8
0
10
115
20
41
11
101
21
41
0
LINE
8
0
10
101
20
41
11
101
21
27
0
ENDSEC
0
EOF